G04 #@! TF.GenerationSoftware,KiCad,Pcbnew,9.0.5*
G04 #@! TF.CreationDate,2025-11-03T15:22:29-06:00*
G04 #@! TF.ProjectId,T25_445PCB,5432355f-3434-4355-9043-422e6b696361,rev?*
G04 #@! TF.SameCoordinates,Original*
G04 #@! TF.FileFunction,Legend,Top*
G04 #@! TF.FilePolarity,Positive*
%FSLAX46Y46*%
G04 Gerber Fmt 4.6, Leading zero omitted, Abs format (unit mm)*
G04 Created by KiCad (PCBNEW 9.0.5) date 2025-11-03 15:22:29*
%MOMM*%
%LPD*%
G01*
G04 APERTURE LIST*
%ADD10C,0.200000*%
%ADD11C,0.150000*%
%ADD12C,0.300000*%
%ADD13C,0.254000*%
%ADD14C,0.125000*%
%ADD15C,0.120000*%
%ADD16C,0.152400*%
%ADD17C,0.127000*%
%ADD18C,0.100000*%
G04 APERTURE END LIST*
D10*
X71957768Y-64091695D02*
X72224435Y-64891695D01*
X72224435Y-64891695D02*
X72491101Y-64091695D01*
X73138720Y-64091695D02*
X72757768Y-64091695D01*
X72757768Y-64091695D02*
X72719672Y-64472647D01*
X72719672Y-64472647D02*
X72757768Y-64434552D01*
X72757768Y-64434552D02*
X72833958Y-64396457D01*
X72833958Y-64396457D02*
X73024434Y-64396457D01*
X73024434Y-64396457D02*
X73100625Y-64434552D01*
X73100625Y-64434552D02*
X73138720Y-64472647D01*
X73138720Y-64472647D02*
X73176815Y-64548838D01*
X73176815Y-64548838D02*
X73176815Y-64739314D01*
X73176815Y-64739314D02*
X73138720Y-64815504D01*
X73138720Y-64815504D02*
X73100625Y-64853600D01*
X73100625Y-64853600D02*
X73024434Y-64891695D01*
X73024434Y-64891695D02*
X72833958Y-64891695D01*
X72833958Y-64891695D02*
X72757768Y-64853600D01*
X72757768Y-64853600D02*
X72719672Y-64815504D01*
X75207768Y-64091695D02*
X75474435Y-64891695D01*
X75474435Y-64891695D02*
X75741101Y-64091695D01*
X75931577Y-64091695D02*
X76426815Y-64091695D01*
X76426815Y-64091695D02*
X76160149Y-64396457D01*
X76160149Y-64396457D02*
X76274434Y-64396457D01*
X76274434Y-64396457D02*
X76350625Y-64434552D01*
X76350625Y-64434552D02*
X76388720Y-64472647D01*
X76388720Y-64472647D02*
X76426815Y-64548838D01*
X76426815Y-64548838D02*
X76426815Y-64739314D01*
X76426815Y-64739314D02*
X76388720Y-64815504D01*
X76388720Y-64815504D02*
X76350625Y-64853600D01*
X76350625Y-64853600D02*
X76274434Y-64891695D01*
X76274434Y-64891695D02*
X76045863Y-64891695D01*
X76045863Y-64891695D02*
X75969672Y-64853600D01*
X75969672Y-64853600D02*
X75931577Y-64815504D01*
X76769673Y-64815504D02*
X76807768Y-64853600D01*
X76807768Y-64853600D02*
X76769673Y-64891695D01*
X76769673Y-64891695D02*
X76731577Y-64853600D01*
X76731577Y-64853600D02*
X76769673Y-64815504D01*
X76769673Y-64815504D02*
X76769673Y-64891695D01*
X77074434Y-64091695D02*
X77569672Y-64091695D01*
X77569672Y-64091695D02*
X77303006Y-64396457D01*
X77303006Y-64396457D02*
X77417291Y-64396457D01*
X77417291Y-64396457D02*
X77493482Y-64434552D01*
X77493482Y-64434552D02*
X77531577Y-64472647D01*
X77531577Y-64472647D02*
X77569672Y-64548838D01*
X77569672Y-64548838D02*
X77569672Y-64739314D01*
X77569672Y-64739314D02*
X77531577Y-64815504D01*
X77531577Y-64815504D02*
X77493482Y-64853600D01*
X77493482Y-64853600D02*
X77417291Y-64891695D01*
X77417291Y-64891695D02*
X77188720Y-64891695D01*
X77188720Y-64891695D02*
X77112529Y-64853600D01*
X77112529Y-64853600D02*
X77074434Y-64815504D01*
D11*
X130312969Y-54119819D02*
X129836779Y-54119819D01*
X129836779Y-54119819D02*
X129789160Y-54596009D01*
X129789160Y-54596009D02*
X129836779Y-54548390D01*
X129836779Y-54548390D02*
X129932017Y-54500771D01*
X129932017Y-54500771D02*
X130170112Y-54500771D01*
X130170112Y-54500771D02*
X130265350Y-54548390D01*
X130265350Y-54548390D02*
X130312969Y-54596009D01*
X130312969Y-54596009D02*
X130360588Y-54691247D01*
X130360588Y-54691247D02*
X130360588Y-54929342D01*
X130360588Y-54929342D02*
X130312969Y-55024580D01*
X130312969Y-55024580D02*
X130265350Y-55072200D01*
X130265350Y-55072200D02*
X130170112Y-55119819D01*
X130170112Y-55119819D02*
X129932017Y-55119819D01*
X129932017Y-55119819D02*
X129836779Y-55072200D01*
X129836779Y-55072200D02*
X129789160Y-55024580D01*
X130979636Y-54119819D02*
X131074874Y-54119819D01*
X131074874Y-54119819D02*
X131170112Y-54167438D01*
X131170112Y-54167438D02*
X131217731Y-54215057D01*
X131217731Y-54215057D02*
X131265350Y-54310295D01*
X131265350Y-54310295D02*
X131312969Y-54500771D01*
X131312969Y-54500771D02*
X131312969Y-54738866D01*
X131312969Y-54738866D02*
X131265350Y-54929342D01*
X131265350Y-54929342D02*
X131217731Y-55024580D01*
X131217731Y-55024580D02*
X131170112Y-55072200D01*
X131170112Y-55072200D02*
X131074874Y-55119819D01*
X131074874Y-55119819D02*
X130979636Y-55119819D01*
X130979636Y-55119819D02*
X130884398Y-55072200D01*
X130884398Y-55072200D02*
X130836779Y-55024580D01*
X130836779Y-55024580D02*
X130789160Y-54929342D01*
X130789160Y-54929342D02*
X130741541Y-54738866D01*
X130741541Y-54738866D02*
X130741541Y-54500771D01*
X130741541Y-54500771D02*
X130789160Y-54310295D01*
X130789160Y-54310295D02*
X130836779Y-54215057D01*
X130836779Y-54215057D02*
X130884398Y-54167438D01*
X130884398Y-54167438D02*
X130979636Y-54119819D01*
X133027255Y-54167438D02*
X132932017Y-54119819D01*
X132932017Y-54119819D02*
X132789160Y-54119819D01*
X132789160Y-54119819D02*
X132646303Y-54167438D01*
X132646303Y-54167438D02*
X132551065Y-54262676D01*
X132551065Y-54262676D02*
X132503446Y-54357914D01*
X132503446Y-54357914D02*
X132455827Y-54548390D01*
X132455827Y-54548390D02*
X132455827Y-54691247D01*
X132455827Y-54691247D02*
X132503446Y-54881723D01*
X132503446Y-54881723D02*
X132551065Y-54976961D01*
X132551065Y-54976961D02*
X132646303Y-55072200D01*
X132646303Y-55072200D02*
X132789160Y-55119819D01*
X132789160Y-55119819D02*
X132884398Y-55119819D01*
X132884398Y-55119819D02*
X133027255Y-55072200D01*
X133027255Y-55072200D02*
X133074874Y-55024580D01*
X133074874Y-55024580D02*
X133074874Y-54691247D01*
X133074874Y-54691247D02*
X132884398Y-54691247D01*
X133932017Y-55119819D02*
X133932017Y-54596009D01*
X133932017Y-54596009D02*
X133884398Y-54500771D01*
X133884398Y-54500771D02*
X133789160Y-54453152D01*
X133789160Y-54453152D02*
X133598684Y-54453152D01*
X133598684Y-54453152D02*
X133503446Y-54500771D01*
X133932017Y-55072200D02*
X133836779Y-55119819D01*
X133836779Y-55119819D02*
X133598684Y-55119819D01*
X133598684Y-55119819D02*
X133503446Y-55072200D01*
X133503446Y-55072200D02*
X133455827Y-54976961D01*
X133455827Y-54976961D02*
X133455827Y-54881723D01*
X133455827Y-54881723D02*
X133503446Y-54786485D01*
X133503446Y-54786485D02*
X133598684Y-54738866D01*
X133598684Y-54738866D02*
X133836779Y-54738866D01*
X133836779Y-54738866D02*
X133932017Y-54691247D01*
X134408208Y-55119819D02*
X134408208Y-54453152D01*
X134408208Y-54119819D02*
X134360589Y-54167438D01*
X134360589Y-54167438D02*
X134408208Y-54215057D01*
X134408208Y-54215057D02*
X134455827Y-54167438D01*
X134455827Y-54167438D02*
X134408208Y-54119819D01*
X134408208Y-54119819D02*
X134408208Y-54215057D01*
X134884398Y-54453152D02*
X134884398Y-55119819D01*
X134884398Y-54548390D02*
X134932017Y-54500771D01*
X134932017Y-54500771D02*
X135027255Y-54453152D01*
X135027255Y-54453152D02*
X135170112Y-54453152D01*
X135170112Y-54453152D02*
X135265350Y-54500771D01*
X135265350Y-54500771D02*
X135312969Y-54596009D01*
X135312969Y-54596009D02*
X135312969Y-55119819D01*
D12*
X92054510Y-89229400D02*
X93197368Y-89229400D01*
X119054510Y-89729400D02*
X120197368Y-89729400D01*
D11*
X127312969Y-77869819D02*
X126836779Y-77869819D01*
X126836779Y-77869819D02*
X126789160Y-78346009D01*
X126789160Y-78346009D02*
X126836779Y-78298390D01*
X126836779Y-78298390D02*
X126932017Y-78250771D01*
X126932017Y-78250771D02*
X127170112Y-78250771D01*
X127170112Y-78250771D02*
X127265350Y-78298390D01*
X127265350Y-78298390D02*
X127312969Y-78346009D01*
X127312969Y-78346009D02*
X127360588Y-78441247D01*
X127360588Y-78441247D02*
X127360588Y-78679342D01*
X127360588Y-78679342D02*
X127312969Y-78774580D01*
X127312969Y-78774580D02*
X127265350Y-78822200D01*
X127265350Y-78822200D02*
X127170112Y-78869819D01*
X127170112Y-78869819D02*
X126932017Y-78869819D01*
X126932017Y-78869819D02*
X126836779Y-78822200D01*
X126836779Y-78822200D02*
X126789160Y-78774580D01*
X127646303Y-77869819D02*
X127979636Y-78869819D01*
X127979636Y-78869819D02*
X128312969Y-77869819D01*
X75586779Y-52846009D02*
X75920112Y-52846009D01*
X76062969Y-53369819D02*
X75586779Y-53369819D01*
X75586779Y-53369819D02*
X75586779Y-52369819D01*
X75586779Y-52369819D02*
X76062969Y-52369819D01*
X76491541Y-53369819D02*
X76491541Y-52369819D01*
X76491541Y-52369819D02*
X77062969Y-53369819D01*
X77062969Y-53369819D02*
X77062969Y-52369819D01*
X142039160Y-64584104D02*
X142515350Y-64584104D01*
X141943922Y-64869819D02*
X142277255Y-63869819D01*
X142277255Y-63869819D02*
X142610588Y-64869819D01*
X142943922Y-64869819D02*
X142943922Y-64203152D01*
X142943922Y-64298390D02*
X142991541Y-64250771D01*
X142991541Y-64250771D02*
X143086779Y-64203152D01*
X143086779Y-64203152D02*
X143229636Y-64203152D01*
X143229636Y-64203152D02*
X143324874Y-64250771D01*
X143324874Y-64250771D02*
X143372493Y-64346009D01*
X143372493Y-64346009D02*
X143372493Y-64869819D01*
X143372493Y-64346009D02*
X143420112Y-64250771D01*
X143420112Y-64250771D02*
X143515350Y-64203152D01*
X143515350Y-64203152D02*
X143658207Y-64203152D01*
X143658207Y-64203152D02*
X143753446Y-64250771D01*
X143753446Y-64250771D02*
X143801065Y-64346009D01*
X143801065Y-64346009D02*
X143801065Y-64869819D01*
X144277255Y-64203152D02*
X144277255Y-65203152D01*
X144277255Y-64250771D02*
X144372493Y-64203152D01*
X144372493Y-64203152D02*
X144562969Y-64203152D01*
X144562969Y-64203152D02*
X144658207Y-64250771D01*
X144658207Y-64250771D02*
X144705826Y-64298390D01*
X144705826Y-64298390D02*
X144753445Y-64393628D01*
X144753445Y-64393628D02*
X144753445Y-64679342D01*
X144753445Y-64679342D02*
X144705826Y-64774580D01*
X144705826Y-64774580D02*
X144658207Y-64822200D01*
X144658207Y-64822200D02*
X144562969Y-64869819D01*
X144562969Y-64869819D02*
X144372493Y-64869819D01*
X144372493Y-64869819D02*
X144277255Y-64822200D01*
X145658207Y-63869819D02*
X145182017Y-63869819D01*
X145182017Y-63869819D02*
X145134398Y-64346009D01*
X145134398Y-64346009D02*
X145182017Y-64298390D01*
X145182017Y-64298390D02*
X145277255Y-64250771D01*
X145277255Y-64250771D02*
X145515350Y-64250771D01*
X145515350Y-64250771D02*
X145610588Y-64298390D01*
X145610588Y-64298390D02*
X145658207Y-64346009D01*
X145658207Y-64346009D02*
X145705826Y-64441247D01*
X145705826Y-64441247D02*
X145705826Y-64679342D01*
X145705826Y-64679342D02*
X145658207Y-64774580D01*
X145658207Y-64774580D02*
X145610588Y-64822200D01*
X145610588Y-64822200D02*
X145515350Y-64869819D01*
X145515350Y-64869819D02*
X145277255Y-64869819D01*
X145277255Y-64869819D02*
X145182017Y-64822200D01*
X145182017Y-64822200D02*
X145134398Y-64774580D01*
X145991541Y-63869819D02*
X146324874Y-64869819D01*
X146324874Y-64869819D02*
X146658207Y-63869819D01*
X94572200Y-81960839D02*
X94619819Y-81817982D01*
X94619819Y-81817982D02*
X94619819Y-81579887D01*
X94619819Y-81579887D02*
X94572200Y-81484649D01*
X94572200Y-81484649D02*
X94524580Y-81437030D01*
X94524580Y-81437030D02*
X94429342Y-81389411D01*
X94429342Y-81389411D02*
X94334104Y-81389411D01*
X94334104Y-81389411D02*
X94238866Y-81437030D01*
X94238866Y-81437030D02*
X94191247Y-81484649D01*
X94191247Y-81484649D02*
X94143628Y-81579887D01*
X94143628Y-81579887D02*
X94096009Y-81770363D01*
X94096009Y-81770363D02*
X94048390Y-81865601D01*
X94048390Y-81865601D02*
X94000771Y-81913220D01*
X94000771Y-81913220D02*
X93905533Y-81960839D01*
X93905533Y-81960839D02*
X93810295Y-81960839D01*
X93810295Y-81960839D02*
X93715057Y-81913220D01*
X93715057Y-81913220D02*
X93667438Y-81865601D01*
X93667438Y-81865601D02*
X93619819Y-81770363D01*
X93619819Y-81770363D02*
X93619819Y-81532268D01*
X93619819Y-81532268D02*
X93667438Y-81389411D01*
X94096009Y-80960839D02*
X94096009Y-80627506D01*
X94619819Y-80484649D02*
X94619819Y-80960839D01*
X94619819Y-80960839D02*
X93619819Y-80960839D01*
X93619819Y-80960839D02*
X93619819Y-80484649D01*
X94619819Y-79579887D02*
X94619819Y-80056077D01*
X94619819Y-80056077D02*
X93619819Y-80056077D01*
X120170112Y-88346009D02*
X120312969Y-88393628D01*
X120312969Y-88393628D02*
X120360588Y-88441247D01*
X120360588Y-88441247D02*
X120408207Y-88536485D01*
X120408207Y-88536485D02*
X120408207Y-88679342D01*
X120408207Y-88679342D02*
X120360588Y-88774580D01*
X120360588Y-88774580D02*
X120312969Y-88822200D01*
X120312969Y-88822200D02*
X120217731Y-88869819D01*
X120217731Y-88869819D02*
X119836779Y-88869819D01*
X119836779Y-88869819D02*
X119836779Y-87869819D01*
X119836779Y-87869819D02*
X120170112Y-87869819D01*
X120170112Y-87869819D02*
X120265350Y-87917438D01*
X120265350Y-87917438D02*
X120312969Y-87965057D01*
X120312969Y-87965057D02*
X120360588Y-88060295D01*
X120360588Y-88060295D02*
X120360588Y-88155533D01*
X120360588Y-88155533D02*
X120312969Y-88250771D01*
X120312969Y-88250771D02*
X120265350Y-88298390D01*
X120265350Y-88298390D02*
X120170112Y-88346009D01*
X120170112Y-88346009D02*
X119836779Y-88346009D01*
X121265350Y-88869819D02*
X121265350Y-88346009D01*
X121265350Y-88346009D02*
X121217731Y-88250771D01*
X121217731Y-88250771D02*
X121122493Y-88203152D01*
X121122493Y-88203152D02*
X120932017Y-88203152D01*
X120932017Y-88203152D02*
X120836779Y-88250771D01*
X121265350Y-88822200D02*
X121170112Y-88869819D01*
X121170112Y-88869819D02*
X120932017Y-88869819D01*
X120932017Y-88869819D02*
X120836779Y-88822200D01*
X120836779Y-88822200D02*
X120789160Y-88726961D01*
X120789160Y-88726961D02*
X120789160Y-88631723D01*
X120789160Y-88631723D02*
X120836779Y-88536485D01*
X120836779Y-88536485D02*
X120932017Y-88488866D01*
X120932017Y-88488866D02*
X121170112Y-88488866D01*
X121170112Y-88488866D02*
X121265350Y-88441247D01*
X121598684Y-88203152D02*
X121979636Y-88203152D01*
X121741541Y-87869819D02*
X121741541Y-88726961D01*
X121741541Y-88726961D02*
X121789160Y-88822200D01*
X121789160Y-88822200D02*
X121884398Y-88869819D01*
X121884398Y-88869819D02*
X121979636Y-88869819D01*
X122170113Y-88203152D02*
X122551065Y-88203152D01*
X122312970Y-87869819D02*
X122312970Y-88726961D01*
X122312970Y-88726961D02*
X122360589Y-88822200D01*
X122360589Y-88822200D02*
X122455827Y-88869819D01*
X122455827Y-88869819D02*
X122551065Y-88869819D01*
X91586779Y-47596009D02*
X91920112Y-47596009D01*
X92062969Y-48119819D02*
X91586779Y-48119819D01*
X91586779Y-48119819D02*
X91586779Y-47119819D01*
X91586779Y-47119819D02*
X92062969Y-47119819D01*
X92443922Y-48072200D02*
X92586779Y-48119819D01*
X92586779Y-48119819D02*
X92824874Y-48119819D01*
X92824874Y-48119819D02*
X92920112Y-48072200D01*
X92920112Y-48072200D02*
X92967731Y-48024580D01*
X92967731Y-48024580D02*
X93015350Y-47929342D01*
X93015350Y-47929342D02*
X93015350Y-47834104D01*
X93015350Y-47834104D02*
X92967731Y-47738866D01*
X92967731Y-47738866D02*
X92920112Y-47691247D01*
X92920112Y-47691247D02*
X92824874Y-47643628D01*
X92824874Y-47643628D02*
X92634398Y-47596009D01*
X92634398Y-47596009D02*
X92539160Y-47548390D01*
X92539160Y-47548390D02*
X92491541Y-47500771D01*
X92491541Y-47500771D02*
X92443922Y-47405533D01*
X92443922Y-47405533D02*
X92443922Y-47310295D01*
X92443922Y-47310295D02*
X92491541Y-47215057D01*
X92491541Y-47215057D02*
X92539160Y-47167438D01*
X92539160Y-47167438D02*
X92634398Y-47119819D01*
X92634398Y-47119819D02*
X92872493Y-47119819D01*
X92872493Y-47119819D02*
X93015350Y-47167438D01*
X93443922Y-48119819D02*
X93443922Y-47119819D01*
X93443922Y-47119819D02*
X93824874Y-47119819D01*
X93824874Y-47119819D02*
X93920112Y-47167438D01*
X93920112Y-47167438D02*
X93967731Y-47215057D01*
X93967731Y-47215057D02*
X94015350Y-47310295D01*
X94015350Y-47310295D02*
X94015350Y-47453152D01*
X94015350Y-47453152D02*
X93967731Y-47548390D01*
X93967731Y-47548390D02*
X93920112Y-47596009D01*
X93920112Y-47596009D02*
X93824874Y-47643628D01*
X93824874Y-47643628D02*
X93443922Y-47643628D01*
X94348684Y-47119819D02*
X94967731Y-47119819D01*
X94967731Y-47119819D02*
X94634398Y-47500771D01*
X94634398Y-47500771D02*
X94777255Y-47500771D01*
X94777255Y-47500771D02*
X94872493Y-47548390D01*
X94872493Y-47548390D02*
X94920112Y-47596009D01*
X94920112Y-47596009D02*
X94967731Y-47691247D01*
X94967731Y-47691247D02*
X94967731Y-47929342D01*
X94967731Y-47929342D02*
X94920112Y-48024580D01*
X94920112Y-48024580D02*
X94872493Y-48072200D01*
X94872493Y-48072200D02*
X94777255Y-48119819D01*
X94777255Y-48119819D02*
X94491541Y-48119819D01*
X94491541Y-48119819D02*
X94396303Y-48072200D01*
X94396303Y-48072200D02*
X94348684Y-48024580D01*
X95396303Y-48024580D02*
X95443922Y-48072200D01*
X95443922Y-48072200D02*
X95396303Y-48119819D01*
X95396303Y-48119819D02*
X95348684Y-48072200D01*
X95348684Y-48072200D02*
X95396303Y-48024580D01*
X95396303Y-48024580D02*
X95396303Y-48119819D01*
X95777255Y-47119819D02*
X96396302Y-47119819D01*
X96396302Y-47119819D02*
X96062969Y-47500771D01*
X96062969Y-47500771D02*
X96205826Y-47500771D01*
X96205826Y-47500771D02*
X96301064Y-47548390D01*
X96301064Y-47548390D02*
X96348683Y-47596009D01*
X96348683Y-47596009D02*
X96396302Y-47691247D01*
X96396302Y-47691247D02*
X96396302Y-47929342D01*
X96396302Y-47929342D02*
X96348683Y-48024580D01*
X96348683Y-48024580D02*
X96301064Y-48072200D01*
X96301064Y-48072200D02*
X96205826Y-48119819D01*
X96205826Y-48119819D02*
X95920112Y-48119819D01*
X95920112Y-48119819D02*
X95824874Y-48072200D01*
X95824874Y-48072200D02*
X95777255Y-48024580D01*
X96682017Y-47119819D02*
X97015350Y-48119819D01*
X97015350Y-48119819D02*
X97348683Y-47119819D01*
D12*
X85554510Y-89229400D02*
X86697368Y-89229400D01*
X86125939Y-89800828D02*
X86125939Y-88657971D01*
D11*
X85119819Y-82056077D02*
X85119819Y-81484649D01*
X86119819Y-81770363D02*
X85119819Y-81770363D01*
X85119819Y-80960839D02*
X85119819Y-80770363D01*
X85119819Y-80770363D02*
X85167438Y-80675125D01*
X85167438Y-80675125D02*
X85262676Y-80579887D01*
X85262676Y-80579887D02*
X85453152Y-80532268D01*
X85453152Y-80532268D02*
X85786485Y-80532268D01*
X85786485Y-80532268D02*
X85976961Y-80579887D01*
X85976961Y-80579887D02*
X86072200Y-80675125D01*
X86072200Y-80675125D02*
X86119819Y-80770363D01*
X86119819Y-80770363D02*
X86119819Y-80960839D01*
X86119819Y-80960839D02*
X86072200Y-81056077D01*
X86072200Y-81056077D02*
X85976961Y-81151315D01*
X85976961Y-81151315D02*
X85786485Y-81198934D01*
X85786485Y-81198934D02*
X85453152Y-81198934D01*
X85453152Y-81198934D02*
X85262676Y-81151315D01*
X85262676Y-81151315D02*
X85167438Y-81056077D01*
X85167438Y-81056077D02*
X85119819Y-80960839D01*
X85167438Y-79579887D02*
X85119819Y-79675125D01*
X85119819Y-79675125D02*
X85119819Y-79817982D01*
X85119819Y-79817982D02*
X85167438Y-79960839D01*
X85167438Y-79960839D02*
X85262676Y-80056077D01*
X85262676Y-80056077D02*
X85357914Y-80103696D01*
X85357914Y-80103696D02*
X85548390Y-80151315D01*
X85548390Y-80151315D02*
X85691247Y-80151315D01*
X85691247Y-80151315D02*
X85881723Y-80103696D01*
X85881723Y-80103696D02*
X85976961Y-80056077D01*
X85976961Y-80056077D02*
X86072200Y-79960839D01*
X86072200Y-79960839D02*
X86119819Y-79817982D01*
X86119819Y-79817982D02*
X86119819Y-79722744D01*
X86119819Y-79722744D02*
X86072200Y-79579887D01*
X86072200Y-79579887D02*
X86024580Y-79532268D01*
X86024580Y-79532268D02*
X85691247Y-79532268D01*
X85691247Y-79532268D02*
X85691247Y-79722744D01*
X139586779Y-71869819D02*
X139586779Y-70869819D01*
X139586779Y-70869819D02*
X139967731Y-70869819D01*
X139967731Y-70869819D02*
X140062969Y-70917438D01*
X140062969Y-70917438D02*
X140110588Y-70965057D01*
X140110588Y-70965057D02*
X140158207Y-71060295D01*
X140158207Y-71060295D02*
X140158207Y-71203152D01*
X140158207Y-71203152D02*
X140110588Y-71298390D01*
X140110588Y-71298390D02*
X140062969Y-71346009D01*
X140062969Y-71346009D02*
X139967731Y-71393628D01*
X139967731Y-71393628D02*
X139586779Y-71393628D01*
X140491541Y-70869819D02*
X140729636Y-71869819D01*
X140729636Y-71869819D02*
X140920112Y-71155533D01*
X140920112Y-71155533D02*
X141110588Y-71869819D01*
X141110588Y-71869819D02*
X141348684Y-70869819D01*
X141729636Y-71869819D02*
X141729636Y-70869819D01*
X141729636Y-70869819D02*
X142062969Y-71584104D01*
X142062969Y-71584104D02*
X142396302Y-70869819D01*
X142396302Y-70869819D02*
X142396302Y-71869819D01*
X75110588Y-85417438D02*
X75015350Y-85369819D01*
X75015350Y-85369819D02*
X74872493Y-85369819D01*
X74872493Y-85369819D02*
X74729636Y-85417438D01*
X74729636Y-85417438D02*
X74634398Y-85512676D01*
X74634398Y-85512676D02*
X74586779Y-85607914D01*
X74586779Y-85607914D02*
X74539160Y-85798390D01*
X74539160Y-85798390D02*
X74539160Y-85941247D01*
X74539160Y-85941247D02*
X74586779Y-86131723D01*
X74586779Y-86131723D02*
X74634398Y-86226961D01*
X74634398Y-86226961D02*
X74729636Y-86322200D01*
X74729636Y-86322200D02*
X74872493Y-86369819D01*
X74872493Y-86369819D02*
X74967731Y-86369819D01*
X74967731Y-86369819D02*
X75110588Y-86322200D01*
X75110588Y-86322200D02*
X75158207Y-86274580D01*
X75158207Y-86274580D02*
X75158207Y-85941247D01*
X75158207Y-85941247D02*
X74967731Y-85941247D01*
X75586779Y-86369819D02*
X75586779Y-85369819D01*
X75586779Y-85369819D02*
X76158207Y-86369819D01*
X76158207Y-86369819D02*
X76158207Y-85369819D01*
X76634398Y-86369819D02*
X76634398Y-85369819D01*
X76634398Y-85369819D02*
X76872493Y-85369819D01*
X76872493Y-85369819D02*
X77015350Y-85417438D01*
X77015350Y-85417438D02*
X77110588Y-85512676D01*
X77110588Y-85512676D02*
X77158207Y-85607914D01*
X77158207Y-85607914D02*
X77205826Y-85798390D01*
X77205826Y-85798390D02*
X77205826Y-85941247D01*
X77205826Y-85941247D02*
X77158207Y-86131723D01*
X77158207Y-86131723D02*
X77110588Y-86226961D01*
X77110588Y-86226961D02*
X77015350Y-86322200D01*
X77015350Y-86322200D02*
X76872493Y-86369819D01*
X76872493Y-86369819D02*
X76634398Y-86369819D01*
X119836779Y-61619819D02*
X119836779Y-60619819D01*
X120503445Y-60619819D02*
X120693921Y-60619819D01*
X120693921Y-60619819D02*
X120789159Y-60667438D01*
X120789159Y-60667438D02*
X120884397Y-60762676D01*
X120884397Y-60762676D02*
X120932016Y-60953152D01*
X120932016Y-60953152D02*
X120932016Y-61286485D01*
X120932016Y-61286485D02*
X120884397Y-61476961D01*
X120884397Y-61476961D02*
X120789159Y-61572200D01*
X120789159Y-61572200D02*
X120693921Y-61619819D01*
X120693921Y-61619819D02*
X120503445Y-61619819D01*
X120503445Y-61619819D02*
X120408207Y-61572200D01*
X120408207Y-61572200D02*
X120312969Y-61476961D01*
X120312969Y-61476961D02*
X120265350Y-61286485D01*
X120265350Y-61286485D02*
X120265350Y-60953152D01*
X120265350Y-60953152D02*
X120312969Y-60762676D01*
X120312969Y-60762676D02*
X120408207Y-60667438D01*
X120408207Y-60667438D02*
X120503445Y-60619819D01*
X121551064Y-60619819D02*
X121646302Y-60619819D01*
X121646302Y-60619819D02*
X121741540Y-60667438D01*
X121741540Y-60667438D02*
X121789159Y-60715057D01*
X121789159Y-60715057D02*
X121836778Y-60810295D01*
X121836778Y-60810295D02*
X121884397Y-61000771D01*
X121884397Y-61000771D02*
X121884397Y-61238866D01*
X121884397Y-61238866D02*
X121836778Y-61429342D01*
X121836778Y-61429342D02*
X121789159Y-61524580D01*
X121789159Y-61524580D02*
X121741540Y-61572200D01*
X121741540Y-61572200D02*
X121646302Y-61619819D01*
X121646302Y-61619819D02*
X121551064Y-61619819D01*
X121551064Y-61619819D02*
X121455826Y-61572200D01*
X121455826Y-61572200D02*
X121408207Y-61524580D01*
X121408207Y-61524580D02*
X121360588Y-61429342D01*
X121360588Y-61429342D02*
X121312969Y-61238866D01*
X121312969Y-61238866D02*
X121312969Y-61000771D01*
X121312969Y-61000771D02*
X121360588Y-60810295D01*
X121360588Y-60810295D02*
X121408207Y-60715057D01*
X121408207Y-60715057D02*
X121455826Y-60667438D01*
X121455826Y-60667438D02*
X121551064Y-60619819D01*
D12*
X153289510Y-47459400D02*
X154432368Y-47459400D01*
D11*
X137357142Y-42364216D02*
X137833332Y-42364216D01*
X137261904Y-42649931D02*
X137595237Y-41649931D01*
X137595237Y-41649931D02*
X137928570Y-42649931D01*
X138690475Y-41983264D02*
X138690475Y-42649931D01*
X138261904Y-41983264D02*
X138261904Y-42507073D01*
X138261904Y-42507073D02*
X138309523Y-42602312D01*
X138309523Y-42602312D02*
X138404761Y-42649931D01*
X138404761Y-42649931D02*
X138547618Y-42649931D01*
X138547618Y-42649931D02*
X138642856Y-42602312D01*
X138642856Y-42602312D02*
X138690475Y-42554692D01*
X139023809Y-41983264D02*
X139404761Y-41983264D01*
X139166666Y-41649931D02*
X139166666Y-42507073D01*
X139166666Y-42507073D02*
X139214285Y-42602312D01*
X139214285Y-42602312D02*
X139309523Y-42649931D01*
X139309523Y-42649931D02*
X139404761Y-42649931D01*
X139880952Y-42649931D02*
X139785714Y-42602312D01*
X139785714Y-42602312D02*
X139738095Y-42554692D01*
X139738095Y-42554692D02*
X139690476Y-42459454D01*
X139690476Y-42459454D02*
X139690476Y-42173740D01*
X139690476Y-42173740D02*
X139738095Y-42078502D01*
X139738095Y-42078502D02*
X139785714Y-42030883D01*
X139785714Y-42030883D02*
X139880952Y-41983264D01*
X139880952Y-41983264D02*
X140023809Y-41983264D01*
X140023809Y-41983264D02*
X140119047Y-42030883D01*
X140119047Y-42030883D02*
X140166666Y-42078502D01*
X140166666Y-42078502D02*
X140214285Y-42173740D01*
X140214285Y-42173740D02*
X140214285Y-42459454D01*
X140214285Y-42459454D02*
X140166666Y-42554692D01*
X140166666Y-42554692D02*
X140119047Y-42602312D01*
X140119047Y-42602312D02*
X140023809Y-42649931D01*
X140023809Y-42649931D02*
X139880952Y-42649931D01*
X140642857Y-42268978D02*
X141404762Y-42268978D01*
X142404761Y-41697550D02*
X142309523Y-41649931D01*
X142309523Y-41649931D02*
X142166666Y-41649931D01*
X142166666Y-41649931D02*
X142023809Y-41697550D01*
X142023809Y-41697550D02*
X141928571Y-41792788D01*
X141928571Y-41792788D02*
X141880952Y-41888026D01*
X141880952Y-41888026D02*
X141833333Y-42078502D01*
X141833333Y-42078502D02*
X141833333Y-42221359D01*
X141833333Y-42221359D02*
X141880952Y-42411835D01*
X141880952Y-42411835D02*
X141928571Y-42507073D01*
X141928571Y-42507073D02*
X142023809Y-42602312D01*
X142023809Y-42602312D02*
X142166666Y-42649931D01*
X142166666Y-42649931D02*
X142261904Y-42649931D01*
X142261904Y-42649931D02*
X142404761Y-42602312D01*
X142404761Y-42602312D02*
X142452380Y-42554692D01*
X142452380Y-42554692D02*
X142452380Y-42221359D01*
X142452380Y-42221359D02*
X142261904Y-42221359D01*
X143309523Y-41983264D02*
X143309523Y-42649931D01*
X142880952Y-41983264D02*
X142880952Y-42507073D01*
X142880952Y-42507073D02*
X142928571Y-42602312D01*
X142928571Y-42602312D02*
X143023809Y-42649931D01*
X143023809Y-42649931D02*
X143166666Y-42649931D01*
X143166666Y-42649931D02*
X143261904Y-42602312D01*
X143261904Y-42602312D02*
X143309523Y-42554692D01*
X143785714Y-42649931D02*
X143785714Y-41983264D01*
X143785714Y-41649931D02*
X143738095Y-41697550D01*
X143738095Y-41697550D02*
X143785714Y-41745169D01*
X143785714Y-41745169D02*
X143833333Y-41697550D01*
X143833333Y-41697550D02*
X143785714Y-41649931D01*
X143785714Y-41649931D02*
X143785714Y-41745169D01*
X144119047Y-41983264D02*
X144499999Y-41983264D01*
X144261904Y-41649931D02*
X144261904Y-42507073D01*
X144261904Y-42507073D02*
X144309523Y-42602312D01*
X144309523Y-42602312D02*
X144404761Y-42649931D01*
X144404761Y-42649931D02*
X144499999Y-42649931D01*
X145261904Y-42649931D02*
X145261904Y-42126121D01*
X145261904Y-42126121D02*
X145214285Y-42030883D01*
X145214285Y-42030883D02*
X145119047Y-41983264D01*
X145119047Y-41983264D02*
X144928571Y-41983264D01*
X144928571Y-41983264D02*
X144833333Y-42030883D01*
X145261904Y-42602312D02*
X145166666Y-42649931D01*
X145166666Y-42649931D02*
X144928571Y-42649931D01*
X144928571Y-42649931D02*
X144833333Y-42602312D01*
X144833333Y-42602312D02*
X144785714Y-42507073D01*
X144785714Y-42507073D02*
X144785714Y-42411835D01*
X144785714Y-42411835D02*
X144833333Y-42316597D01*
X144833333Y-42316597D02*
X144928571Y-42268978D01*
X144928571Y-42268978D02*
X145166666Y-42268978D01*
X145166666Y-42268978D02*
X145261904Y-42221359D01*
X145738095Y-42649931D02*
X145738095Y-41983264D01*
X145738095Y-42173740D02*
X145785714Y-42078502D01*
X145785714Y-42078502D02*
X145833333Y-42030883D01*
X145833333Y-42030883D02*
X145928571Y-41983264D01*
X145928571Y-41983264D02*
X146023809Y-41983264D01*
X146976191Y-41649931D02*
X147547619Y-41649931D01*
X147261905Y-42649931D02*
X147261905Y-41649931D01*
X148309524Y-41983264D02*
X148309524Y-42649931D01*
X147880953Y-41983264D02*
X147880953Y-42507073D01*
X147880953Y-42507073D02*
X147928572Y-42602312D01*
X147928572Y-42602312D02*
X148023810Y-42649931D01*
X148023810Y-42649931D02*
X148166667Y-42649931D01*
X148166667Y-42649931D02*
X148261905Y-42602312D01*
X148261905Y-42602312D02*
X148309524Y-42554692D01*
X148785715Y-41983264D02*
X148785715Y-42649931D01*
X148785715Y-42078502D02*
X148833334Y-42030883D01*
X148833334Y-42030883D02*
X148928572Y-41983264D01*
X148928572Y-41983264D02*
X149071429Y-41983264D01*
X149071429Y-41983264D02*
X149166667Y-42030883D01*
X149166667Y-42030883D02*
X149214286Y-42126121D01*
X149214286Y-42126121D02*
X149214286Y-42649931D01*
X150071429Y-42602312D02*
X149976191Y-42649931D01*
X149976191Y-42649931D02*
X149785715Y-42649931D01*
X149785715Y-42649931D02*
X149690477Y-42602312D01*
X149690477Y-42602312D02*
X149642858Y-42507073D01*
X149642858Y-42507073D02*
X149642858Y-42126121D01*
X149642858Y-42126121D02*
X149690477Y-42030883D01*
X149690477Y-42030883D02*
X149785715Y-41983264D01*
X149785715Y-41983264D02*
X149976191Y-41983264D01*
X149976191Y-41983264D02*
X150071429Y-42030883D01*
X150071429Y-42030883D02*
X150119048Y-42126121D01*
X150119048Y-42126121D02*
X150119048Y-42221359D01*
X150119048Y-42221359D02*
X149642858Y-42316597D01*
X150547620Y-42649931D02*
X150547620Y-41983264D01*
X150547620Y-42173740D02*
X150595239Y-42078502D01*
X150595239Y-42078502D02*
X150642858Y-42030883D01*
X150642858Y-42030883D02*
X150738096Y-41983264D01*
X150738096Y-41983264D02*
X150833334Y-41983264D01*
X151833335Y-41983264D02*
X152071430Y-42649931D01*
X152071430Y-42649931D02*
X152309525Y-41983264D01*
X152595240Y-41649931D02*
X153214287Y-41649931D01*
X153214287Y-41649931D02*
X152880954Y-42030883D01*
X152880954Y-42030883D02*
X153023811Y-42030883D01*
X153023811Y-42030883D02*
X153119049Y-42078502D01*
X153119049Y-42078502D02*
X153166668Y-42126121D01*
X153166668Y-42126121D02*
X153214287Y-42221359D01*
X153214287Y-42221359D02*
X153214287Y-42459454D01*
X153214287Y-42459454D02*
X153166668Y-42554692D01*
X153166668Y-42554692D02*
X153119049Y-42602312D01*
X153119049Y-42602312D02*
X153023811Y-42649931D01*
X153023811Y-42649931D02*
X152738097Y-42649931D01*
X152738097Y-42649931D02*
X152642859Y-42602312D01*
X152642859Y-42602312D02*
X152595240Y-42554692D01*
X153642859Y-42554692D02*
X153690478Y-42602312D01*
X153690478Y-42602312D02*
X153642859Y-42649931D01*
X153642859Y-42649931D02*
X153595240Y-42602312D01*
X153595240Y-42602312D02*
X153642859Y-42554692D01*
X153642859Y-42554692D02*
X153642859Y-42649931D01*
X154071430Y-41745169D02*
X154119049Y-41697550D01*
X154119049Y-41697550D02*
X154214287Y-41649931D01*
X154214287Y-41649931D02*
X154452382Y-41649931D01*
X154452382Y-41649931D02*
X154547620Y-41697550D01*
X154547620Y-41697550D02*
X154595239Y-41745169D01*
X154595239Y-41745169D02*
X154642858Y-41840407D01*
X154642858Y-41840407D02*
X154642858Y-41935645D01*
X154642858Y-41935645D02*
X154595239Y-42078502D01*
X154595239Y-42078502D02*
X154023811Y-42649931D01*
X154023811Y-42649931D02*
X154642858Y-42649931D01*
X141619048Y-43355113D02*
X141666667Y-43307494D01*
X141666667Y-43307494D02*
X141761905Y-43259875D01*
X141761905Y-43259875D02*
X142000000Y-43259875D01*
X142000000Y-43259875D02*
X142095238Y-43307494D01*
X142095238Y-43307494D02*
X142142857Y-43355113D01*
X142142857Y-43355113D02*
X142190476Y-43450351D01*
X142190476Y-43450351D02*
X142190476Y-43545589D01*
X142190476Y-43545589D02*
X142142857Y-43688446D01*
X142142857Y-43688446D02*
X141571429Y-44259875D01*
X141571429Y-44259875D02*
X142190476Y-44259875D01*
X142809524Y-43259875D02*
X142904762Y-43259875D01*
X142904762Y-43259875D02*
X143000000Y-43307494D01*
X143000000Y-43307494D02*
X143047619Y-43355113D01*
X143047619Y-43355113D02*
X143095238Y-43450351D01*
X143095238Y-43450351D02*
X143142857Y-43640827D01*
X143142857Y-43640827D02*
X143142857Y-43878922D01*
X143142857Y-43878922D02*
X143095238Y-44069398D01*
X143095238Y-44069398D02*
X143047619Y-44164636D01*
X143047619Y-44164636D02*
X143000000Y-44212256D01*
X143000000Y-44212256D02*
X142904762Y-44259875D01*
X142904762Y-44259875D02*
X142809524Y-44259875D01*
X142809524Y-44259875D02*
X142714286Y-44212256D01*
X142714286Y-44212256D02*
X142666667Y-44164636D01*
X142666667Y-44164636D02*
X142619048Y-44069398D01*
X142619048Y-44069398D02*
X142571429Y-43878922D01*
X142571429Y-43878922D02*
X142571429Y-43640827D01*
X142571429Y-43640827D02*
X142619048Y-43450351D01*
X142619048Y-43450351D02*
X142666667Y-43355113D01*
X142666667Y-43355113D02*
X142714286Y-43307494D01*
X142714286Y-43307494D02*
X142809524Y-43259875D01*
X143523810Y-43355113D02*
X143571429Y-43307494D01*
X143571429Y-43307494D02*
X143666667Y-43259875D01*
X143666667Y-43259875D02*
X143904762Y-43259875D01*
X143904762Y-43259875D02*
X144000000Y-43307494D01*
X144000000Y-43307494D02*
X144047619Y-43355113D01*
X144047619Y-43355113D02*
X144095238Y-43450351D01*
X144095238Y-43450351D02*
X144095238Y-43545589D01*
X144095238Y-43545589D02*
X144047619Y-43688446D01*
X144047619Y-43688446D02*
X143476191Y-44259875D01*
X143476191Y-44259875D02*
X144095238Y-44259875D01*
X145000000Y-43259875D02*
X144523810Y-43259875D01*
X144523810Y-43259875D02*
X144476191Y-43736065D01*
X144476191Y-43736065D02*
X144523810Y-43688446D01*
X144523810Y-43688446D02*
X144619048Y-43640827D01*
X144619048Y-43640827D02*
X144857143Y-43640827D01*
X144857143Y-43640827D02*
X144952381Y-43688446D01*
X144952381Y-43688446D02*
X145000000Y-43736065D01*
X145000000Y-43736065D02*
X145047619Y-43831303D01*
X145047619Y-43831303D02*
X145047619Y-44069398D01*
X145047619Y-44069398D02*
X145000000Y-44164636D01*
X145000000Y-44164636D02*
X144952381Y-44212256D01*
X144952381Y-44212256D02*
X144857143Y-44259875D01*
X144857143Y-44259875D02*
X144619048Y-44259875D01*
X144619048Y-44259875D02*
X144523810Y-44212256D01*
X144523810Y-44212256D02*
X144476191Y-44164636D01*
X145476191Y-43878922D02*
X146238096Y-43878922D01*
X147238095Y-44259875D02*
X146666667Y-44259875D01*
X146952381Y-44259875D02*
X146952381Y-43259875D01*
X146952381Y-43259875D02*
X146857143Y-43402732D01*
X146857143Y-43402732D02*
X146761905Y-43497970D01*
X146761905Y-43497970D02*
X146666667Y-43545589D01*
X148190476Y-44259875D02*
X147619048Y-44259875D01*
X147904762Y-44259875D02*
X147904762Y-43259875D01*
X147904762Y-43259875D02*
X147809524Y-43402732D01*
X147809524Y-43402732D02*
X147714286Y-43497970D01*
X147714286Y-43497970D02*
X147619048Y-43545589D01*
X148619048Y-43878922D02*
X149380953Y-43878922D01*
X149761905Y-43259875D02*
X150380952Y-43259875D01*
X150380952Y-43259875D02*
X150047619Y-43640827D01*
X150047619Y-43640827D02*
X150190476Y-43640827D01*
X150190476Y-43640827D02*
X150285714Y-43688446D01*
X150285714Y-43688446D02*
X150333333Y-43736065D01*
X150333333Y-43736065D02*
X150380952Y-43831303D01*
X150380952Y-43831303D02*
X150380952Y-44069398D01*
X150380952Y-44069398D02*
X150333333Y-44164636D01*
X150333333Y-44164636D02*
X150285714Y-44212256D01*
X150285714Y-44212256D02*
X150190476Y-44259875D01*
X150190476Y-44259875D02*
X149904762Y-44259875D01*
X149904762Y-44259875D02*
X149809524Y-44212256D01*
X149809524Y-44212256D02*
X149761905Y-44164636D01*
X142833333Y-44869819D02*
X143404761Y-44869819D01*
X143119047Y-45869819D02*
X143119047Y-44869819D01*
X144119047Y-45822200D02*
X144023809Y-45869819D01*
X144023809Y-45869819D02*
X143833333Y-45869819D01*
X143833333Y-45869819D02*
X143738095Y-45822200D01*
X143738095Y-45822200D02*
X143690476Y-45726961D01*
X143690476Y-45726961D02*
X143690476Y-45346009D01*
X143690476Y-45346009D02*
X143738095Y-45250771D01*
X143738095Y-45250771D02*
X143833333Y-45203152D01*
X143833333Y-45203152D02*
X144023809Y-45203152D01*
X144023809Y-45203152D02*
X144119047Y-45250771D01*
X144119047Y-45250771D02*
X144166666Y-45346009D01*
X144166666Y-45346009D02*
X144166666Y-45441247D01*
X144166666Y-45441247D02*
X143690476Y-45536485D01*
X145023809Y-45869819D02*
X145023809Y-45346009D01*
X145023809Y-45346009D02*
X144976190Y-45250771D01*
X144976190Y-45250771D02*
X144880952Y-45203152D01*
X144880952Y-45203152D02*
X144690476Y-45203152D01*
X144690476Y-45203152D02*
X144595238Y-45250771D01*
X145023809Y-45822200D02*
X144928571Y-45869819D01*
X144928571Y-45869819D02*
X144690476Y-45869819D01*
X144690476Y-45869819D02*
X144595238Y-45822200D01*
X144595238Y-45822200D02*
X144547619Y-45726961D01*
X144547619Y-45726961D02*
X144547619Y-45631723D01*
X144547619Y-45631723D02*
X144595238Y-45536485D01*
X144595238Y-45536485D02*
X144690476Y-45488866D01*
X144690476Y-45488866D02*
X144928571Y-45488866D01*
X144928571Y-45488866D02*
X145023809Y-45441247D01*
X145500000Y-45869819D02*
X145500000Y-45203152D01*
X145500000Y-45298390D02*
X145547619Y-45250771D01*
X145547619Y-45250771D02*
X145642857Y-45203152D01*
X145642857Y-45203152D02*
X145785714Y-45203152D01*
X145785714Y-45203152D02*
X145880952Y-45250771D01*
X145880952Y-45250771D02*
X145928571Y-45346009D01*
X145928571Y-45346009D02*
X145928571Y-45869819D01*
X145928571Y-45346009D02*
X145976190Y-45250771D01*
X145976190Y-45250771D02*
X146071428Y-45203152D01*
X146071428Y-45203152D02*
X146214285Y-45203152D01*
X146214285Y-45203152D02*
X146309524Y-45250771D01*
X146309524Y-45250771D02*
X146357143Y-45346009D01*
X146357143Y-45346009D02*
X146357143Y-45869819D01*
X147547619Y-44965057D02*
X147595238Y-44917438D01*
X147595238Y-44917438D02*
X147690476Y-44869819D01*
X147690476Y-44869819D02*
X147928571Y-44869819D01*
X147928571Y-44869819D02*
X148023809Y-44917438D01*
X148023809Y-44917438D02*
X148071428Y-44965057D01*
X148071428Y-44965057D02*
X148119047Y-45060295D01*
X148119047Y-45060295D02*
X148119047Y-45155533D01*
X148119047Y-45155533D02*
X148071428Y-45298390D01*
X148071428Y-45298390D02*
X147500000Y-45869819D01*
X147500000Y-45869819D02*
X148119047Y-45869819D01*
X149023809Y-44869819D02*
X148547619Y-44869819D01*
X148547619Y-44869819D02*
X148500000Y-45346009D01*
X148500000Y-45346009D02*
X148547619Y-45298390D01*
X148547619Y-45298390D02*
X148642857Y-45250771D01*
X148642857Y-45250771D02*
X148880952Y-45250771D01*
X148880952Y-45250771D02*
X148976190Y-45298390D01*
X148976190Y-45298390D02*
X149023809Y-45346009D01*
X149023809Y-45346009D02*
X149071428Y-45441247D01*
X149071428Y-45441247D02*
X149071428Y-45679342D01*
X149071428Y-45679342D02*
X149023809Y-45774580D01*
X149023809Y-45774580D02*
X148976190Y-45822200D01*
X148976190Y-45822200D02*
X148880952Y-45869819D01*
X148880952Y-45869819D02*
X148642857Y-45869819D01*
X148642857Y-45869819D02*
X148547619Y-45822200D01*
X148547619Y-45822200D02*
X148500000Y-45774580D01*
D12*
X94554510Y-89229400D02*
X95697368Y-89229400D01*
X95125939Y-89800828D02*
X95125939Y-88657971D01*
D11*
X105408207Y-69024580D02*
X105360588Y-69072200D01*
X105360588Y-69072200D02*
X105217731Y-69119819D01*
X105217731Y-69119819D02*
X105122493Y-69119819D01*
X105122493Y-69119819D02*
X104979636Y-69072200D01*
X104979636Y-69072200D02*
X104884398Y-68976961D01*
X104884398Y-68976961D02*
X104836779Y-68881723D01*
X104836779Y-68881723D02*
X104789160Y-68691247D01*
X104789160Y-68691247D02*
X104789160Y-68548390D01*
X104789160Y-68548390D02*
X104836779Y-68357914D01*
X104836779Y-68357914D02*
X104884398Y-68262676D01*
X104884398Y-68262676D02*
X104979636Y-68167438D01*
X104979636Y-68167438D02*
X105122493Y-68119819D01*
X105122493Y-68119819D02*
X105217731Y-68119819D01*
X105217731Y-68119819D02*
X105360588Y-68167438D01*
X105360588Y-68167438D02*
X105408207Y-68215057D01*
X106312969Y-69119819D02*
X105836779Y-69119819D01*
X105836779Y-69119819D02*
X105836779Y-68119819D01*
X106646303Y-69119819D02*
X106646303Y-68119819D01*
X107217731Y-69119819D02*
X106789160Y-68548390D01*
X107217731Y-68119819D02*
X106646303Y-68691247D01*
D12*
X114554510Y-89729400D02*
X115697368Y-89729400D01*
X115125939Y-90300828D02*
X115125939Y-89157971D01*
X150554510Y-63979400D02*
X151697368Y-63979400D01*
X151125939Y-64550828D02*
X151125939Y-63407971D01*
D11*
X71860588Y-47167438D02*
X71765350Y-47119819D01*
X71765350Y-47119819D02*
X71622493Y-47119819D01*
X71622493Y-47119819D02*
X71479636Y-47167438D01*
X71479636Y-47167438D02*
X71384398Y-47262676D01*
X71384398Y-47262676D02*
X71336779Y-47357914D01*
X71336779Y-47357914D02*
X71289160Y-47548390D01*
X71289160Y-47548390D02*
X71289160Y-47691247D01*
X71289160Y-47691247D02*
X71336779Y-47881723D01*
X71336779Y-47881723D02*
X71384398Y-47976961D01*
X71384398Y-47976961D02*
X71479636Y-48072200D01*
X71479636Y-48072200D02*
X71622493Y-48119819D01*
X71622493Y-48119819D02*
X71717731Y-48119819D01*
X71717731Y-48119819D02*
X71860588Y-48072200D01*
X71860588Y-48072200D02*
X71908207Y-48024580D01*
X71908207Y-48024580D02*
X71908207Y-47691247D01*
X71908207Y-47691247D02*
X71717731Y-47691247D01*
X72336779Y-48119819D02*
X72336779Y-47119819D01*
X72336779Y-47119819D02*
X72908207Y-48119819D01*
X72908207Y-48119819D02*
X72908207Y-47119819D01*
X73384398Y-48119819D02*
X73384398Y-47119819D01*
X73384398Y-47119819D02*
X73622493Y-47119819D01*
X73622493Y-47119819D02*
X73765350Y-47167438D01*
X73765350Y-47167438D02*
X73860588Y-47262676D01*
X73860588Y-47262676D02*
X73908207Y-47357914D01*
X73908207Y-47357914D02*
X73955826Y-47548390D01*
X73955826Y-47548390D02*
X73955826Y-47691247D01*
X73955826Y-47691247D02*
X73908207Y-47881723D01*
X73908207Y-47881723D02*
X73860588Y-47976961D01*
X73860588Y-47976961D02*
X73765350Y-48072200D01*
X73765350Y-48072200D02*
X73622493Y-48119819D01*
X73622493Y-48119819D02*
X73384398Y-48119819D01*
X143360588Y-79667438D02*
X143265350Y-79619819D01*
X143265350Y-79619819D02*
X143122493Y-79619819D01*
X143122493Y-79619819D02*
X142979636Y-79667438D01*
X142979636Y-79667438D02*
X142884398Y-79762676D01*
X142884398Y-79762676D02*
X142836779Y-79857914D01*
X142836779Y-79857914D02*
X142789160Y-80048390D01*
X142789160Y-80048390D02*
X142789160Y-80191247D01*
X142789160Y-80191247D02*
X142836779Y-80381723D01*
X142836779Y-80381723D02*
X142884398Y-80476961D01*
X142884398Y-80476961D02*
X142979636Y-80572200D01*
X142979636Y-80572200D02*
X143122493Y-80619819D01*
X143122493Y-80619819D02*
X143217731Y-80619819D01*
X143217731Y-80619819D02*
X143360588Y-80572200D01*
X143360588Y-80572200D02*
X143408207Y-80524580D01*
X143408207Y-80524580D02*
X143408207Y-80191247D01*
X143408207Y-80191247D02*
X143217731Y-80191247D01*
X143836779Y-80619819D02*
X143836779Y-79619819D01*
X143836779Y-79619819D02*
X144408207Y-80619819D01*
X144408207Y-80619819D02*
X144408207Y-79619819D01*
X144884398Y-80619819D02*
X144884398Y-79619819D01*
X144884398Y-79619819D02*
X145122493Y-79619819D01*
X145122493Y-79619819D02*
X145265350Y-79667438D01*
X145265350Y-79667438D02*
X145360588Y-79762676D01*
X145360588Y-79762676D02*
X145408207Y-79857914D01*
X145408207Y-79857914D02*
X145455826Y-80048390D01*
X145455826Y-80048390D02*
X145455826Y-80191247D01*
X145455826Y-80191247D02*
X145408207Y-80381723D01*
X145408207Y-80381723D02*
X145360588Y-80476961D01*
X145360588Y-80476961D02*
X145265350Y-80572200D01*
X145265350Y-80572200D02*
X145122493Y-80619819D01*
X145122493Y-80619819D02*
X144884398Y-80619819D01*
D12*
X83054510Y-89229400D02*
X84197368Y-89229400D01*
D11*
X126834104Y-52960839D02*
X126834104Y-52484649D01*
X127119819Y-53056077D02*
X126119819Y-52722744D01*
X126119819Y-52722744D02*
X127119819Y-52389411D01*
X127119819Y-52056077D02*
X126119819Y-52056077D01*
X126119819Y-52056077D02*
X126119819Y-51817982D01*
X126119819Y-51817982D02*
X126167438Y-51675125D01*
X126167438Y-51675125D02*
X126262676Y-51579887D01*
X126262676Y-51579887D02*
X126357914Y-51532268D01*
X126357914Y-51532268D02*
X126548390Y-51484649D01*
X126548390Y-51484649D02*
X126691247Y-51484649D01*
X126691247Y-51484649D02*
X126881723Y-51532268D01*
X126881723Y-51532268D02*
X126976961Y-51579887D01*
X126976961Y-51579887D02*
X127072200Y-51675125D01*
X127072200Y-51675125D02*
X127119819Y-51817982D01*
X127119819Y-51817982D02*
X127119819Y-52056077D01*
X127024580Y-50484649D02*
X127072200Y-50532268D01*
X127072200Y-50532268D02*
X127119819Y-50675125D01*
X127119819Y-50675125D02*
X127119819Y-50770363D01*
X127119819Y-50770363D02*
X127072200Y-50913220D01*
X127072200Y-50913220D02*
X126976961Y-51008458D01*
X126976961Y-51008458D02*
X126881723Y-51056077D01*
X126881723Y-51056077D02*
X126691247Y-51103696D01*
X126691247Y-51103696D02*
X126548390Y-51103696D01*
X126548390Y-51103696D02*
X126357914Y-51056077D01*
X126357914Y-51056077D02*
X126262676Y-51008458D01*
X126262676Y-51008458D02*
X126167438Y-50913220D01*
X126167438Y-50913220D02*
X126119819Y-50770363D01*
X126119819Y-50770363D02*
X126119819Y-50675125D01*
X126119819Y-50675125D02*
X126167438Y-50532268D01*
X126167438Y-50532268D02*
X126215057Y-50484649D01*
D12*
X87554510Y-67729400D02*
X88697368Y-67729400D01*
X88125939Y-68300828D02*
X88125939Y-67157971D01*
X153054510Y-63979400D02*
X154197368Y-63979400D01*
X149789510Y-47459400D02*
X150932368Y-47459400D01*
X150360939Y-48030828D02*
X150360939Y-46887971D01*
D11*
X122539160Y-62334104D02*
X123015350Y-62334104D01*
X122443922Y-62619819D02*
X122777255Y-61619819D01*
X122777255Y-61619819D02*
X123110588Y-62619819D01*
X123443922Y-62619819D02*
X123443922Y-61953152D01*
X123443922Y-62048390D02*
X123491541Y-62000771D01*
X123491541Y-62000771D02*
X123586779Y-61953152D01*
X123586779Y-61953152D02*
X123729636Y-61953152D01*
X123729636Y-61953152D02*
X123824874Y-62000771D01*
X123824874Y-62000771D02*
X123872493Y-62096009D01*
X123872493Y-62096009D02*
X123872493Y-62619819D01*
X123872493Y-62096009D02*
X123920112Y-62000771D01*
X123920112Y-62000771D02*
X124015350Y-61953152D01*
X124015350Y-61953152D02*
X124158207Y-61953152D01*
X124158207Y-61953152D02*
X124253446Y-62000771D01*
X124253446Y-62000771D02*
X124301065Y-62096009D01*
X124301065Y-62096009D02*
X124301065Y-62619819D01*
X124777255Y-61953152D02*
X124777255Y-62953152D01*
X124777255Y-62000771D02*
X124872493Y-61953152D01*
X124872493Y-61953152D02*
X125062969Y-61953152D01*
X125062969Y-61953152D02*
X125158207Y-62000771D01*
X125158207Y-62000771D02*
X125205826Y-62048390D01*
X125205826Y-62048390D02*
X125253445Y-62143628D01*
X125253445Y-62143628D02*
X125253445Y-62429342D01*
X125253445Y-62429342D02*
X125205826Y-62524580D01*
X125205826Y-62524580D02*
X125158207Y-62572200D01*
X125158207Y-62572200D02*
X125062969Y-62619819D01*
X125062969Y-62619819D02*
X124872493Y-62619819D01*
X124872493Y-62619819D02*
X124777255Y-62572200D01*
X125872493Y-61619819D02*
X126062969Y-61619819D01*
X126062969Y-61619819D02*
X126158207Y-61667438D01*
X126158207Y-61667438D02*
X126253445Y-61762676D01*
X126253445Y-61762676D02*
X126301064Y-61953152D01*
X126301064Y-61953152D02*
X126301064Y-62286485D01*
X126301064Y-62286485D02*
X126253445Y-62476961D01*
X126253445Y-62476961D02*
X126158207Y-62572200D01*
X126158207Y-62572200D02*
X126062969Y-62619819D01*
X126062969Y-62619819D02*
X125872493Y-62619819D01*
X125872493Y-62619819D02*
X125777255Y-62572200D01*
X125777255Y-62572200D02*
X125682017Y-62476961D01*
X125682017Y-62476961D02*
X125634398Y-62286485D01*
X125634398Y-62286485D02*
X125634398Y-61953152D01*
X125634398Y-61953152D02*
X125682017Y-61762676D01*
X125682017Y-61762676D02*
X125777255Y-61667438D01*
X125777255Y-61667438D02*
X125872493Y-61619819D01*
X127158207Y-61953152D02*
X127158207Y-62619819D01*
X126729636Y-61953152D02*
X126729636Y-62476961D01*
X126729636Y-62476961D02*
X126777255Y-62572200D01*
X126777255Y-62572200D02*
X126872493Y-62619819D01*
X126872493Y-62619819D02*
X127015350Y-62619819D01*
X127015350Y-62619819D02*
X127110588Y-62572200D01*
X127110588Y-62572200D02*
X127158207Y-62524580D01*
X127491541Y-61953152D02*
X127872493Y-61953152D01*
X127634398Y-61619819D02*
X127634398Y-62476961D01*
X127634398Y-62476961D02*
X127682017Y-62572200D01*
X127682017Y-62572200D02*
X127777255Y-62619819D01*
X127777255Y-62619819D02*
X127872493Y-62619819D01*
X149119819Y-77163220D02*
X148119819Y-77163220D01*
X148119819Y-77163220D02*
X148834104Y-76829887D01*
X148834104Y-76829887D02*
X148119819Y-76496554D01*
X148119819Y-76496554D02*
X149119819Y-76496554D01*
X149119819Y-75877506D02*
X149072200Y-75972744D01*
X149072200Y-75972744D02*
X149024580Y-76020363D01*
X149024580Y-76020363D02*
X148929342Y-76067982D01*
X148929342Y-76067982D02*
X148643628Y-76067982D01*
X148643628Y-76067982D02*
X148548390Y-76020363D01*
X148548390Y-76020363D02*
X148500771Y-75972744D01*
X148500771Y-75972744D02*
X148453152Y-75877506D01*
X148453152Y-75877506D02*
X148453152Y-75734649D01*
X148453152Y-75734649D02*
X148500771Y-75639411D01*
X148500771Y-75639411D02*
X148548390Y-75591792D01*
X148548390Y-75591792D02*
X148643628Y-75544173D01*
X148643628Y-75544173D02*
X148929342Y-75544173D01*
X148929342Y-75544173D02*
X149024580Y-75591792D01*
X149024580Y-75591792D02*
X149072200Y-75639411D01*
X149072200Y-75639411D02*
X149119819Y-75734649D01*
X149119819Y-75734649D02*
X149119819Y-75877506D01*
X148453152Y-75258458D02*
X148453152Y-74877506D01*
X148119819Y-75115601D02*
X148976961Y-75115601D01*
X148976961Y-75115601D02*
X149072200Y-75067982D01*
X149072200Y-75067982D02*
X149119819Y-74972744D01*
X149119819Y-74972744D02*
X149119819Y-74877506D01*
X148119819Y-74067982D02*
X148119819Y-74544172D01*
X148119819Y-74544172D02*
X148596009Y-74591791D01*
X148596009Y-74591791D02*
X148548390Y-74544172D01*
X148548390Y-74544172D02*
X148500771Y-74448934D01*
X148500771Y-74448934D02*
X148500771Y-74210839D01*
X148500771Y-74210839D02*
X148548390Y-74115601D01*
X148548390Y-74115601D02*
X148596009Y-74067982D01*
X148596009Y-74067982D02*
X148691247Y-74020363D01*
X148691247Y-74020363D02*
X148929342Y-74020363D01*
X148929342Y-74020363D02*
X149024580Y-74067982D01*
X149024580Y-74067982D02*
X149072200Y-74115601D01*
X149072200Y-74115601D02*
X149119819Y-74210839D01*
X149119819Y-74210839D02*
X149119819Y-74448934D01*
X149119819Y-74448934D02*
X149072200Y-74544172D01*
X149072200Y-74544172D02*
X149024580Y-74591791D01*
X148119819Y-73734648D02*
X149119819Y-73401315D01*
X149119819Y-73401315D02*
X148119819Y-73067982D01*
X115991541Y-74119819D02*
X116610588Y-74119819D01*
X116610588Y-74119819D02*
X116277255Y-74500771D01*
X116277255Y-74500771D02*
X116420112Y-74500771D01*
X116420112Y-74500771D02*
X116515350Y-74548390D01*
X116515350Y-74548390D02*
X116562969Y-74596009D01*
X116562969Y-74596009D02*
X116610588Y-74691247D01*
X116610588Y-74691247D02*
X116610588Y-74929342D01*
X116610588Y-74929342D02*
X116562969Y-75024580D01*
X116562969Y-75024580D02*
X116515350Y-75072200D01*
X116515350Y-75072200D02*
X116420112Y-75119819D01*
X116420112Y-75119819D02*
X116134398Y-75119819D01*
X116134398Y-75119819D02*
X116039160Y-75072200D01*
X116039160Y-75072200D02*
X115991541Y-75024580D01*
X117039160Y-75024580D02*
X117086779Y-75072200D01*
X117086779Y-75072200D02*
X117039160Y-75119819D01*
X117039160Y-75119819D02*
X116991541Y-75072200D01*
X116991541Y-75072200D02*
X117039160Y-75024580D01*
X117039160Y-75024580D02*
X117039160Y-75119819D01*
X117420112Y-74119819D02*
X118039159Y-74119819D01*
X118039159Y-74119819D02*
X117705826Y-74500771D01*
X117705826Y-74500771D02*
X117848683Y-74500771D01*
X117848683Y-74500771D02*
X117943921Y-74548390D01*
X117943921Y-74548390D02*
X117991540Y-74596009D01*
X117991540Y-74596009D02*
X118039159Y-74691247D01*
X118039159Y-74691247D02*
X118039159Y-74929342D01*
X118039159Y-74929342D02*
X117991540Y-75024580D01*
X117991540Y-75024580D02*
X117943921Y-75072200D01*
X117943921Y-75072200D02*
X117848683Y-75119819D01*
X117848683Y-75119819D02*
X117562969Y-75119819D01*
X117562969Y-75119819D02*
X117467731Y-75072200D01*
X117467731Y-75072200D02*
X117420112Y-75024580D01*
X118324874Y-74119819D02*
X118658207Y-75119819D01*
X118658207Y-75119819D02*
X118991540Y-74119819D01*
X139107142Y-54304819D02*
X138773809Y-53828628D01*
X138535714Y-54304819D02*
X138535714Y-53304819D01*
X138535714Y-53304819D02*
X138916666Y-53304819D01*
X138916666Y-53304819D02*
X139011904Y-53352438D01*
X139011904Y-53352438D02*
X139059523Y-53400057D01*
X139059523Y-53400057D02*
X139107142Y-53495295D01*
X139107142Y-53495295D02*
X139107142Y-53638152D01*
X139107142Y-53638152D02*
X139059523Y-53733390D01*
X139059523Y-53733390D02*
X139011904Y-53781009D01*
X139011904Y-53781009D02*
X138916666Y-53828628D01*
X138916666Y-53828628D02*
X138535714Y-53828628D01*
X140059523Y-54304819D02*
X139488095Y-54304819D01*
X139773809Y-54304819D02*
X139773809Y-53304819D01*
X139773809Y-53304819D02*
X139678571Y-53447676D01*
X139678571Y-53447676D02*
X139583333Y-53542914D01*
X139583333Y-53542914D02*
X139488095Y-53590533D01*
X140678571Y-53304819D02*
X140773809Y-53304819D01*
X140773809Y-53304819D02*
X140869047Y-53352438D01*
X140869047Y-53352438D02*
X140916666Y-53400057D01*
X140916666Y-53400057D02*
X140964285Y-53495295D01*
X140964285Y-53495295D02*
X141011904Y-53685771D01*
X141011904Y-53685771D02*
X141011904Y-53923866D01*
X141011904Y-53923866D02*
X140964285Y-54114342D01*
X140964285Y-54114342D02*
X140916666Y-54209580D01*
X140916666Y-54209580D02*
X140869047Y-54257200D01*
X140869047Y-54257200D02*
X140773809Y-54304819D01*
X140773809Y-54304819D02*
X140678571Y-54304819D01*
X140678571Y-54304819D02*
X140583333Y-54257200D01*
X140583333Y-54257200D02*
X140535714Y-54209580D01*
X140535714Y-54209580D02*
X140488095Y-54114342D01*
X140488095Y-54114342D02*
X140440476Y-53923866D01*
X140440476Y-53923866D02*
X140440476Y-53685771D01*
X140440476Y-53685771D02*
X140488095Y-53495295D01*
X140488095Y-53495295D02*
X140535714Y-53400057D01*
X140535714Y-53400057D02*
X140583333Y-53352438D01*
X140583333Y-53352438D02*
X140678571Y-53304819D01*
X147289580Y-56142857D02*
X147337200Y-56190476D01*
X147337200Y-56190476D02*
X147384819Y-56333333D01*
X147384819Y-56333333D02*
X147384819Y-56428571D01*
X147384819Y-56428571D02*
X147337200Y-56571428D01*
X147337200Y-56571428D02*
X147241961Y-56666666D01*
X147241961Y-56666666D02*
X147146723Y-56714285D01*
X147146723Y-56714285D02*
X146956247Y-56761904D01*
X146956247Y-56761904D02*
X146813390Y-56761904D01*
X146813390Y-56761904D02*
X146622914Y-56714285D01*
X146622914Y-56714285D02*
X146527676Y-56666666D01*
X146527676Y-56666666D02*
X146432438Y-56571428D01*
X146432438Y-56571428D02*
X146384819Y-56428571D01*
X146384819Y-56428571D02*
X146384819Y-56333333D01*
X146384819Y-56333333D02*
X146432438Y-56190476D01*
X146432438Y-56190476D02*
X146480057Y-56142857D01*
X147384819Y-55190476D02*
X147384819Y-55761904D01*
X147384819Y-55476190D02*
X146384819Y-55476190D01*
X146384819Y-55476190D02*
X146527676Y-55571428D01*
X146527676Y-55571428D02*
X146622914Y-55666666D01*
X146622914Y-55666666D02*
X146670533Y-55761904D01*
X146384819Y-54857142D02*
X146384819Y-54238095D01*
X146384819Y-54238095D02*
X146765771Y-54571428D01*
X146765771Y-54571428D02*
X146765771Y-54428571D01*
X146765771Y-54428571D02*
X146813390Y-54333333D01*
X146813390Y-54333333D02*
X146861009Y-54285714D01*
X146861009Y-54285714D02*
X146956247Y-54238095D01*
X146956247Y-54238095D02*
X147194342Y-54238095D01*
X147194342Y-54238095D02*
X147289580Y-54285714D01*
X147289580Y-54285714D02*
X147337200Y-54333333D01*
X147337200Y-54333333D02*
X147384819Y-54428571D01*
X147384819Y-54428571D02*
X147384819Y-54714285D01*
X147384819Y-54714285D02*
X147337200Y-54809523D01*
X147337200Y-54809523D02*
X147289580Y-54857142D01*
X74186666Y-72324819D02*
X74186666Y-73039104D01*
X74186666Y-73039104D02*
X74139047Y-73181961D01*
X74139047Y-73181961D02*
X74043809Y-73277200D01*
X74043809Y-73277200D02*
X73900952Y-73324819D01*
X73900952Y-73324819D02*
X73805714Y-73324819D01*
X74710476Y-73324819D02*
X74900952Y-73324819D01*
X74900952Y-73324819D02*
X74996190Y-73277200D01*
X74996190Y-73277200D02*
X75043809Y-73229580D01*
X75043809Y-73229580D02*
X75139047Y-73086723D01*
X75139047Y-73086723D02*
X75186666Y-72896247D01*
X75186666Y-72896247D02*
X75186666Y-72515295D01*
X75186666Y-72515295D02*
X75139047Y-72420057D01*
X75139047Y-72420057D02*
X75091428Y-72372438D01*
X75091428Y-72372438D02*
X74996190Y-72324819D01*
X74996190Y-72324819D02*
X74805714Y-72324819D01*
X74805714Y-72324819D02*
X74710476Y-72372438D01*
X74710476Y-72372438D02*
X74662857Y-72420057D01*
X74662857Y-72420057D02*
X74615238Y-72515295D01*
X74615238Y-72515295D02*
X74615238Y-72753390D01*
X74615238Y-72753390D02*
X74662857Y-72848628D01*
X74662857Y-72848628D02*
X74710476Y-72896247D01*
X74710476Y-72896247D02*
X74805714Y-72943866D01*
X74805714Y-72943866D02*
X74996190Y-72943866D01*
X74996190Y-72943866D02*
X75091428Y-72896247D01*
X75091428Y-72896247D02*
X75139047Y-72848628D01*
X75139047Y-72848628D02*
X75186666Y-72753390D01*
X102261905Y-83006819D02*
X102833333Y-83006819D01*
X102547619Y-84006819D02*
X102547619Y-83006819D01*
X103166667Y-84006819D02*
X103166667Y-83006819D01*
X103166667Y-83006819D02*
X103547619Y-83006819D01*
X103547619Y-83006819D02*
X103642857Y-83054438D01*
X103642857Y-83054438D02*
X103690476Y-83102057D01*
X103690476Y-83102057D02*
X103738095Y-83197295D01*
X103738095Y-83197295D02*
X103738095Y-83340152D01*
X103738095Y-83340152D02*
X103690476Y-83435390D01*
X103690476Y-83435390D02*
X103642857Y-83483009D01*
X103642857Y-83483009D02*
X103547619Y-83530628D01*
X103547619Y-83530628D02*
X103166667Y-83530628D01*
X104690476Y-84006819D02*
X104119048Y-84006819D01*
X104404762Y-84006819D02*
X104404762Y-83006819D01*
X104404762Y-83006819D02*
X104309524Y-83149676D01*
X104309524Y-83149676D02*
X104214286Y-83244914D01*
X104214286Y-83244914D02*
X104119048Y-83292533D01*
X105309524Y-83006819D02*
X105404762Y-83006819D01*
X105404762Y-83006819D02*
X105500000Y-83054438D01*
X105500000Y-83054438D02*
X105547619Y-83102057D01*
X105547619Y-83102057D02*
X105595238Y-83197295D01*
X105595238Y-83197295D02*
X105642857Y-83387771D01*
X105642857Y-83387771D02*
X105642857Y-83625866D01*
X105642857Y-83625866D02*
X105595238Y-83816342D01*
X105595238Y-83816342D02*
X105547619Y-83911580D01*
X105547619Y-83911580D02*
X105500000Y-83959200D01*
X105500000Y-83959200D02*
X105404762Y-84006819D01*
X105404762Y-84006819D02*
X105309524Y-84006819D01*
X105309524Y-84006819D02*
X105214286Y-83959200D01*
X105214286Y-83959200D02*
X105166667Y-83911580D01*
X105166667Y-83911580D02*
X105119048Y-83816342D01*
X105119048Y-83816342D02*
X105071429Y-83625866D01*
X105071429Y-83625866D02*
X105071429Y-83387771D01*
X105071429Y-83387771D02*
X105119048Y-83197295D01*
X105119048Y-83197295D02*
X105166667Y-83102057D01*
X105166667Y-83102057D02*
X105214286Y-83054438D01*
X105214286Y-83054438D02*
X105309524Y-83006819D01*
X100607142Y-90854819D02*
X100273809Y-90378628D01*
X100035714Y-90854819D02*
X100035714Y-89854819D01*
X100035714Y-89854819D02*
X100416666Y-89854819D01*
X100416666Y-89854819D02*
X100511904Y-89902438D01*
X100511904Y-89902438D02*
X100559523Y-89950057D01*
X100559523Y-89950057D02*
X100607142Y-90045295D01*
X100607142Y-90045295D02*
X100607142Y-90188152D01*
X100607142Y-90188152D02*
X100559523Y-90283390D01*
X100559523Y-90283390D02*
X100511904Y-90331009D01*
X100511904Y-90331009D02*
X100416666Y-90378628D01*
X100416666Y-90378628D02*
X100035714Y-90378628D01*
X101559523Y-90854819D02*
X100988095Y-90854819D01*
X101273809Y-90854819D02*
X101273809Y-89854819D01*
X101273809Y-89854819D02*
X101178571Y-89997676D01*
X101178571Y-89997676D02*
X101083333Y-90092914D01*
X101083333Y-90092914D02*
X100988095Y-90140533D01*
X102464285Y-89854819D02*
X101988095Y-89854819D01*
X101988095Y-89854819D02*
X101940476Y-90331009D01*
X101940476Y-90331009D02*
X101988095Y-90283390D01*
X101988095Y-90283390D02*
X102083333Y-90235771D01*
X102083333Y-90235771D02*
X102321428Y-90235771D01*
X102321428Y-90235771D02*
X102416666Y-90283390D01*
X102416666Y-90283390D02*
X102464285Y-90331009D01*
X102464285Y-90331009D02*
X102511904Y-90426247D01*
X102511904Y-90426247D02*
X102511904Y-90664342D01*
X102511904Y-90664342D02*
X102464285Y-90759580D01*
X102464285Y-90759580D02*
X102416666Y-90807200D01*
X102416666Y-90807200D02*
X102321428Y-90854819D01*
X102321428Y-90854819D02*
X102083333Y-90854819D01*
X102083333Y-90854819D02*
X101988095Y-90807200D01*
X101988095Y-90807200D02*
X101940476Y-90759580D01*
X105357142Y-90854819D02*
X105023809Y-90378628D01*
X104785714Y-90854819D02*
X104785714Y-89854819D01*
X104785714Y-89854819D02*
X105166666Y-89854819D01*
X105166666Y-89854819D02*
X105261904Y-89902438D01*
X105261904Y-89902438D02*
X105309523Y-89950057D01*
X105309523Y-89950057D02*
X105357142Y-90045295D01*
X105357142Y-90045295D02*
X105357142Y-90188152D01*
X105357142Y-90188152D02*
X105309523Y-90283390D01*
X105309523Y-90283390D02*
X105261904Y-90331009D01*
X105261904Y-90331009D02*
X105166666Y-90378628D01*
X105166666Y-90378628D02*
X104785714Y-90378628D01*
X106309523Y-90854819D02*
X105738095Y-90854819D01*
X106023809Y-90854819D02*
X106023809Y-89854819D01*
X106023809Y-89854819D02*
X105928571Y-89997676D01*
X105928571Y-89997676D02*
X105833333Y-90092914D01*
X105833333Y-90092914D02*
X105738095Y-90140533D01*
X107166666Y-90188152D02*
X107166666Y-90854819D01*
X106928571Y-89807200D02*
X106690476Y-90521485D01*
X106690476Y-90521485D02*
X107309523Y-90521485D01*
X67554819Y-53166666D02*
X67078628Y-53499999D01*
X67554819Y-53738094D02*
X66554819Y-53738094D01*
X66554819Y-53738094D02*
X66554819Y-53357142D01*
X66554819Y-53357142D02*
X66602438Y-53261904D01*
X66602438Y-53261904D02*
X66650057Y-53214285D01*
X66650057Y-53214285D02*
X66745295Y-53166666D01*
X66745295Y-53166666D02*
X66888152Y-53166666D01*
X66888152Y-53166666D02*
X66983390Y-53214285D01*
X66983390Y-53214285D02*
X67031009Y-53261904D01*
X67031009Y-53261904D02*
X67078628Y-53357142D01*
X67078628Y-53357142D02*
X67078628Y-53738094D01*
X66983390Y-52595237D02*
X66935771Y-52690475D01*
X66935771Y-52690475D02*
X66888152Y-52738094D01*
X66888152Y-52738094D02*
X66792914Y-52785713D01*
X66792914Y-52785713D02*
X66745295Y-52785713D01*
X66745295Y-52785713D02*
X66650057Y-52738094D01*
X66650057Y-52738094D02*
X66602438Y-52690475D01*
X66602438Y-52690475D02*
X66554819Y-52595237D01*
X66554819Y-52595237D02*
X66554819Y-52404761D01*
X66554819Y-52404761D02*
X66602438Y-52309523D01*
X66602438Y-52309523D02*
X66650057Y-52261904D01*
X66650057Y-52261904D02*
X66745295Y-52214285D01*
X66745295Y-52214285D02*
X66792914Y-52214285D01*
X66792914Y-52214285D02*
X66888152Y-52261904D01*
X66888152Y-52261904D02*
X66935771Y-52309523D01*
X66935771Y-52309523D02*
X66983390Y-52404761D01*
X66983390Y-52404761D02*
X66983390Y-52595237D01*
X66983390Y-52595237D02*
X67031009Y-52690475D01*
X67031009Y-52690475D02*
X67078628Y-52738094D01*
X67078628Y-52738094D02*
X67173866Y-52785713D01*
X67173866Y-52785713D02*
X67364342Y-52785713D01*
X67364342Y-52785713D02*
X67459580Y-52738094D01*
X67459580Y-52738094D02*
X67507200Y-52690475D01*
X67507200Y-52690475D02*
X67554819Y-52595237D01*
X67554819Y-52595237D02*
X67554819Y-52404761D01*
X67554819Y-52404761D02*
X67507200Y-52309523D01*
X67507200Y-52309523D02*
X67459580Y-52261904D01*
X67459580Y-52261904D02*
X67364342Y-52214285D01*
X67364342Y-52214285D02*
X67173866Y-52214285D01*
X67173866Y-52214285D02*
X67078628Y-52261904D01*
X67078628Y-52261904D02*
X67031009Y-52309523D01*
X67031009Y-52309523D02*
X66983390Y-52404761D01*
X71104819Y-59916666D02*
X70628628Y-60249999D01*
X71104819Y-60488094D02*
X70104819Y-60488094D01*
X70104819Y-60488094D02*
X70104819Y-60107142D01*
X70104819Y-60107142D02*
X70152438Y-60011904D01*
X70152438Y-60011904D02*
X70200057Y-59964285D01*
X70200057Y-59964285D02*
X70295295Y-59916666D01*
X70295295Y-59916666D02*
X70438152Y-59916666D01*
X70438152Y-59916666D02*
X70533390Y-59964285D01*
X70533390Y-59964285D02*
X70581009Y-60011904D01*
X70581009Y-60011904D02*
X70628628Y-60107142D01*
X70628628Y-60107142D02*
X70628628Y-60488094D01*
X71104819Y-58964285D02*
X71104819Y-59535713D01*
X71104819Y-59249999D02*
X70104819Y-59249999D01*
X70104819Y-59249999D02*
X70247676Y-59345237D01*
X70247676Y-59345237D02*
X70342914Y-59440475D01*
X70342914Y-59440475D02*
X70390533Y-59535713D01*
X71429580Y-51166666D02*
X71477200Y-51214285D01*
X71477200Y-51214285D02*
X71524819Y-51357142D01*
X71524819Y-51357142D02*
X71524819Y-51452380D01*
X71524819Y-51452380D02*
X71477200Y-51595237D01*
X71477200Y-51595237D02*
X71381961Y-51690475D01*
X71381961Y-51690475D02*
X71286723Y-51738094D01*
X71286723Y-51738094D02*
X71096247Y-51785713D01*
X71096247Y-51785713D02*
X70953390Y-51785713D01*
X70953390Y-51785713D02*
X70762914Y-51738094D01*
X70762914Y-51738094D02*
X70667676Y-51690475D01*
X70667676Y-51690475D02*
X70572438Y-51595237D01*
X70572438Y-51595237D02*
X70524819Y-51452380D01*
X70524819Y-51452380D02*
X70524819Y-51357142D01*
X70524819Y-51357142D02*
X70572438Y-51214285D01*
X70572438Y-51214285D02*
X70620057Y-51166666D01*
X70858152Y-50309523D02*
X71524819Y-50309523D01*
X70477200Y-50547618D02*
X71191485Y-50785713D01*
X71191485Y-50785713D02*
X71191485Y-50166666D01*
X73333333Y-59429580D02*
X73285714Y-59477200D01*
X73285714Y-59477200D02*
X73142857Y-59524819D01*
X73142857Y-59524819D02*
X73047619Y-59524819D01*
X73047619Y-59524819D02*
X72904762Y-59477200D01*
X72904762Y-59477200D02*
X72809524Y-59381961D01*
X72809524Y-59381961D02*
X72761905Y-59286723D01*
X72761905Y-59286723D02*
X72714286Y-59096247D01*
X72714286Y-59096247D02*
X72714286Y-58953390D01*
X72714286Y-58953390D02*
X72761905Y-58762914D01*
X72761905Y-58762914D02*
X72809524Y-58667676D01*
X72809524Y-58667676D02*
X72904762Y-58572438D01*
X72904762Y-58572438D02*
X73047619Y-58524819D01*
X73047619Y-58524819D02*
X73142857Y-58524819D01*
X73142857Y-58524819D02*
X73285714Y-58572438D01*
X73285714Y-58572438D02*
X73333333Y-58620057D01*
X73666667Y-58524819D02*
X74285714Y-58524819D01*
X74285714Y-58524819D02*
X73952381Y-58905771D01*
X73952381Y-58905771D02*
X74095238Y-58905771D01*
X74095238Y-58905771D02*
X74190476Y-58953390D01*
X74190476Y-58953390D02*
X74238095Y-59001009D01*
X74238095Y-59001009D02*
X74285714Y-59096247D01*
X74285714Y-59096247D02*
X74285714Y-59334342D01*
X74285714Y-59334342D02*
X74238095Y-59429580D01*
X74238095Y-59429580D02*
X74190476Y-59477200D01*
X74190476Y-59477200D02*
X74095238Y-59524819D01*
X74095238Y-59524819D02*
X73809524Y-59524819D01*
X73809524Y-59524819D02*
X73714286Y-59477200D01*
X73714286Y-59477200D02*
X73666667Y-59429580D01*
X107143333Y-72862295D02*
X106838571Y-72862295D01*
X106838571Y-72862295D02*
X106838571Y-72062295D01*
X107326190Y-72138485D02*
X107356666Y-72100390D01*
X107356666Y-72100390D02*
X107417619Y-72062295D01*
X107417619Y-72062295D02*
X107570000Y-72062295D01*
X107570000Y-72062295D02*
X107630952Y-72100390D01*
X107630952Y-72100390D02*
X107661428Y-72138485D01*
X107661428Y-72138485D02*
X107691905Y-72214676D01*
X107691905Y-72214676D02*
X107691905Y-72290866D01*
X107691905Y-72290866D02*
X107661428Y-72405152D01*
X107661428Y-72405152D02*
X107295714Y-72862295D01*
X107295714Y-72862295D02*
X107691905Y-72862295D01*
X132043333Y-73362295D02*
X131738571Y-73362295D01*
X131738571Y-73362295D02*
X131738571Y-72562295D01*
X132591905Y-73362295D02*
X132226190Y-73362295D01*
X132409047Y-73362295D02*
X132409047Y-72562295D01*
X132409047Y-72562295D02*
X132348095Y-72676580D01*
X132348095Y-72676580D02*
X132287143Y-72752771D01*
X132287143Y-72752771D02*
X132226190Y-72790866D01*
X125539580Y-75666666D02*
X125587200Y-75714285D01*
X125587200Y-75714285D02*
X125634819Y-75857142D01*
X125634819Y-75857142D02*
X125634819Y-75952380D01*
X125634819Y-75952380D02*
X125587200Y-76095237D01*
X125587200Y-76095237D02*
X125491961Y-76190475D01*
X125491961Y-76190475D02*
X125396723Y-76238094D01*
X125396723Y-76238094D02*
X125206247Y-76285713D01*
X125206247Y-76285713D02*
X125063390Y-76285713D01*
X125063390Y-76285713D02*
X124872914Y-76238094D01*
X124872914Y-76238094D02*
X124777676Y-76190475D01*
X124777676Y-76190475D02*
X124682438Y-76095237D01*
X124682438Y-76095237D02*
X124634819Y-75952380D01*
X124634819Y-75952380D02*
X124634819Y-75857142D01*
X124634819Y-75857142D02*
X124682438Y-75714285D01*
X124682438Y-75714285D02*
X124730057Y-75666666D01*
X125063390Y-75095237D02*
X125015771Y-75190475D01*
X125015771Y-75190475D02*
X124968152Y-75238094D01*
X124968152Y-75238094D02*
X124872914Y-75285713D01*
X124872914Y-75285713D02*
X124825295Y-75285713D01*
X124825295Y-75285713D02*
X124730057Y-75238094D01*
X124730057Y-75238094D02*
X124682438Y-75190475D01*
X124682438Y-75190475D02*
X124634819Y-75095237D01*
X124634819Y-75095237D02*
X124634819Y-74904761D01*
X124634819Y-74904761D02*
X124682438Y-74809523D01*
X124682438Y-74809523D02*
X124730057Y-74761904D01*
X124730057Y-74761904D02*
X124825295Y-74714285D01*
X124825295Y-74714285D02*
X124872914Y-74714285D01*
X124872914Y-74714285D02*
X124968152Y-74761904D01*
X124968152Y-74761904D02*
X125015771Y-74809523D01*
X125015771Y-74809523D02*
X125063390Y-74904761D01*
X125063390Y-74904761D02*
X125063390Y-75095237D01*
X125063390Y-75095237D02*
X125111009Y-75190475D01*
X125111009Y-75190475D02*
X125158628Y-75238094D01*
X125158628Y-75238094D02*
X125253866Y-75285713D01*
X125253866Y-75285713D02*
X125444342Y-75285713D01*
X125444342Y-75285713D02*
X125539580Y-75238094D01*
X125539580Y-75238094D02*
X125587200Y-75190475D01*
X125587200Y-75190475D02*
X125634819Y-75095237D01*
X125634819Y-75095237D02*
X125634819Y-74904761D01*
X125634819Y-74904761D02*
X125587200Y-74809523D01*
X125587200Y-74809523D02*
X125539580Y-74761904D01*
X125539580Y-74761904D02*
X125444342Y-74714285D01*
X125444342Y-74714285D02*
X125253866Y-74714285D01*
X125253866Y-74714285D02*
X125158628Y-74761904D01*
X125158628Y-74761904D02*
X125111009Y-74809523D01*
X125111009Y-74809523D02*
X125063390Y-74904761D01*
X84420142Y-79074580D02*
X84372523Y-79122200D01*
X84372523Y-79122200D02*
X84229666Y-79169819D01*
X84229666Y-79169819D02*
X84134428Y-79169819D01*
X84134428Y-79169819D02*
X83991571Y-79122200D01*
X83991571Y-79122200D02*
X83896333Y-79026961D01*
X83896333Y-79026961D02*
X83848714Y-78931723D01*
X83848714Y-78931723D02*
X83801095Y-78741247D01*
X83801095Y-78741247D02*
X83801095Y-78598390D01*
X83801095Y-78598390D02*
X83848714Y-78407914D01*
X83848714Y-78407914D02*
X83896333Y-78312676D01*
X83896333Y-78312676D02*
X83991571Y-78217438D01*
X83991571Y-78217438D02*
X84134428Y-78169819D01*
X84134428Y-78169819D02*
X84229666Y-78169819D01*
X84229666Y-78169819D02*
X84372523Y-78217438D01*
X84372523Y-78217438D02*
X84420142Y-78265057D01*
X84801095Y-78265057D02*
X84848714Y-78217438D01*
X84848714Y-78217438D02*
X84943952Y-78169819D01*
X84943952Y-78169819D02*
X85182047Y-78169819D01*
X85182047Y-78169819D02*
X85277285Y-78217438D01*
X85277285Y-78217438D02*
X85324904Y-78265057D01*
X85324904Y-78265057D02*
X85372523Y-78360295D01*
X85372523Y-78360295D02*
X85372523Y-78455533D01*
X85372523Y-78455533D02*
X85324904Y-78598390D01*
X85324904Y-78598390D02*
X84753476Y-79169819D01*
X84753476Y-79169819D02*
X85372523Y-79169819D01*
X85943952Y-78598390D02*
X85848714Y-78550771D01*
X85848714Y-78550771D02*
X85801095Y-78503152D01*
X85801095Y-78503152D02*
X85753476Y-78407914D01*
X85753476Y-78407914D02*
X85753476Y-78360295D01*
X85753476Y-78360295D02*
X85801095Y-78265057D01*
X85801095Y-78265057D02*
X85848714Y-78217438D01*
X85848714Y-78217438D02*
X85943952Y-78169819D01*
X85943952Y-78169819D02*
X86134428Y-78169819D01*
X86134428Y-78169819D02*
X86229666Y-78217438D01*
X86229666Y-78217438D02*
X86277285Y-78265057D01*
X86277285Y-78265057D02*
X86324904Y-78360295D01*
X86324904Y-78360295D02*
X86324904Y-78407914D01*
X86324904Y-78407914D02*
X86277285Y-78503152D01*
X86277285Y-78503152D02*
X86229666Y-78550771D01*
X86229666Y-78550771D02*
X86134428Y-78598390D01*
X86134428Y-78598390D02*
X85943952Y-78598390D01*
X85943952Y-78598390D02*
X85848714Y-78646009D01*
X85848714Y-78646009D02*
X85801095Y-78693628D01*
X85801095Y-78693628D02*
X85753476Y-78788866D01*
X85753476Y-78788866D02*
X85753476Y-78979342D01*
X85753476Y-78979342D02*
X85801095Y-79074580D01*
X85801095Y-79074580D02*
X85848714Y-79122200D01*
X85848714Y-79122200D02*
X85943952Y-79169819D01*
X85943952Y-79169819D02*
X86134428Y-79169819D01*
X86134428Y-79169819D02*
X86229666Y-79122200D01*
X86229666Y-79122200D02*
X86277285Y-79074580D01*
X86277285Y-79074580D02*
X86324904Y-78979342D01*
X86324904Y-78979342D02*
X86324904Y-78788866D01*
X86324904Y-78788866D02*
X86277285Y-78693628D01*
X86277285Y-78693628D02*
X86229666Y-78646009D01*
X86229666Y-78646009D02*
X86134428Y-78598390D01*
X136854819Y-50916666D02*
X136378628Y-51249999D01*
X136854819Y-51488094D02*
X135854819Y-51488094D01*
X135854819Y-51488094D02*
X135854819Y-51107142D01*
X135854819Y-51107142D02*
X135902438Y-51011904D01*
X135902438Y-51011904D02*
X135950057Y-50964285D01*
X135950057Y-50964285D02*
X136045295Y-50916666D01*
X136045295Y-50916666D02*
X136188152Y-50916666D01*
X136188152Y-50916666D02*
X136283390Y-50964285D01*
X136283390Y-50964285D02*
X136331009Y-51011904D01*
X136331009Y-51011904D02*
X136378628Y-51107142D01*
X136378628Y-51107142D02*
X136378628Y-51488094D01*
X136188152Y-50059523D02*
X136854819Y-50059523D01*
X135807200Y-50297618D02*
X136521485Y-50535713D01*
X136521485Y-50535713D02*
X136521485Y-49916666D01*
X123006819Y-53261904D02*
X123006819Y-52690476D01*
X124006819Y-52976190D02*
X123006819Y-52976190D01*
X124006819Y-52357142D02*
X123006819Y-52357142D01*
X123006819Y-52357142D02*
X123006819Y-51976190D01*
X123006819Y-51976190D02*
X123054438Y-51880952D01*
X123054438Y-51880952D02*
X123102057Y-51833333D01*
X123102057Y-51833333D02*
X123197295Y-51785714D01*
X123197295Y-51785714D02*
X123340152Y-51785714D01*
X123340152Y-51785714D02*
X123435390Y-51833333D01*
X123435390Y-51833333D02*
X123483009Y-51880952D01*
X123483009Y-51880952D02*
X123530628Y-51976190D01*
X123530628Y-51976190D02*
X123530628Y-52357142D01*
X123006819Y-50880952D02*
X123006819Y-51357142D01*
X123006819Y-51357142D02*
X123483009Y-51404761D01*
X123483009Y-51404761D02*
X123435390Y-51357142D01*
X123435390Y-51357142D02*
X123387771Y-51261904D01*
X123387771Y-51261904D02*
X123387771Y-51023809D01*
X123387771Y-51023809D02*
X123435390Y-50928571D01*
X123435390Y-50928571D02*
X123483009Y-50880952D01*
X123483009Y-50880952D02*
X123578247Y-50833333D01*
X123578247Y-50833333D02*
X123816342Y-50833333D01*
X123816342Y-50833333D02*
X123911580Y-50880952D01*
X123911580Y-50880952D02*
X123959200Y-50928571D01*
X123959200Y-50928571D02*
X124006819Y-51023809D01*
X124006819Y-51023809D02*
X124006819Y-51261904D01*
X124006819Y-51261904D02*
X123959200Y-51357142D01*
X123959200Y-51357142D02*
X123911580Y-51404761D01*
X127333333Y-66104819D02*
X127000000Y-65628628D01*
X126761905Y-66104819D02*
X126761905Y-65104819D01*
X126761905Y-65104819D02*
X127142857Y-65104819D01*
X127142857Y-65104819D02*
X127238095Y-65152438D01*
X127238095Y-65152438D02*
X127285714Y-65200057D01*
X127285714Y-65200057D02*
X127333333Y-65295295D01*
X127333333Y-65295295D02*
X127333333Y-65438152D01*
X127333333Y-65438152D02*
X127285714Y-65533390D01*
X127285714Y-65533390D02*
X127238095Y-65581009D01*
X127238095Y-65581009D02*
X127142857Y-65628628D01*
X127142857Y-65628628D02*
X126761905Y-65628628D01*
X127666667Y-65104819D02*
X128333333Y-65104819D01*
X128333333Y-65104819D02*
X127904762Y-66104819D01*
D13*
X62032380Y-53263842D02*
X62213809Y-53324318D01*
X62213809Y-53324318D02*
X62516190Y-53324318D01*
X62516190Y-53324318D02*
X62637142Y-53263842D01*
X62637142Y-53263842D02*
X62697618Y-53203365D01*
X62697618Y-53203365D02*
X62758095Y-53082413D01*
X62758095Y-53082413D02*
X62758095Y-52961461D01*
X62758095Y-52961461D02*
X62697618Y-52840508D01*
X62697618Y-52840508D02*
X62637142Y-52780032D01*
X62637142Y-52780032D02*
X62516190Y-52719556D01*
X62516190Y-52719556D02*
X62274285Y-52659080D01*
X62274285Y-52659080D02*
X62153333Y-52598603D01*
X62153333Y-52598603D02*
X62092856Y-52538127D01*
X62092856Y-52538127D02*
X62032380Y-52417175D01*
X62032380Y-52417175D02*
X62032380Y-52296222D01*
X62032380Y-52296222D02*
X62092856Y-52175270D01*
X62092856Y-52175270D02*
X62153333Y-52114794D01*
X62153333Y-52114794D02*
X62274285Y-52054318D01*
X62274285Y-52054318D02*
X62576666Y-52054318D01*
X62576666Y-52054318D02*
X62758095Y-52114794D01*
X63241904Y-52175270D02*
X63302380Y-52114794D01*
X63302380Y-52114794D02*
X63423333Y-52054318D01*
X63423333Y-52054318D02*
X63725714Y-52054318D01*
X63725714Y-52054318D02*
X63846666Y-52114794D01*
X63846666Y-52114794D02*
X63907142Y-52175270D01*
X63907142Y-52175270D02*
X63967619Y-52296222D01*
X63967619Y-52296222D02*
X63967619Y-52417175D01*
X63967619Y-52417175D02*
X63907142Y-52598603D01*
X63907142Y-52598603D02*
X63181428Y-53324318D01*
X63181428Y-53324318D02*
X63967619Y-53324318D01*
D11*
X132238095Y-61954819D02*
X132238095Y-62764342D01*
X132238095Y-62764342D02*
X132285714Y-62859580D01*
X132285714Y-62859580D02*
X132333333Y-62907200D01*
X132333333Y-62907200D02*
X132428571Y-62954819D01*
X132428571Y-62954819D02*
X132619047Y-62954819D01*
X132619047Y-62954819D02*
X132714285Y-62907200D01*
X132714285Y-62907200D02*
X132761904Y-62859580D01*
X132761904Y-62859580D02*
X132809523Y-62764342D01*
X132809523Y-62764342D02*
X132809523Y-61954819D01*
X133809523Y-62954819D02*
X133238095Y-62954819D01*
X133523809Y-62954819D02*
X133523809Y-61954819D01*
X133523809Y-61954819D02*
X133428571Y-62097676D01*
X133428571Y-62097676D02*
X133333333Y-62192914D01*
X133333333Y-62192914D02*
X133238095Y-62240533D01*
X137357142Y-80304819D02*
X137023809Y-79828628D01*
X136785714Y-80304819D02*
X136785714Y-79304819D01*
X136785714Y-79304819D02*
X137166666Y-79304819D01*
X137166666Y-79304819D02*
X137261904Y-79352438D01*
X137261904Y-79352438D02*
X137309523Y-79400057D01*
X137309523Y-79400057D02*
X137357142Y-79495295D01*
X137357142Y-79495295D02*
X137357142Y-79638152D01*
X137357142Y-79638152D02*
X137309523Y-79733390D01*
X137309523Y-79733390D02*
X137261904Y-79781009D01*
X137261904Y-79781009D02*
X137166666Y-79828628D01*
X137166666Y-79828628D02*
X136785714Y-79828628D01*
X138309523Y-80304819D02*
X137738095Y-80304819D01*
X138023809Y-80304819D02*
X138023809Y-79304819D01*
X138023809Y-79304819D02*
X137928571Y-79447676D01*
X137928571Y-79447676D02*
X137833333Y-79542914D01*
X137833333Y-79542914D02*
X137738095Y-79590533D01*
X138690476Y-79400057D02*
X138738095Y-79352438D01*
X138738095Y-79352438D02*
X138833333Y-79304819D01*
X138833333Y-79304819D02*
X139071428Y-79304819D01*
X139071428Y-79304819D02*
X139166666Y-79352438D01*
X139166666Y-79352438D02*
X139214285Y-79400057D01*
X139214285Y-79400057D02*
X139261904Y-79495295D01*
X139261904Y-79495295D02*
X139261904Y-79590533D01*
X139261904Y-79590533D02*
X139214285Y-79733390D01*
X139214285Y-79733390D02*
X138642857Y-80304819D01*
X138642857Y-80304819D02*
X139261904Y-80304819D01*
X131304819Y-88642857D02*
X130828628Y-88976190D01*
X131304819Y-89214285D02*
X130304819Y-89214285D01*
X130304819Y-89214285D02*
X130304819Y-88833333D01*
X130304819Y-88833333D02*
X130352438Y-88738095D01*
X130352438Y-88738095D02*
X130400057Y-88690476D01*
X130400057Y-88690476D02*
X130495295Y-88642857D01*
X130495295Y-88642857D02*
X130638152Y-88642857D01*
X130638152Y-88642857D02*
X130733390Y-88690476D01*
X130733390Y-88690476D02*
X130781009Y-88738095D01*
X130781009Y-88738095D02*
X130828628Y-88833333D01*
X130828628Y-88833333D02*
X130828628Y-89214285D01*
X131304819Y-87690476D02*
X131304819Y-88261904D01*
X131304819Y-87976190D02*
X130304819Y-87976190D01*
X130304819Y-87976190D02*
X130447676Y-88071428D01*
X130447676Y-88071428D02*
X130542914Y-88166666D01*
X130542914Y-88166666D02*
X130590533Y-88261904D01*
X131304819Y-86738095D02*
X131304819Y-87309523D01*
X131304819Y-87023809D02*
X130304819Y-87023809D01*
X130304819Y-87023809D02*
X130447676Y-87119047D01*
X130447676Y-87119047D02*
X130542914Y-87214285D01*
X130542914Y-87214285D02*
X130590533Y-87309523D01*
X74011905Y-80956819D02*
X74583333Y-80956819D01*
X74297619Y-81956819D02*
X74297619Y-80956819D01*
X74916667Y-81956819D02*
X74916667Y-80956819D01*
X74916667Y-80956819D02*
X75297619Y-80956819D01*
X75297619Y-80956819D02*
X75392857Y-81004438D01*
X75392857Y-81004438D02*
X75440476Y-81052057D01*
X75440476Y-81052057D02*
X75488095Y-81147295D01*
X75488095Y-81147295D02*
X75488095Y-81290152D01*
X75488095Y-81290152D02*
X75440476Y-81385390D01*
X75440476Y-81385390D02*
X75392857Y-81433009D01*
X75392857Y-81433009D02*
X75297619Y-81480628D01*
X75297619Y-81480628D02*
X74916667Y-81480628D01*
X76440476Y-81956819D02*
X75869048Y-81956819D01*
X76154762Y-81956819D02*
X76154762Y-80956819D01*
X76154762Y-80956819D02*
X76059524Y-81099676D01*
X76059524Y-81099676D02*
X75964286Y-81194914D01*
X75964286Y-81194914D02*
X75869048Y-81242533D01*
X76773810Y-80956819D02*
X77440476Y-80956819D01*
X77440476Y-80956819D02*
X77011905Y-81956819D01*
D14*
X80323119Y-97219237D02*
X80323119Y-96647809D01*
X81323119Y-96933523D02*
X80323119Y-96933523D01*
X80323119Y-96123999D02*
X80323119Y-95933523D01*
X80323119Y-95933523D02*
X80370738Y-95838285D01*
X80370738Y-95838285D02*
X80465976Y-95743047D01*
X80465976Y-95743047D02*
X80656452Y-95695428D01*
X80656452Y-95695428D02*
X80989785Y-95695428D01*
X80989785Y-95695428D02*
X81180261Y-95743047D01*
X81180261Y-95743047D02*
X81275500Y-95838285D01*
X81275500Y-95838285D02*
X81323119Y-95933523D01*
X81323119Y-95933523D02*
X81323119Y-96123999D01*
X81323119Y-96123999D02*
X81275500Y-96219237D01*
X81275500Y-96219237D02*
X81180261Y-96314475D01*
X81180261Y-96314475D02*
X80989785Y-96362094D01*
X80989785Y-96362094D02*
X80656452Y-96362094D01*
X80656452Y-96362094D02*
X80465976Y-96314475D01*
X80465976Y-96314475D02*
X80370738Y-96219237D01*
X80370738Y-96219237D02*
X80323119Y-96123999D01*
X80370738Y-94743047D02*
X80323119Y-94838285D01*
X80323119Y-94838285D02*
X80323119Y-94981142D01*
X80323119Y-94981142D02*
X80370738Y-95123999D01*
X80370738Y-95123999D02*
X80465976Y-95219237D01*
X80465976Y-95219237D02*
X80561214Y-95266856D01*
X80561214Y-95266856D02*
X80751690Y-95314475D01*
X80751690Y-95314475D02*
X80894547Y-95314475D01*
X80894547Y-95314475D02*
X81085023Y-95266856D01*
X81085023Y-95266856D02*
X81180261Y-95219237D01*
X81180261Y-95219237D02*
X81275500Y-95123999D01*
X81275500Y-95123999D02*
X81323119Y-94981142D01*
X81323119Y-94981142D02*
X81323119Y-94885904D01*
X81323119Y-94885904D02*
X81275500Y-94743047D01*
X81275500Y-94743047D02*
X81227880Y-94695428D01*
X81227880Y-94695428D02*
X80894547Y-94695428D01*
X80894547Y-94695428D02*
X80894547Y-94885904D01*
X81418357Y-94504952D02*
X81418357Y-93743047D01*
X80799309Y-93171618D02*
X80846928Y-93028761D01*
X80846928Y-93028761D02*
X80894547Y-92981142D01*
X80894547Y-92981142D02*
X80989785Y-92933523D01*
X80989785Y-92933523D02*
X81132642Y-92933523D01*
X81132642Y-92933523D02*
X81227880Y-92981142D01*
X81227880Y-92981142D02*
X81275500Y-93028761D01*
X81275500Y-93028761D02*
X81323119Y-93123999D01*
X81323119Y-93123999D02*
X81323119Y-93504951D01*
X81323119Y-93504951D02*
X80323119Y-93504951D01*
X80323119Y-93504951D02*
X80323119Y-93171618D01*
X80323119Y-93171618D02*
X80370738Y-93076380D01*
X80370738Y-93076380D02*
X80418357Y-93028761D01*
X80418357Y-93028761D02*
X80513595Y-92981142D01*
X80513595Y-92981142D02*
X80608833Y-92981142D01*
X80608833Y-92981142D02*
X80704071Y-93028761D01*
X80704071Y-93028761D02*
X80751690Y-93076380D01*
X80751690Y-93076380D02*
X80799309Y-93171618D01*
X80799309Y-93171618D02*
X80799309Y-93504951D01*
X80323119Y-92504951D02*
X81132642Y-92504951D01*
X81132642Y-92504951D02*
X81227880Y-92457332D01*
X81227880Y-92457332D02*
X81275500Y-92409713D01*
X81275500Y-92409713D02*
X81323119Y-92314475D01*
X81323119Y-92314475D02*
X81323119Y-92123999D01*
X81323119Y-92123999D02*
X81275500Y-92028761D01*
X81275500Y-92028761D02*
X81227880Y-91981142D01*
X81227880Y-91981142D02*
X81132642Y-91933523D01*
X81132642Y-91933523D02*
X80323119Y-91933523D01*
X80323119Y-91600189D02*
X80323119Y-91028761D01*
X81323119Y-91314475D02*
X80323119Y-91314475D01*
D11*
X100833333Y-82539580D02*
X100785714Y-82587200D01*
X100785714Y-82587200D02*
X100642857Y-82634819D01*
X100642857Y-82634819D02*
X100547619Y-82634819D01*
X100547619Y-82634819D02*
X100404762Y-82587200D01*
X100404762Y-82587200D02*
X100309524Y-82491961D01*
X100309524Y-82491961D02*
X100261905Y-82396723D01*
X100261905Y-82396723D02*
X100214286Y-82206247D01*
X100214286Y-82206247D02*
X100214286Y-82063390D01*
X100214286Y-82063390D02*
X100261905Y-81872914D01*
X100261905Y-81872914D02*
X100309524Y-81777676D01*
X100309524Y-81777676D02*
X100404762Y-81682438D01*
X100404762Y-81682438D02*
X100547619Y-81634819D01*
X100547619Y-81634819D02*
X100642857Y-81634819D01*
X100642857Y-81634819D02*
X100785714Y-81682438D01*
X100785714Y-81682438D02*
X100833333Y-81730057D01*
X101690476Y-81634819D02*
X101500000Y-81634819D01*
X101500000Y-81634819D02*
X101404762Y-81682438D01*
X101404762Y-81682438D02*
X101357143Y-81730057D01*
X101357143Y-81730057D02*
X101261905Y-81872914D01*
X101261905Y-81872914D02*
X101214286Y-82063390D01*
X101214286Y-82063390D02*
X101214286Y-82444342D01*
X101214286Y-82444342D02*
X101261905Y-82539580D01*
X101261905Y-82539580D02*
X101309524Y-82587200D01*
X101309524Y-82587200D02*
X101404762Y-82634819D01*
X101404762Y-82634819D02*
X101595238Y-82634819D01*
X101595238Y-82634819D02*
X101690476Y-82587200D01*
X101690476Y-82587200D02*
X101738095Y-82539580D01*
X101738095Y-82539580D02*
X101785714Y-82444342D01*
X101785714Y-82444342D02*
X101785714Y-82206247D01*
X101785714Y-82206247D02*
X101738095Y-82111009D01*
X101738095Y-82111009D02*
X101690476Y-82063390D01*
X101690476Y-82063390D02*
X101595238Y-82015771D01*
X101595238Y-82015771D02*
X101404762Y-82015771D01*
X101404762Y-82015771D02*
X101309524Y-82063390D01*
X101309524Y-82063390D02*
X101261905Y-82111009D01*
X101261905Y-82111009D02*
X101214286Y-82206247D01*
X113738095Y-70806819D02*
X114309523Y-70806819D01*
X114023809Y-71806819D02*
X114023809Y-70806819D01*
X114642857Y-71806819D02*
X114642857Y-70806819D01*
X114642857Y-70806819D02*
X115023809Y-70806819D01*
X115023809Y-70806819D02*
X115119047Y-70854438D01*
X115119047Y-70854438D02*
X115166666Y-70902057D01*
X115166666Y-70902057D02*
X115214285Y-70997295D01*
X115214285Y-70997295D02*
X115214285Y-71140152D01*
X115214285Y-71140152D02*
X115166666Y-71235390D01*
X115166666Y-71235390D02*
X115119047Y-71283009D01*
X115119047Y-71283009D02*
X115023809Y-71330628D01*
X115023809Y-71330628D02*
X114642857Y-71330628D01*
X115595238Y-70902057D02*
X115642857Y-70854438D01*
X115642857Y-70854438D02*
X115738095Y-70806819D01*
X115738095Y-70806819D02*
X115976190Y-70806819D01*
X115976190Y-70806819D02*
X116071428Y-70854438D01*
X116071428Y-70854438D02*
X116119047Y-70902057D01*
X116119047Y-70902057D02*
X116166666Y-70997295D01*
X116166666Y-70997295D02*
X116166666Y-71092533D01*
X116166666Y-71092533D02*
X116119047Y-71235390D01*
X116119047Y-71235390D02*
X115547619Y-71806819D01*
X115547619Y-71806819D02*
X116166666Y-71806819D01*
X123804819Y-56166666D02*
X123328628Y-56499999D01*
X123804819Y-56738094D02*
X122804819Y-56738094D01*
X122804819Y-56738094D02*
X122804819Y-56357142D01*
X122804819Y-56357142D02*
X122852438Y-56261904D01*
X122852438Y-56261904D02*
X122900057Y-56214285D01*
X122900057Y-56214285D02*
X122995295Y-56166666D01*
X122995295Y-56166666D02*
X123138152Y-56166666D01*
X123138152Y-56166666D02*
X123233390Y-56214285D01*
X123233390Y-56214285D02*
X123281009Y-56261904D01*
X123281009Y-56261904D02*
X123328628Y-56357142D01*
X123328628Y-56357142D02*
X123328628Y-56738094D01*
X123804819Y-55690475D02*
X123804819Y-55499999D01*
X123804819Y-55499999D02*
X123757200Y-55404761D01*
X123757200Y-55404761D02*
X123709580Y-55357142D01*
X123709580Y-55357142D02*
X123566723Y-55261904D01*
X123566723Y-55261904D02*
X123376247Y-55214285D01*
X123376247Y-55214285D02*
X122995295Y-55214285D01*
X122995295Y-55214285D02*
X122900057Y-55261904D01*
X122900057Y-55261904D02*
X122852438Y-55309523D01*
X122852438Y-55309523D02*
X122804819Y-55404761D01*
X122804819Y-55404761D02*
X122804819Y-55595237D01*
X122804819Y-55595237D02*
X122852438Y-55690475D01*
X122852438Y-55690475D02*
X122900057Y-55738094D01*
X122900057Y-55738094D02*
X122995295Y-55785713D01*
X122995295Y-55785713D02*
X123233390Y-55785713D01*
X123233390Y-55785713D02*
X123328628Y-55738094D01*
X123328628Y-55738094D02*
X123376247Y-55690475D01*
X123376247Y-55690475D02*
X123423866Y-55595237D01*
X123423866Y-55595237D02*
X123423866Y-55404761D01*
X123423866Y-55404761D02*
X123376247Y-55309523D01*
X123376247Y-55309523D02*
X123328628Y-55261904D01*
X123328628Y-55261904D02*
X123233390Y-55214285D01*
X102189819Y-97015713D02*
X101189819Y-97015713D01*
X101189819Y-97015713D02*
X101189819Y-96634761D01*
X101189819Y-96634761D02*
X101237438Y-96539523D01*
X101237438Y-96539523D02*
X101285057Y-96491904D01*
X101285057Y-96491904D02*
X101380295Y-96444285D01*
X101380295Y-96444285D02*
X101523152Y-96444285D01*
X101523152Y-96444285D02*
X101618390Y-96491904D01*
X101618390Y-96491904D02*
X101666009Y-96539523D01*
X101666009Y-96539523D02*
X101713628Y-96634761D01*
X101713628Y-96634761D02*
X101713628Y-97015713D01*
X101189819Y-95825237D02*
X101189819Y-95634761D01*
X101189819Y-95634761D02*
X101237438Y-95539523D01*
X101237438Y-95539523D02*
X101332676Y-95444285D01*
X101332676Y-95444285D02*
X101523152Y-95396666D01*
X101523152Y-95396666D02*
X101856485Y-95396666D01*
X101856485Y-95396666D02*
X102046961Y-95444285D01*
X102046961Y-95444285D02*
X102142200Y-95539523D01*
X102142200Y-95539523D02*
X102189819Y-95634761D01*
X102189819Y-95634761D02*
X102189819Y-95825237D01*
X102189819Y-95825237D02*
X102142200Y-95920475D01*
X102142200Y-95920475D02*
X102046961Y-96015713D01*
X102046961Y-96015713D02*
X101856485Y-96063332D01*
X101856485Y-96063332D02*
X101523152Y-96063332D01*
X101523152Y-96063332D02*
X101332676Y-96015713D01*
X101332676Y-96015713D02*
X101237438Y-95920475D01*
X101237438Y-95920475D02*
X101189819Y-95825237D01*
X101189819Y-95063332D02*
X102189819Y-94825237D01*
X102189819Y-94825237D02*
X101475533Y-94634761D01*
X101475533Y-94634761D02*
X102189819Y-94444285D01*
X102189819Y-94444285D02*
X101189819Y-94206190D01*
X102285057Y-94063333D02*
X102285057Y-93301428D01*
X102142200Y-93110951D02*
X102189819Y-92968094D01*
X102189819Y-92968094D02*
X102189819Y-92729999D01*
X102189819Y-92729999D02*
X102142200Y-92634761D01*
X102142200Y-92634761D02*
X102094580Y-92587142D01*
X102094580Y-92587142D02*
X101999342Y-92539523D01*
X101999342Y-92539523D02*
X101904104Y-92539523D01*
X101904104Y-92539523D02*
X101808866Y-92587142D01*
X101808866Y-92587142D02*
X101761247Y-92634761D01*
X101761247Y-92634761D02*
X101713628Y-92729999D01*
X101713628Y-92729999D02*
X101666009Y-92920475D01*
X101666009Y-92920475D02*
X101618390Y-93015713D01*
X101618390Y-93015713D02*
X101570771Y-93063332D01*
X101570771Y-93063332D02*
X101475533Y-93110951D01*
X101475533Y-93110951D02*
X101380295Y-93110951D01*
X101380295Y-93110951D02*
X101285057Y-93063332D01*
X101285057Y-93063332D02*
X101237438Y-93015713D01*
X101237438Y-93015713D02*
X101189819Y-92920475D01*
X101189819Y-92920475D02*
X101189819Y-92682380D01*
X101189819Y-92682380D02*
X101237438Y-92539523D01*
X101189819Y-92206189D02*
X102189819Y-91968094D01*
X102189819Y-91968094D02*
X101475533Y-91777618D01*
X101475533Y-91777618D02*
X102189819Y-91587142D01*
X102189819Y-91587142D02*
X101189819Y-91349047D01*
X149738095Y-72806819D02*
X150309523Y-72806819D01*
X150023809Y-73806819D02*
X150023809Y-72806819D01*
X150642857Y-73806819D02*
X150642857Y-72806819D01*
X150642857Y-72806819D02*
X151023809Y-72806819D01*
X151023809Y-72806819D02*
X151119047Y-72854438D01*
X151119047Y-72854438D02*
X151166666Y-72902057D01*
X151166666Y-72902057D02*
X151214285Y-72997295D01*
X151214285Y-72997295D02*
X151214285Y-73140152D01*
X151214285Y-73140152D02*
X151166666Y-73235390D01*
X151166666Y-73235390D02*
X151119047Y-73283009D01*
X151119047Y-73283009D02*
X151023809Y-73330628D01*
X151023809Y-73330628D02*
X150642857Y-73330628D01*
X152071428Y-72806819D02*
X151880952Y-72806819D01*
X151880952Y-72806819D02*
X151785714Y-72854438D01*
X151785714Y-72854438D02*
X151738095Y-72902057D01*
X151738095Y-72902057D02*
X151642857Y-73044914D01*
X151642857Y-73044914D02*
X151595238Y-73235390D01*
X151595238Y-73235390D02*
X151595238Y-73616342D01*
X151595238Y-73616342D02*
X151642857Y-73711580D01*
X151642857Y-73711580D02*
X151690476Y-73759200D01*
X151690476Y-73759200D02*
X151785714Y-73806819D01*
X151785714Y-73806819D02*
X151976190Y-73806819D01*
X151976190Y-73806819D02*
X152071428Y-73759200D01*
X152071428Y-73759200D02*
X152119047Y-73711580D01*
X152119047Y-73711580D02*
X152166666Y-73616342D01*
X152166666Y-73616342D02*
X152166666Y-73378247D01*
X152166666Y-73378247D02*
X152119047Y-73283009D01*
X152119047Y-73283009D02*
X152071428Y-73235390D01*
X152071428Y-73235390D02*
X151976190Y-73187771D01*
X151976190Y-73187771D02*
X151785714Y-73187771D01*
X151785714Y-73187771D02*
X151690476Y-73235390D01*
X151690476Y-73235390D02*
X151642857Y-73283009D01*
X151642857Y-73283009D02*
X151595238Y-73378247D01*
X144666666Y-68954819D02*
X144666666Y-69669104D01*
X144666666Y-69669104D02*
X144619047Y-69811961D01*
X144619047Y-69811961D02*
X144523809Y-69907200D01*
X144523809Y-69907200D02*
X144380952Y-69954819D01*
X144380952Y-69954819D02*
X144285714Y-69954819D01*
X145095238Y-69050057D02*
X145142857Y-69002438D01*
X145142857Y-69002438D02*
X145238095Y-68954819D01*
X145238095Y-68954819D02*
X145476190Y-68954819D01*
X145476190Y-68954819D02*
X145571428Y-69002438D01*
X145571428Y-69002438D02*
X145619047Y-69050057D01*
X145619047Y-69050057D02*
X145666666Y-69145295D01*
X145666666Y-69145295D02*
X145666666Y-69240533D01*
X145666666Y-69240533D02*
X145619047Y-69383390D01*
X145619047Y-69383390D02*
X145047619Y-69954819D01*
X145047619Y-69954819D02*
X145666666Y-69954819D01*
X147221904Y-65779580D02*
X147174285Y-65827200D01*
X147174285Y-65827200D02*
X147031428Y-65874819D01*
X147031428Y-65874819D02*
X146936190Y-65874819D01*
X146936190Y-65874819D02*
X146793333Y-65827200D01*
X146793333Y-65827200D02*
X146698095Y-65731961D01*
X146698095Y-65731961D02*
X146650476Y-65636723D01*
X146650476Y-65636723D02*
X146602857Y-65446247D01*
X146602857Y-65446247D02*
X146602857Y-65303390D01*
X146602857Y-65303390D02*
X146650476Y-65112914D01*
X146650476Y-65112914D02*
X146698095Y-65017676D01*
X146698095Y-65017676D02*
X146793333Y-64922438D01*
X146793333Y-64922438D02*
X146936190Y-64874819D01*
X146936190Y-64874819D02*
X147031428Y-64874819D01*
X147031428Y-64874819D02*
X147174285Y-64922438D01*
X147174285Y-64922438D02*
X147221904Y-64970057D01*
X147793333Y-65874819D02*
X147698095Y-65827200D01*
X147698095Y-65827200D02*
X147650476Y-65779580D01*
X147650476Y-65779580D02*
X147602857Y-65684342D01*
X147602857Y-65684342D02*
X147602857Y-65398628D01*
X147602857Y-65398628D02*
X147650476Y-65303390D01*
X147650476Y-65303390D02*
X147698095Y-65255771D01*
X147698095Y-65255771D02*
X147793333Y-65208152D01*
X147793333Y-65208152D02*
X147936190Y-65208152D01*
X147936190Y-65208152D02*
X148031428Y-65255771D01*
X148031428Y-65255771D02*
X148079047Y-65303390D01*
X148079047Y-65303390D02*
X148126666Y-65398628D01*
X148126666Y-65398628D02*
X148126666Y-65684342D01*
X148126666Y-65684342D02*
X148079047Y-65779580D01*
X148079047Y-65779580D02*
X148031428Y-65827200D01*
X148031428Y-65827200D02*
X147936190Y-65874819D01*
X147936190Y-65874819D02*
X147793333Y-65874819D01*
X148555238Y-65208152D02*
X148555238Y-65874819D01*
X148555238Y-65303390D02*
X148602857Y-65255771D01*
X148602857Y-65255771D02*
X148698095Y-65208152D01*
X148698095Y-65208152D02*
X148840952Y-65208152D01*
X148840952Y-65208152D02*
X148936190Y-65255771D01*
X148936190Y-65255771D02*
X148983809Y-65351009D01*
X148983809Y-65351009D02*
X148983809Y-65874819D01*
X149460000Y-65208152D02*
X149460000Y-65874819D01*
X149460000Y-65303390D02*
X149507619Y-65255771D01*
X149507619Y-65255771D02*
X149602857Y-65208152D01*
X149602857Y-65208152D02*
X149745714Y-65208152D01*
X149745714Y-65208152D02*
X149840952Y-65255771D01*
X149840952Y-65255771D02*
X149888571Y-65351009D01*
X149888571Y-65351009D02*
X149888571Y-65874819D01*
X150126667Y-65970057D02*
X150888571Y-65970057D01*
X151317143Y-64874819D02*
X151412381Y-64874819D01*
X151412381Y-64874819D02*
X151507619Y-64922438D01*
X151507619Y-64922438D02*
X151555238Y-64970057D01*
X151555238Y-64970057D02*
X151602857Y-65065295D01*
X151602857Y-65065295D02*
X151650476Y-65255771D01*
X151650476Y-65255771D02*
X151650476Y-65493866D01*
X151650476Y-65493866D02*
X151602857Y-65684342D01*
X151602857Y-65684342D02*
X151555238Y-65779580D01*
X151555238Y-65779580D02*
X151507619Y-65827200D01*
X151507619Y-65827200D02*
X151412381Y-65874819D01*
X151412381Y-65874819D02*
X151317143Y-65874819D01*
X151317143Y-65874819D02*
X151221905Y-65827200D01*
X151221905Y-65827200D02*
X151174286Y-65779580D01*
X151174286Y-65779580D02*
X151126667Y-65684342D01*
X151126667Y-65684342D02*
X151079048Y-65493866D01*
X151079048Y-65493866D02*
X151079048Y-65255771D01*
X151079048Y-65255771D02*
X151126667Y-65065295D01*
X151126667Y-65065295D02*
X151174286Y-64970057D01*
X151174286Y-64970057D02*
X151221905Y-64922438D01*
X151221905Y-64922438D02*
X151317143Y-64874819D01*
X152602857Y-65874819D02*
X152031429Y-65874819D01*
X152317143Y-65874819D02*
X152317143Y-64874819D01*
X152317143Y-64874819D02*
X152221905Y-65017676D01*
X152221905Y-65017676D02*
X152126667Y-65112914D01*
X152126667Y-65112914D02*
X152031429Y-65160533D01*
X152936191Y-65874819D02*
X153460000Y-65208152D01*
X152936191Y-65208152D02*
X153460000Y-65874819D01*
X154031429Y-64874819D02*
X154126667Y-64874819D01*
X154126667Y-64874819D02*
X154221905Y-64922438D01*
X154221905Y-64922438D02*
X154269524Y-64970057D01*
X154269524Y-64970057D02*
X154317143Y-65065295D01*
X154317143Y-65065295D02*
X154364762Y-65255771D01*
X154364762Y-65255771D02*
X154364762Y-65493866D01*
X154364762Y-65493866D02*
X154317143Y-65684342D01*
X154317143Y-65684342D02*
X154269524Y-65779580D01*
X154269524Y-65779580D02*
X154221905Y-65827200D01*
X154221905Y-65827200D02*
X154126667Y-65874819D01*
X154126667Y-65874819D02*
X154031429Y-65874819D01*
X154031429Y-65874819D02*
X153936191Y-65827200D01*
X153936191Y-65827200D02*
X153888572Y-65779580D01*
X153888572Y-65779580D02*
X153840953Y-65684342D01*
X153840953Y-65684342D02*
X153793334Y-65493866D01*
X153793334Y-65493866D02*
X153793334Y-65255771D01*
X153793334Y-65255771D02*
X153840953Y-65065295D01*
X153840953Y-65065295D02*
X153888572Y-64970057D01*
X153888572Y-64970057D02*
X153936191Y-64922438D01*
X153936191Y-64922438D02*
X154031429Y-64874819D01*
X154698096Y-64874819D02*
X155317143Y-64874819D01*
X155317143Y-64874819D02*
X154983810Y-65255771D01*
X154983810Y-65255771D02*
X155126667Y-65255771D01*
X155126667Y-65255771D02*
X155221905Y-65303390D01*
X155221905Y-65303390D02*
X155269524Y-65351009D01*
X155269524Y-65351009D02*
X155317143Y-65446247D01*
X155317143Y-65446247D02*
X155317143Y-65684342D01*
X155317143Y-65684342D02*
X155269524Y-65779580D01*
X155269524Y-65779580D02*
X155221905Y-65827200D01*
X155221905Y-65827200D02*
X155126667Y-65874819D01*
X155126667Y-65874819D02*
X154840953Y-65874819D01*
X154840953Y-65874819D02*
X154745715Y-65827200D01*
X154745715Y-65827200D02*
X154698096Y-65779580D01*
X147859581Y-80666666D02*
X147907201Y-80714285D01*
X147907201Y-80714285D02*
X147954820Y-80857142D01*
X147954820Y-80857142D02*
X147954820Y-80952380D01*
X147954820Y-80952380D02*
X147907201Y-81095237D01*
X147907201Y-81095237D02*
X147811962Y-81190475D01*
X147811962Y-81190475D02*
X147716724Y-81238094D01*
X147716724Y-81238094D02*
X147526248Y-81285713D01*
X147526248Y-81285713D02*
X147383391Y-81285713D01*
X147383391Y-81285713D02*
X147192915Y-81238094D01*
X147192915Y-81238094D02*
X147097677Y-81190475D01*
X147097677Y-81190475D02*
X147002439Y-81095237D01*
X147002439Y-81095237D02*
X146954820Y-80952380D01*
X146954820Y-80952380D02*
X146954820Y-80857142D01*
X146954820Y-80857142D02*
X147002439Y-80714285D01*
X147002439Y-80714285D02*
X147050058Y-80666666D01*
X147050058Y-80285713D02*
X147002439Y-80238094D01*
X147002439Y-80238094D02*
X146954820Y-80142856D01*
X146954820Y-80142856D02*
X146954820Y-79904761D01*
X146954820Y-79904761D02*
X147002439Y-79809523D01*
X147002439Y-79809523D02*
X147050058Y-79761904D01*
X147050058Y-79761904D02*
X147145296Y-79714285D01*
X147145296Y-79714285D02*
X147240534Y-79714285D01*
X147240534Y-79714285D02*
X147383391Y-79761904D01*
X147383391Y-79761904D02*
X147954820Y-80333332D01*
X147954820Y-80333332D02*
X147954820Y-79714285D01*
X104011905Y-64756819D02*
X104583333Y-64756819D01*
X104297619Y-65756819D02*
X104297619Y-64756819D01*
X104916667Y-65756819D02*
X104916667Y-64756819D01*
X104916667Y-64756819D02*
X105297619Y-64756819D01*
X105297619Y-64756819D02*
X105392857Y-64804438D01*
X105392857Y-64804438D02*
X105440476Y-64852057D01*
X105440476Y-64852057D02*
X105488095Y-64947295D01*
X105488095Y-64947295D02*
X105488095Y-65090152D01*
X105488095Y-65090152D02*
X105440476Y-65185390D01*
X105440476Y-65185390D02*
X105392857Y-65233009D01*
X105392857Y-65233009D02*
X105297619Y-65280628D01*
X105297619Y-65280628D02*
X104916667Y-65280628D01*
X106440476Y-65756819D02*
X105869048Y-65756819D01*
X106154762Y-65756819D02*
X106154762Y-64756819D01*
X106154762Y-64756819D02*
X106059524Y-64899676D01*
X106059524Y-64899676D02*
X105964286Y-64994914D01*
X105964286Y-64994914D02*
X105869048Y-65042533D01*
X107345238Y-64756819D02*
X106869048Y-64756819D01*
X106869048Y-64756819D02*
X106821429Y-65233009D01*
X106821429Y-65233009D02*
X106869048Y-65185390D01*
X106869048Y-65185390D02*
X106964286Y-65137771D01*
X106964286Y-65137771D02*
X107202381Y-65137771D01*
X107202381Y-65137771D02*
X107297619Y-65185390D01*
X107297619Y-65185390D02*
X107345238Y-65233009D01*
X107345238Y-65233009D02*
X107392857Y-65328247D01*
X107392857Y-65328247D02*
X107392857Y-65566342D01*
X107392857Y-65566342D02*
X107345238Y-65661580D01*
X107345238Y-65661580D02*
X107297619Y-65709200D01*
X107297619Y-65709200D02*
X107202381Y-65756819D01*
X107202381Y-65756819D02*
X106964286Y-65756819D01*
X106964286Y-65756819D02*
X106869048Y-65709200D01*
X106869048Y-65709200D02*
X106821429Y-65661580D01*
D13*
X62032380Y-62013842D02*
X62213809Y-62074318D01*
X62213809Y-62074318D02*
X62516190Y-62074318D01*
X62516190Y-62074318D02*
X62637142Y-62013842D01*
X62637142Y-62013842D02*
X62697618Y-61953365D01*
X62697618Y-61953365D02*
X62758095Y-61832413D01*
X62758095Y-61832413D02*
X62758095Y-61711461D01*
X62758095Y-61711461D02*
X62697618Y-61590508D01*
X62697618Y-61590508D02*
X62637142Y-61530032D01*
X62637142Y-61530032D02*
X62516190Y-61469556D01*
X62516190Y-61469556D02*
X62274285Y-61409080D01*
X62274285Y-61409080D02*
X62153333Y-61348603D01*
X62153333Y-61348603D02*
X62092856Y-61288127D01*
X62092856Y-61288127D02*
X62032380Y-61167175D01*
X62032380Y-61167175D02*
X62032380Y-61046222D01*
X62032380Y-61046222D02*
X62092856Y-60925270D01*
X62092856Y-60925270D02*
X62153333Y-60864794D01*
X62153333Y-60864794D02*
X62274285Y-60804318D01*
X62274285Y-60804318D02*
X62576666Y-60804318D01*
X62576666Y-60804318D02*
X62758095Y-60864794D01*
X63967619Y-62074318D02*
X63241904Y-62074318D01*
X63604761Y-62074318D02*
X63604761Y-60804318D01*
X63604761Y-60804318D02*
X63483809Y-60985746D01*
X63483809Y-60985746D02*
X63362857Y-61106699D01*
X63362857Y-61106699D02*
X63241904Y-61167175D01*
D11*
X151896666Y-47584819D02*
X151896666Y-48299104D01*
X151896666Y-48299104D02*
X151849047Y-48441961D01*
X151849047Y-48441961D02*
X151753809Y-48537200D01*
X151753809Y-48537200D02*
X151610952Y-48584819D01*
X151610952Y-48584819D02*
X151515714Y-48584819D01*
X152801428Y-47584819D02*
X152610952Y-47584819D01*
X152610952Y-47584819D02*
X152515714Y-47632438D01*
X152515714Y-47632438D02*
X152468095Y-47680057D01*
X152468095Y-47680057D02*
X152372857Y-47822914D01*
X152372857Y-47822914D02*
X152325238Y-48013390D01*
X152325238Y-48013390D02*
X152325238Y-48394342D01*
X152325238Y-48394342D02*
X152372857Y-48489580D01*
X152372857Y-48489580D02*
X152420476Y-48537200D01*
X152420476Y-48537200D02*
X152515714Y-48584819D01*
X152515714Y-48584819D02*
X152706190Y-48584819D01*
X152706190Y-48584819D02*
X152801428Y-48537200D01*
X152801428Y-48537200D02*
X152849047Y-48489580D01*
X152849047Y-48489580D02*
X152896666Y-48394342D01*
X152896666Y-48394342D02*
X152896666Y-48156247D01*
X152896666Y-48156247D02*
X152849047Y-48061009D01*
X152849047Y-48061009D02*
X152801428Y-48013390D01*
X152801428Y-48013390D02*
X152706190Y-47965771D01*
X152706190Y-47965771D02*
X152515714Y-47965771D01*
X152515714Y-47965771D02*
X152420476Y-48013390D01*
X152420476Y-48013390D02*
X152372857Y-48061009D01*
X152372857Y-48061009D02*
X152325238Y-48156247D01*
X150444286Y-56784819D02*
X150444286Y-55784819D01*
X150444286Y-55784819D02*
X150825238Y-55784819D01*
X150825238Y-55784819D02*
X150920476Y-55832438D01*
X150920476Y-55832438D02*
X150968095Y-55880057D01*
X150968095Y-55880057D02*
X151015714Y-55975295D01*
X151015714Y-55975295D02*
X151015714Y-56118152D01*
X151015714Y-56118152D02*
X150968095Y-56213390D01*
X150968095Y-56213390D02*
X150920476Y-56261009D01*
X150920476Y-56261009D02*
X150825238Y-56308628D01*
X150825238Y-56308628D02*
X150444286Y-56308628D01*
X151444286Y-56784819D02*
X151444286Y-56118152D01*
X151444286Y-55784819D02*
X151396667Y-55832438D01*
X151396667Y-55832438D02*
X151444286Y-55880057D01*
X151444286Y-55880057D02*
X151491905Y-55832438D01*
X151491905Y-55832438D02*
X151444286Y-55784819D01*
X151444286Y-55784819D02*
X151444286Y-55880057D01*
X152301428Y-56737200D02*
X152206190Y-56784819D01*
X152206190Y-56784819D02*
X152015714Y-56784819D01*
X152015714Y-56784819D02*
X151920476Y-56737200D01*
X151920476Y-56737200D02*
X151872857Y-56641961D01*
X151872857Y-56641961D02*
X151872857Y-56261009D01*
X151872857Y-56261009D02*
X151920476Y-56165771D01*
X151920476Y-56165771D02*
X152015714Y-56118152D01*
X152015714Y-56118152D02*
X152206190Y-56118152D01*
X152206190Y-56118152D02*
X152301428Y-56165771D01*
X152301428Y-56165771D02*
X152349047Y-56261009D01*
X152349047Y-56261009D02*
X152349047Y-56356247D01*
X152349047Y-56356247D02*
X151872857Y-56451485D01*
X152682381Y-56118152D02*
X153206190Y-56118152D01*
X153206190Y-56118152D02*
X152682381Y-56784819D01*
X152682381Y-56784819D02*
X153206190Y-56784819D01*
X153730000Y-56784819D02*
X153634762Y-56737200D01*
X153634762Y-56737200D02*
X153587143Y-56689580D01*
X153587143Y-56689580D02*
X153539524Y-56594342D01*
X153539524Y-56594342D02*
X153539524Y-56308628D01*
X153539524Y-56308628D02*
X153587143Y-56213390D01*
X153587143Y-56213390D02*
X153634762Y-56165771D01*
X153634762Y-56165771D02*
X153730000Y-56118152D01*
X153730000Y-56118152D02*
X153872857Y-56118152D01*
X153872857Y-56118152D02*
X153968095Y-56165771D01*
X153968095Y-56165771D02*
X154015714Y-56213390D01*
X154015714Y-56213390D02*
X154063333Y-56308628D01*
X154063333Y-56308628D02*
X154063333Y-56594342D01*
X154063333Y-56594342D02*
X154015714Y-56689580D01*
X154015714Y-56689580D02*
X153968095Y-56737200D01*
X153968095Y-56737200D02*
X153872857Y-56784819D01*
X153872857Y-56784819D02*
X153730000Y-56784819D01*
X151357142Y-87179580D02*
X151309523Y-87227200D01*
X151309523Y-87227200D02*
X151166666Y-87274819D01*
X151166666Y-87274819D02*
X151071428Y-87274819D01*
X151071428Y-87274819D02*
X150928571Y-87227200D01*
X150928571Y-87227200D02*
X150833333Y-87131961D01*
X150833333Y-87131961D02*
X150785714Y-87036723D01*
X150785714Y-87036723D02*
X150738095Y-86846247D01*
X150738095Y-86846247D02*
X150738095Y-86703390D01*
X150738095Y-86703390D02*
X150785714Y-86512914D01*
X150785714Y-86512914D02*
X150833333Y-86417676D01*
X150833333Y-86417676D02*
X150928571Y-86322438D01*
X150928571Y-86322438D02*
X151071428Y-86274819D01*
X151071428Y-86274819D02*
X151166666Y-86274819D01*
X151166666Y-86274819D02*
X151309523Y-86322438D01*
X151309523Y-86322438D02*
X151357142Y-86370057D01*
X151738095Y-86370057D02*
X151785714Y-86322438D01*
X151785714Y-86322438D02*
X151880952Y-86274819D01*
X151880952Y-86274819D02*
X152119047Y-86274819D01*
X152119047Y-86274819D02*
X152214285Y-86322438D01*
X152214285Y-86322438D02*
X152261904Y-86370057D01*
X152261904Y-86370057D02*
X152309523Y-86465295D01*
X152309523Y-86465295D02*
X152309523Y-86560533D01*
X152309523Y-86560533D02*
X152261904Y-86703390D01*
X152261904Y-86703390D02*
X151690476Y-87274819D01*
X151690476Y-87274819D02*
X152309523Y-87274819D01*
X153214285Y-86274819D02*
X152738095Y-86274819D01*
X152738095Y-86274819D02*
X152690476Y-86751009D01*
X152690476Y-86751009D02*
X152738095Y-86703390D01*
X152738095Y-86703390D02*
X152833333Y-86655771D01*
X152833333Y-86655771D02*
X153071428Y-86655771D01*
X153071428Y-86655771D02*
X153166666Y-86703390D01*
X153166666Y-86703390D02*
X153214285Y-86751009D01*
X153214285Y-86751009D02*
X153261904Y-86846247D01*
X153261904Y-86846247D02*
X153261904Y-87084342D01*
X153261904Y-87084342D02*
X153214285Y-87179580D01*
X153214285Y-87179580D02*
X153166666Y-87227200D01*
X153166666Y-87227200D02*
X153071428Y-87274819D01*
X153071428Y-87274819D02*
X152833333Y-87274819D01*
X152833333Y-87274819D02*
X152738095Y-87227200D01*
X152738095Y-87227200D02*
X152690476Y-87179580D01*
X114857142Y-80304819D02*
X114523809Y-79828628D01*
X114285714Y-80304819D02*
X114285714Y-79304819D01*
X114285714Y-79304819D02*
X114666666Y-79304819D01*
X114666666Y-79304819D02*
X114761904Y-79352438D01*
X114761904Y-79352438D02*
X114809523Y-79400057D01*
X114809523Y-79400057D02*
X114857142Y-79495295D01*
X114857142Y-79495295D02*
X114857142Y-79638152D01*
X114857142Y-79638152D02*
X114809523Y-79733390D01*
X114809523Y-79733390D02*
X114761904Y-79781009D01*
X114761904Y-79781009D02*
X114666666Y-79828628D01*
X114666666Y-79828628D02*
X114285714Y-79828628D01*
X115809523Y-80304819D02*
X115238095Y-80304819D01*
X115523809Y-80304819D02*
X115523809Y-79304819D01*
X115523809Y-79304819D02*
X115428571Y-79447676D01*
X115428571Y-79447676D02*
X115333333Y-79542914D01*
X115333333Y-79542914D02*
X115238095Y-79590533D01*
X116142857Y-79304819D02*
X116761904Y-79304819D01*
X116761904Y-79304819D02*
X116428571Y-79685771D01*
X116428571Y-79685771D02*
X116571428Y-79685771D01*
X116571428Y-79685771D02*
X116666666Y-79733390D01*
X116666666Y-79733390D02*
X116714285Y-79781009D01*
X116714285Y-79781009D02*
X116761904Y-79876247D01*
X116761904Y-79876247D02*
X116761904Y-80114342D01*
X116761904Y-80114342D02*
X116714285Y-80209580D01*
X116714285Y-80209580D02*
X116666666Y-80257200D01*
X116666666Y-80257200D02*
X116571428Y-80304819D01*
X116571428Y-80304819D02*
X116285714Y-80304819D01*
X116285714Y-80304819D02*
X116190476Y-80257200D01*
X116190476Y-80257200D02*
X116142857Y-80209580D01*
X118761905Y-84306819D02*
X119333333Y-84306819D01*
X119047619Y-85306819D02*
X119047619Y-84306819D01*
X119666667Y-85306819D02*
X119666667Y-84306819D01*
X119666667Y-84306819D02*
X120047619Y-84306819D01*
X120047619Y-84306819D02*
X120142857Y-84354438D01*
X120142857Y-84354438D02*
X120190476Y-84402057D01*
X120190476Y-84402057D02*
X120238095Y-84497295D01*
X120238095Y-84497295D02*
X120238095Y-84640152D01*
X120238095Y-84640152D02*
X120190476Y-84735390D01*
X120190476Y-84735390D02*
X120142857Y-84783009D01*
X120142857Y-84783009D02*
X120047619Y-84830628D01*
X120047619Y-84830628D02*
X119666667Y-84830628D01*
X121190476Y-85306819D02*
X120619048Y-85306819D01*
X120904762Y-85306819D02*
X120904762Y-84306819D01*
X120904762Y-84306819D02*
X120809524Y-84449676D01*
X120809524Y-84449676D02*
X120714286Y-84544914D01*
X120714286Y-84544914D02*
X120619048Y-84592533D01*
X122047619Y-84306819D02*
X121857143Y-84306819D01*
X121857143Y-84306819D02*
X121761905Y-84354438D01*
X121761905Y-84354438D02*
X121714286Y-84402057D01*
X121714286Y-84402057D02*
X121619048Y-84544914D01*
X121619048Y-84544914D02*
X121571429Y-84735390D01*
X121571429Y-84735390D02*
X121571429Y-85116342D01*
X121571429Y-85116342D02*
X121619048Y-85211580D01*
X121619048Y-85211580D02*
X121666667Y-85259200D01*
X121666667Y-85259200D02*
X121761905Y-85306819D01*
X121761905Y-85306819D02*
X121952381Y-85306819D01*
X121952381Y-85306819D02*
X122047619Y-85259200D01*
X122047619Y-85259200D02*
X122095238Y-85211580D01*
X122095238Y-85211580D02*
X122142857Y-85116342D01*
X122142857Y-85116342D02*
X122142857Y-84878247D01*
X122142857Y-84878247D02*
X122095238Y-84783009D01*
X122095238Y-84783009D02*
X122047619Y-84735390D01*
X122047619Y-84735390D02*
X121952381Y-84687771D01*
X121952381Y-84687771D02*
X121761905Y-84687771D01*
X121761905Y-84687771D02*
X121666667Y-84735390D01*
X121666667Y-84735390D02*
X121619048Y-84783009D01*
X121619048Y-84783009D02*
X121571429Y-84878247D01*
X93333333Y-87104819D02*
X93000000Y-86628628D01*
X92761905Y-87104819D02*
X92761905Y-86104819D01*
X92761905Y-86104819D02*
X93142857Y-86104819D01*
X93142857Y-86104819D02*
X93238095Y-86152438D01*
X93238095Y-86152438D02*
X93285714Y-86200057D01*
X93285714Y-86200057D02*
X93333333Y-86295295D01*
X93333333Y-86295295D02*
X93333333Y-86438152D01*
X93333333Y-86438152D02*
X93285714Y-86533390D01*
X93285714Y-86533390D02*
X93238095Y-86581009D01*
X93238095Y-86581009D02*
X93142857Y-86628628D01*
X93142857Y-86628628D02*
X92761905Y-86628628D01*
X93666667Y-86104819D02*
X94285714Y-86104819D01*
X94285714Y-86104819D02*
X93952381Y-86485771D01*
X93952381Y-86485771D02*
X94095238Y-86485771D01*
X94095238Y-86485771D02*
X94190476Y-86533390D01*
X94190476Y-86533390D02*
X94238095Y-86581009D01*
X94238095Y-86581009D02*
X94285714Y-86676247D01*
X94285714Y-86676247D02*
X94285714Y-86914342D01*
X94285714Y-86914342D02*
X94238095Y-87009580D01*
X94238095Y-87009580D02*
X94190476Y-87057200D01*
X94190476Y-87057200D02*
X94095238Y-87104819D01*
X94095238Y-87104819D02*
X93809524Y-87104819D01*
X93809524Y-87104819D02*
X93714286Y-87057200D01*
X93714286Y-87057200D02*
X93666667Y-87009580D01*
X138333333Y-66104819D02*
X138000000Y-65628628D01*
X137761905Y-66104819D02*
X137761905Y-65104819D01*
X137761905Y-65104819D02*
X138142857Y-65104819D01*
X138142857Y-65104819D02*
X138238095Y-65152438D01*
X138238095Y-65152438D02*
X138285714Y-65200057D01*
X138285714Y-65200057D02*
X138333333Y-65295295D01*
X138333333Y-65295295D02*
X138333333Y-65438152D01*
X138333333Y-65438152D02*
X138285714Y-65533390D01*
X138285714Y-65533390D02*
X138238095Y-65581009D01*
X138238095Y-65581009D02*
X138142857Y-65628628D01*
X138142857Y-65628628D02*
X137761905Y-65628628D01*
X139190476Y-65104819D02*
X139000000Y-65104819D01*
X139000000Y-65104819D02*
X138904762Y-65152438D01*
X138904762Y-65152438D02*
X138857143Y-65200057D01*
X138857143Y-65200057D02*
X138761905Y-65342914D01*
X138761905Y-65342914D02*
X138714286Y-65533390D01*
X138714286Y-65533390D02*
X138714286Y-65914342D01*
X138714286Y-65914342D02*
X138761905Y-66009580D01*
X138761905Y-66009580D02*
X138809524Y-66057200D01*
X138809524Y-66057200D02*
X138904762Y-66104819D01*
X138904762Y-66104819D02*
X139095238Y-66104819D01*
X139095238Y-66104819D02*
X139190476Y-66057200D01*
X139190476Y-66057200D02*
X139238095Y-66009580D01*
X139238095Y-66009580D02*
X139285714Y-65914342D01*
X139285714Y-65914342D02*
X139285714Y-65676247D01*
X139285714Y-65676247D02*
X139238095Y-65581009D01*
X139238095Y-65581009D02*
X139190476Y-65533390D01*
X139190476Y-65533390D02*
X139095238Y-65485771D01*
X139095238Y-65485771D02*
X138904762Y-65485771D01*
X138904762Y-65485771D02*
X138809524Y-65533390D01*
X138809524Y-65533390D02*
X138761905Y-65581009D01*
X138761905Y-65581009D02*
X138714286Y-65676247D01*
X109804819Y-85166666D02*
X109328628Y-85499999D01*
X109804819Y-85738094D02*
X108804819Y-85738094D01*
X108804819Y-85738094D02*
X108804819Y-85357142D01*
X108804819Y-85357142D02*
X108852438Y-85261904D01*
X108852438Y-85261904D02*
X108900057Y-85214285D01*
X108900057Y-85214285D02*
X108995295Y-85166666D01*
X108995295Y-85166666D02*
X109138152Y-85166666D01*
X109138152Y-85166666D02*
X109233390Y-85214285D01*
X109233390Y-85214285D02*
X109281009Y-85261904D01*
X109281009Y-85261904D02*
X109328628Y-85357142D01*
X109328628Y-85357142D02*
X109328628Y-85738094D01*
X108804819Y-84261904D02*
X108804819Y-84738094D01*
X108804819Y-84738094D02*
X109281009Y-84785713D01*
X109281009Y-84785713D02*
X109233390Y-84738094D01*
X109233390Y-84738094D02*
X109185771Y-84642856D01*
X109185771Y-84642856D02*
X109185771Y-84404761D01*
X109185771Y-84404761D02*
X109233390Y-84309523D01*
X109233390Y-84309523D02*
X109281009Y-84261904D01*
X109281009Y-84261904D02*
X109376247Y-84214285D01*
X109376247Y-84214285D02*
X109614342Y-84214285D01*
X109614342Y-84214285D02*
X109709580Y-84261904D01*
X109709580Y-84261904D02*
X109757200Y-84309523D01*
X109757200Y-84309523D02*
X109804819Y-84404761D01*
X109804819Y-84404761D02*
X109804819Y-84642856D01*
X109804819Y-84642856D02*
X109757200Y-84738094D01*
X109757200Y-84738094D02*
X109709580Y-84785713D01*
X142261905Y-75206819D02*
X142833333Y-75206819D01*
X142547619Y-76206819D02*
X142547619Y-75206819D01*
X143166667Y-76206819D02*
X143166667Y-75206819D01*
X143166667Y-75206819D02*
X143547619Y-75206819D01*
X143547619Y-75206819D02*
X143642857Y-75254438D01*
X143642857Y-75254438D02*
X143690476Y-75302057D01*
X143690476Y-75302057D02*
X143738095Y-75397295D01*
X143738095Y-75397295D02*
X143738095Y-75540152D01*
X143738095Y-75540152D02*
X143690476Y-75635390D01*
X143690476Y-75635390D02*
X143642857Y-75683009D01*
X143642857Y-75683009D02*
X143547619Y-75730628D01*
X143547619Y-75730628D02*
X143166667Y-75730628D01*
X144690476Y-76206819D02*
X144119048Y-76206819D01*
X144404762Y-76206819D02*
X144404762Y-75206819D01*
X144404762Y-75206819D02*
X144309524Y-75349676D01*
X144309524Y-75349676D02*
X144214286Y-75444914D01*
X144214286Y-75444914D02*
X144119048Y-75492533D01*
X145166667Y-76206819D02*
X145357143Y-76206819D01*
X145357143Y-76206819D02*
X145452381Y-76159200D01*
X145452381Y-76159200D02*
X145500000Y-76111580D01*
X145500000Y-76111580D02*
X145595238Y-75968723D01*
X145595238Y-75968723D02*
X145642857Y-75778247D01*
X145642857Y-75778247D02*
X145642857Y-75397295D01*
X145642857Y-75397295D02*
X145595238Y-75302057D01*
X145595238Y-75302057D02*
X145547619Y-75254438D01*
X145547619Y-75254438D02*
X145452381Y-75206819D01*
X145452381Y-75206819D02*
X145261905Y-75206819D01*
X145261905Y-75206819D02*
X145166667Y-75254438D01*
X145166667Y-75254438D02*
X145119048Y-75302057D01*
X145119048Y-75302057D02*
X145071429Y-75397295D01*
X145071429Y-75397295D02*
X145071429Y-75635390D01*
X145071429Y-75635390D02*
X145119048Y-75730628D01*
X145119048Y-75730628D02*
X145166667Y-75778247D01*
X145166667Y-75778247D02*
X145261905Y-75825866D01*
X145261905Y-75825866D02*
X145452381Y-75825866D01*
X145452381Y-75825866D02*
X145547619Y-75778247D01*
X145547619Y-75778247D02*
X145595238Y-75730628D01*
X145595238Y-75730628D02*
X145642857Y-75635390D01*
X127039580Y-48642857D02*
X127087200Y-48690476D01*
X127087200Y-48690476D02*
X127134819Y-48833333D01*
X127134819Y-48833333D02*
X127134819Y-48928571D01*
X127134819Y-48928571D02*
X127087200Y-49071428D01*
X127087200Y-49071428D02*
X126991961Y-49166666D01*
X126991961Y-49166666D02*
X126896723Y-49214285D01*
X126896723Y-49214285D02*
X126706247Y-49261904D01*
X126706247Y-49261904D02*
X126563390Y-49261904D01*
X126563390Y-49261904D02*
X126372914Y-49214285D01*
X126372914Y-49214285D02*
X126277676Y-49166666D01*
X126277676Y-49166666D02*
X126182438Y-49071428D01*
X126182438Y-49071428D02*
X126134819Y-48928571D01*
X126134819Y-48928571D02*
X126134819Y-48833333D01*
X126134819Y-48833333D02*
X126182438Y-48690476D01*
X126182438Y-48690476D02*
X126230057Y-48642857D01*
X127134819Y-47690476D02*
X127134819Y-48261904D01*
X127134819Y-47976190D02*
X126134819Y-47976190D01*
X126134819Y-47976190D02*
X126277676Y-48071428D01*
X126277676Y-48071428D02*
X126372914Y-48166666D01*
X126372914Y-48166666D02*
X126420533Y-48261904D01*
X126230057Y-47309523D02*
X126182438Y-47261904D01*
X126182438Y-47261904D02*
X126134819Y-47166666D01*
X126134819Y-47166666D02*
X126134819Y-46928571D01*
X126134819Y-46928571D02*
X126182438Y-46833333D01*
X126182438Y-46833333D02*
X126230057Y-46785714D01*
X126230057Y-46785714D02*
X126325295Y-46738095D01*
X126325295Y-46738095D02*
X126420533Y-46738095D01*
X126420533Y-46738095D02*
X126563390Y-46785714D01*
X126563390Y-46785714D02*
X127134819Y-47357142D01*
X127134819Y-47357142D02*
X127134819Y-46738095D01*
X103039580Y-74642857D02*
X103087200Y-74690476D01*
X103087200Y-74690476D02*
X103134819Y-74833333D01*
X103134819Y-74833333D02*
X103134819Y-74928571D01*
X103134819Y-74928571D02*
X103087200Y-75071428D01*
X103087200Y-75071428D02*
X102991961Y-75166666D01*
X102991961Y-75166666D02*
X102896723Y-75214285D01*
X102896723Y-75214285D02*
X102706247Y-75261904D01*
X102706247Y-75261904D02*
X102563390Y-75261904D01*
X102563390Y-75261904D02*
X102372914Y-75214285D01*
X102372914Y-75214285D02*
X102277676Y-75166666D01*
X102277676Y-75166666D02*
X102182438Y-75071428D01*
X102182438Y-75071428D02*
X102134819Y-74928571D01*
X102134819Y-74928571D02*
X102134819Y-74833333D01*
X102134819Y-74833333D02*
X102182438Y-74690476D01*
X102182438Y-74690476D02*
X102230057Y-74642857D01*
X103134819Y-73690476D02*
X103134819Y-74261904D01*
X103134819Y-73976190D02*
X102134819Y-73976190D01*
X102134819Y-73976190D02*
X102277676Y-74071428D01*
X102277676Y-74071428D02*
X102372914Y-74166666D01*
X102372914Y-74166666D02*
X102420533Y-74261904D01*
X102134819Y-73071428D02*
X102134819Y-72976190D01*
X102134819Y-72976190D02*
X102182438Y-72880952D01*
X102182438Y-72880952D02*
X102230057Y-72833333D01*
X102230057Y-72833333D02*
X102325295Y-72785714D01*
X102325295Y-72785714D02*
X102515771Y-72738095D01*
X102515771Y-72738095D02*
X102753866Y-72738095D01*
X102753866Y-72738095D02*
X102944342Y-72785714D01*
X102944342Y-72785714D02*
X103039580Y-72833333D01*
X103039580Y-72833333D02*
X103087200Y-72880952D01*
X103087200Y-72880952D02*
X103134819Y-72976190D01*
X103134819Y-72976190D02*
X103134819Y-73071428D01*
X103134819Y-73071428D02*
X103087200Y-73166666D01*
X103087200Y-73166666D02*
X103039580Y-73214285D01*
X103039580Y-73214285D02*
X102944342Y-73261904D01*
X102944342Y-73261904D02*
X102753866Y-73309523D01*
X102753866Y-73309523D02*
X102515771Y-73309523D01*
X102515771Y-73309523D02*
X102325295Y-73261904D01*
X102325295Y-73261904D02*
X102230057Y-73214285D01*
X102230057Y-73214285D02*
X102182438Y-73166666D01*
X102182438Y-73166666D02*
X102134819Y-73071428D01*
X145738095Y-49756819D02*
X146309523Y-49756819D01*
X146023809Y-50756819D02*
X146023809Y-49756819D01*
X146642857Y-50756819D02*
X146642857Y-49756819D01*
X146642857Y-49756819D02*
X147023809Y-49756819D01*
X147023809Y-49756819D02*
X147119047Y-49804438D01*
X147119047Y-49804438D02*
X147166666Y-49852057D01*
X147166666Y-49852057D02*
X147214285Y-49947295D01*
X147214285Y-49947295D02*
X147214285Y-50090152D01*
X147214285Y-50090152D02*
X147166666Y-50185390D01*
X147166666Y-50185390D02*
X147119047Y-50233009D01*
X147119047Y-50233009D02*
X147023809Y-50280628D01*
X147023809Y-50280628D02*
X146642857Y-50280628D01*
X147547619Y-49756819D02*
X148166666Y-49756819D01*
X148166666Y-49756819D02*
X147833333Y-50137771D01*
X147833333Y-50137771D02*
X147976190Y-50137771D01*
X147976190Y-50137771D02*
X148071428Y-50185390D01*
X148071428Y-50185390D02*
X148119047Y-50233009D01*
X148119047Y-50233009D02*
X148166666Y-50328247D01*
X148166666Y-50328247D02*
X148166666Y-50566342D01*
X148166666Y-50566342D02*
X148119047Y-50661580D01*
X148119047Y-50661580D02*
X148071428Y-50709200D01*
X148071428Y-50709200D02*
X147976190Y-50756819D01*
X147976190Y-50756819D02*
X147690476Y-50756819D01*
X147690476Y-50756819D02*
X147595238Y-50709200D01*
X147595238Y-50709200D02*
X147547619Y-50661580D01*
X82679580Y-45642857D02*
X82727200Y-45690476D01*
X82727200Y-45690476D02*
X82774819Y-45833333D01*
X82774819Y-45833333D02*
X82774819Y-45928571D01*
X82774819Y-45928571D02*
X82727200Y-46071428D01*
X82727200Y-46071428D02*
X82631961Y-46166666D01*
X82631961Y-46166666D02*
X82536723Y-46214285D01*
X82536723Y-46214285D02*
X82346247Y-46261904D01*
X82346247Y-46261904D02*
X82203390Y-46261904D01*
X82203390Y-46261904D02*
X82012914Y-46214285D01*
X82012914Y-46214285D02*
X81917676Y-46166666D01*
X81917676Y-46166666D02*
X81822438Y-46071428D01*
X81822438Y-46071428D02*
X81774819Y-45928571D01*
X81774819Y-45928571D02*
X81774819Y-45833333D01*
X81774819Y-45833333D02*
X81822438Y-45690476D01*
X81822438Y-45690476D02*
X81870057Y-45642857D01*
X81870057Y-45261904D02*
X81822438Y-45214285D01*
X81822438Y-45214285D02*
X81774819Y-45119047D01*
X81774819Y-45119047D02*
X81774819Y-44880952D01*
X81774819Y-44880952D02*
X81822438Y-44785714D01*
X81822438Y-44785714D02*
X81870057Y-44738095D01*
X81870057Y-44738095D02*
X81965295Y-44690476D01*
X81965295Y-44690476D02*
X82060533Y-44690476D01*
X82060533Y-44690476D02*
X82203390Y-44738095D01*
X82203390Y-44738095D02*
X82774819Y-45309523D01*
X82774819Y-45309523D02*
X82774819Y-44690476D01*
X81774819Y-44357142D02*
X81774819Y-43738095D01*
X81774819Y-43738095D02*
X82155771Y-44071428D01*
X82155771Y-44071428D02*
X82155771Y-43928571D01*
X82155771Y-43928571D02*
X82203390Y-43833333D01*
X82203390Y-43833333D02*
X82251009Y-43785714D01*
X82251009Y-43785714D02*
X82346247Y-43738095D01*
X82346247Y-43738095D02*
X82584342Y-43738095D01*
X82584342Y-43738095D02*
X82679580Y-43785714D01*
X82679580Y-43785714D02*
X82727200Y-43833333D01*
X82727200Y-43833333D02*
X82774819Y-43928571D01*
X82774819Y-43928571D02*
X82774819Y-44214285D01*
X82774819Y-44214285D02*
X82727200Y-44309523D01*
X82727200Y-44309523D02*
X82679580Y-44357142D01*
X90184200Y-96945571D02*
X90231819Y-96802714D01*
X90231819Y-96802714D02*
X90231819Y-96564619D01*
X90231819Y-96564619D02*
X90184200Y-96469381D01*
X90184200Y-96469381D02*
X90136580Y-96421762D01*
X90136580Y-96421762D02*
X90041342Y-96374143D01*
X90041342Y-96374143D02*
X89946104Y-96374143D01*
X89946104Y-96374143D02*
X89850866Y-96421762D01*
X89850866Y-96421762D02*
X89803247Y-96469381D01*
X89803247Y-96469381D02*
X89755628Y-96564619D01*
X89755628Y-96564619D02*
X89708009Y-96755095D01*
X89708009Y-96755095D02*
X89660390Y-96850333D01*
X89660390Y-96850333D02*
X89612771Y-96897952D01*
X89612771Y-96897952D02*
X89517533Y-96945571D01*
X89517533Y-96945571D02*
X89422295Y-96945571D01*
X89422295Y-96945571D02*
X89327057Y-96897952D01*
X89327057Y-96897952D02*
X89279438Y-96850333D01*
X89279438Y-96850333D02*
X89231819Y-96755095D01*
X89231819Y-96755095D02*
X89231819Y-96517000D01*
X89231819Y-96517000D02*
X89279438Y-96374143D01*
X89708009Y-95945571D02*
X89708009Y-95612238D01*
X90231819Y-95469381D02*
X90231819Y-95945571D01*
X90231819Y-95945571D02*
X89231819Y-95945571D01*
X89231819Y-95945571D02*
X89231819Y-95469381D01*
X90231819Y-94564619D02*
X90231819Y-95040809D01*
X90231819Y-95040809D02*
X89231819Y-95040809D01*
X90327057Y-94469381D02*
X90327057Y-93707476D01*
X89708009Y-93136047D02*
X89755628Y-92993190D01*
X89755628Y-92993190D02*
X89803247Y-92945571D01*
X89803247Y-92945571D02*
X89898485Y-92897952D01*
X89898485Y-92897952D02*
X90041342Y-92897952D01*
X90041342Y-92897952D02*
X90136580Y-92945571D01*
X90136580Y-92945571D02*
X90184200Y-92993190D01*
X90184200Y-92993190D02*
X90231819Y-93088428D01*
X90231819Y-93088428D02*
X90231819Y-93469380D01*
X90231819Y-93469380D02*
X89231819Y-93469380D01*
X89231819Y-93469380D02*
X89231819Y-93136047D01*
X89231819Y-93136047D02*
X89279438Y-93040809D01*
X89279438Y-93040809D02*
X89327057Y-92993190D01*
X89327057Y-92993190D02*
X89422295Y-92945571D01*
X89422295Y-92945571D02*
X89517533Y-92945571D01*
X89517533Y-92945571D02*
X89612771Y-92993190D01*
X89612771Y-92993190D02*
X89660390Y-93040809D01*
X89660390Y-93040809D02*
X89708009Y-93136047D01*
X89708009Y-93136047D02*
X89708009Y-93469380D01*
X89231819Y-92469380D02*
X90041342Y-92469380D01*
X90041342Y-92469380D02*
X90136580Y-92421761D01*
X90136580Y-92421761D02*
X90184200Y-92374142D01*
X90184200Y-92374142D02*
X90231819Y-92278904D01*
X90231819Y-92278904D02*
X90231819Y-92088428D01*
X90231819Y-92088428D02*
X90184200Y-91993190D01*
X90184200Y-91993190D02*
X90136580Y-91945571D01*
X90136580Y-91945571D02*
X90041342Y-91897952D01*
X90041342Y-91897952D02*
X89231819Y-91897952D01*
X89231819Y-91564618D02*
X89231819Y-90993190D01*
X90231819Y-91278904D02*
X89231819Y-91278904D01*
X92920142Y-79074580D02*
X92872523Y-79122200D01*
X92872523Y-79122200D02*
X92729666Y-79169819D01*
X92729666Y-79169819D02*
X92634428Y-79169819D01*
X92634428Y-79169819D02*
X92491571Y-79122200D01*
X92491571Y-79122200D02*
X92396333Y-79026961D01*
X92396333Y-79026961D02*
X92348714Y-78931723D01*
X92348714Y-78931723D02*
X92301095Y-78741247D01*
X92301095Y-78741247D02*
X92301095Y-78598390D01*
X92301095Y-78598390D02*
X92348714Y-78407914D01*
X92348714Y-78407914D02*
X92396333Y-78312676D01*
X92396333Y-78312676D02*
X92491571Y-78217438D01*
X92491571Y-78217438D02*
X92634428Y-78169819D01*
X92634428Y-78169819D02*
X92729666Y-78169819D01*
X92729666Y-78169819D02*
X92872523Y-78217438D01*
X92872523Y-78217438D02*
X92920142Y-78265057D01*
X93301095Y-78265057D02*
X93348714Y-78217438D01*
X93348714Y-78217438D02*
X93443952Y-78169819D01*
X93443952Y-78169819D02*
X93682047Y-78169819D01*
X93682047Y-78169819D02*
X93777285Y-78217438D01*
X93777285Y-78217438D02*
X93824904Y-78265057D01*
X93824904Y-78265057D02*
X93872523Y-78360295D01*
X93872523Y-78360295D02*
X93872523Y-78455533D01*
X93872523Y-78455533D02*
X93824904Y-78598390D01*
X93824904Y-78598390D02*
X93253476Y-79169819D01*
X93253476Y-79169819D02*
X93872523Y-79169819D01*
X94348714Y-79169819D02*
X94539190Y-79169819D01*
X94539190Y-79169819D02*
X94634428Y-79122200D01*
X94634428Y-79122200D02*
X94682047Y-79074580D01*
X94682047Y-79074580D02*
X94777285Y-78931723D01*
X94777285Y-78931723D02*
X94824904Y-78741247D01*
X94824904Y-78741247D02*
X94824904Y-78360295D01*
X94824904Y-78360295D02*
X94777285Y-78265057D01*
X94777285Y-78265057D02*
X94729666Y-78217438D01*
X94729666Y-78217438D02*
X94634428Y-78169819D01*
X94634428Y-78169819D02*
X94443952Y-78169819D01*
X94443952Y-78169819D02*
X94348714Y-78217438D01*
X94348714Y-78217438D02*
X94301095Y-78265057D01*
X94301095Y-78265057D02*
X94253476Y-78360295D01*
X94253476Y-78360295D02*
X94253476Y-78598390D01*
X94253476Y-78598390D02*
X94301095Y-78693628D01*
X94301095Y-78693628D02*
X94348714Y-78741247D01*
X94348714Y-78741247D02*
X94443952Y-78788866D01*
X94443952Y-78788866D02*
X94634428Y-78788866D01*
X94634428Y-78788866D02*
X94729666Y-78741247D01*
X94729666Y-78741247D02*
X94777285Y-78693628D01*
X94777285Y-78693628D02*
X94824904Y-78598390D01*
X115539580Y-77166666D02*
X115587200Y-77214285D01*
X115587200Y-77214285D02*
X115634819Y-77357142D01*
X115634819Y-77357142D02*
X115634819Y-77452380D01*
X115634819Y-77452380D02*
X115587200Y-77595237D01*
X115587200Y-77595237D02*
X115491961Y-77690475D01*
X115491961Y-77690475D02*
X115396723Y-77738094D01*
X115396723Y-77738094D02*
X115206247Y-77785713D01*
X115206247Y-77785713D02*
X115063390Y-77785713D01*
X115063390Y-77785713D02*
X114872914Y-77738094D01*
X114872914Y-77738094D02*
X114777676Y-77690475D01*
X114777676Y-77690475D02*
X114682438Y-77595237D01*
X114682438Y-77595237D02*
X114634819Y-77452380D01*
X114634819Y-77452380D02*
X114634819Y-77357142D01*
X114634819Y-77357142D02*
X114682438Y-77214285D01*
X114682438Y-77214285D02*
X114730057Y-77166666D01*
X115634819Y-76690475D02*
X115634819Y-76499999D01*
X115634819Y-76499999D02*
X115587200Y-76404761D01*
X115587200Y-76404761D02*
X115539580Y-76357142D01*
X115539580Y-76357142D02*
X115396723Y-76261904D01*
X115396723Y-76261904D02*
X115206247Y-76214285D01*
X115206247Y-76214285D02*
X114825295Y-76214285D01*
X114825295Y-76214285D02*
X114730057Y-76261904D01*
X114730057Y-76261904D02*
X114682438Y-76309523D01*
X114682438Y-76309523D02*
X114634819Y-76404761D01*
X114634819Y-76404761D02*
X114634819Y-76595237D01*
X114634819Y-76595237D02*
X114682438Y-76690475D01*
X114682438Y-76690475D02*
X114730057Y-76738094D01*
X114730057Y-76738094D02*
X114825295Y-76785713D01*
X114825295Y-76785713D02*
X115063390Y-76785713D01*
X115063390Y-76785713D02*
X115158628Y-76738094D01*
X115158628Y-76738094D02*
X115206247Y-76690475D01*
X115206247Y-76690475D02*
X115253866Y-76595237D01*
X115253866Y-76595237D02*
X115253866Y-76404761D01*
X115253866Y-76404761D02*
X115206247Y-76309523D01*
X115206247Y-76309523D02*
X115158628Y-76261904D01*
X115158628Y-76261904D02*
X115063390Y-76214285D01*
X142511905Y-60556819D02*
X143083333Y-60556819D01*
X142797619Y-61556819D02*
X142797619Y-60556819D01*
X143416667Y-61556819D02*
X143416667Y-60556819D01*
X143416667Y-60556819D02*
X143797619Y-60556819D01*
X143797619Y-60556819D02*
X143892857Y-60604438D01*
X143892857Y-60604438D02*
X143940476Y-60652057D01*
X143940476Y-60652057D02*
X143988095Y-60747295D01*
X143988095Y-60747295D02*
X143988095Y-60890152D01*
X143988095Y-60890152D02*
X143940476Y-60985390D01*
X143940476Y-60985390D02*
X143892857Y-61033009D01*
X143892857Y-61033009D02*
X143797619Y-61080628D01*
X143797619Y-61080628D02*
X143416667Y-61080628D01*
X144940476Y-61556819D02*
X144369048Y-61556819D01*
X144654762Y-61556819D02*
X144654762Y-60556819D01*
X144654762Y-60556819D02*
X144559524Y-60699676D01*
X144559524Y-60699676D02*
X144464286Y-60794914D01*
X144464286Y-60794914D02*
X144369048Y-60842533D01*
X145273810Y-60556819D02*
X145892857Y-60556819D01*
X145892857Y-60556819D02*
X145559524Y-60937771D01*
X145559524Y-60937771D02*
X145702381Y-60937771D01*
X145702381Y-60937771D02*
X145797619Y-60985390D01*
X145797619Y-60985390D02*
X145845238Y-61033009D01*
X145845238Y-61033009D02*
X145892857Y-61128247D01*
X145892857Y-61128247D02*
X145892857Y-61366342D01*
X145892857Y-61366342D02*
X145845238Y-61461580D01*
X145845238Y-61461580D02*
X145797619Y-61509200D01*
X145797619Y-61509200D02*
X145702381Y-61556819D01*
X145702381Y-61556819D02*
X145416667Y-61556819D01*
X145416667Y-61556819D02*
X145321429Y-61509200D01*
X145321429Y-61509200D02*
X145273810Y-61461580D01*
X113681009Y-93738095D02*
X113728628Y-93595238D01*
X113728628Y-93595238D02*
X113776247Y-93547619D01*
X113776247Y-93547619D02*
X113871485Y-93500000D01*
X113871485Y-93500000D02*
X114014342Y-93500000D01*
X114014342Y-93500000D02*
X114109580Y-93547619D01*
X114109580Y-93547619D02*
X114157200Y-93595238D01*
X114157200Y-93595238D02*
X114204819Y-93690476D01*
X114204819Y-93690476D02*
X114204819Y-94071428D01*
X114204819Y-94071428D02*
X113204819Y-94071428D01*
X113204819Y-94071428D02*
X113204819Y-93738095D01*
X113204819Y-93738095D02*
X113252438Y-93642857D01*
X113252438Y-93642857D02*
X113300057Y-93595238D01*
X113300057Y-93595238D02*
X113395295Y-93547619D01*
X113395295Y-93547619D02*
X113490533Y-93547619D01*
X113490533Y-93547619D02*
X113585771Y-93595238D01*
X113585771Y-93595238D02*
X113633390Y-93642857D01*
X113633390Y-93642857D02*
X113681009Y-93738095D01*
X113681009Y-93738095D02*
X113681009Y-94071428D01*
X113919104Y-93119047D02*
X113919104Y-92642857D01*
X114204819Y-93214285D02*
X113204819Y-92880952D01*
X113204819Y-92880952D02*
X114204819Y-92547619D01*
X113204819Y-92357142D02*
X113204819Y-91785714D01*
X114204819Y-92071428D02*
X113204819Y-92071428D01*
X84833333Y-87104819D02*
X84500000Y-86628628D01*
X84261905Y-87104819D02*
X84261905Y-86104819D01*
X84261905Y-86104819D02*
X84642857Y-86104819D01*
X84642857Y-86104819D02*
X84738095Y-86152438D01*
X84738095Y-86152438D02*
X84785714Y-86200057D01*
X84785714Y-86200057D02*
X84833333Y-86295295D01*
X84833333Y-86295295D02*
X84833333Y-86438152D01*
X84833333Y-86438152D02*
X84785714Y-86533390D01*
X84785714Y-86533390D02*
X84738095Y-86581009D01*
X84738095Y-86581009D02*
X84642857Y-86628628D01*
X84642857Y-86628628D02*
X84261905Y-86628628D01*
X85214286Y-86200057D02*
X85261905Y-86152438D01*
X85261905Y-86152438D02*
X85357143Y-86104819D01*
X85357143Y-86104819D02*
X85595238Y-86104819D01*
X85595238Y-86104819D02*
X85690476Y-86152438D01*
X85690476Y-86152438D02*
X85738095Y-86200057D01*
X85738095Y-86200057D02*
X85785714Y-86295295D01*
X85785714Y-86295295D02*
X85785714Y-86390533D01*
X85785714Y-86390533D02*
X85738095Y-86533390D01*
X85738095Y-86533390D02*
X85166667Y-87104819D01*
X85166667Y-87104819D02*
X85785714Y-87104819D01*
X64655080Y-85064857D02*
X64702700Y-85112476D01*
X64702700Y-85112476D02*
X64750319Y-85255333D01*
X64750319Y-85255333D02*
X64750319Y-85350571D01*
X64750319Y-85350571D02*
X64702700Y-85493428D01*
X64702700Y-85493428D02*
X64607461Y-85588666D01*
X64607461Y-85588666D02*
X64512223Y-85636285D01*
X64512223Y-85636285D02*
X64321747Y-85683904D01*
X64321747Y-85683904D02*
X64178890Y-85683904D01*
X64178890Y-85683904D02*
X63988414Y-85636285D01*
X63988414Y-85636285D02*
X63893176Y-85588666D01*
X63893176Y-85588666D02*
X63797938Y-85493428D01*
X63797938Y-85493428D02*
X63750319Y-85350571D01*
X63750319Y-85350571D02*
X63750319Y-85255333D01*
X63750319Y-85255333D02*
X63797938Y-85112476D01*
X63797938Y-85112476D02*
X63845557Y-85064857D01*
X64750319Y-84112476D02*
X64750319Y-84683904D01*
X64750319Y-84398190D02*
X63750319Y-84398190D01*
X63750319Y-84398190D02*
X63893176Y-84493428D01*
X63893176Y-84493428D02*
X63988414Y-84588666D01*
X63988414Y-84588666D02*
X64036033Y-84683904D01*
X64750319Y-83160095D02*
X64750319Y-83731523D01*
X64750319Y-83445809D02*
X63750319Y-83445809D01*
X63750319Y-83445809D02*
X63893176Y-83541047D01*
X63893176Y-83541047D02*
X63988414Y-83636285D01*
X63988414Y-83636285D02*
X64036033Y-83731523D01*
X87679580Y-45642857D02*
X87727200Y-45690476D01*
X87727200Y-45690476D02*
X87774819Y-45833333D01*
X87774819Y-45833333D02*
X87774819Y-45928571D01*
X87774819Y-45928571D02*
X87727200Y-46071428D01*
X87727200Y-46071428D02*
X87631961Y-46166666D01*
X87631961Y-46166666D02*
X87536723Y-46214285D01*
X87536723Y-46214285D02*
X87346247Y-46261904D01*
X87346247Y-46261904D02*
X87203390Y-46261904D01*
X87203390Y-46261904D02*
X87012914Y-46214285D01*
X87012914Y-46214285D02*
X86917676Y-46166666D01*
X86917676Y-46166666D02*
X86822438Y-46071428D01*
X86822438Y-46071428D02*
X86774819Y-45928571D01*
X86774819Y-45928571D02*
X86774819Y-45833333D01*
X86774819Y-45833333D02*
X86822438Y-45690476D01*
X86822438Y-45690476D02*
X86870057Y-45642857D01*
X86870057Y-45261904D02*
X86822438Y-45214285D01*
X86822438Y-45214285D02*
X86774819Y-45119047D01*
X86774819Y-45119047D02*
X86774819Y-44880952D01*
X86774819Y-44880952D02*
X86822438Y-44785714D01*
X86822438Y-44785714D02*
X86870057Y-44738095D01*
X86870057Y-44738095D02*
X86965295Y-44690476D01*
X86965295Y-44690476D02*
X87060533Y-44690476D01*
X87060533Y-44690476D02*
X87203390Y-44738095D01*
X87203390Y-44738095D02*
X87774819Y-45309523D01*
X87774819Y-45309523D02*
X87774819Y-44690476D01*
X86870057Y-44309523D02*
X86822438Y-44261904D01*
X86822438Y-44261904D02*
X86774819Y-44166666D01*
X86774819Y-44166666D02*
X86774819Y-43928571D01*
X86774819Y-43928571D02*
X86822438Y-43833333D01*
X86822438Y-43833333D02*
X86870057Y-43785714D01*
X86870057Y-43785714D02*
X86965295Y-43738095D01*
X86965295Y-43738095D02*
X87060533Y-43738095D01*
X87060533Y-43738095D02*
X87203390Y-43785714D01*
X87203390Y-43785714D02*
X87774819Y-44357142D01*
X87774819Y-44357142D02*
X87774819Y-43738095D01*
X125539580Y-81166666D02*
X125587200Y-81214285D01*
X125587200Y-81214285D02*
X125634819Y-81357142D01*
X125634819Y-81357142D02*
X125634819Y-81452380D01*
X125634819Y-81452380D02*
X125587200Y-81595237D01*
X125587200Y-81595237D02*
X125491961Y-81690475D01*
X125491961Y-81690475D02*
X125396723Y-81738094D01*
X125396723Y-81738094D02*
X125206247Y-81785713D01*
X125206247Y-81785713D02*
X125063390Y-81785713D01*
X125063390Y-81785713D02*
X124872914Y-81738094D01*
X124872914Y-81738094D02*
X124777676Y-81690475D01*
X124777676Y-81690475D02*
X124682438Y-81595237D01*
X124682438Y-81595237D02*
X124634819Y-81452380D01*
X124634819Y-81452380D02*
X124634819Y-81357142D01*
X124634819Y-81357142D02*
X124682438Y-81214285D01*
X124682438Y-81214285D02*
X124730057Y-81166666D01*
X124634819Y-80261904D02*
X124634819Y-80738094D01*
X124634819Y-80738094D02*
X125111009Y-80785713D01*
X125111009Y-80785713D02*
X125063390Y-80738094D01*
X125063390Y-80738094D02*
X125015771Y-80642856D01*
X125015771Y-80642856D02*
X125015771Y-80404761D01*
X125015771Y-80404761D02*
X125063390Y-80309523D01*
X125063390Y-80309523D02*
X125111009Y-80261904D01*
X125111009Y-80261904D02*
X125206247Y-80214285D01*
X125206247Y-80214285D02*
X125444342Y-80214285D01*
X125444342Y-80214285D02*
X125539580Y-80261904D01*
X125539580Y-80261904D02*
X125587200Y-80309523D01*
X125587200Y-80309523D02*
X125634819Y-80404761D01*
X125634819Y-80404761D02*
X125634819Y-80642856D01*
X125634819Y-80642856D02*
X125587200Y-80738094D01*
X125587200Y-80738094D02*
X125539580Y-80785713D01*
X82006819Y-82738094D02*
X82006819Y-82166666D01*
X83006819Y-82452380D02*
X82006819Y-82452380D01*
X83006819Y-81833332D02*
X82006819Y-81833332D01*
X82006819Y-81833332D02*
X82006819Y-81452380D01*
X82006819Y-81452380D02*
X82054438Y-81357142D01*
X82054438Y-81357142D02*
X82102057Y-81309523D01*
X82102057Y-81309523D02*
X82197295Y-81261904D01*
X82197295Y-81261904D02*
X82340152Y-81261904D01*
X82340152Y-81261904D02*
X82435390Y-81309523D01*
X82435390Y-81309523D02*
X82483009Y-81357142D01*
X82483009Y-81357142D02*
X82530628Y-81452380D01*
X82530628Y-81452380D02*
X82530628Y-81833332D01*
X83006819Y-80309523D02*
X83006819Y-80880951D01*
X83006819Y-80595237D02*
X82006819Y-80595237D01*
X82006819Y-80595237D02*
X82149676Y-80690475D01*
X82149676Y-80690475D02*
X82244914Y-80785713D01*
X82244914Y-80785713D02*
X82292533Y-80880951D01*
X83006819Y-79357142D02*
X83006819Y-79928570D01*
X83006819Y-79642856D02*
X82006819Y-79642856D01*
X82006819Y-79642856D02*
X82149676Y-79738094D01*
X82149676Y-79738094D02*
X82244914Y-79833332D01*
X82244914Y-79833332D02*
X82292533Y-79928570D01*
X139238095Y-67506819D02*
X139809523Y-67506819D01*
X139523809Y-68506819D02*
X139523809Y-67506819D01*
X140142857Y-68506819D02*
X140142857Y-67506819D01*
X140142857Y-67506819D02*
X140523809Y-67506819D01*
X140523809Y-67506819D02*
X140619047Y-67554438D01*
X140619047Y-67554438D02*
X140666666Y-67602057D01*
X140666666Y-67602057D02*
X140714285Y-67697295D01*
X140714285Y-67697295D02*
X140714285Y-67840152D01*
X140714285Y-67840152D02*
X140666666Y-67935390D01*
X140666666Y-67935390D02*
X140619047Y-67983009D01*
X140619047Y-67983009D02*
X140523809Y-68030628D01*
X140523809Y-68030628D02*
X140142857Y-68030628D01*
X141047619Y-67506819D02*
X141714285Y-67506819D01*
X141714285Y-67506819D02*
X141285714Y-68506819D01*
X126238095Y-74306819D02*
X126809523Y-74306819D01*
X126523809Y-75306819D02*
X126523809Y-74306819D01*
X127142857Y-75306819D02*
X127142857Y-74306819D01*
X127142857Y-74306819D02*
X127523809Y-74306819D01*
X127523809Y-74306819D02*
X127619047Y-74354438D01*
X127619047Y-74354438D02*
X127666666Y-74402057D01*
X127666666Y-74402057D02*
X127714285Y-74497295D01*
X127714285Y-74497295D02*
X127714285Y-74640152D01*
X127714285Y-74640152D02*
X127666666Y-74735390D01*
X127666666Y-74735390D02*
X127619047Y-74783009D01*
X127619047Y-74783009D02*
X127523809Y-74830628D01*
X127523809Y-74830628D02*
X127142857Y-74830628D01*
X128666666Y-75306819D02*
X128095238Y-75306819D01*
X128380952Y-75306819D02*
X128380952Y-74306819D01*
X128380952Y-74306819D02*
X128285714Y-74449676D01*
X128285714Y-74449676D02*
X128190476Y-74544914D01*
X128190476Y-74544914D02*
X128095238Y-74592533D01*
X123738095Y-58506819D02*
X124309523Y-58506819D01*
X124023809Y-59506819D02*
X124023809Y-58506819D01*
X124642857Y-59506819D02*
X124642857Y-58506819D01*
X124642857Y-58506819D02*
X125023809Y-58506819D01*
X125023809Y-58506819D02*
X125119047Y-58554438D01*
X125119047Y-58554438D02*
X125166666Y-58602057D01*
X125166666Y-58602057D02*
X125214285Y-58697295D01*
X125214285Y-58697295D02*
X125214285Y-58840152D01*
X125214285Y-58840152D02*
X125166666Y-58935390D01*
X125166666Y-58935390D02*
X125119047Y-58983009D01*
X125119047Y-58983009D02*
X125023809Y-59030628D01*
X125023809Y-59030628D02*
X124642857Y-59030628D01*
X126071428Y-58840152D02*
X126071428Y-59506819D01*
X125833333Y-58459200D02*
X125595238Y-59173485D01*
X125595238Y-59173485D02*
X126214285Y-59173485D01*
X90506819Y-82738094D02*
X90506819Y-82166666D01*
X91506819Y-82452380D02*
X90506819Y-82452380D01*
X91506819Y-81833332D02*
X90506819Y-81833332D01*
X90506819Y-81833332D02*
X90506819Y-81452380D01*
X90506819Y-81452380D02*
X90554438Y-81357142D01*
X90554438Y-81357142D02*
X90602057Y-81309523D01*
X90602057Y-81309523D02*
X90697295Y-81261904D01*
X90697295Y-81261904D02*
X90840152Y-81261904D01*
X90840152Y-81261904D02*
X90935390Y-81309523D01*
X90935390Y-81309523D02*
X90983009Y-81357142D01*
X90983009Y-81357142D02*
X91030628Y-81452380D01*
X91030628Y-81452380D02*
X91030628Y-81833332D01*
X91506819Y-80309523D02*
X91506819Y-80880951D01*
X91506819Y-80595237D02*
X90506819Y-80595237D01*
X90506819Y-80595237D02*
X90649676Y-80690475D01*
X90649676Y-80690475D02*
X90744914Y-80785713D01*
X90744914Y-80785713D02*
X90792533Y-80880951D01*
X90602057Y-79928570D02*
X90554438Y-79880951D01*
X90554438Y-79880951D02*
X90506819Y-79785713D01*
X90506819Y-79785713D02*
X90506819Y-79547618D01*
X90506819Y-79547618D02*
X90554438Y-79452380D01*
X90554438Y-79452380D02*
X90602057Y-79404761D01*
X90602057Y-79404761D02*
X90697295Y-79357142D01*
X90697295Y-79357142D02*
X90792533Y-79357142D01*
X90792533Y-79357142D02*
X90935390Y-79404761D01*
X90935390Y-79404761D02*
X91506819Y-79976189D01*
X91506819Y-79976189D02*
X91506819Y-79357142D01*
X136929580Y-76666666D02*
X136977200Y-76714285D01*
X136977200Y-76714285D02*
X137024819Y-76857142D01*
X137024819Y-76857142D02*
X137024819Y-76952380D01*
X137024819Y-76952380D02*
X136977200Y-77095237D01*
X136977200Y-77095237D02*
X136881961Y-77190475D01*
X136881961Y-77190475D02*
X136786723Y-77238094D01*
X136786723Y-77238094D02*
X136596247Y-77285713D01*
X136596247Y-77285713D02*
X136453390Y-77285713D01*
X136453390Y-77285713D02*
X136262914Y-77238094D01*
X136262914Y-77238094D02*
X136167676Y-77190475D01*
X136167676Y-77190475D02*
X136072438Y-77095237D01*
X136072438Y-77095237D02*
X136024819Y-76952380D01*
X136024819Y-76952380D02*
X136024819Y-76857142D01*
X136024819Y-76857142D02*
X136072438Y-76714285D01*
X136072438Y-76714285D02*
X136120057Y-76666666D01*
X136024819Y-76333332D02*
X136024819Y-75666666D01*
X136024819Y-75666666D02*
X137024819Y-76095237D01*
X92261905Y-43306819D02*
X92833333Y-43306819D01*
X92547619Y-44306819D02*
X92547619Y-43306819D01*
X93166667Y-44306819D02*
X93166667Y-43306819D01*
X93166667Y-43306819D02*
X93547619Y-43306819D01*
X93547619Y-43306819D02*
X93642857Y-43354438D01*
X93642857Y-43354438D02*
X93690476Y-43402057D01*
X93690476Y-43402057D02*
X93738095Y-43497295D01*
X93738095Y-43497295D02*
X93738095Y-43640152D01*
X93738095Y-43640152D02*
X93690476Y-43735390D01*
X93690476Y-43735390D02*
X93642857Y-43783009D01*
X93642857Y-43783009D02*
X93547619Y-43830628D01*
X93547619Y-43830628D02*
X93166667Y-43830628D01*
X94690476Y-44306819D02*
X94119048Y-44306819D01*
X94404762Y-44306819D02*
X94404762Y-43306819D01*
X94404762Y-43306819D02*
X94309524Y-43449676D01*
X94309524Y-43449676D02*
X94214286Y-43544914D01*
X94214286Y-43544914D02*
X94119048Y-43592533D01*
X95547619Y-43640152D02*
X95547619Y-44306819D01*
X95309524Y-43259200D02*
X95071429Y-43973485D01*
X95071429Y-43973485D02*
X95690476Y-43973485D01*
X66738095Y-47006819D02*
X67309523Y-47006819D01*
X67023809Y-48006819D02*
X67023809Y-47006819D01*
X67642857Y-48006819D02*
X67642857Y-47006819D01*
X67642857Y-47006819D02*
X68023809Y-47006819D01*
X68023809Y-47006819D02*
X68119047Y-47054438D01*
X68119047Y-47054438D02*
X68166666Y-47102057D01*
X68166666Y-47102057D02*
X68214285Y-47197295D01*
X68214285Y-47197295D02*
X68214285Y-47340152D01*
X68214285Y-47340152D02*
X68166666Y-47435390D01*
X68166666Y-47435390D02*
X68119047Y-47483009D01*
X68119047Y-47483009D02*
X68023809Y-47530628D01*
X68023809Y-47530628D02*
X67642857Y-47530628D01*
X68690476Y-48006819D02*
X68880952Y-48006819D01*
X68880952Y-48006819D02*
X68976190Y-47959200D01*
X68976190Y-47959200D02*
X69023809Y-47911580D01*
X69023809Y-47911580D02*
X69119047Y-47768723D01*
X69119047Y-47768723D02*
X69166666Y-47578247D01*
X69166666Y-47578247D02*
X69166666Y-47197295D01*
X69166666Y-47197295D02*
X69119047Y-47102057D01*
X69119047Y-47102057D02*
X69071428Y-47054438D01*
X69071428Y-47054438D02*
X68976190Y-47006819D01*
X68976190Y-47006819D02*
X68785714Y-47006819D01*
X68785714Y-47006819D02*
X68690476Y-47054438D01*
X68690476Y-47054438D02*
X68642857Y-47102057D01*
X68642857Y-47102057D02*
X68595238Y-47197295D01*
X68595238Y-47197295D02*
X68595238Y-47435390D01*
X68595238Y-47435390D02*
X68642857Y-47530628D01*
X68642857Y-47530628D02*
X68690476Y-47578247D01*
X68690476Y-47578247D02*
X68785714Y-47625866D01*
X68785714Y-47625866D02*
X68976190Y-47625866D01*
X68976190Y-47625866D02*
X69071428Y-47578247D01*
X69071428Y-47578247D02*
X69119047Y-47530628D01*
X69119047Y-47530628D02*
X69166666Y-47435390D01*
X75238095Y-49006819D02*
X75809523Y-49006819D01*
X75523809Y-50006819D02*
X75523809Y-49006819D01*
X76142857Y-50006819D02*
X76142857Y-49006819D01*
X76142857Y-49006819D02*
X76523809Y-49006819D01*
X76523809Y-49006819D02*
X76619047Y-49054438D01*
X76619047Y-49054438D02*
X76666666Y-49102057D01*
X76666666Y-49102057D02*
X76714285Y-49197295D01*
X76714285Y-49197295D02*
X76714285Y-49340152D01*
X76714285Y-49340152D02*
X76666666Y-49435390D01*
X76666666Y-49435390D02*
X76619047Y-49483009D01*
X76619047Y-49483009D02*
X76523809Y-49530628D01*
X76523809Y-49530628D02*
X76142857Y-49530628D01*
X77285714Y-49435390D02*
X77190476Y-49387771D01*
X77190476Y-49387771D02*
X77142857Y-49340152D01*
X77142857Y-49340152D02*
X77095238Y-49244914D01*
X77095238Y-49244914D02*
X77095238Y-49197295D01*
X77095238Y-49197295D02*
X77142857Y-49102057D01*
X77142857Y-49102057D02*
X77190476Y-49054438D01*
X77190476Y-49054438D02*
X77285714Y-49006819D01*
X77285714Y-49006819D02*
X77476190Y-49006819D01*
X77476190Y-49006819D02*
X77571428Y-49054438D01*
X77571428Y-49054438D02*
X77619047Y-49102057D01*
X77619047Y-49102057D02*
X77666666Y-49197295D01*
X77666666Y-49197295D02*
X77666666Y-49244914D01*
X77666666Y-49244914D02*
X77619047Y-49340152D01*
X77619047Y-49340152D02*
X77571428Y-49387771D01*
X77571428Y-49387771D02*
X77476190Y-49435390D01*
X77476190Y-49435390D02*
X77285714Y-49435390D01*
X77285714Y-49435390D02*
X77190476Y-49483009D01*
X77190476Y-49483009D02*
X77142857Y-49530628D01*
X77142857Y-49530628D02*
X77095238Y-49625866D01*
X77095238Y-49625866D02*
X77095238Y-49816342D01*
X77095238Y-49816342D02*
X77142857Y-49911580D01*
X77142857Y-49911580D02*
X77190476Y-49959200D01*
X77190476Y-49959200D02*
X77285714Y-50006819D01*
X77285714Y-50006819D02*
X77476190Y-50006819D01*
X77476190Y-50006819D02*
X77571428Y-49959200D01*
X77571428Y-49959200D02*
X77619047Y-49911580D01*
X77619047Y-49911580D02*
X77666666Y-49816342D01*
X77666666Y-49816342D02*
X77666666Y-49625866D01*
X77666666Y-49625866D02*
X77619047Y-49530628D01*
X77619047Y-49530628D02*
X77571428Y-49483009D01*
X77571428Y-49483009D02*
X77476190Y-49435390D01*
X70761905Y-42706819D02*
X71333333Y-42706819D01*
X71047619Y-43706819D02*
X71047619Y-42706819D01*
X71666667Y-43706819D02*
X71666667Y-42706819D01*
X71666667Y-42706819D02*
X72047619Y-42706819D01*
X72047619Y-42706819D02*
X72142857Y-42754438D01*
X72142857Y-42754438D02*
X72190476Y-42802057D01*
X72190476Y-42802057D02*
X72238095Y-42897295D01*
X72238095Y-42897295D02*
X72238095Y-43040152D01*
X72238095Y-43040152D02*
X72190476Y-43135390D01*
X72190476Y-43135390D02*
X72142857Y-43183009D01*
X72142857Y-43183009D02*
X72047619Y-43230628D01*
X72047619Y-43230628D02*
X71666667Y-43230628D01*
X73190476Y-43706819D02*
X72619048Y-43706819D01*
X72904762Y-43706819D02*
X72904762Y-42706819D01*
X72904762Y-42706819D02*
X72809524Y-42849676D01*
X72809524Y-42849676D02*
X72714286Y-42944914D01*
X72714286Y-42944914D02*
X72619048Y-42992533D01*
X73761905Y-43135390D02*
X73666667Y-43087771D01*
X73666667Y-43087771D02*
X73619048Y-43040152D01*
X73619048Y-43040152D02*
X73571429Y-42944914D01*
X73571429Y-42944914D02*
X73571429Y-42897295D01*
X73571429Y-42897295D02*
X73619048Y-42802057D01*
X73619048Y-42802057D02*
X73666667Y-42754438D01*
X73666667Y-42754438D02*
X73761905Y-42706819D01*
X73761905Y-42706819D02*
X73952381Y-42706819D01*
X73952381Y-42706819D02*
X74047619Y-42754438D01*
X74047619Y-42754438D02*
X74095238Y-42802057D01*
X74095238Y-42802057D02*
X74142857Y-42897295D01*
X74142857Y-42897295D02*
X74142857Y-42944914D01*
X74142857Y-42944914D02*
X74095238Y-43040152D01*
X74095238Y-43040152D02*
X74047619Y-43087771D01*
X74047619Y-43087771D02*
X73952381Y-43135390D01*
X73952381Y-43135390D02*
X73761905Y-43135390D01*
X73761905Y-43135390D02*
X73666667Y-43183009D01*
X73666667Y-43183009D02*
X73619048Y-43230628D01*
X73619048Y-43230628D02*
X73571429Y-43325866D01*
X73571429Y-43325866D02*
X73571429Y-43516342D01*
X73571429Y-43516342D02*
X73619048Y-43611580D01*
X73619048Y-43611580D02*
X73666667Y-43659200D01*
X73666667Y-43659200D02*
X73761905Y-43706819D01*
X73761905Y-43706819D02*
X73952381Y-43706819D01*
X73952381Y-43706819D02*
X74047619Y-43659200D01*
X74047619Y-43659200D02*
X74095238Y-43611580D01*
X74095238Y-43611580D02*
X74142857Y-43516342D01*
X74142857Y-43516342D02*
X74142857Y-43325866D01*
X74142857Y-43325866D02*
X74095238Y-43230628D01*
X74095238Y-43230628D02*
X74047619Y-43183009D01*
X74047619Y-43183009D02*
X73952381Y-43135390D01*
X118282642Y-67714580D02*
X118235023Y-67762200D01*
X118235023Y-67762200D02*
X118092166Y-67809819D01*
X118092166Y-67809819D02*
X117996928Y-67809819D01*
X117996928Y-67809819D02*
X117854071Y-67762200D01*
X117854071Y-67762200D02*
X117758833Y-67666961D01*
X117758833Y-67666961D02*
X117711214Y-67571723D01*
X117711214Y-67571723D02*
X117663595Y-67381247D01*
X117663595Y-67381247D02*
X117663595Y-67238390D01*
X117663595Y-67238390D02*
X117711214Y-67047914D01*
X117711214Y-67047914D02*
X117758833Y-66952676D01*
X117758833Y-66952676D02*
X117854071Y-66857438D01*
X117854071Y-66857438D02*
X117996928Y-66809819D01*
X117996928Y-66809819D02*
X118092166Y-66809819D01*
X118092166Y-66809819D02*
X118235023Y-66857438D01*
X118235023Y-66857438D02*
X118282642Y-66905057D01*
X119235023Y-67809819D02*
X118663595Y-67809819D01*
X118949309Y-67809819D02*
X118949309Y-66809819D01*
X118949309Y-66809819D02*
X118854071Y-66952676D01*
X118854071Y-66952676D02*
X118758833Y-67047914D01*
X118758833Y-67047914D02*
X118663595Y-67095533D01*
X119711214Y-67809819D02*
X119901690Y-67809819D01*
X119901690Y-67809819D02*
X119996928Y-67762200D01*
X119996928Y-67762200D02*
X120044547Y-67714580D01*
X120044547Y-67714580D02*
X120139785Y-67571723D01*
X120139785Y-67571723D02*
X120187404Y-67381247D01*
X120187404Y-67381247D02*
X120187404Y-67000295D01*
X120187404Y-67000295D02*
X120139785Y-66905057D01*
X120139785Y-66905057D02*
X120092166Y-66857438D01*
X120092166Y-66857438D02*
X119996928Y-66809819D01*
X119996928Y-66809819D02*
X119806452Y-66809819D01*
X119806452Y-66809819D02*
X119711214Y-66857438D01*
X119711214Y-66857438D02*
X119663595Y-66905057D01*
X119663595Y-66905057D02*
X119615976Y-67000295D01*
X119615976Y-67000295D02*
X119615976Y-67238390D01*
X119615976Y-67238390D02*
X119663595Y-67333628D01*
X119663595Y-67333628D02*
X119711214Y-67381247D01*
X119711214Y-67381247D02*
X119806452Y-67428866D01*
X119806452Y-67428866D02*
X119996928Y-67428866D01*
X119996928Y-67428866D02*
X120092166Y-67381247D01*
X120092166Y-67381247D02*
X120139785Y-67333628D01*
X120139785Y-67333628D02*
X120187404Y-67238390D01*
D15*
G04 #@! TO.C,R10*
X139522936Y-56235000D02*
X139977064Y-56235000D01*
X139522936Y-54765000D02*
X139977064Y-54765000D01*
G04 #@! TO.C,C13*
X145985000Y-55238748D02*
X145985000Y-55761252D01*
X144515000Y-55238748D02*
X144515000Y-55761252D01*
G04 #@! TO.C,J9*
X71870000Y-65760000D02*
X71870000Y-71780000D01*
X71870000Y-71780000D02*
X77170000Y-71780000D01*
X72450000Y-71180000D02*
X72450000Y-71780000D01*
X73250000Y-66760000D02*
X73250000Y-65760000D01*
X73500000Y-65760000D02*
X73500000Y-66760000D01*
X73500000Y-67290000D02*
X73250000Y-66760000D01*
X74050000Y-71180000D02*
X72450000Y-71180000D01*
X74050000Y-71780000D02*
X74050000Y-71180000D01*
X74990000Y-71180000D02*
X74990000Y-71780000D01*
X75540000Y-65760000D02*
X75540000Y-66760000D01*
X75540000Y-67290000D02*
X73500000Y-67290000D01*
X75790000Y-65760000D02*
X75790000Y-66760000D01*
X75790000Y-66760000D02*
X73250000Y-66760000D01*
X75790000Y-66760000D02*
X75540000Y-67290000D01*
X76590000Y-71180000D02*
X74990000Y-71180000D01*
X76590000Y-71780000D02*
X76590000Y-71180000D01*
X77170000Y-65760000D02*
X71870000Y-65760000D01*
X77170000Y-71780000D02*
X77170000Y-65760000D01*
X77460000Y-70750000D02*
X77460000Y-66750000D01*
G04 #@! TO.C,TP10*
X104700000Y-85000000D02*
G75*
G02*
X103300000Y-85000000I-700000J0D01*
G01*
X103300000Y-85000000D02*
G75*
G02*
X104700000Y-85000000I700000J0D01*
G01*
D16*
G04 #@! TO.C,C1*
X145123500Y-52230500D02*
X145123500Y-46769500D01*
X137376500Y-52230500D02*
X145123500Y-52230500D01*
X137376500Y-52230500D02*
X137376500Y-46769500D01*
X137376500Y-46769500D02*
X145123500Y-46769500D01*
D15*
G04 #@! TO.C,R15*
X101477064Y-89485000D02*
X101022936Y-89485000D01*
X101477064Y-88015000D02*
X101022936Y-88015000D01*
G04 #@! TO.C,R14*
X106227064Y-89485000D02*
X105772936Y-89485000D01*
X106227064Y-88015000D02*
X105772936Y-88015000D01*
G04 #@! TO.C,R8*
X69485000Y-53227064D02*
X69485000Y-52772936D01*
X68015000Y-53227064D02*
X68015000Y-52772936D01*
G04 #@! TO.C,R1*
X69735000Y-59522936D02*
X69735000Y-59977064D01*
X68265000Y-59522936D02*
X68265000Y-59977064D01*
G04 #@! TO.C,C4*
X73485000Y-51261252D02*
X73485000Y-50738748D01*
X72015000Y-51261252D02*
X72015000Y-50738748D01*
G04 #@! TO.C,C3*
X73238748Y-60015000D02*
X73761252Y-60015000D01*
X73238748Y-61485000D02*
X73761252Y-61485000D01*
D17*
G04 #@! TO.C,L2*
X104250000Y-69500000D02*
X104250000Y-69630000D01*
X104250000Y-75500000D02*
X104250000Y-75370000D01*
X110250000Y-69500000D02*
X104250000Y-69500000D01*
X110250000Y-69500000D02*
X110250000Y-69630000D01*
X110250000Y-75500000D02*
X104250000Y-75500000D01*
X110250000Y-75500000D02*
X110250000Y-75370000D01*
G04 #@! TO.C,L1*
X129150000Y-70000000D02*
X129150000Y-70130000D01*
X129150000Y-76000000D02*
X129150000Y-75870000D01*
X135150000Y-70000000D02*
X129150000Y-70000000D01*
X135150000Y-70000000D02*
X135150000Y-70130000D01*
X135150000Y-76000000D02*
X129150000Y-76000000D01*
X135150000Y-76000000D02*
X135150000Y-75870000D01*
D15*
G04 #@! TO.C,C8*
X122765000Y-75238748D02*
X122765000Y-75761252D01*
X124235000Y-75238748D02*
X124235000Y-75761252D01*
G04 #@! TO.C,C28*
X85324252Y-76300000D02*
X84801748Y-76300000D01*
X85324252Y-77770000D02*
X84801748Y-77770000D01*
G04 #@! TO.C,R4*
X134015000Y-50522936D02*
X134015000Y-50977064D01*
X135485000Y-50522936D02*
X135485000Y-50977064D01*
G04 #@! TO.C,TP5*
X125700000Y-52000000D02*
G75*
G02*
X124300000Y-52000000I-700000J0D01*
G01*
X124300000Y-52000000D02*
G75*
G02*
X125700000Y-52000000I700000J0D01*
G01*
G04 #@! TO.C,R7*
X127727064Y-63265000D02*
X127272936Y-63265000D01*
X127727064Y-64735000D02*
X127272936Y-64735000D01*
D18*
G04 #@! TO.C,S2*
X66100000Y-51950000D02*
X66100000Y-51950000D01*
X66000000Y-51950000D02*
X66000000Y-51950000D01*
D10*
X61800000Y-54150000D02*
X64200000Y-54150000D01*
X61800000Y-51350000D02*
X64200000Y-51350000D01*
D18*
X66100000Y-51950000D02*
G75*
G02*
X66000000Y-51950000I-50000J0D01*
G01*
X66000000Y-51950000D02*
G75*
G02*
X66100000Y-51950000I50000J0D01*
G01*
D15*
G04 #@! TO.C,J7*
X80175000Y-48404000D02*
X80175000Y-68944000D01*
X80175000Y-50584000D02*
X80775000Y-50584000D01*
X80175000Y-53124000D02*
X80775000Y-53124000D01*
X80175000Y-55664000D02*
X80775000Y-55664000D01*
X80175000Y-58204000D02*
X80775000Y-58204000D01*
X80175000Y-60744000D02*
X80775000Y-60744000D01*
X80175000Y-63284000D02*
X80775000Y-63284000D01*
X80175000Y-65824000D02*
X80775000Y-65824000D01*
X80175000Y-68364000D02*
X80775000Y-68364000D01*
X80175000Y-68944000D02*
X86195000Y-68944000D01*
X80775000Y-48984000D02*
X80175000Y-48984000D01*
X80775000Y-50584000D02*
X80775000Y-48984000D01*
X80775000Y-51524000D02*
X80175000Y-51524000D01*
X80775000Y-53124000D02*
X80775000Y-51524000D01*
X80775000Y-54064000D02*
X80175000Y-54064000D01*
X80775000Y-55664000D02*
X80775000Y-54064000D01*
X80775000Y-56604000D02*
X80175000Y-56604000D01*
X80775000Y-58204000D02*
X80775000Y-56604000D01*
X80775000Y-59144000D02*
X80175000Y-59144000D01*
X80775000Y-60744000D02*
X80775000Y-59144000D01*
X80775000Y-61684000D02*
X80175000Y-61684000D01*
X80775000Y-63284000D02*
X80775000Y-61684000D01*
X80775000Y-64224000D02*
X80175000Y-64224000D01*
X80775000Y-65824000D02*
X80775000Y-64224000D01*
X80775000Y-66764000D02*
X80175000Y-66764000D01*
X80775000Y-68364000D02*
X80775000Y-66764000D01*
X81205000Y-69234000D02*
X85205000Y-69234000D01*
X84665000Y-50034000D02*
X84665000Y-54864000D01*
X84665000Y-54864000D02*
X85195000Y-54864000D01*
X84665000Y-62484000D02*
X85195000Y-62484000D01*
X84665000Y-67314000D02*
X84665000Y-62484000D01*
X85195000Y-49784000D02*
X84665000Y-50034000D01*
X85195000Y-49784000D02*
X85195000Y-54864000D01*
X85195000Y-54864000D02*
X86195000Y-54864000D01*
X85195000Y-62484000D02*
X86195000Y-62484000D01*
X85195000Y-67564000D02*
X84665000Y-67314000D01*
X85195000Y-67564000D02*
X85195000Y-62484000D01*
X86195000Y-48404000D02*
X80175000Y-48404000D01*
X86195000Y-49784000D02*
X85195000Y-49784000D01*
X86195000Y-50034000D02*
X85195000Y-50034000D01*
X86195000Y-67314000D02*
X85195000Y-67314000D01*
X86195000Y-67564000D02*
X85195000Y-67564000D01*
X86195000Y-68944000D02*
X86195000Y-48404000D01*
D17*
G04 #@! TO.C,U1*
X131050000Y-56475000D02*
X134950000Y-56475000D01*
X131050000Y-61525000D02*
X134950000Y-61525000D01*
D10*
X129060000Y-56695000D02*
G75*
G02*
X128860000Y-56695000I-100000J0D01*
G01*
X128860000Y-56695000D02*
G75*
G02*
X129060000Y-56695000I100000J0D01*
G01*
D15*
G04 #@! TO.C,R12*
X137772936Y-80765000D02*
X138227064Y-80765000D01*
X137772936Y-82235000D02*
X138227064Y-82235000D01*
G04 #@! TO.C,R11*
X131765000Y-88227064D02*
X131765000Y-87772936D01*
X133235000Y-88227064D02*
X133235000Y-87772936D01*
D17*
G04 #@! TO.C,J8*
X59455500Y-70630750D02*
X59455500Y-78130750D01*
X59455500Y-78130750D02*
X59730500Y-78130750D01*
X59730500Y-70630750D02*
X59455500Y-70630750D01*
X62430500Y-70630750D02*
X62080500Y-70630750D01*
X62430500Y-78130750D02*
X62080500Y-78130750D01*
X63805500Y-72550750D02*
X63805500Y-72660750D01*
X63805500Y-76100750D02*
X63805500Y-76210750D01*
D12*
X64980500Y-72980750D02*
G75*
G02*
X64780500Y-72980750I-100000J0D01*
G01*
X64780500Y-72980750D02*
G75*
G02*
X64980500Y-72980750I100000J0D01*
G01*
D15*
G04 #@! TO.C,TP17*
X76950000Y-83500000D02*
G75*
G02*
X74550000Y-83500000I-1200000J0D01*
G01*
X74550000Y-83500000D02*
G75*
G02*
X76950000Y-83500000I1200000J0D01*
G01*
G04 #@! TO.C,J4*
X81896000Y-92107000D02*
X81896000Y-96107000D01*
X82186000Y-91077000D02*
X82186000Y-97097000D01*
X82186000Y-97097000D02*
X87486000Y-97097000D01*
X82766000Y-91077000D02*
X82766000Y-91677000D01*
X82766000Y-91677000D02*
X84366000Y-91677000D01*
X83566000Y-96097000D02*
X83816000Y-95567000D01*
X83566000Y-96097000D02*
X86106000Y-96097000D01*
X83566000Y-97097000D02*
X83566000Y-96097000D01*
X83816000Y-95567000D02*
X85856000Y-95567000D01*
X83816000Y-97097000D02*
X83816000Y-96097000D01*
X84366000Y-91677000D02*
X84366000Y-91077000D01*
X85306000Y-91077000D02*
X85306000Y-91677000D01*
X85306000Y-91677000D02*
X86906000Y-91677000D01*
X85856000Y-95567000D02*
X86106000Y-96097000D01*
X85856000Y-97097000D02*
X85856000Y-96097000D01*
X86106000Y-96097000D02*
X86106000Y-97097000D01*
X86906000Y-91677000D02*
X86906000Y-91077000D01*
X87486000Y-91077000D02*
X82186000Y-91077000D01*
X87486000Y-97097000D02*
X87486000Y-91077000D01*
G04 #@! TO.C,C6*
X101261252Y-79765000D02*
X100738748Y-79765000D01*
X101261252Y-81235000D02*
X100738748Y-81235000D01*
G04 #@! TO.C,TP2*
X115950000Y-73000000D02*
G75*
G02*
X114050000Y-73000000I-950000J0D01*
G01*
X114050000Y-73000000D02*
G75*
G02*
X115950000Y-73000000I950000J0D01*
G01*
G04 #@! TO.C,U2*
X130090000Y-78940000D02*
X131910000Y-78940000D01*
X130090000Y-78990000D02*
X130090000Y-78940000D01*
X130090000Y-82060000D02*
X130090000Y-82010000D01*
X131910000Y-78940000D02*
X131910000Y-78990000D01*
X131910000Y-82010000D02*
X131910000Y-82060000D01*
X131910000Y-82060000D02*
X130090000Y-82060000D01*
X129550000Y-78990000D02*
X129310000Y-78660000D01*
X129790000Y-78660000D01*
X129550000Y-78990000D01*
G36*
X129550000Y-78990000D02*
G01*
X129310000Y-78660000D01*
X129790000Y-78660000D01*
X129550000Y-78990000D01*
G37*
G04 #@! TO.C,R9*
X124265000Y-56227064D02*
X124265000Y-55772936D01*
X125735000Y-56227064D02*
X125735000Y-55772936D01*
G04 #@! TO.C,J3*
X108630000Y-97240000D02*
X108630000Y-91220000D01*
X108630000Y-91220000D02*
X103330000Y-91220000D01*
X108050000Y-91820000D02*
X108050000Y-91220000D01*
X107250000Y-96240000D02*
X107250000Y-97240000D01*
X107000000Y-97240000D02*
X107000000Y-96240000D01*
X107000000Y-95710000D02*
X107250000Y-96240000D01*
X106450000Y-91820000D02*
X108050000Y-91820000D01*
X106450000Y-91220000D02*
X106450000Y-91820000D01*
X105510000Y-91820000D02*
X105510000Y-91220000D01*
X104960000Y-97240000D02*
X104960000Y-96240000D01*
X104960000Y-95710000D02*
X107000000Y-95710000D01*
X104710000Y-97240000D02*
X104710000Y-96240000D01*
X104710000Y-96240000D02*
X107250000Y-96240000D01*
X104710000Y-96240000D02*
X104960000Y-95710000D01*
X103910000Y-91820000D02*
X105510000Y-91820000D01*
X103910000Y-91220000D02*
X103910000Y-91820000D01*
X103330000Y-97240000D02*
X108630000Y-97240000D01*
X103330000Y-91220000D02*
X103330000Y-97240000D01*
X103040000Y-92250000D02*
X103040000Y-96250000D01*
G04 #@! TO.C,TP6*
X151950000Y-75000000D02*
G75*
G02*
X150050000Y-75000000I-950000J0D01*
G01*
X150050000Y-75000000D02*
G75*
G02*
X151950000Y-75000000I950000J0D01*
G01*
G04 #@! TO.C,J2*
X147040000Y-66510000D02*
X147040000Y-72530000D01*
X147040000Y-72530000D02*
X154880000Y-72530000D01*
X147620000Y-71930000D02*
X147620000Y-72530000D01*
X148420000Y-67510000D02*
X148420000Y-66510000D01*
X148670000Y-66510000D02*
X148670000Y-67510000D01*
X148670000Y-68040000D02*
X148420000Y-67510000D01*
X149220000Y-71930000D02*
X147620000Y-71930000D01*
X149220000Y-72530000D02*
X149220000Y-71930000D01*
X150160000Y-71930000D02*
X150160000Y-72530000D01*
X151760000Y-71930000D02*
X150160000Y-71930000D01*
X151760000Y-72530000D02*
X151760000Y-71930000D01*
X152700000Y-71930000D02*
X152700000Y-72530000D01*
X153250000Y-66510000D02*
X153250000Y-67510000D01*
X153250000Y-68040000D02*
X148670000Y-68040000D01*
X153500000Y-66510000D02*
X153500000Y-67510000D01*
X153500000Y-67510000D02*
X148420000Y-67510000D01*
X153500000Y-67510000D02*
X153250000Y-68040000D01*
X154300000Y-71930000D02*
X152700000Y-71930000D01*
X154300000Y-72530000D02*
X154300000Y-71930000D01*
X154880000Y-66510000D02*
X147040000Y-66510000D01*
X154880000Y-72530000D02*
X154880000Y-66510000D01*
X155170000Y-71500000D02*
X155170000Y-67500000D01*
G04 #@! TO.C,C2*
X148567380Y-78661000D02*
X149197380Y-78661000D01*
X148882380Y-78346000D02*
X148882380Y-78976000D01*
X152067621Y-77270000D02*
X152067621Y-83730000D01*
X152107621Y-77270000D02*
X152107621Y-83730000D01*
X152147621Y-77271000D02*
X152147621Y-83729000D01*
X152187621Y-77272000D02*
X152187621Y-83728000D01*
X152227621Y-77274000D02*
X152227621Y-83726000D01*
X152267621Y-77276000D02*
X152267621Y-83724000D01*
X152307621Y-77279000D02*
X152307621Y-79460000D01*
X152307621Y-81540000D02*
X152307621Y-83721000D01*
X152347621Y-77282000D02*
X152347621Y-79460000D01*
X152347621Y-81540000D02*
X152347621Y-83718000D01*
X152387621Y-77286000D02*
X152387621Y-79460000D01*
X152387621Y-81540000D02*
X152387621Y-83714000D01*
X152427621Y-77290000D02*
X152427621Y-79460000D01*
X152427621Y-81540000D02*
X152427621Y-83710000D01*
X152467621Y-77295000D02*
X152467621Y-79460000D01*
X152467621Y-81540000D02*
X152467621Y-83705000D01*
X152507621Y-77300000D02*
X152507621Y-79460000D01*
X152507621Y-81540000D02*
X152507621Y-83700000D01*
X152547621Y-77305000D02*
X152547621Y-79460000D01*
X152547621Y-81540000D02*
X152547621Y-83695000D01*
X152587621Y-77312000D02*
X152587621Y-79460000D01*
X152587621Y-81540000D02*
X152587621Y-83688000D01*
X152627621Y-77318000D02*
X152627621Y-79460000D01*
X152627621Y-81540000D02*
X152627621Y-83682000D01*
X152667621Y-77326000D02*
X152667621Y-79460000D01*
X152667621Y-81540000D02*
X152667621Y-83674000D01*
X152707621Y-77333000D02*
X152707621Y-79460000D01*
X152707621Y-81540000D02*
X152707621Y-83667000D01*
X152747621Y-77341000D02*
X152747621Y-79460000D01*
X152747621Y-81540000D02*
X152747621Y-83659000D01*
X152787621Y-77350000D02*
X152787621Y-79460000D01*
X152787621Y-81540000D02*
X152787621Y-83650000D01*
X152827621Y-77360000D02*
X152827621Y-79460000D01*
X152827621Y-81540000D02*
X152827621Y-83640000D01*
X152867621Y-77369000D02*
X152867621Y-79460000D01*
X152867621Y-81540000D02*
X152867621Y-83631000D01*
X152907621Y-77380000D02*
X152907621Y-79460000D01*
X152907621Y-81540000D02*
X152907621Y-83620000D01*
X152947621Y-77391000D02*
X152947621Y-79460000D01*
X152947621Y-81540000D02*
X152947621Y-83609000D01*
X152987621Y-77402000D02*
X152987621Y-79460000D01*
X152987621Y-81540000D02*
X152987621Y-83598000D01*
X153027621Y-77414000D02*
X153027621Y-79460000D01*
X153027621Y-81540000D02*
X153027621Y-83586000D01*
X153067621Y-77427000D02*
X153067621Y-79460000D01*
X153067621Y-81540000D02*
X153067621Y-83573000D01*
X153107621Y-77440000D02*
X153107621Y-79460000D01*
X153107621Y-81540000D02*
X153107621Y-83560000D01*
X153147621Y-77453000D02*
X153147621Y-79460000D01*
X153147621Y-81540000D02*
X153147621Y-83547000D01*
X153187621Y-77468000D02*
X153187621Y-79460000D01*
X153187621Y-81540000D02*
X153187621Y-83532000D01*
X153227621Y-77483000D02*
X153227621Y-79460000D01*
X153227621Y-81540000D02*
X153227621Y-83517000D01*
X153267621Y-77498000D02*
X153267621Y-79460000D01*
X153267621Y-81540000D02*
X153267621Y-83502000D01*
X153307621Y-77514000D02*
X153307621Y-79460000D01*
X153307621Y-81540000D02*
X153307621Y-83486000D01*
X153347621Y-77531000D02*
X153347621Y-79460000D01*
X153347621Y-81540000D02*
X153347621Y-83469000D01*
X153387621Y-77548000D02*
X153387621Y-79460000D01*
X153387621Y-81540000D02*
X153387621Y-83452000D01*
X153427621Y-77566000D02*
X153427621Y-79460000D01*
X153427621Y-81540000D02*
X153427621Y-83434000D01*
X153467621Y-77585000D02*
X153467621Y-79460000D01*
X153467621Y-81540000D02*
X153467621Y-83415000D01*
X153507621Y-77604000D02*
X153507621Y-79460000D01*
X153507621Y-81540000D02*
X153507621Y-83396000D01*
X153547621Y-77624000D02*
X153547621Y-79460000D01*
X153547621Y-81540000D02*
X153547621Y-83376000D01*
X153587621Y-77645000D02*
X153587621Y-79460000D01*
X153587621Y-81540000D02*
X153587621Y-83355000D01*
X153627621Y-77666000D02*
X153627621Y-79460000D01*
X153627621Y-81540000D02*
X153627621Y-83334000D01*
X153667621Y-77688000D02*
X153667621Y-79460000D01*
X153667621Y-81540000D02*
X153667621Y-83312000D01*
X153707621Y-77711000D02*
X153707621Y-79460000D01*
X153707621Y-81540000D02*
X153707621Y-83289000D01*
X153747621Y-77735000D02*
X153747621Y-79460000D01*
X153747621Y-81540000D02*
X153747621Y-83265000D01*
X153787621Y-77759000D02*
X153787621Y-79460000D01*
X153787621Y-81540000D02*
X153787621Y-83241000D01*
X153827621Y-77784000D02*
X153827621Y-79460000D01*
X153827621Y-81540000D02*
X153827621Y-83216000D01*
X153867621Y-77810000D02*
X153867621Y-79460000D01*
X153867621Y-81540000D02*
X153867621Y-83190000D01*
X153907621Y-77837000D02*
X153907621Y-79460000D01*
X153907621Y-81540000D02*
X153907621Y-83163000D01*
X153947621Y-77864000D02*
X153947621Y-79460000D01*
X153947621Y-81540000D02*
X153947621Y-83136000D01*
X153987621Y-77893000D02*
X153987621Y-79460000D01*
X153987621Y-81540000D02*
X153987621Y-83107000D01*
X154027621Y-77923000D02*
X154027621Y-79460000D01*
X154027621Y-81540000D02*
X154027621Y-83077000D01*
X154067621Y-77953000D02*
X154067621Y-79460000D01*
X154067621Y-81540000D02*
X154067621Y-83047000D01*
X154107621Y-77984000D02*
X154107621Y-79460000D01*
X154107621Y-81540000D02*
X154107621Y-83016000D01*
X154147621Y-78017000D02*
X154147621Y-79460000D01*
X154147621Y-81540000D02*
X154147621Y-82983000D01*
X154187621Y-78050000D02*
X154187621Y-79460000D01*
X154187621Y-81540000D02*
X154187621Y-82950000D01*
X154227621Y-78085000D02*
X154227621Y-79460000D01*
X154227621Y-81540000D02*
X154227621Y-82915000D01*
X154267621Y-78121000D02*
X154267621Y-79460000D01*
X154267621Y-81540000D02*
X154267621Y-82879000D01*
X154307621Y-78158000D02*
X154307621Y-79460000D01*
X154307621Y-81540000D02*
X154307621Y-82842000D01*
X154347621Y-78196000D02*
X154347621Y-79460000D01*
X154347621Y-81540000D02*
X154347621Y-82804000D01*
X154387621Y-78236000D02*
X154387621Y-82764000D01*
X154427621Y-78277000D02*
X154427621Y-82723000D01*
X154467621Y-78319000D02*
X154467621Y-82681000D01*
X154507621Y-78363000D02*
X154507621Y-82637000D01*
X154547621Y-78409000D02*
X154547621Y-82591000D01*
X154587621Y-78456000D02*
X154587621Y-82544000D01*
X154627621Y-78505000D02*
X154627621Y-82495000D01*
X154667621Y-78557000D02*
X154667621Y-82443000D01*
X154707621Y-78610000D02*
X154707621Y-82390000D01*
X154747621Y-78666000D02*
X154747621Y-82334000D01*
X154787621Y-78725000D02*
X154787621Y-82275000D01*
X154827621Y-78786000D02*
X154827621Y-82214000D01*
X154867621Y-78851000D02*
X154867621Y-82149000D01*
X154907621Y-78919000D02*
X154907621Y-82081000D01*
X154947621Y-78991000D02*
X154947621Y-82009000D01*
X154987621Y-79068000D02*
X154987621Y-81932000D01*
X155027621Y-79150000D02*
X155027621Y-81850000D01*
X155067621Y-79239000D02*
X155067621Y-81761000D01*
X155107621Y-79335000D02*
X155107621Y-81665000D01*
X155147621Y-79442000D02*
X155147621Y-81558000D01*
X155187621Y-79561000D02*
X155187621Y-81439000D01*
X155227621Y-79699000D02*
X155227621Y-81301000D01*
X155267621Y-79867000D02*
X155267621Y-81133000D01*
X155307621Y-80098000D02*
X155307621Y-80902000D01*
X155337621Y-80500000D02*
G75*
G02*
X148797621Y-80500000I-3270000J0D01*
G01*
X148797621Y-80500000D02*
G75*
G02*
X155337621Y-80500000I3270000J0D01*
G01*
G04 #@! TO.C,TP15*
X106450000Y-66750000D02*
G75*
G02*
X105050000Y-66750000I-700000J0D01*
G01*
X105050000Y-66750000D02*
G75*
G02*
X106450000Y-66750000I700000J0D01*
G01*
D18*
G04 #@! TO.C,S1*
X66100000Y-60700000D02*
X66100000Y-60700000D01*
X66000000Y-60700000D02*
X66000000Y-60700000D01*
D10*
X61800000Y-62900000D02*
X64200000Y-62900000D01*
X61800000Y-60100000D02*
X64200000Y-60100000D01*
D18*
X66100000Y-60700000D02*
G75*
G02*
X66000000Y-60700000I-50000J0D01*
G01*
X66000000Y-60700000D02*
G75*
G02*
X66100000Y-60700000I50000J0D01*
G01*
D15*
G04 #@! TO.C,J6*
X149290000Y-50250000D02*
X149290000Y-54250000D01*
X149580000Y-49220000D02*
X149580000Y-55240000D01*
X149580000Y-55240000D02*
X154880000Y-55240000D01*
X150160000Y-49220000D02*
X150160000Y-49820000D01*
X150160000Y-49820000D02*
X151760000Y-49820000D01*
X150960000Y-54240000D02*
X151210000Y-53710000D01*
X150960000Y-54240000D02*
X153500000Y-54240000D01*
X150960000Y-55240000D02*
X150960000Y-54240000D01*
X151210000Y-53710000D02*
X153250000Y-53710000D01*
X151210000Y-55240000D02*
X151210000Y-54240000D01*
X151760000Y-49820000D02*
X151760000Y-49220000D01*
X152700000Y-49220000D02*
X152700000Y-49820000D01*
X152700000Y-49820000D02*
X154300000Y-49820000D01*
X153250000Y-53710000D02*
X153500000Y-54240000D01*
X153250000Y-55240000D02*
X153250000Y-54240000D01*
X153500000Y-54240000D02*
X153500000Y-55240000D01*
X154300000Y-49820000D02*
X154300000Y-49220000D01*
X154880000Y-49220000D02*
X149580000Y-49220000D01*
X154880000Y-55240000D02*
X154880000Y-49220000D01*
G04 #@! TO.C,C25*
X151738748Y-87765000D02*
X152261252Y-87765000D01*
X151738748Y-89235000D02*
X152261252Y-89235000D01*
G04 #@! TO.C,R13*
X115272936Y-80765000D02*
X115727064Y-80765000D01*
X115272936Y-82235000D02*
X115727064Y-82235000D01*
G04 #@! TO.C,TP16*
X121450000Y-86500000D02*
G75*
G02*
X119550000Y-86500000I-950000J0D01*
G01*
X119550000Y-86500000D02*
G75*
G02*
X121450000Y-86500000I950000J0D01*
G01*
G04 #@! TO.C,R3*
X93727064Y-84265000D02*
X93272936Y-84265000D01*
X93727064Y-85735000D02*
X93272936Y-85735000D01*
G04 #@! TO.C,R6*
X138727064Y-63265000D02*
X138272936Y-63265000D01*
X138727064Y-64735000D02*
X138272936Y-64735000D01*
G04 #@! TO.C,R5*
X110265000Y-85227064D02*
X110265000Y-84772936D01*
X111735000Y-85227064D02*
X111735000Y-84772936D01*
G04 #@! TO.C,TP19*
X145200000Y-77750000D02*
G75*
G02*
X142800000Y-77750000I-1200000J0D01*
G01*
X142800000Y-77750000D02*
G75*
G02*
X145200000Y-77750000I1200000J0D01*
G01*
G04 #@! TO.C,C12*
X124265000Y-47738748D02*
X124265000Y-48261252D01*
X125735000Y-47738748D02*
X125735000Y-48261252D01*
G04 #@! TO.C,C10*
X100265000Y-73738748D02*
X100265000Y-74261252D01*
X101735000Y-73738748D02*
X101735000Y-74261252D01*
G04 #@! TO.C,TP3*
X147700000Y-51750000D02*
G75*
G02*
X146300000Y-51750000I-700000J0D01*
G01*
X146300000Y-51750000D02*
G75*
G02*
X147700000Y-51750000I700000J0D01*
G01*
G04 #@! TO.C,C23*
X83265000Y-45261252D02*
X83265000Y-44738748D01*
X84735000Y-45261252D02*
X84735000Y-44738748D01*
G04 #@! TO.C,J5*
X90659000Y-92107000D02*
X90659000Y-96107000D01*
X90949000Y-91077000D02*
X90949000Y-97097000D01*
X90949000Y-97097000D02*
X96249000Y-97097000D01*
X91529000Y-91077000D02*
X91529000Y-91677000D01*
X91529000Y-91677000D02*
X93129000Y-91677000D01*
X92329000Y-96097000D02*
X92579000Y-95567000D01*
X92329000Y-96097000D02*
X94869000Y-96097000D01*
X92329000Y-97097000D02*
X92329000Y-96097000D01*
X92579000Y-95567000D02*
X94619000Y-95567000D01*
X92579000Y-97097000D02*
X92579000Y-96097000D01*
X93129000Y-91677000D02*
X93129000Y-91077000D01*
X94069000Y-91077000D02*
X94069000Y-91677000D01*
X94069000Y-91677000D02*
X95669000Y-91677000D01*
X94619000Y-95567000D02*
X94869000Y-96097000D01*
X94619000Y-97097000D02*
X94619000Y-96097000D01*
X94869000Y-96097000D02*
X94869000Y-97097000D01*
X95669000Y-91677000D02*
X95669000Y-91077000D01*
X96249000Y-91077000D02*
X90949000Y-91077000D01*
X96249000Y-97097000D02*
X96249000Y-91077000D01*
G04 #@! TO.C,C29*
X93824252Y-76300000D02*
X93301748Y-76300000D01*
X93824252Y-77770000D02*
X93301748Y-77770000D01*
G04 #@! TO.C,C9*
X112765000Y-76738748D02*
X112765000Y-77261252D01*
X114235000Y-76738748D02*
X114235000Y-77261252D01*
G04 #@! TO.C,TP13*
X145200000Y-62750000D02*
G75*
G02*
X143300000Y-62750000I-950000J0D01*
G01*
X143300000Y-62750000D02*
G75*
G02*
X145200000Y-62750000I950000J0D01*
G01*
G04 #@! TO.C,J1*
X114571000Y-91117000D02*
X114571000Y-97137000D01*
X114571000Y-97137000D02*
X119871000Y-97137000D01*
X115151000Y-96537000D02*
X115151000Y-97137000D01*
X115951000Y-92117000D02*
X115951000Y-91117000D01*
X116201000Y-91117000D02*
X116201000Y-92117000D01*
X116201000Y-92647000D02*
X115951000Y-92117000D01*
X116751000Y-96537000D02*
X115151000Y-96537000D01*
X116751000Y-97137000D02*
X116751000Y-96537000D01*
X117691000Y-96537000D02*
X117691000Y-97137000D01*
X118241000Y-91117000D02*
X118241000Y-92117000D01*
X118241000Y-92647000D02*
X116201000Y-92647000D01*
X118491000Y-91117000D02*
X118491000Y-92117000D01*
X118491000Y-92117000D02*
X115951000Y-92117000D01*
X118491000Y-92117000D02*
X118241000Y-92647000D01*
X119291000Y-96537000D02*
X117691000Y-96537000D01*
X119291000Y-97137000D02*
X119291000Y-96537000D01*
X119871000Y-91117000D02*
X114571000Y-91117000D01*
X119871000Y-97137000D02*
X119871000Y-91117000D01*
X120161000Y-96107000D02*
X120161000Y-92107000D01*
G04 #@! TO.C,U5*
X99652000Y-36175000D02*
X99652000Y-42375000D01*
X99652000Y-36175000D02*
X118052000Y-36175000D01*
X99652000Y-61025000D02*
X99652000Y-62025000D01*
X99652000Y-62025000D02*
X101152000Y-62025000D01*
X118052000Y-36175000D02*
X118052000Y-42375000D01*
X118052000Y-62025000D02*
X116552000Y-62025000D01*
X118052000Y-62025000D02*
X118052000Y-61025000D01*
X99652000Y-43050000D02*
X99152000Y-43050000D01*
X99652000Y-42550000D01*
X99652000Y-43050000D01*
G36*
X99652000Y-43050000D02*
G01*
X99152000Y-43050000D01*
X99652000Y-42550000D01*
X99652000Y-43050000D01*
G37*
G04 #@! TO.C,R2*
X85227064Y-84265000D02*
X84772936Y-84265000D01*
X85227064Y-85735000D02*
X84772936Y-85735000D01*
G04 #@! TO.C,C11*
X65240500Y-84683252D02*
X65240500Y-84160748D01*
X66710500Y-84683252D02*
X66710500Y-84160748D01*
G04 #@! TO.C,C22*
X88265000Y-45261252D02*
X88265000Y-44738748D01*
X89735000Y-45261252D02*
X89735000Y-44738748D01*
G04 #@! TO.C,C5*
X122765000Y-80738748D02*
X122765000Y-81261252D01*
X124235000Y-80738748D02*
X124235000Y-81261252D01*
G04 #@! TO.C,TP11*
X84700000Y-81000000D02*
G75*
G02*
X83300000Y-81000000I-700000J0D01*
G01*
X83300000Y-81000000D02*
G75*
G02*
X84700000Y-81000000I700000J0D01*
G01*
G04 #@! TO.C,TP7*
X141200000Y-69500000D02*
G75*
G02*
X139800000Y-69500000I-700000J0D01*
G01*
X139800000Y-69500000D02*
G75*
G02*
X141200000Y-69500000I700000J0D01*
G01*
G04 #@! TO.C,TP1*
X128450000Y-76500000D02*
G75*
G02*
X126550000Y-76500000I-950000J0D01*
G01*
X126550000Y-76500000D02*
G75*
G02*
X128450000Y-76500000I950000J0D01*
G01*
G04 #@! TO.C,TP4*
X125700000Y-60500000D02*
G75*
G02*
X124300000Y-60500000I-700000J0D01*
G01*
X124300000Y-60500000D02*
G75*
G02*
X125700000Y-60500000I700000J0D01*
G01*
G04 #@! TO.C,TP12*
X93200000Y-81000000D02*
G75*
G02*
X91800000Y-81000000I-700000J0D01*
G01*
X91800000Y-81000000D02*
G75*
G02*
X93200000Y-81000000I700000J0D01*
G01*
G04 #@! TO.C,C7*
X137515000Y-76761252D02*
X137515000Y-76238748D01*
X138985000Y-76761252D02*
X138985000Y-76238748D01*
G04 #@! TO.C,TP14*
X94950000Y-45500000D02*
G75*
G02*
X93050000Y-45500000I-950000J0D01*
G01*
X93050000Y-45500000D02*
G75*
G02*
X94950000Y-45500000I950000J0D01*
G01*
G04 #@! TO.C,TP9*
X68700000Y-49000000D02*
G75*
G02*
X67300000Y-49000000I-700000J0D01*
G01*
X67300000Y-49000000D02*
G75*
G02*
X68700000Y-49000000I700000J0D01*
G01*
G04 #@! TO.C,TP8*
X77200000Y-51000000D02*
G75*
G02*
X75800000Y-51000000I-700000J0D01*
G01*
X75800000Y-51000000D02*
G75*
G02*
X77200000Y-51000000I700000J0D01*
G01*
G04 #@! TO.C,TP18*
X73700000Y-45250000D02*
G75*
G02*
X71300000Y-45250000I-1200000J0D01*
G01*
X71300000Y-45250000D02*
G75*
G02*
X73700000Y-45250000I1200000J0D01*
G01*
G04 #@! TO.C,C19*
X118664248Y-68300000D02*
X119186752Y-68300000D01*
X118664248Y-69770000D02*
X119186752Y-69770000D01*
G04 #@! TO.C,U3*
X107590000Y-77940000D02*
X109410000Y-77940000D01*
X107590000Y-77990000D02*
X107590000Y-77940000D01*
X107590000Y-81060000D02*
X107590000Y-81010000D01*
X109410000Y-77940000D02*
X109410000Y-77990000D01*
X109410000Y-81010000D02*
X109410000Y-81060000D01*
X109410000Y-81060000D02*
X107590000Y-81060000D01*
X107050000Y-77990000D02*
X106810000Y-77660000D01*
X107290000Y-77660000D01*
X107050000Y-77990000D01*
G36*
X107050000Y-77990000D02*
G01*
X106810000Y-77660000D01*
X107290000Y-77660000D01*
X107050000Y-77990000D01*
G37*
G04 #@! TD*
M02*
