M48
INCH,TZ
T1C0.0118
T2C0.0118
T3C0.0315
T4C0.0320
T5C0.0469
%
G90
G05
T1
X24000Y-32950
X24213Y-18898
X24400Y-16300
X24606Y-25984
X24650Y-36050
X25000Y-31890
X25394Y-18701
X25591Y-28445
X26500Y-15700
X26575Y-25787
X26772Y-29921
X26800Y-37400
X27150Y-36300
X27953Y-31102
X28150Y-22146
X28150Y-15900
X29724Y-21358
X29724Y-23228
X30413Y-23130
X30450Y-35000
X30512Y-15945
X30512Y-25000
X30709Y-20669
X30709Y-30906
X31102Y-18898
X31299Y-27953
X31450Y-32400
X34888Y-27277
X34900Y-29700
X35050Y-31800
X35125Y-27513
X35433Y-27953
X35630Y-21063
X35630Y-24016
X36614Y-23228
X36614Y-28937
X37992Y-21063
X38022Y-23622
X38356Y-23622
X38386Y-18504
X38583Y-24803
X39173Y-25050
X39173Y-27559
X39370Y-25394
X39450Y-36900
X40157Y-26772
X40945Y-26181
X41142Y-30118
X41240Y-33169
X43307Y-32283
X44094Y-27559
X44291Y-29528
X45472Y-33858
X46063Y-30709
X46654Y-28543
X46700Y-31500
X47047Y-32283
X47244Y-22835
X47850Y-20650
X48031Y-17520
X48300Y-22450
X49606Y-17323
X49803Y-31299
X50197Y-26969
X50197Y-33858
X50984Y-33268
X51181Y-25197
X51700Y-17600
X51969Y-36811
X52165Y-25197
X52165Y-27165
X52362Y-26575
X52559Y-31840
X52657Y-18602
X53346Y-15551
X53750Y-33650
X53937Y-17520
X54134Y-28839
X54450Y-37450
X54528Y-28150
X55050Y-33850
X55118Y-31496
X55512Y-29724
X55950Y-35950
X56102Y-26969
X57283Y-15551
X57400Y-37650
X57874Y-33465
X57950Y-36050
X58950Y-36500
X60531Y-17815
X60827Y-33858
T2
X41713Y-20014
X41713Y-20565
X41989Y-19738
X41989Y-20289
X41989Y-20841
X42265Y-20014
X42265Y-20565
X42540Y-19738
X42540Y-20289
X42540Y-20841
X42816Y-20014
X42816Y-20565
T3
X59377Y-31693
X60361Y-31693
T4
X54626Y-19488
X56594Y-19488
T5
X28839Y-27067
X29839Y-27067
X32758Y-19600
X32758Y-20600
X32758Y-21600
X32758Y-22600
X32758Y-23600
X32758Y-24600
X32758Y-25600
X32758Y-26600
X32900Y-37050
X33900Y-37050
X36350Y-37050
X37350Y-37050
X41224Y-37106
X42224Y-37106
X45650Y-37050
X46650Y-37050
X58433Y-27362
X59433Y-20571
X59433Y-27362
X60433Y-20571
X60433Y-27362
M30
