G04 #@! TF.GenerationSoftware,KiCad,Pcbnew,9.0.5*
G04 #@! TF.CreationDate,2025-11-03T15:22:29-06:00*
G04 #@! TF.ProjectId,T25_445PCB,5432355f-3434-4355-9043-422e6b696361,rev?*
G04 #@! TF.SameCoordinates,Original*
G04 #@! TF.FileFunction,Copper,L2,Bot*
G04 #@! TF.FilePolarity,Positive*
%FSLAX46Y46*%
G04 Gerber Fmt 4.6, Leading zero omitted, Abs format (unit mm)*
G04 Created by KiCad (PCBNEW 9.0.5) date 2025-11-03 15:22:29*
%MOMM*%
%LPD*%
G01*
G04 APERTURE LIST*
G04 Aperture macros list*
%AMRoundRect*
0 Rectangle with rounded corners*
0 $1 Rounding radius*
0 $2 $3 $4 $5 $6 $7 $8 $9 X,Y pos of 4 corners*
0 Add a 4 corners polygon primitive as box body*
4,1,4,$2,$3,$4,$5,$6,$7,$8,$9,$2,$3,0*
0 Add four circle primitives for the rounded corners*
1,1,$1+$1,$2,$3*
1,1,$1+$1,$4,$5*
1,1,$1+$1,$6,$7*
1,1,$1+$1,$8,$9*
0 Add four rect primitives between the rounded corners*
20,1,$1+$1,$2,$3,$4,$5,0*
20,1,$1+$1,$4,$5,$6,$7,0*
20,1,$1+$1,$6,$7,$8,$9,0*
20,1,$1+$1,$8,$9,$2,$3,0*%
G04 Aperture macros list end*
G04 #@! TA.AperFunction,ComponentPad*
%ADD10O,1.740000X2.190000*%
G04 #@! TD*
G04 #@! TA.AperFunction,ComponentPad*
%ADD11RoundRect,0.250000X0.620000X0.845000X-0.620000X0.845000X-0.620000X-0.845000X0.620000X-0.845000X0*%
G04 #@! TD*
G04 #@! TA.AperFunction,ComponentPad*
%ADD12R,1.320800X1.320800*%
G04 #@! TD*
G04 #@! TA.AperFunction,ComponentPad*
%ADD13C,1.320800*%
G04 #@! TD*
G04 #@! TA.AperFunction,ComponentPad*
%ADD14RoundRect,0.250000X0.845000X-0.620000X0.845000X0.620000X-0.845000X0.620000X-0.845000X-0.620000X0*%
G04 #@! TD*
G04 #@! TA.AperFunction,ComponentPad*
%ADD15O,2.190000X1.740000*%
G04 #@! TD*
G04 #@! TA.AperFunction,ComponentPad*
%ADD16RoundRect,0.250000X-0.620000X-0.845000X0.620000X-0.845000X0.620000X0.845000X-0.620000X0.845000X0*%
G04 #@! TD*
G04 #@! TA.AperFunction,ComponentPad*
%ADD17RoundRect,0.250000X-0.550000X-0.550000X0.550000X-0.550000X0.550000X0.550000X-0.550000X0.550000X0*%
G04 #@! TD*
G04 #@! TA.AperFunction,ComponentPad*
%ADD18C,1.600000*%
G04 #@! TD*
G04 #@! TA.AperFunction,HeatsinkPad*
%ADD19C,0.600000*%
G04 #@! TD*
G04 #@! TA.AperFunction,ViaPad*
%ADD20C,0.600000*%
G04 #@! TD*
G04 #@! TA.AperFunction,Conductor*
%ADD21C,0.508000*%
G04 #@! TD*
G04 #@! TA.AperFunction,Conductor*
%ADD22C,0.254000*%
G04 #@! TD*
G04 #@! TA.AperFunction,Conductor*
%ADD23C,0.200000*%
G04 #@! TD*
G04 APERTURE END LIST*
D10*
G04 #@! TO.P,J9,2,Pin_2*
G04 #@! TO.N,/V5*
X73250000Y-68750000D03*
D11*
G04 #@! TO.P,J9,1,Pin_1*
G04 #@! TO.N,/V3P3*
X75790000Y-68750000D03*
G04 #@! TD*
D12*
G04 #@! TO.P,C1,1*
G04 #@! TO.N,/piezo*
X143750000Y-49500000D03*
D13*
G04 #@! TO.P,C1,2*
G04 #@! TO.N,Net-(U1-+INPUT)*
X138750000Y-49500000D03*
G04 #@! TD*
D14*
G04 #@! TO.P,J7,1,Pin_1*
G04 #@! TO.N,/V3P3*
X83205000Y-67564000D03*
D15*
G04 #@! TO.P,J7,2,Pin_2*
G04 #@! TO.N,GND*
X83205000Y-65024000D03*
G04 #@! TO.P,J7,3,Pin_3*
G04 #@! TO.N,/D_IN*
X83205000Y-62484000D03*
G04 #@! TO.P,J7,4,Pin_4*
G04 #@! TO.N,/CLK*
X83205000Y-59944000D03*
G04 #@! TO.P,J7,5,Pin_5*
G04 #@! TO.N,/CS*
X83205000Y-57404000D03*
G04 #@! TO.P,J7,6,Pin_6*
G04 #@! TO.N,/DC*
X83205000Y-54864000D03*
G04 #@! TO.P,J7,7,Pin_7*
G04 #@! TO.N,/RST*
X83205000Y-52324000D03*
G04 #@! TO.P,J7,8,Pin_8*
G04 #@! TO.N,/BL*
X83205000Y-49784000D03*
G04 #@! TD*
D16*
G04 #@! TO.P,J4,1,Pin_1*
G04 #@! TO.N,GND*
X83566000Y-94107000D03*
D10*
G04 #@! TO.P,J4,2,Pin_2*
G04 #@! TO.N,Net-(J4-Pin_2)*
X86106000Y-94107000D03*
G04 #@! TD*
D16*
G04 #@! TO.P,J3,1,Pin_1*
G04 #@! TO.N,/V9*
X104710000Y-94250000D03*
D10*
G04 #@! TO.P,J3,2,Pin_2*
G04 #@! TO.N,/Battery*
X107250000Y-94250000D03*
G04 #@! TD*
D11*
G04 #@! TO.P,J2,1,Pin_1*
G04 #@! TO.N,GND*
X153500000Y-69500000D03*
D10*
G04 #@! TO.P,J2,2,Pin_2*
G04 #@! TO.N,/V5*
X150960000Y-69500000D03*
G04 #@! TO.P,J2,3,Pin_3*
G04 #@! TO.N,/CONTROL*
X148420000Y-69500000D03*
G04 #@! TD*
D17*
G04 #@! TO.P,C2,1*
G04 #@! TO.N,/V5*
X150817621Y-80500000D03*
D18*
G04 #@! TO.P,C2,2*
G04 #@! TO.N,GND*
X153317621Y-80500000D03*
G04 #@! TD*
D16*
G04 #@! TO.P,J6,1,Pin_1*
G04 #@! TO.N,/piezo*
X150960000Y-52250000D03*
D10*
G04 #@! TO.P,J6,2,Pin_2*
G04 #@! TO.N,GND*
X153500000Y-52250000D03*
G04 #@! TD*
D16*
G04 #@! TO.P,J5,1,Pin_1*
G04 #@! TO.N,GND*
X92329000Y-94107000D03*
D10*
G04 #@! TO.P,J5,2,Pin_2*
G04 #@! TO.N,Net-(J5-Pin_2)*
X94869000Y-94107000D03*
G04 #@! TD*
D11*
G04 #@! TO.P,J1,1,Pin_1*
G04 #@! TO.N,GND*
X118491000Y-94107000D03*
D10*
G04 #@! TO.P,J1,2,Pin_2*
G04 #@! TO.N,/Battery*
X115951000Y-94107000D03*
G04 #@! TD*
D19*
G04 #@! TO.P,U5,41,GND*
G04 #@! TO.N,GND*
X105952000Y-50835000D03*
X105952000Y-52235000D03*
X106652000Y-50135000D03*
X106652000Y-51535000D03*
X106652000Y-52935000D03*
X107352000Y-50835000D03*
X107352000Y-52235000D03*
X108052000Y-50135000D03*
X108052000Y-51535000D03*
X108052000Y-52935000D03*
X108752000Y-50835000D03*
X108752000Y-52235000D03*
G04 #@! TD*
D20*
G04 #@! TO.N,/V3P3*
X71500000Y-56250000D03*
X77250000Y-58750000D03*
G04 #@! TO.N,/IO0*
X120000000Y-58000000D03*
X75500000Y-54250000D03*
G04 #@! TO.N,/Buck_en*
X104750000Y-84250000D03*
G04 #@! TO.N,Net-(U2-SW)*
X137500000Y-73250000D03*
G04 #@! TO.N,*
X68072000Y-94996000D03*
X62611000Y-91567000D03*
X60960000Y-83693000D03*
X88646000Y-75438000D03*
X136525000Y-85471000D03*
X138303000Y-95123000D03*
X149733000Y-92710000D03*
X142113000Y-91313000D03*
X131318000Y-44704000D03*
X61976000Y-41402000D03*
X153750000Y-45250000D03*
X121539000Y-52451000D03*
X71501000Y-40386000D03*
X79883000Y-82296000D03*
X89027000Y-80772000D03*
X139827000Y-85979000D03*
X145796000Y-95631000D03*
X68961000Y-92202000D03*
X77343000Y-88900000D03*
X118618000Y-80010000D03*
X122682000Y-57023000D03*
X147193000Y-91567000D03*
X140000000Y-80000000D03*
X100203000Y-93726000D03*
X67310000Y-39878000D03*
G04 #@! TO.N,GND*
X64500000Y-47500000D03*
X126000000Y-44000000D03*
X71000000Y-79000000D03*
X63500000Y-81000000D03*
X67500000Y-65500000D03*
X77500000Y-40500000D03*
X132000000Y-93500000D03*
X147000000Y-85000000D03*
X78000000Y-78500000D03*
X141000000Y-75500000D03*
X154500000Y-86000000D03*
X90500000Y-53500000D03*
X78000000Y-52500000D03*
X79500000Y-71000000D03*
X96500000Y-53500000D03*
X145500000Y-39500000D03*
X62500000Y-66000000D03*
X75500000Y-59000000D03*
X115500000Y-86000000D03*
X112000000Y-70000000D03*
X99500000Y-70000000D03*
X77500000Y-63500000D03*
X127500000Y-86000000D03*
X61500000Y-48000000D03*
X90500000Y-61000000D03*
X102000000Y-68000000D03*
X122000000Y-44500000D03*
X135500000Y-39500000D03*
X138500000Y-71500000D03*
X93000000Y-59000000D03*
X133750000Y-47250000D03*
X117000000Y-78000000D03*
X129500000Y-84500000D03*
X142500000Y-68500000D03*
X137000000Y-44500000D03*
G04 #@! TO.N,Net-(U2-SW)*
X126500000Y-79500000D03*
G04 #@! TO.N,/V5*
X65000000Y-72250000D03*
X68000000Y-76000000D03*
G04 #@! TO.N,Net-(U3-SW)*
X104500000Y-76500000D03*
X112500000Y-75000000D03*
G04 #@! TO.N,/V3P3*
X133000000Y-67500000D03*
X118500000Y-72500000D03*
G04 #@! TO.N,/Buck_en*
X110000000Y-82000000D03*
X119500000Y-82000000D03*
X133500000Y-80873000D03*
G04 #@! TO.N,/BUTTON_2*
X90000000Y-71000000D03*
X98000000Y-63000000D03*
G04 #@! TO.N,/BUTTON_3*
X93000000Y-73500000D03*
X99500000Y-63627000D03*
G04 #@! TO.N,/CONTROL*
X132500000Y-69000000D03*
X127500000Y-68500000D03*
G04 #@! TO.N,/USB_D_N*
X88615800Y-69283158D03*
X96575000Y-60000000D03*
G04 #@! TO.N,/USB_D_P*
X97425000Y-60000000D03*
X89216842Y-69884200D03*
G04 #@! TO.N,/CLK*
X104000000Y-66500000D03*
X100000000Y-64500000D03*
G04 #@! TO.N,/EN*
X97500000Y-47000000D03*
X79000000Y-48000000D03*
G04 #@! TO.N,Net-(U1-VOUT)*
X130000000Y-64000000D03*
X132500000Y-64000000D03*
G04 #@! TD*
D21*
G04 #@! TO.N,/V5*
X72250000Y-68750000D02*
X73250000Y-68750000D01*
X68000000Y-73000000D02*
X72250000Y-68750000D01*
G04 #@! TO.N,/V3P3*
X74750000Y-56250000D02*
X71500000Y-56250000D01*
X77250000Y-58750000D02*
X74750000Y-56250000D01*
D22*
G04 #@! TO.N,/IO0*
X119500000Y-57500000D02*
X120000000Y-58000000D01*
X77456000Y-56206000D02*
X116706000Y-56206000D01*
X75500000Y-54250000D02*
X77456000Y-56206000D01*
G04 #@! TO.N,/Buck_en*
X107000000Y-82000000D02*
X110000000Y-82000000D01*
X104750000Y-84250000D02*
X107000000Y-82000000D01*
G04 #@! TO.N,Net-(U2-SW)*
X136250000Y-72000000D02*
X137500000Y-73250000D01*
X128000000Y-72000000D02*
X136250000Y-72000000D01*
X126500000Y-73500000D02*
X128000000Y-72000000D01*
X126500000Y-76500000D02*
X126500000Y-79500000D01*
X126500000Y-73500000D02*
X126500000Y-76500000D01*
D21*
G04 #@! TO.N,/V5*
X68000000Y-76000000D02*
X68000000Y-73500000D01*
X65500000Y-71750000D02*
X65000000Y-72250000D01*
X68000000Y-73500000D02*
X68000000Y-73000000D01*
X68000000Y-73000000D02*
X66750000Y-71750000D01*
X66750000Y-71750000D02*
X65500000Y-71750000D01*
D22*
G04 #@! TO.N,Net-(U3-SW)*
X104500000Y-76500000D02*
X111000000Y-76500000D01*
X111000000Y-76500000D02*
X112500000Y-75000000D01*
D21*
G04 #@! TO.N,/V3P3*
X123500000Y-67500000D02*
X133000000Y-67500000D01*
X118500000Y-72500000D02*
X123500000Y-67500000D01*
D22*
G04 #@! TO.N,/Buck_en*
X119500000Y-82000000D02*
X122000000Y-84500000D01*
X134500000Y-86000000D02*
X134500000Y-81873000D01*
X131500000Y-89000000D02*
X134500000Y-86000000D01*
X134500000Y-81873000D02*
X133500000Y-80873000D01*
X122000000Y-84500000D02*
X126500000Y-89000000D01*
X126500000Y-89000000D02*
X131500000Y-89000000D01*
G04 #@! TO.N,/BUTTON_2*
X90000000Y-71000000D02*
X98000000Y-63000000D01*
G04 #@! TO.N,/BUTTON_3*
X93000000Y-69111873D02*
X98484873Y-63627000D01*
X98484873Y-63627000D02*
X99500000Y-63627000D01*
X93000000Y-73500000D02*
X93000000Y-69111873D01*
G04 #@! TO.N,/CONTROL*
X128000000Y-69000000D02*
X127500000Y-68500000D01*
X132500000Y-69000000D02*
X128000000Y-69000000D01*
D23*
G04 #@! TO.N,/USB_D_N*
X96774999Y-61406802D02*
X96774999Y-60199999D01*
X88615800Y-69283158D02*
X88898643Y-69283158D01*
X88898643Y-69283158D02*
X96774999Y-61406802D01*
X96774999Y-60199999D02*
X96575000Y-60000000D01*
G04 #@! TO.N,/USB_D_P*
X89216842Y-69884200D02*
X89216842Y-69601357D01*
X97225001Y-60199999D02*
X97425000Y-60000000D01*
X97225001Y-61593198D02*
X97225001Y-60199999D01*
X89216842Y-69601357D02*
X97225001Y-61593198D01*
D22*
G04 #@! TO.N,/CLK*
X102000000Y-64500000D02*
X104000000Y-66500000D01*
X100000000Y-64500000D02*
X102000000Y-64500000D01*
G04 #@! TO.N,/EN*
X79000000Y-48000000D02*
X96500000Y-48000000D01*
X96500000Y-48000000D02*
X97500000Y-47000000D01*
G04 #@! TO.N,/IO0*
X119000000Y-57000000D02*
X119500000Y-57500000D01*
X117500000Y-57000000D02*
X119000000Y-57000000D01*
X116706000Y-56206000D02*
X117500000Y-57000000D01*
G04 #@! TO.N,Net-(U1-VOUT)*
X132500000Y-64000000D02*
X130801000Y-64000000D01*
X130801000Y-64000000D02*
X130000000Y-64000000D01*
G04 #@! TD*
G04 #@! TA.AperFunction,Conductor*
G04 #@! TO.N,GND*
G36*
X84794121Y-37993002D02*
G01*
X84840614Y-38046658D01*
X84852000Y-38099000D01*
X84852000Y-42325000D01*
X132852000Y-42325000D01*
X132852000Y-38099000D01*
X132872002Y-38030879D01*
X132925658Y-37984386D01*
X132978000Y-37973000D01*
X155771686Y-37973000D01*
X155839807Y-37993002D01*
X155886300Y-38046658D01*
X155897686Y-38099000D01*
X155897686Y-98172000D01*
X155877684Y-98240121D01*
X155824028Y-98286614D01*
X155771686Y-98298000D01*
X59227500Y-98298000D01*
X59159379Y-98277998D01*
X59112886Y-98224342D01*
X59101500Y-98172000D01*
X59101500Y-94916367D01*
X67263500Y-94916367D01*
X67263500Y-95075632D01*
X67277407Y-95145544D01*
X67294570Y-95231831D01*
X67355517Y-95378968D01*
X67443997Y-95511389D01*
X67443998Y-95511390D01*
X67444003Y-95511396D01*
X67556603Y-95623996D01*
X67556609Y-95624001D01*
X67556611Y-95624003D01*
X67689032Y-95712483D01*
X67836169Y-95773430D01*
X67992370Y-95804500D01*
X67992371Y-95804500D01*
X68151629Y-95804500D01*
X68151630Y-95804500D01*
X68307831Y-95773430D01*
X68454968Y-95712483D01*
X68587389Y-95624003D01*
X68700003Y-95511389D01*
X68788483Y-95378968D01*
X68849430Y-95231831D01*
X68880500Y-95075630D01*
X68880500Y-94916370D01*
X68849430Y-94760169D01*
X68788483Y-94613032D01*
X68700003Y-94480611D01*
X68700001Y-94480609D01*
X68699996Y-94480603D01*
X68587396Y-94368003D01*
X68587390Y-94367998D01*
X68566442Y-94354001D01*
X68454968Y-94279517D01*
X68307831Y-94218570D01*
X68229730Y-94203035D01*
X68151632Y-94187500D01*
X68151630Y-94187500D01*
X67992370Y-94187500D01*
X67992367Y-94187500D01*
X67875219Y-94210802D01*
X67836169Y-94218570D01*
X67781063Y-94241396D01*
X67689032Y-94279517D01*
X67556609Y-94367998D01*
X67556603Y-94368003D01*
X67444003Y-94480603D01*
X67443998Y-94480609D01*
X67359140Y-94607609D01*
X67355517Y-94613032D01*
X67335461Y-94661452D01*
X67294571Y-94760167D01*
X67294570Y-94760170D01*
X67263500Y-94916367D01*
X59101500Y-94916367D01*
X59101500Y-93211483D01*
X82188000Y-93211483D01*
X82188000Y-93853000D01*
X83025600Y-93853000D01*
X83011548Y-93877339D01*
X82971000Y-94028667D01*
X82971000Y-94185333D01*
X83011548Y-94336661D01*
X83025600Y-94361000D01*
X82188000Y-94361000D01*
X82188000Y-95002516D01*
X82198605Y-95106318D01*
X82198606Y-95106321D01*
X82254342Y-95274525D01*
X82347365Y-95425339D01*
X82347370Y-95425345D01*
X82472654Y-95550629D01*
X82472660Y-95550634D01*
X82623474Y-95643657D01*
X82791678Y-95699393D01*
X82791681Y-95699394D01*
X82895483Y-95709999D01*
X82895483Y-95710000D01*
X83312000Y-95710000D01*
X83312000Y-94647399D01*
X83336339Y-94661452D01*
X83487667Y-94702000D01*
X83644333Y-94702000D01*
X83795661Y-94661452D01*
X83820000Y-94647399D01*
X83820000Y-95710000D01*
X84236517Y-95710000D01*
X84236516Y-95709999D01*
X84340318Y-95699394D01*
X84340321Y-95699393D01*
X84508525Y-95643657D01*
X84659339Y-95550634D01*
X84659345Y-95550629D01*
X84784629Y-95425345D01*
X84784634Y-95425339D01*
X84878454Y-95273233D01*
X84931240Y-95225755D01*
X85001315Y-95214352D01*
X85066430Y-95242644D01*
X85074790Y-95250285D01*
X85207961Y-95383456D01*
X85207964Y-95383458D01*
X85207967Y-95383461D01*
X85383508Y-95510999D01*
X85576840Y-95609506D01*
X85783200Y-95676557D01*
X85997510Y-95710500D01*
X85997513Y-95710500D01*
X86214487Y-95710500D01*
X86214490Y-95710500D01*
X86428800Y-95676557D01*
X86635160Y-95609506D01*
X86828492Y-95510999D01*
X87004033Y-95383461D01*
X87157461Y-95230033D01*
X87284999Y-95054492D01*
X87383506Y-94861160D01*
X87450557Y-94654800D01*
X87484500Y-94440490D01*
X87484500Y-93773510D01*
X87450557Y-93559200D01*
X87383506Y-93352840D01*
X87311481Y-93211483D01*
X90951000Y-93211483D01*
X90951000Y-93853000D01*
X91788600Y-93853000D01*
X91774548Y-93877339D01*
X91734000Y-94028667D01*
X91734000Y-94185333D01*
X91774548Y-94336661D01*
X91788600Y-94361000D01*
X90951000Y-94361000D01*
X90951000Y-95002516D01*
X90961605Y-95106318D01*
X90961606Y-95106321D01*
X91017342Y-95274525D01*
X91110365Y-95425339D01*
X91110370Y-95425345D01*
X91235654Y-95550629D01*
X91235660Y-95550634D01*
X91386474Y-95643657D01*
X91554678Y-95699393D01*
X91554681Y-95699394D01*
X91658483Y-95709999D01*
X91658483Y-95710000D01*
X92075000Y-95710000D01*
X92075000Y-94647399D01*
X92099339Y-94661452D01*
X92250667Y-94702000D01*
X92407333Y-94702000D01*
X92558661Y-94661452D01*
X92583000Y-94647399D01*
X92583000Y-95710000D01*
X92999517Y-95710000D01*
X92999516Y-95709999D01*
X93103318Y-95699394D01*
X93103321Y-95699393D01*
X93271525Y-95643657D01*
X93422339Y-95550634D01*
X93422345Y-95550629D01*
X93547629Y-95425345D01*
X93547634Y-95425339D01*
X93641454Y-95273233D01*
X93694240Y-95225755D01*
X93764315Y-95214352D01*
X93829430Y-95242644D01*
X93837790Y-95250285D01*
X93970961Y-95383456D01*
X93970964Y-95383458D01*
X93970967Y-95383461D01*
X94146508Y-95510999D01*
X94339840Y-95609506D01*
X94546200Y-95676557D01*
X94760510Y-95710500D01*
X94760513Y-95710500D01*
X94977487Y-95710500D01*
X94977490Y-95710500D01*
X95191800Y-95676557D01*
X95398160Y-95609506D01*
X95591492Y-95510999D01*
X95767033Y-95383461D01*
X95920461Y-95230033D01*
X96047999Y-95054492D01*
X96146506Y-94861160D01*
X96213557Y-94654800D01*
X96247500Y-94440490D01*
X96247500Y-93773510D01*
X96227363Y-93646367D01*
X99394500Y-93646367D01*
X99394500Y-93646370D01*
X99394500Y-93805630D01*
X99425570Y-93961831D01*
X99486517Y-94108968D01*
X99537542Y-94185333D01*
X99574998Y-94241390D01*
X99575003Y-94241396D01*
X99687603Y-94353996D01*
X99687609Y-94354001D01*
X99687611Y-94354003D01*
X99820032Y-94442483D01*
X99967169Y-94503430D01*
X100123370Y-94534500D01*
X100123371Y-94534500D01*
X100282629Y-94534500D01*
X100282630Y-94534500D01*
X100438831Y-94503430D01*
X100585968Y-94442483D01*
X100718389Y-94354003D01*
X100831003Y-94241389D01*
X100919483Y-94108968D01*
X100980430Y-93961831D01*
X101011500Y-93805630D01*
X101011500Y-93646370D01*
X100980430Y-93490169D01*
X100924211Y-93354446D01*
X103331500Y-93354446D01*
X103331500Y-95145544D01*
X103342112Y-95249425D01*
X103397885Y-95417738D01*
X103490970Y-95568652D01*
X103490975Y-95568658D01*
X103616341Y-95694024D01*
X103616347Y-95694029D01*
X103616348Y-95694030D01*
X103767262Y-95787115D01*
X103935574Y-95842887D01*
X104039455Y-95853500D01*
X105380544Y-95853499D01*
X105484426Y-95842887D01*
X105652738Y-95787115D01*
X105803652Y-95694030D01*
X105929030Y-95568652D01*
X106022115Y-95417738D01*
X106022115Y-95417735D01*
X106022818Y-95416597D01*
X106075604Y-95369119D01*
X106145679Y-95357716D01*
X106210794Y-95386008D01*
X106219154Y-95393649D01*
X106351961Y-95526456D01*
X106351964Y-95526458D01*
X106351967Y-95526461D01*
X106527508Y-95653999D01*
X106720840Y-95752506D01*
X106927200Y-95819557D01*
X107141510Y-95853500D01*
X107141513Y-95853500D01*
X107358487Y-95853500D01*
X107358490Y-95853500D01*
X107572800Y-95819557D01*
X107779160Y-95752506D01*
X107972492Y-95653999D01*
X108148033Y-95526461D01*
X108301461Y-95373033D01*
X108428999Y-95197492D01*
X108527506Y-95004160D01*
X108594557Y-94797800D01*
X108628500Y-94583490D01*
X108628500Y-93916510D01*
X108605851Y-93773510D01*
X114572500Y-93773510D01*
X114572500Y-94440490D01*
X114606443Y-94654800D01*
X114673494Y-94861160D01*
X114772001Y-95054492D01*
X114899539Y-95230033D01*
X114899541Y-95230035D01*
X114899543Y-95230038D01*
X115052961Y-95383456D01*
X115052964Y-95383458D01*
X115052967Y-95383461D01*
X115228508Y-95510999D01*
X115421840Y-95609506D01*
X115628200Y-95676557D01*
X115842510Y-95710500D01*
X115842513Y-95710500D01*
X116059487Y-95710500D01*
X116059490Y-95710500D01*
X116273800Y-95676557D01*
X116480160Y-95609506D01*
X116673492Y-95510999D01*
X116849033Y-95383461D01*
X116982210Y-95250283D01*
X117044520Y-95216260D01*
X117115336Y-95221324D01*
X117172172Y-95263871D01*
X117178545Y-95273233D01*
X117272365Y-95425339D01*
X117272370Y-95425345D01*
X117397654Y-95550629D01*
X117397660Y-95550634D01*
X117548474Y-95643657D01*
X117716678Y-95699393D01*
X117716681Y-95699394D01*
X117820483Y-95709999D01*
X117820483Y-95710000D01*
X118237000Y-95710000D01*
X118237000Y-94647399D01*
X118261339Y-94661452D01*
X118412667Y-94702000D01*
X118569333Y-94702000D01*
X118720661Y-94661452D01*
X118745000Y-94647399D01*
X118745000Y-95710000D01*
X119161517Y-95710000D01*
X119161516Y-95709999D01*
X119265318Y-95699394D01*
X119265321Y-95699393D01*
X119433525Y-95643657D01*
X119584339Y-95550634D01*
X119584345Y-95550629D01*
X119709629Y-95425345D01*
X119709634Y-95425339D01*
X119802657Y-95274525D01*
X119858393Y-95106321D01*
X119858394Y-95106318D01*
X119864826Y-95043367D01*
X137494500Y-95043367D01*
X137494500Y-95202632D01*
X137502459Y-95242644D01*
X137525570Y-95358831D01*
X137586517Y-95505968D01*
X137665385Y-95624003D01*
X137674998Y-95638390D01*
X137675003Y-95638396D01*
X137787603Y-95750996D01*
X137787609Y-95751001D01*
X137787611Y-95751003D01*
X137920032Y-95839483D01*
X138067169Y-95900430D01*
X138223370Y-95931500D01*
X138223371Y-95931500D01*
X138382629Y-95931500D01*
X138382630Y-95931500D01*
X138538831Y-95900430D01*
X138685968Y-95839483D01*
X138818389Y-95751003D01*
X138931003Y-95638389D01*
X138989149Y-95551367D01*
X144987500Y-95551367D01*
X144987500Y-95710632D01*
X145002713Y-95787114D01*
X145018570Y-95866831D01*
X145079517Y-96013968D01*
X145167997Y-96146389D01*
X145167998Y-96146390D01*
X145168003Y-96146396D01*
X145280603Y-96258996D01*
X145280609Y-96259001D01*
X145280611Y-96259003D01*
X145413032Y-96347483D01*
X145560169Y-96408430D01*
X145716370Y-96439500D01*
X145716371Y-96439500D01*
X145875629Y-96439500D01*
X145875630Y-96439500D01*
X146031831Y-96408430D01*
X146178968Y-96347483D01*
X146311389Y-96259003D01*
X146424003Y-96146389D01*
X146512483Y-96013968D01*
X146573430Y-95866831D01*
X146604500Y-95710630D01*
X146604500Y-95551370D01*
X146573430Y-95395169D01*
X146512483Y-95248032D01*
X146424003Y-95115611D01*
X146424001Y-95115609D01*
X146423996Y-95115603D01*
X146311396Y-95003003D01*
X146311390Y-95002998D01*
X146310669Y-95002516D01*
X146178968Y-94914517D01*
X146031831Y-94853570D01*
X145953730Y-94838035D01*
X145875632Y-94822500D01*
X145875630Y-94822500D01*
X145716370Y-94822500D01*
X145716367Y-94822500D01*
X145599219Y-94845802D01*
X145560169Y-94853570D01*
X145479060Y-94887167D01*
X145413032Y-94914517D01*
X145280609Y-95002998D01*
X145280603Y-95003003D01*
X145168003Y-95115603D01*
X145167998Y-95115609D01*
X145094402Y-95225755D01*
X145079517Y-95248032D01*
X145029361Y-95369119D01*
X145018571Y-95395167D01*
X145018570Y-95395170D01*
X144987500Y-95551367D01*
X138989149Y-95551367D01*
X139019483Y-95505968D01*
X139080430Y-95358831D01*
X139111500Y-95202630D01*
X139111500Y-95043370D01*
X139080430Y-94887169D01*
X139019483Y-94740032D01*
X138931003Y-94607611D01*
X138931001Y-94607609D01*
X138930996Y-94607603D01*
X138818396Y-94495003D01*
X138818390Y-94494998D01*
X138818389Y-94494997D01*
X138685968Y-94406517D01*
X138538831Y-94345570D01*
X138460730Y-94330035D01*
X138382632Y-94314500D01*
X138382630Y-94314500D01*
X138223370Y-94314500D01*
X138223367Y-94314500D01*
X138111958Y-94336661D01*
X138067169Y-94345570D01*
X138013026Y-94367997D01*
X137920032Y-94406517D01*
X137787609Y-94494998D01*
X137787603Y-94495003D01*
X137675003Y-94607603D01*
X137674998Y-94607609D01*
X137639022Y-94661452D01*
X137586517Y-94740032D01*
X137536344Y-94861160D01*
X137525571Y-94887167D01*
X137525570Y-94887170D01*
X137494500Y-95043367D01*
X119864826Y-95043367D01*
X119866766Y-95024377D01*
X119866766Y-95024374D01*
X119869000Y-95002507D01*
X119869000Y-94361000D01*
X119031400Y-94361000D01*
X119045452Y-94336661D01*
X119086000Y-94185333D01*
X119086000Y-94028667D01*
X119045452Y-93877339D01*
X119031400Y-93853000D01*
X119869000Y-93853000D01*
X119869000Y-93211483D01*
X119858394Y-93107681D01*
X119858393Y-93107678D01*
X119802657Y-92939474D01*
X119709634Y-92788660D01*
X119709629Y-92788654D01*
X119584345Y-92663370D01*
X119584339Y-92663365D01*
X119530841Y-92630367D01*
X148924500Y-92630367D01*
X148924500Y-92789632D01*
X148932638Y-92830543D01*
X148955570Y-92945831D01*
X149016517Y-93092968D01*
X149104997Y-93225389D01*
X149104998Y-93225390D01*
X149105003Y-93225396D01*
X149217603Y-93337996D01*
X149217609Y-93338001D01*
X149217611Y-93338003D01*
X149350032Y-93426483D01*
X149497169Y-93487430D01*
X149653370Y-93518500D01*
X149653371Y-93518500D01*
X149812629Y-93518500D01*
X149812630Y-93518500D01*
X149968831Y-93487430D01*
X150115968Y-93426483D01*
X150248389Y-93338003D01*
X150361003Y-93225389D01*
X150449483Y-93092968D01*
X150510430Y-92945831D01*
X150541500Y-92789630D01*
X150541500Y-92630370D01*
X150510430Y-92474169D01*
X150449483Y-92327032D01*
X150361003Y-92194611D01*
X150361001Y-92194609D01*
X150360996Y-92194603D01*
X150248396Y-92082003D01*
X150248390Y-92081998D01*
X150248389Y-92081997D01*
X150115968Y-91993517D01*
X149968831Y-91932570D01*
X149890730Y-91917035D01*
X149812632Y-91901500D01*
X149812630Y-91901500D01*
X149653370Y-91901500D01*
X149653367Y-91901500D01*
X149536219Y-91924802D01*
X149497169Y-91932570D01*
X149416060Y-91966167D01*
X149350032Y-91993517D01*
X149217609Y-92081998D01*
X149217603Y-92082003D01*
X149105003Y-92194603D01*
X149104998Y-92194609D01*
X149104736Y-92195001D01*
X149016517Y-92327032D01*
X148970622Y-92437832D01*
X148955571Y-92474167D01*
X148955570Y-92474170D01*
X148924500Y-92630367D01*
X119530841Y-92630367D01*
X119433525Y-92570342D01*
X119265321Y-92514606D01*
X119265318Y-92514605D01*
X119161516Y-92504000D01*
X118745000Y-92504000D01*
X118745000Y-93566600D01*
X118720661Y-93552548D01*
X118569333Y-93512000D01*
X118412667Y-93512000D01*
X118261339Y-93552548D01*
X118237000Y-93566600D01*
X118237000Y-92504000D01*
X117820483Y-92504000D01*
X117716681Y-92514605D01*
X117716678Y-92514606D01*
X117548474Y-92570342D01*
X117397660Y-92663365D01*
X117397654Y-92663370D01*
X117272370Y-92788654D01*
X117272365Y-92788660D01*
X117178545Y-92940766D01*
X117125758Y-92988244D01*
X117055684Y-92999647D01*
X116990568Y-92971354D01*
X116982209Y-92963714D01*
X116849038Y-92830543D01*
X116849035Y-92830541D01*
X116849033Y-92830539D01*
X116693297Y-92717390D01*
X116673495Y-92703003D01*
X116673494Y-92703002D01*
X116673492Y-92703001D01*
X116480160Y-92604494D01*
X116480159Y-92604493D01*
X116480158Y-92604493D01*
X116273803Y-92537444D01*
X116273800Y-92537443D01*
X116059490Y-92503500D01*
X115842510Y-92503500D01*
X115628200Y-92537443D01*
X115628197Y-92537443D01*
X115628196Y-92537444D01*
X115421841Y-92604493D01*
X115228504Y-92703003D01*
X115052964Y-92830541D01*
X115052961Y-92830543D01*
X114899543Y-92983961D01*
X114899541Y-92983964D01*
X114772003Y-93159504D01*
X114673493Y-93352841D01*
X114619667Y-93518500D01*
X114606443Y-93559200D01*
X114572500Y-93773510D01*
X108605851Y-93773510D01*
X108594557Y-93702200D01*
X108527506Y-93495840D01*
X108428999Y-93302508D01*
X108301461Y-93126967D01*
X108301458Y-93126964D01*
X108301456Y-93126961D01*
X108148038Y-92973543D01*
X108148035Y-92973541D01*
X108148033Y-92973539D01*
X107972492Y-92846001D01*
X107779160Y-92747494D01*
X107779159Y-92747493D01*
X107779158Y-92747493D01*
X107572803Y-92680444D01*
X107572800Y-92680443D01*
X107358490Y-92646500D01*
X107141510Y-92646500D01*
X106927200Y-92680443D01*
X106927197Y-92680443D01*
X106927196Y-92680444D01*
X106720841Y-92747493D01*
X106527504Y-92846003D01*
X106351966Y-92973539D01*
X106219154Y-93106351D01*
X106156842Y-93140376D01*
X106086026Y-93135311D01*
X106029191Y-93092764D01*
X106022818Y-93083402D01*
X106022115Y-93082262D01*
X105929030Y-92931348D01*
X105929029Y-92931347D01*
X105929024Y-92931341D01*
X105803658Y-92805975D01*
X105803652Y-92805970D01*
X105777161Y-92789630D01*
X105652738Y-92712885D01*
X105554833Y-92680443D01*
X105484427Y-92657113D01*
X105484420Y-92657112D01*
X105380553Y-92646500D01*
X104039455Y-92646500D01*
X103935574Y-92657112D01*
X103767261Y-92712885D01*
X103616347Y-92805970D01*
X103616341Y-92805975D01*
X103490975Y-92931341D01*
X103490970Y-92931347D01*
X103397885Y-93082262D01*
X103342113Y-93250572D01*
X103342112Y-93250579D01*
X103331500Y-93354446D01*
X100924211Y-93354446D01*
X100919483Y-93343032D01*
X100831003Y-93210611D01*
X100831001Y-93210609D01*
X100830996Y-93210603D01*
X100718396Y-93098003D01*
X100718390Y-93097998D01*
X100710862Y-93092968D01*
X100585968Y-93009517D01*
X100438831Y-92948570D01*
X100360730Y-92933035D01*
X100282632Y-92917500D01*
X100282630Y-92917500D01*
X100123370Y-92917500D01*
X100123367Y-92917500D01*
X100012898Y-92939474D01*
X99967169Y-92948570D01*
X99881729Y-92983961D01*
X99820032Y-93009517D01*
X99687609Y-93097998D01*
X99687603Y-93098003D01*
X99575003Y-93210603D01*
X99574998Y-93210609D01*
X99538332Y-93265485D01*
X99486517Y-93343032D01*
X99426706Y-93487428D01*
X99425571Y-93490167D01*
X99425570Y-93490170D01*
X99394500Y-93646367D01*
X96227363Y-93646367D01*
X96213557Y-93559200D01*
X96146506Y-93352840D01*
X96047999Y-93159508D01*
X95920461Y-92983967D01*
X95920458Y-92983964D01*
X95920456Y-92983961D01*
X95767038Y-92830543D01*
X95767035Y-92830541D01*
X95767033Y-92830539D01*
X95611297Y-92717390D01*
X95591495Y-92703003D01*
X95591494Y-92703002D01*
X95591492Y-92703001D01*
X95398160Y-92604494D01*
X95398159Y-92604493D01*
X95398158Y-92604493D01*
X95191803Y-92537444D01*
X95191800Y-92537443D01*
X94977490Y-92503500D01*
X94760510Y-92503500D01*
X94546200Y-92537443D01*
X94546197Y-92537443D01*
X94546196Y-92537444D01*
X94339841Y-92604493D01*
X94146504Y-92703003D01*
X93970966Y-92830539D01*
X93837790Y-92963715D01*
X93775478Y-92997740D01*
X93704662Y-92992675D01*
X93647827Y-92950128D01*
X93641454Y-92940766D01*
X93547634Y-92788660D01*
X93547629Y-92788654D01*
X93422345Y-92663370D01*
X93422339Y-92663365D01*
X93271525Y-92570342D01*
X93103321Y-92514606D01*
X93103318Y-92514605D01*
X92999516Y-92504000D01*
X92583000Y-92504000D01*
X92583000Y-93566600D01*
X92558661Y-93552548D01*
X92407333Y-93512000D01*
X92250667Y-93512000D01*
X92099339Y-93552548D01*
X92075000Y-93566600D01*
X92075000Y-92504000D01*
X91658483Y-92504000D01*
X91554681Y-92514605D01*
X91554678Y-92514606D01*
X91386474Y-92570342D01*
X91235660Y-92663365D01*
X91235654Y-92663370D01*
X91110370Y-92788654D01*
X91110365Y-92788660D01*
X91017342Y-92939474D01*
X90961606Y-93107678D01*
X90961605Y-93107681D01*
X90951000Y-93211483D01*
X87311481Y-93211483D01*
X87284999Y-93159508D01*
X87157461Y-92983967D01*
X87157458Y-92983964D01*
X87157456Y-92983961D01*
X87004038Y-92830543D01*
X87004035Y-92830541D01*
X87004033Y-92830539D01*
X86848297Y-92717390D01*
X86828495Y-92703003D01*
X86828494Y-92703002D01*
X86828492Y-92703001D01*
X86635160Y-92604494D01*
X86635159Y-92604493D01*
X86635158Y-92604493D01*
X86428803Y-92537444D01*
X86428800Y-92537443D01*
X86214490Y-92503500D01*
X85997510Y-92503500D01*
X85783200Y-92537443D01*
X85783197Y-92537443D01*
X85783196Y-92537444D01*
X85576841Y-92604493D01*
X85383504Y-92703003D01*
X85207966Y-92830539D01*
X85074790Y-92963715D01*
X85012478Y-92997740D01*
X84941662Y-92992675D01*
X84884827Y-92950128D01*
X84878454Y-92940766D01*
X84784634Y-92788660D01*
X84784629Y-92788654D01*
X84659345Y-92663370D01*
X84659339Y-92663365D01*
X84508525Y-92570342D01*
X84340321Y-92514606D01*
X84340318Y-92514605D01*
X84236516Y-92504000D01*
X83820000Y-92504000D01*
X83820000Y-93566600D01*
X83795661Y-93552548D01*
X83644333Y-93512000D01*
X83487667Y-93512000D01*
X83336339Y-93552548D01*
X83312000Y-93566600D01*
X83312000Y-92504000D01*
X82895483Y-92504000D01*
X82791681Y-92514605D01*
X82791678Y-92514606D01*
X82623474Y-92570342D01*
X82472660Y-92663365D01*
X82472654Y-92663370D01*
X82347370Y-92788654D01*
X82347365Y-92788660D01*
X82254342Y-92939474D01*
X82198606Y-93107678D01*
X82198605Y-93107681D01*
X82188000Y-93211483D01*
X59101500Y-93211483D01*
X59101500Y-91487367D01*
X61802500Y-91487367D01*
X61802500Y-91646632D01*
X61812314Y-91695968D01*
X61833570Y-91802831D01*
X61894517Y-91949968D01*
X61958802Y-92046178D01*
X61982998Y-92082390D01*
X61983003Y-92082396D01*
X62095603Y-92194996D01*
X62095609Y-92195001D01*
X62095611Y-92195003D01*
X62228032Y-92283483D01*
X62375169Y-92344430D01*
X62531370Y-92375500D01*
X62531371Y-92375500D01*
X62690629Y-92375500D01*
X62690630Y-92375500D01*
X62846831Y-92344430D01*
X62993968Y-92283483D01*
X63126389Y-92195003D01*
X63199025Y-92122367D01*
X68152500Y-92122367D01*
X68152500Y-92281632D01*
X68168035Y-92359730D01*
X68183570Y-92437831D01*
X68244517Y-92584968D01*
X68323385Y-92703003D01*
X68332998Y-92717390D01*
X68333003Y-92717396D01*
X68445603Y-92829996D01*
X68445609Y-92830001D01*
X68445611Y-92830003D01*
X68578032Y-92918483D01*
X68725169Y-92979430D01*
X68881370Y-93010500D01*
X68881371Y-93010500D01*
X69040629Y-93010500D01*
X69040630Y-93010500D01*
X69196831Y-92979430D01*
X69343968Y-92918483D01*
X69476389Y-92830003D01*
X69589003Y-92717389D01*
X69677483Y-92584968D01*
X69738430Y-92437831D01*
X69769500Y-92281630D01*
X69769500Y-92122370D01*
X69738430Y-91966169D01*
X69677483Y-91819032D01*
X69589003Y-91686611D01*
X69589001Y-91686609D01*
X69588996Y-91686603D01*
X69476396Y-91574003D01*
X69476390Y-91573998D01*
X69476389Y-91573997D01*
X69343968Y-91485517D01*
X69196831Y-91424570D01*
X69118730Y-91409035D01*
X69040632Y-91393500D01*
X69040630Y-91393500D01*
X68881370Y-91393500D01*
X68881367Y-91393500D01*
X68764219Y-91416802D01*
X68725169Y-91424570D01*
X68725167Y-91424571D01*
X68578032Y-91485517D01*
X68445609Y-91573998D01*
X68445603Y-91574003D01*
X68333003Y-91686603D01*
X68332998Y-91686609D01*
X68244517Y-91819032D01*
X68183571Y-91966167D01*
X68183570Y-91966170D01*
X68152500Y-92122367D01*
X63199025Y-92122367D01*
X63239003Y-92082389D01*
X63327483Y-91949968D01*
X63388430Y-91802831D01*
X63419500Y-91646630D01*
X63419500Y-91487370D01*
X63388430Y-91331169D01*
X63347919Y-91233367D01*
X141304500Y-91233367D01*
X141304500Y-91233370D01*
X141304500Y-91392630D01*
X141335570Y-91548831D01*
X141396517Y-91695968D01*
X141467919Y-91802829D01*
X141484998Y-91828390D01*
X141485003Y-91828396D01*
X141597603Y-91940996D01*
X141597609Y-91941001D01*
X141597611Y-91941003D01*
X141730032Y-92029483D01*
X141877169Y-92090430D01*
X142033370Y-92121500D01*
X142033371Y-92121500D01*
X142192629Y-92121500D01*
X142192630Y-92121500D01*
X142348831Y-92090430D01*
X142495968Y-92029483D01*
X142628389Y-91941003D01*
X142741003Y-91828389D01*
X142829483Y-91695968D01*
X142890430Y-91548831D01*
X142902656Y-91487367D01*
X146384500Y-91487367D01*
X146384500Y-91646632D01*
X146394314Y-91695968D01*
X146415570Y-91802831D01*
X146476517Y-91949968D01*
X146540802Y-92046178D01*
X146564998Y-92082390D01*
X146565003Y-92082396D01*
X146677603Y-92194996D01*
X146677609Y-92195001D01*
X146677611Y-92195003D01*
X146810032Y-92283483D01*
X146957169Y-92344430D01*
X147113370Y-92375500D01*
X147113371Y-92375500D01*
X147272629Y-92375500D01*
X147272630Y-92375500D01*
X147428831Y-92344430D01*
X147575968Y-92283483D01*
X147708389Y-92195003D01*
X147821003Y-92082389D01*
X147909483Y-91949968D01*
X147970430Y-91802831D01*
X148001500Y-91646630D01*
X148001500Y-91487370D01*
X147970430Y-91331169D01*
X147909483Y-91184032D01*
X147821003Y-91051611D01*
X147821001Y-91051609D01*
X147820996Y-91051603D01*
X147708396Y-90939003D01*
X147708390Y-90938998D01*
X147708389Y-90938997D01*
X147575968Y-90850517D01*
X147428831Y-90789570D01*
X147350730Y-90774035D01*
X147272632Y-90758500D01*
X147272630Y-90758500D01*
X147113370Y-90758500D01*
X147113367Y-90758500D01*
X146996219Y-90781802D01*
X146957169Y-90789570D01*
X146937757Y-90797611D01*
X146810032Y-90850517D01*
X146677609Y-90938998D01*
X146677603Y-90939003D01*
X146565003Y-91051603D01*
X146564998Y-91051609D01*
X146564997Y-91051611D01*
X146476517Y-91184032D01*
X146456082Y-91233367D01*
X146415571Y-91331167D01*
X146415570Y-91331170D01*
X146384500Y-91487367D01*
X142902656Y-91487367D01*
X142921500Y-91392630D01*
X142921500Y-91233370D01*
X142890430Y-91077169D01*
X142829483Y-90930032D01*
X142741003Y-90797611D01*
X142741001Y-90797609D01*
X142740996Y-90797603D01*
X142628396Y-90685003D01*
X142628390Y-90684998D01*
X142628389Y-90684997D01*
X142495968Y-90596517D01*
X142348831Y-90535570D01*
X142270730Y-90520035D01*
X142192632Y-90504500D01*
X142192630Y-90504500D01*
X142033370Y-90504500D01*
X142033367Y-90504500D01*
X141916219Y-90527802D01*
X141877169Y-90535570D01*
X141877167Y-90535571D01*
X141730032Y-90596517D01*
X141597609Y-90684998D01*
X141597603Y-90685003D01*
X141485003Y-90797603D01*
X141484998Y-90797609D01*
X141396517Y-90930032D01*
X141346158Y-91051609D01*
X141335571Y-91077167D01*
X141335570Y-91077170D01*
X141304500Y-91233367D01*
X63347919Y-91233367D01*
X63327483Y-91184032D01*
X63239003Y-91051611D01*
X63239001Y-91051609D01*
X63238996Y-91051603D01*
X63126396Y-90939003D01*
X63126390Y-90938998D01*
X63126389Y-90938997D01*
X62993968Y-90850517D01*
X62846831Y-90789570D01*
X62768730Y-90774035D01*
X62690632Y-90758500D01*
X62690630Y-90758500D01*
X62531370Y-90758500D01*
X62531367Y-90758500D01*
X62414219Y-90781802D01*
X62375169Y-90789570D01*
X62355757Y-90797611D01*
X62228032Y-90850517D01*
X62095609Y-90938998D01*
X62095603Y-90939003D01*
X61983003Y-91051603D01*
X61982998Y-91051609D01*
X61982997Y-91051611D01*
X61894517Y-91184032D01*
X61874082Y-91233367D01*
X61833571Y-91331167D01*
X61833570Y-91331170D01*
X61802500Y-91487367D01*
X59101500Y-91487367D01*
X59101500Y-88820367D01*
X76534500Y-88820367D01*
X76534500Y-88820370D01*
X76534500Y-88979630D01*
X76565570Y-89135831D01*
X76626517Y-89282968D01*
X76708128Y-89405108D01*
X76714998Y-89415390D01*
X76715003Y-89415396D01*
X76827603Y-89527996D01*
X76827609Y-89528001D01*
X76827611Y-89528003D01*
X76960032Y-89616483D01*
X77107169Y-89677430D01*
X77263370Y-89708500D01*
X77263371Y-89708500D01*
X77422629Y-89708500D01*
X77422630Y-89708500D01*
X77578831Y-89677430D01*
X77725968Y-89616483D01*
X77858389Y-89528003D01*
X77971003Y-89415389D01*
X78059483Y-89282968D01*
X78120430Y-89135831D01*
X78151500Y-88979630D01*
X78151500Y-88820370D01*
X78120430Y-88664169D01*
X78059483Y-88517032D01*
X77971003Y-88384611D01*
X77971001Y-88384609D01*
X77970996Y-88384603D01*
X77858396Y-88272003D01*
X77858390Y-88271998D01*
X77858389Y-88271997D01*
X77725968Y-88183517D01*
X77578831Y-88122570D01*
X77500730Y-88107035D01*
X77422632Y-88091500D01*
X77422630Y-88091500D01*
X77263370Y-88091500D01*
X77263367Y-88091500D01*
X77146219Y-88114802D01*
X77107169Y-88122570D01*
X77107167Y-88122571D01*
X76960032Y-88183517D01*
X76827609Y-88271998D01*
X76827603Y-88272003D01*
X76715003Y-88384603D01*
X76714998Y-88384609D01*
X76626517Y-88517032D01*
X76565571Y-88664167D01*
X76565570Y-88664170D01*
X76534500Y-88820367D01*
X59101500Y-88820367D01*
X59101500Y-83613367D01*
X60151500Y-83613367D01*
X60151500Y-83613370D01*
X60151500Y-83772630D01*
X60182570Y-83928831D01*
X60243517Y-84075968D01*
X60331997Y-84208389D01*
X60331998Y-84208390D01*
X60332003Y-84208396D01*
X60444603Y-84320996D01*
X60444609Y-84321001D01*
X60444611Y-84321003D01*
X60577032Y-84409483D01*
X60724169Y-84470430D01*
X60880370Y-84501500D01*
X60880371Y-84501500D01*
X61039629Y-84501500D01*
X61039630Y-84501500D01*
X61195831Y-84470430D01*
X61342968Y-84409483D01*
X61475389Y-84321003D01*
X61588003Y-84208389D01*
X61613408Y-84170367D01*
X103941500Y-84170367D01*
X103941500Y-84329632D01*
X103951589Y-84380352D01*
X103972570Y-84485831D01*
X104033517Y-84632968D01*
X104114733Y-84754517D01*
X104121998Y-84765390D01*
X104122003Y-84765396D01*
X104234603Y-84877996D01*
X104234609Y-84878001D01*
X104234611Y-84878003D01*
X104367032Y-84966483D01*
X104514169Y-85027430D01*
X104670370Y-85058500D01*
X104670371Y-85058500D01*
X104829629Y-85058500D01*
X104829630Y-85058500D01*
X104985831Y-85027430D01*
X105132968Y-84966483D01*
X105265389Y-84878003D01*
X105378003Y-84765389D01*
X105466483Y-84632968D01*
X105527430Y-84485831D01*
X105548410Y-84380350D01*
X105581317Y-84317442D01*
X105582837Y-84315894D01*
X107226327Y-82672405D01*
X107288639Y-82638379D01*
X107315422Y-82635500D01*
X109457609Y-82635500D01*
X109525730Y-82655502D01*
X109527610Y-82656734D01*
X109617032Y-82716483D01*
X109764169Y-82777430D01*
X109920370Y-82808500D01*
X109920371Y-82808500D01*
X110079629Y-82808500D01*
X110079630Y-82808500D01*
X110235831Y-82777430D01*
X110382968Y-82716483D01*
X110515389Y-82628003D01*
X110628003Y-82515389D01*
X110716483Y-82382968D01*
X110777430Y-82235831D01*
X110808500Y-82079630D01*
X110808500Y-81920370D01*
X110808499Y-81920367D01*
X118691500Y-81920367D01*
X118691500Y-81920370D01*
X118691500Y-82079630D01*
X118722570Y-82235831D01*
X118783517Y-82382968D01*
X118871997Y-82515389D01*
X118871998Y-82515390D01*
X118872003Y-82515396D01*
X118984603Y-82627996D01*
X118984609Y-82628001D01*
X118984611Y-82628003D01*
X119117031Y-82716482D01*
X119117032Y-82716483D01*
X119117036Y-82716485D01*
X119264162Y-82777428D01*
X119264166Y-82777428D01*
X119264169Y-82777430D01*
X119369648Y-82798410D01*
X119432557Y-82831317D01*
X119434161Y-82832894D01*
X121506375Y-84905108D01*
X126006375Y-89405108D01*
X126094892Y-89493625D01*
X126198978Y-89563173D01*
X126314631Y-89611078D01*
X126437409Y-89635500D01*
X126437410Y-89635500D01*
X131562590Y-89635500D01*
X131562591Y-89635500D01*
X131685369Y-89611078D01*
X131801022Y-89563173D01*
X131905108Y-89493625D01*
X134993625Y-86405108D01*
X135022450Y-86361968D01*
X135063173Y-86301022D01*
X135111078Y-86185369D01*
X135135500Y-86062591D01*
X135135500Y-85391367D01*
X135716500Y-85391367D01*
X135716500Y-85391370D01*
X135716500Y-85550630D01*
X135747570Y-85706831D01*
X135808517Y-85853968D01*
X135896997Y-85986389D01*
X135896998Y-85986390D01*
X135897003Y-85986396D01*
X136009603Y-86098996D01*
X136009609Y-86099001D01*
X136009611Y-86099003D01*
X136142032Y-86187483D01*
X136289169Y-86248430D01*
X136445370Y-86279500D01*
X136445371Y-86279500D01*
X136604629Y-86279500D01*
X136604630Y-86279500D01*
X136760831Y-86248430D01*
X136907968Y-86187483D01*
X137040389Y-86099003D01*
X137153003Y-85986389D01*
X137211149Y-85899367D01*
X139018500Y-85899367D01*
X139018500Y-86058632D01*
X139034035Y-86136730D01*
X139049570Y-86214831D01*
X139110517Y-86361968D01*
X139139347Y-86405115D01*
X139198998Y-86494390D01*
X139199003Y-86494396D01*
X139311603Y-86606996D01*
X139311609Y-86607001D01*
X139311611Y-86607003D01*
X139444032Y-86695483D01*
X139591169Y-86756430D01*
X139747370Y-86787500D01*
X139747371Y-86787500D01*
X139906629Y-86787500D01*
X139906630Y-86787500D01*
X140062831Y-86756430D01*
X140209968Y-86695483D01*
X140342389Y-86607003D01*
X140455003Y-86494389D01*
X140543483Y-86361968D01*
X140604430Y-86214831D01*
X140635500Y-86058630D01*
X140635500Y-85899370D01*
X140604430Y-85743169D01*
X140543483Y-85596032D01*
X140455003Y-85463611D01*
X140455001Y-85463609D01*
X140454996Y-85463603D01*
X140342396Y-85351003D01*
X140342390Y-85350998D01*
X140342389Y-85350997D01*
X140209968Y-85262517D01*
X140062831Y-85201570D01*
X139984730Y-85186035D01*
X139906632Y-85170500D01*
X139906630Y-85170500D01*
X139747370Y-85170500D01*
X139747367Y-85170500D01*
X139630219Y-85193802D01*
X139591169Y-85201570D01*
X139591167Y-85201571D01*
X139444032Y-85262517D01*
X139311609Y-85350998D01*
X139311603Y-85351003D01*
X139199003Y-85463603D01*
X139198998Y-85463609D01*
X139198997Y-85463611D01*
X139110517Y-85596032D01*
X139064622Y-85706832D01*
X139049571Y-85743167D01*
X139049570Y-85743170D01*
X139018500Y-85899367D01*
X137211149Y-85899367D01*
X137241483Y-85853968D01*
X137302430Y-85706831D01*
X137333500Y-85550630D01*
X137333500Y-85391370D01*
X137302430Y-85235169D01*
X137241483Y-85088032D01*
X137153003Y-84955611D01*
X137153001Y-84955609D01*
X137152996Y-84955603D01*
X137040396Y-84843003D01*
X137040390Y-84842998D01*
X137040389Y-84842997D01*
X136907968Y-84754517D01*
X136760831Y-84693570D01*
X136682730Y-84678035D01*
X136604632Y-84662500D01*
X136604630Y-84662500D01*
X136445370Y-84662500D01*
X136445367Y-84662500D01*
X136328219Y-84685802D01*
X136289169Y-84693570D01*
X136289167Y-84693571D01*
X136142032Y-84754517D01*
X136009609Y-84842998D01*
X136009603Y-84843003D01*
X135897003Y-84955603D01*
X135896998Y-84955609D01*
X135808517Y-85088032D01*
X135747571Y-85235167D01*
X135747570Y-85235170D01*
X135716500Y-85391367D01*
X135135500Y-85391367D01*
X135135500Y-81941824D01*
X135135501Y-81941803D01*
X135135501Y-81810413D01*
X135135501Y-81810409D01*
X135111078Y-81687632D01*
X135095669Y-81650430D01*
X135063173Y-81571978D01*
X134993625Y-81467892D01*
X134905108Y-81379375D01*
X134332894Y-80807161D01*
X134298868Y-80744849D01*
X134298421Y-80742702D01*
X134277430Y-80637169D01*
X134277428Y-80637166D01*
X134277428Y-80637162D01*
X134216485Y-80490036D01*
X134216483Y-80490032D01*
X134154362Y-80397061D01*
X134128003Y-80357611D01*
X134128001Y-80357609D01*
X134127996Y-80357603D01*
X134015396Y-80245003D01*
X134015390Y-80244998D01*
X134001672Y-80235832D01*
X133882968Y-80156517D01*
X133735831Y-80095570D01*
X133657730Y-80080035D01*
X133579632Y-80064500D01*
X133579630Y-80064500D01*
X133420370Y-80064500D01*
X133420367Y-80064500D01*
X133303219Y-80087802D01*
X133264169Y-80095570D01*
X133187666Y-80127259D01*
X133117032Y-80156517D01*
X132984609Y-80244998D01*
X132984603Y-80245003D01*
X132872003Y-80357603D01*
X132871998Y-80357609D01*
X132783517Y-80490032D01*
X132722571Y-80637167D01*
X132722570Y-80637170D01*
X132691500Y-80793367D01*
X132691500Y-80793370D01*
X132691500Y-80952630D01*
X132722570Y-81108831D01*
X132783517Y-81255968D01*
X132865974Y-81379375D01*
X132871998Y-81388390D01*
X132872003Y-81388396D01*
X132984603Y-81500996D01*
X132984609Y-81501001D01*
X132984611Y-81501003D01*
X133057088Y-81549430D01*
X133117032Y-81589483D01*
X133117036Y-81589485D01*
X133264162Y-81650428D01*
X133264166Y-81650428D01*
X133264169Y-81650430D01*
X133369648Y-81671410D01*
X133432557Y-81704317D01*
X133434161Y-81705894D01*
X133827595Y-82099328D01*
X133861621Y-82161640D01*
X133864500Y-82188423D01*
X133864500Y-85684577D01*
X133844498Y-85752698D01*
X133827595Y-85773672D01*
X131273672Y-88327595D01*
X131211360Y-88361621D01*
X131184577Y-88364500D01*
X126815423Y-88364500D01*
X126747302Y-88344498D01*
X126726328Y-88327595D01*
X120332894Y-81934161D01*
X120298868Y-81871849D01*
X120298421Y-81869702D01*
X120277430Y-81764169D01*
X120277428Y-81764166D01*
X120277428Y-81764162D01*
X120216485Y-81617036D01*
X120216483Y-81617032D01*
X120198077Y-81589485D01*
X120128003Y-81484611D01*
X120128001Y-81484609D01*
X120127996Y-81484603D01*
X120015396Y-81372003D01*
X120015390Y-81371998D01*
X120015389Y-81371997D01*
X119882968Y-81283517D01*
X119735831Y-81222570D01*
X119644609Y-81204425D01*
X119579632Y-81191500D01*
X119579630Y-81191500D01*
X119420370Y-81191500D01*
X119420367Y-81191500D01*
X119303219Y-81214802D01*
X119264169Y-81222570D01*
X119212911Y-81243802D01*
X119117032Y-81283517D01*
X118984609Y-81371998D01*
X118984603Y-81372003D01*
X118872003Y-81484603D01*
X118871998Y-81484609D01*
X118849306Y-81518571D01*
X118783517Y-81617032D01*
X118769683Y-81650431D01*
X118722571Y-81764167D01*
X118722570Y-81764170D01*
X118691500Y-81920367D01*
X110808499Y-81920367D01*
X110777430Y-81764169D01*
X110716483Y-81617032D01*
X110628003Y-81484611D01*
X110628001Y-81484609D01*
X110627996Y-81484603D01*
X110515396Y-81372003D01*
X110515390Y-81371998D01*
X110515389Y-81371997D01*
X110382968Y-81283517D01*
X110235831Y-81222570D01*
X110144609Y-81204425D01*
X110079632Y-81191500D01*
X110079630Y-81191500D01*
X109920370Y-81191500D01*
X109920367Y-81191500D01*
X109803219Y-81214802D01*
X109764169Y-81222570D01*
X109753899Y-81226824D01*
X109617033Y-81283516D01*
X109527610Y-81343266D01*
X109459857Y-81364480D01*
X109457609Y-81364500D01*
X107068824Y-81364500D01*
X107068804Y-81364499D01*
X107062591Y-81364499D01*
X106937409Y-81364499D01*
X106920735Y-81367815D01*
X106836912Y-81384489D01*
X106836912Y-81384490D01*
X106831341Y-81385598D01*
X106814628Y-81388922D01*
X106814627Y-81388923D01*
X106698977Y-81436827D01*
X106594896Y-81506372D01*
X106594889Y-81506377D01*
X106529290Y-81571977D01*
X106506375Y-81594892D01*
X106506373Y-81594894D01*
X105124749Y-82976517D01*
X104684161Y-83417105D01*
X104621849Y-83451130D01*
X104619649Y-83451588D01*
X104514168Y-83472570D01*
X104367032Y-83533517D01*
X104234609Y-83621998D01*
X104234603Y-83622003D01*
X104122003Y-83734603D01*
X104121998Y-83734609D01*
X104121997Y-83734611D01*
X104033517Y-83867032D01*
X103975799Y-84006375D01*
X103972571Y-84014167D01*
X103972570Y-84014170D01*
X103941500Y-84170367D01*
X61613408Y-84170367D01*
X61676483Y-84075968D01*
X61737430Y-83928831D01*
X61768500Y-83772630D01*
X61768500Y-83613370D01*
X61737430Y-83457169D01*
X61676483Y-83310032D01*
X61588003Y-83177611D01*
X61588001Y-83177609D01*
X61587996Y-83177603D01*
X61475396Y-83065003D01*
X61475390Y-83064998D01*
X61396795Y-83012483D01*
X61342968Y-82976517D01*
X61195831Y-82915570D01*
X61117730Y-82900035D01*
X61039632Y-82884500D01*
X61039630Y-82884500D01*
X60880370Y-82884500D01*
X60880367Y-82884500D01*
X60763219Y-82907802D01*
X60724169Y-82915570D01*
X60577032Y-82976517D01*
X60444609Y-83064998D01*
X60444603Y-83065003D01*
X60332003Y-83177603D01*
X60331998Y-83177609D01*
X60331997Y-83177611D01*
X60243517Y-83310032D01*
X60185072Y-83451130D01*
X60182571Y-83457167D01*
X60182570Y-83457170D01*
X60151500Y-83613367D01*
X59101500Y-83613367D01*
X59101500Y-82216367D01*
X79074500Y-82216367D01*
X79074500Y-82375632D01*
X79090035Y-82453730D01*
X79105570Y-82531831D01*
X79166517Y-82678968D01*
X79253066Y-82808499D01*
X79254998Y-82811390D01*
X79255003Y-82811396D01*
X79367603Y-82923996D01*
X79367609Y-82924001D01*
X79367611Y-82924003D01*
X79500032Y-83012483D01*
X79647169Y-83073430D01*
X79803370Y-83104500D01*
X79803371Y-83104500D01*
X79962629Y-83104500D01*
X79962630Y-83104500D01*
X80118831Y-83073430D01*
X80265968Y-83012483D01*
X80398389Y-82924003D01*
X80511003Y-82811389D01*
X80599483Y-82678968D01*
X80660430Y-82531831D01*
X80691500Y-82375630D01*
X80691500Y-82216370D01*
X80660430Y-82060169D01*
X80599483Y-81913032D01*
X80511003Y-81780611D01*
X80511001Y-81780609D01*
X80510996Y-81780603D01*
X80398396Y-81668003D01*
X80398390Y-81667998D01*
X80372099Y-81650431D01*
X80265968Y-81579517D01*
X80118831Y-81518570D01*
X80030480Y-81500996D01*
X79962632Y-81487500D01*
X79962630Y-81487500D01*
X79803370Y-81487500D01*
X79803367Y-81487500D01*
X79686219Y-81510802D01*
X79647169Y-81518570D01*
X79500032Y-81579517D01*
X79367609Y-81667998D01*
X79367603Y-81668003D01*
X79255003Y-81780603D01*
X79254998Y-81780609D01*
X79236696Y-81808000D01*
X79166517Y-81913032D01*
X79105570Y-82060169D01*
X79101699Y-82079630D01*
X79074500Y-82216367D01*
X59101500Y-82216367D01*
X59101500Y-80692367D01*
X88218500Y-80692367D01*
X88218500Y-80851632D01*
X88222699Y-80872741D01*
X88249570Y-81007831D01*
X88310517Y-81154968D01*
X88396410Y-81283517D01*
X88398998Y-81287390D01*
X88399003Y-81287396D01*
X88511603Y-81399996D01*
X88511609Y-81400001D01*
X88511611Y-81400003D01*
X88644032Y-81488483D01*
X88791169Y-81549430D01*
X88947370Y-81580500D01*
X88947371Y-81580500D01*
X89106629Y-81580500D01*
X89106630Y-81580500D01*
X89262831Y-81549430D01*
X89409968Y-81488483D01*
X89542389Y-81400003D01*
X89655003Y-81287389D01*
X89743483Y-81154968D01*
X89804430Y-81007831D01*
X89835500Y-80851630D01*
X89835500Y-80692370D01*
X89804430Y-80536169D01*
X89743483Y-80389032D01*
X89655003Y-80256611D01*
X89655001Y-80256609D01*
X89654996Y-80256603D01*
X89542396Y-80144003D01*
X89542390Y-80143998D01*
X89518442Y-80127996D01*
X89409968Y-80055517D01*
X89262831Y-79994570D01*
X89184730Y-79979035D01*
X89106632Y-79963500D01*
X89106630Y-79963500D01*
X88947370Y-79963500D01*
X88947367Y-79963500D01*
X88830219Y-79986802D01*
X88791169Y-79994570D01*
X88680073Y-80040588D01*
X88644032Y-80055517D01*
X88511609Y-80143998D01*
X88511603Y-80144003D01*
X88399003Y-80256603D01*
X88398998Y-80256609D01*
X88385087Y-80277429D01*
X88310517Y-80389032D01*
X88254033Y-80525396D01*
X88249571Y-80536167D01*
X88249570Y-80536170D01*
X88218500Y-80692367D01*
X59101500Y-80692367D01*
X59101500Y-79930367D01*
X117809500Y-79930367D01*
X117809500Y-80089632D01*
X117825035Y-80167730D01*
X117840570Y-80245831D01*
X117901517Y-80392968D01*
X117983316Y-80515390D01*
X117989998Y-80525390D01*
X117990003Y-80525396D01*
X118102603Y-80637996D01*
X118102609Y-80638001D01*
X118102611Y-80638003D01*
X118235032Y-80726483D01*
X118382169Y-80787430D01*
X118538370Y-80818500D01*
X118538371Y-80818500D01*
X118697629Y-80818500D01*
X118697630Y-80818500D01*
X118853831Y-80787430D01*
X119000968Y-80726483D01*
X119133389Y-80638003D01*
X119246003Y-80525389D01*
X119334483Y-80392968D01*
X119395430Y-80245831D01*
X119426500Y-80089630D01*
X119426500Y-79930370D01*
X119395430Y-79774169D01*
X119334483Y-79627032D01*
X119246003Y-79494611D01*
X119246001Y-79494609D01*
X119245999Y-79494606D01*
X119171760Y-79420367D01*
X125691500Y-79420367D01*
X125691500Y-79579632D01*
X125700929Y-79627032D01*
X125722570Y-79735831D01*
X125783517Y-79882968D01*
X125871997Y-80015389D01*
X125871998Y-80015390D01*
X125872003Y-80015396D01*
X125984603Y-80127996D01*
X125984609Y-80128001D01*
X125984611Y-80128003D01*
X126117032Y-80216483D01*
X126264169Y-80277430D01*
X126420370Y-80308500D01*
X126420371Y-80308500D01*
X126579629Y-80308500D01*
X126579630Y-80308500D01*
X126735831Y-80277430D01*
X126882968Y-80216483D01*
X127015389Y-80128003D01*
X127128003Y-80015389D01*
X127191494Y-79920367D01*
X139191500Y-79920367D01*
X139191500Y-80079632D01*
X139194671Y-80095571D01*
X139222570Y-80235831D01*
X139283517Y-80382968D01*
X139371997Y-80515389D01*
X139371998Y-80515390D01*
X139372003Y-80515396D01*
X139484603Y-80627996D01*
X139484609Y-80628001D01*
X139484611Y-80628003D01*
X139617032Y-80716483D01*
X139764169Y-80777430D01*
X139920370Y-80808500D01*
X139920371Y-80808500D01*
X140079629Y-80808500D01*
X140079630Y-80808500D01*
X140235831Y-80777430D01*
X140382968Y-80716483D01*
X140515389Y-80628003D01*
X140628003Y-80515389D01*
X140716483Y-80382968D01*
X140777430Y-80235831D01*
X140808500Y-80079630D01*
X140808500Y-79920370D01*
X140804338Y-79899446D01*
X149509121Y-79899446D01*
X149509121Y-81100544D01*
X149519733Y-81204425D01*
X149575506Y-81372738D01*
X149668591Y-81523652D01*
X149668596Y-81523658D01*
X149793962Y-81649024D01*
X149793968Y-81649029D01*
X149793969Y-81649030D01*
X149944883Y-81742115D01*
X150113195Y-81797887D01*
X150217076Y-81808500D01*
X151418165Y-81808499D01*
X151522047Y-81797887D01*
X151690359Y-81742115D01*
X151841273Y-81649030D01*
X151966651Y-81523652D01*
X152059736Y-81372738D01*
X152082545Y-81303902D01*
X152086713Y-81295633D01*
X152104895Y-81276208D01*
X152120040Y-81254335D01*
X152128769Y-81250705D01*
X152135232Y-81243802D01*
X152161030Y-81237292D01*
X152185596Y-81227078D01*
X152202510Y-81226824D01*
X152204071Y-81226431D01*
X152205127Y-81226785D01*
X152209118Y-81226726D01*
X152230037Y-81228372D01*
X152917621Y-80540788D01*
X152917621Y-80552661D01*
X152944880Y-80654394D01*
X152997541Y-80745606D01*
X153072015Y-80820080D01*
X153163227Y-80872741D01*
X153264960Y-80900000D01*
X153276831Y-80900000D01*
X152589247Y-81587582D01*
X152589247Y-81587583D01*
X152632075Y-81618699D01*
X152815521Y-81712170D01*
X152815527Y-81712173D01*
X153011326Y-81775791D01*
X153011322Y-81775791D01*
X153214682Y-81808000D01*
X153420560Y-81808000D01*
X153623917Y-81775791D01*
X153819714Y-81712173D01*
X153819720Y-81712170D01*
X154003162Y-81618701D01*
X154045993Y-81587582D01*
X154045993Y-81587581D01*
X153358412Y-80900000D01*
X153370282Y-80900000D01*
X153472015Y-80872741D01*
X153563227Y-80820080D01*
X153637701Y-80745606D01*
X153690362Y-80654394D01*
X153717621Y-80552661D01*
X153717621Y-80540791D01*
X154405202Y-81228372D01*
X154405203Y-81228372D01*
X154436322Y-81185541D01*
X154529791Y-81002099D01*
X154529794Y-81002093D01*
X154593412Y-80806296D01*
X154625621Y-80602938D01*
X154625621Y-80397061D01*
X154593412Y-80193703D01*
X154529794Y-79997906D01*
X154529791Y-79997900D01*
X154436320Y-79814454D01*
X154405204Y-79771626D01*
X154405203Y-79771626D01*
X153717621Y-80459208D01*
X153717621Y-80447339D01*
X153690362Y-80345606D01*
X153637701Y-80254394D01*
X153563227Y-80179920D01*
X153472015Y-80127259D01*
X153370282Y-80100000D01*
X153358411Y-80100000D01*
X154045993Y-79412416D01*
X154003162Y-79381298D01*
X154003161Y-79381297D01*
X153819720Y-79287829D01*
X153819714Y-79287826D01*
X153623915Y-79224208D01*
X153623919Y-79224208D01*
X153420560Y-79192000D01*
X153214682Y-79192000D01*
X153011324Y-79224208D01*
X152815527Y-79287826D01*
X152815521Y-79287829D01*
X152632073Y-79381301D01*
X152589246Y-79412416D01*
X153276830Y-80100000D01*
X153264960Y-80100000D01*
X153163227Y-80127259D01*
X153072015Y-80179920D01*
X152997541Y-80254394D01*
X152944880Y-80345606D01*
X152917621Y-80447339D01*
X152917621Y-80459209D01*
X152230037Y-79771625D01*
X152209120Y-79773272D01*
X152139640Y-79758678D01*
X152089079Y-79708836D01*
X152086713Y-79704366D01*
X152082544Y-79696094D01*
X152059736Y-79627262D01*
X151971748Y-79484611D01*
X151966652Y-79476349D01*
X151966645Y-79476341D01*
X151841279Y-79350975D01*
X151841273Y-79350970D01*
X151748127Y-79293517D01*
X151690359Y-79257885D01*
X151588727Y-79224208D01*
X151522048Y-79202113D01*
X151522041Y-79202112D01*
X151418174Y-79191500D01*
X150217076Y-79191500D01*
X150113195Y-79202112D01*
X149944882Y-79257885D01*
X149793968Y-79350970D01*
X149793962Y-79350975D01*
X149668596Y-79476341D01*
X149668591Y-79476347D01*
X149575506Y-79627262D01*
X149519734Y-79795572D01*
X149519733Y-79795579D01*
X149509121Y-79899446D01*
X140804338Y-79899446D01*
X140777430Y-79764169D01*
X140716483Y-79617032D01*
X140628003Y-79484611D01*
X140628001Y-79484609D01*
X140627996Y-79484603D01*
X140515396Y-79372003D01*
X140515390Y-79371998D01*
X140515389Y-79371997D01*
X140382968Y-79283517D01*
X140235831Y-79222570D01*
X140132981Y-79202112D01*
X140079632Y-79191500D01*
X140079630Y-79191500D01*
X139920370Y-79191500D01*
X139920367Y-79191500D01*
X139803219Y-79214802D01*
X139764169Y-79222570D01*
X139663742Y-79264169D01*
X139617032Y-79283517D01*
X139484609Y-79371998D01*
X139484603Y-79372003D01*
X139372003Y-79484603D01*
X139371998Y-79484609D01*
X139365315Y-79494611D01*
X139283517Y-79617032D01*
X139224845Y-79758678D01*
X139222571Y-79764167D01*
X139222570Y-79764170D01*
X139191500Y-79920367D01*
X127191494Y-79920367D01*
X127216483Y-79882968D01*
X127277430Y-79735831D01*
X127308500Y-79579630D01*
X127308500Y-79420370D01*
X127277430Y-79264169D01*
X127216483Y-79117032D01*
X127156734Y-79027610D01*
X127135520Y-78959857D01*
X127135500Y-78957609D01*
X127135500Y-73815423D01*
X127155502Y-73747302D01*
X127172405Y-73726328D01*
X128226328Y-72672405D01*
X128288640Y-72638379D01*
X128315423Y-72635500D01*
X135934577Y-72635500D01*
X136002698Y-72655502D01*
X136023672Y-72672405D01*
X136667104Y-73315837D01*
X136701130Y-73378149D01*
X136701588Y-73380350D01*
X136722570Y-73485831D01*
X136783517Y-73632968D01*
X136871997Y-73765389D01*
X136871998Y-73765390D01*
X136872003Y-73765396D01*
X136984603Y-73877996D01*
X136984609Y-73878001D01*
X136984611Y-73878003D01*
X137117032Y-73966483D01*
X137264169Y-74027430D01*
X137420370Y-74058500D01*
X137420371Y-74058500D01*
X137579629Y-74058500D01*
X137579630Y-74058500D01*
X137735831Y-74027430D01*
X137882968Y-73966483D01*
X138015389Y-73878003D01*
X138128003Y-73765389D01*
X138216483Y-73632968D01*
X138277430Y-73485831D01*
X138308500Y-73329630D01*
X138308500Y-73170370D01*
X138277430Y-73014169D01*
X138216483Y-72867032D01*
X138128003Y-72734611D01*
X138128001Y-72734609D01*
X138127996Y-72734603D01*
X138015396Y-72622003D01*
X138015390Y-72621998D01*
X138015389Y-72621997D01*
X137882968Y-72533517D01*
X137735831Y-72472570D01*
X137694382Y-72464325D01*
X137630350Y-72451588D01*
X137567440Y-72418680D01*
X137565837Y-72417104D01*
X136655110Y-71506377D01*
X136655108Y-71506375D01*
X136551022Y-71436827D01*
X136435369Y-71388922D01*
X136312593Y-71364500D01*
X136312591Y-71364500D01*
X128062591Y-71364500D01*
X127937409Y-71364500D01*
X127937406Y-71364500D01*
X127814630Y-71388922D01*
X127814625Y-71388924D01*
X127698977Y-71436827D01*
X127594896Y-71506372D01*
X127594889Y-71506377D01*
X126006377Y-73094889D01*
X126006372Y-73094896D01*
X125936827Y-73198977D01*
X125888924Y-73314625D01*
X125888922Y-73314630D01*
X125864500Y-73437406D01*
X125864500Y-78957609D01*
X125844498Y-79025730D01*
X125843266Y-79027610D01*
X125783516Y-79117033D01*
X125752671Y-79191500D01*
X125722570Y-79264169D01*
X125717864Y-79287826D01*
X125691500Y-79420367D01*
X119171760Y-79420367D01*
X119133396Y-79382003D01*
X119133390Y-79381998D01*
X119132347Y-79381301D01*
X119000968Y-79293517D01*
X118853831Y-79232570D01*
X118775730Y-79217035D01*
X118697632Y-79201500D01*
X118697630Y-79201500D01*
X118538370Y-79201500D01*
X118538367Y-79201500D01*
X118432443Y-79222570D01*
X118382169Y-79232570D01*
X118305881Y-79264170D01*
X118235032Y-79293517D01*
X118102609Y-79381998D01*
X118102603Y-79382003D01*
X117990003Y-79494603D01*
X117989998Y-79494609D01*
X117989997Y-79494611D01*
X117901517Y-79627032D01*
X117841624Y-79771626D01*
X117840571Y-79774167D01*
X117840570Y-79774170D01*
X117809500Y-79930367D01*
X59101500Y-79930367D01*
X59101500Y-72170367D01*
X64191500Y-72170367D01*
X64191500Y-72170370D01*
X64191500Y-72329630D01*
X64222570Y-72485831D01*
X64283517Y-72632968D01*
X64352248Y-72735832D01*
X64371998Y-72765390D01*
X64372003Y-72765396D01*
X64484603Y-72877996D01*
X64484609Y-72878001D01*
X64484611Y-72878003D01*
X64617032Y-72966483D01*
X64764169Y-73027430D01*
X64920370Y-73058500D01*
X64920371Y-73058500D01*
X65079629Y-73058500D01*
X65079630Y-73058500D01*
X65235831Y-73027430D01*
X65382968Y-72966483D01*
X65515389Y-72878003D01*
X65628003Y-72765389D01*
X65716483Y-72632968D01*
X65721819Y-72620083D01*
X65726528Y-72613036D01*
X65727644Y-72607908D01*
X65749138Y-72579199D01*
X65778937Y-72549402D01*
X65841250Y-72515379D01*
X65868029Y-72512500D01*
X66381972Y-72512500D01*
X66450093Y-72532502D01*
X66471067Y-72549405D01*
X67200595Y-73278933D01*
X67234621Y-73341245D01*
X67237500Y-73368028D01*
X67237500Y-75703061D01*
X67227909Y-75751279D01*
X67222572Y-75764162D01*
X67222570Y-75764168D01*
X67191500Y-75920367D01*
X67191500Y-76079632D01*
X67206389Y-76154482D01*
X67222570Y-76235831D01*
X67283517Y-76382968D01*
X67319893Y-76437409D01*
X67371998Y-76515390D01*
X67372003Y-76515396D01*
X67484603Y-76627996D01*
X67484609Y-76628001D01*
X67484611Y-76628003D01*
X67617032Y-76716483D01*
X67764169Y-76777430D01*
X67920370Y-76808500D01*
X67920371Y-76808500D01*
X68079629Y-76808500D01*
X68079630Y-76808500D01*
X68235831Y-76777430D01*
X68382968Y-76716483D01*
X68515389Y-76628003D01*
X68628003Y-76515389D01*
X68691494Y-76420367D01*
X103691500Y-76420367D01*
X103691500Y-76420370D01*
X103691500Y-76579630D01*
X103722570Y-76735831D01*
X103783517Y-76882968D01*
X103871997Y-77015389D01*
X103871998Y-77015390D01*
X103872003Y-77015396D01*
X103984603Y-77127996D01*
X103984609Y-77128001D01*
X103984611Y-77128003D01*
X104117032Y-77216483D01*
X104264169Y-77277430D01*
X104420370Y-77308500D01*
X104420371Y-77308500D01*
X104579629Y-77308500D01*
X104579630Y-77308500D01*
X104735831Y-77277430D01*
X104882968Y-77216483D01*
X104972390Y-77156734D01*
X105040143Y-77135520D01*
X105042391Y-77135500D01*
X111062590Y-77135500D01*
X111062591Y-77135500D01*
X111185369Y-77111078D01*
X111301022Y-77063173D01*
X111405108Y-76993625D01*
X112565840Y-75832891D01*
X112628149Y-75798869D01*
X112630293Y-75798422D01*
X112735831Y-75777430D01*
X112735834Y-75777428D01*
X112735837Y-75777428D01*
X112882963Y-75716485D01*
X112882962Y-75716485D01*
X112882968Y-75716483D01*
X113015389Y-75628003D01*
X113128003Y-75515389D01*
X113216483Y-75382968D01*
X113277430Y-75235831D01*
X113308500Y-75079630D01*
X113308500Y-74920370D01*
X113277430Y-74764169D01*
X113216483Y-74617032D01*
X113128003Y-74484611D01*
X113128001Y-74484609D01*
X113127996Y-74484603D01*
X113015396Y-74372003D01*
X113015390Y-74371998D01*
X113015389Y-74371997D01*
X112882968Y-74283517D01*
X112735831Y-74222570D01*
X112657730Y-74207035D01*
X112579632Y-74191500D01*
X112579630Y-74191500D01*
X112420370Y-74191500D01*
X112420367Y-74191500D01*
X112303219Y-74214802D01*
X112264169Y-74222570D01*
X112264167Y-74222571D01*
X112117032Y-74283517D01*
X111984609Y-74371998D01*
X111984603Y-74372003D01*
X111872003Y-74484603D01*
X111871998Y-74484609D01*
X111783517Y-74617032D01*
X111722570Y-74764168D01*
X111701588Y-74869648D01*
X111668679Y-74932557D01*
X111667105Y-74934160D01*
X110773672Y-75827595D01*
X110711359Y-75861620D01*
X110684576Y-75864500D01*
X105042391Y-75864500D01*
X104974270Y-75844498D01*
X104972390Y-75843266D01*
X104939017Y-75820967D01*
X104882968Y-75783517D01*
X104735831Y-75722570D01*
X104637752Y-75703061D01*
X104579632Y-75691500D01*
X104579630Y-75691500D01*
X104420370Y-75691500D01*
X104420367Y-75691500D01*
X104303219Y-75714802D01*
X104264169Y-75722570D01*
X104163744Y-75764168D01*
X104117032Y-75783517D01*
X103984609Y-75871998D01*
X103984603Y-75872003D01*
X103872003Y-75984603D01*
X103871998Y-75984609D01*
X103871997Y-75984611D01*
X103783517Y-76117032D01*
X103742760Y-76215428D01*
X103722571Y-76264167D01*
X103722570Y-76264170D01*
X103691500Y-76420367D01*
X68691494Y-76420367D01*
X68716483Y-76382968D01*
X68777430Y-76235831D01*
X68808500Y-76079630D01*
X68808500Y-75920370D01*
X68777430Y-75764169D01*
X68772091Y-75751279D01*
X68762500Y-75703061D01*
X68762500Y-75358367D01*
X87837500Y-75358367D01*
X87837500Y-75358370D01*
X87837500Y-75517630D01*
X87868570Y-75673831D01*
X87929517Y-75820968D01*
X88017997Y-75953389D01*
X88017998Y-75953390D01*
X88018003Y-75953396D01*
X88130603Y-76065996D01*
X88130609Y-76066001D01*
X88130611Y-76066003D01*
X88263032Y-76154483D01*
X88410169Y-76215430D01*
X88566370Y-76246500D01*
X88566371Y-76246500D01*
X88725629Y-76246500D01*
X88725630Y-76246500D01*
X88881831Y-76215430D01*
X89028968Y-76154483D01*
X89161389Y-76066003D01*
X89274003Y-75953389D01*
X89362483Y-75820968D01*
X89423430Y-75673831D01*
X89454500Y-75517630D01*
X89454500Y-75358370D01*
X89423430Y-75202169D01*
X89362483Y-75055032D01*
X89274003Y-74922611D01*
X89274001Y-74922609D01*
X89273996Y-74922603D01*
X89161396Y-74810003D01*
X89161390Y-74809998D01*
X89092803Y-74764170D01*
X89028968Y-74721517D01*
X88881831Y-74660570D01*
X88803730Y-74645035D01*
X88725632Y-74629500D01*
X88725630Y-74629500D01*
X88566370Y-74629500D01*
X88566367Y-74629500D01*
X88449219Y-74652802D01*
X88410169Y-74660570D01*
X88410167Y-74660571D01*
X88263032Y-74721517D01*
X88130609Y-74809998D01*
X88130603Y-74810003D01*
X88018003Y-74922603D01*
X88017998Y-74922609D01*
X87929517Y-75055032D01*
X87868571Y-75202167D01*
X87868570Y-75202170D01*
X87837500Y-75358367D01*
X68762500Y-75358367D01*
X68762500Y-73368028D01*
X68782502Y-73299907D01*
X68799405Y-73278933D01*
X70450342Y-71627996D01*
X72112828Y-69965509D01*
X72175138Y-69931485D01*
X72245953Y-69936550D01*
X72291016Y-69965511D01*
X72351961Y-70026456D01*
X72351964Y-70026458D01*
X72351967Y-70026461D01*
X72527508Y-70153999D01*
X72720840Y-70252506D01*
X72927200Y-70319557D01*
X73141510Y-70353500D01*
X73141513Y-70353500D01*
X73358487Y-70353500D01*
X73358490Y-70353500D01*
X73572800Y-70319557D01*
X73779160Y-70252506D01*
X73972492Y-70153999D01*
X74148033Y-70026461D01*
X74280846Y-69893647D01*
X74343156Y-69859624D01*
X74413972Y-69864688D01*
X74470808Y-69907235D01*
X74477181Y-69916597D01*
X74570970Y-70068652D01*
X74570975Y-70068658D01*
X74696341Y-70194024D01*
X74696347Y-70194029D01*
X74696348Y-70194030D01*
X74847262Y-70287115D01*
X75015574Y-70342887D01*
X75119455Y-70353500D01*
X76460544Y-70353499D01*
X76564426Y-70342887D01*
X76732738Y-70287115D01*
X76883652Y-70194030D01*
X77009030Y-70068652D01*
X77102115Y-69917738D01*
X77157887Y-69749426D01*
X77165611Y-69673823D01*
X77168500Y-69645553D01*
X77168500Y-69203525D01*
X87807300Y-69203525D01*
X87807300Y-69203528D01*
X87807300Y-69362788D01*
X87838370Y-69518989D01*
X87899317Y-69666126D01*
X87987797Y-69798547D01*
X87987798Y-69798548D01*
X87987803Y-69798554D01*
X88100403Y-69911154D01*
X88100409Y-69911159D01*
X88100411Y-69911161D01*
X88232832Y-69999641D01*
X88373784Y-70058026D01*
X88429064Y-70102574D01*
X88441972Y-70126211D01*
X88500359Y-70267168D01*
X88550953Y-70342887D01*
X88588840Y-70399590D01*
X88588845Y-70399596D01*
X88701445Y-70512196D01*
X88701451Y-70512201D01*
X88701453Y-70512203D01*
X88833874Y-70600683D01*
X88981011Y-70661630D01*
X89109417Y-70687171D01*
X89172327Y-70720078D01*
X89207459Y-70781773D01*
X89208415Y-70835332D01*
X89191500Y-70920366D01*
X89191500Y-71079632D01*
X89196248Y-71103500D01*
X89222570Y-71235831D01*
X89283517Y-71382968D01*
X89371997Y-71515389D01*
X89371998Y-71515390D01*
X89372003Y-71515396D01*
X89484603Y-71627996D01*
X89484609Y-71628001D01*
X89484611Y-71628003D01*
X89617032Y-71716483D01*
X89764169Y-71777430D01*
X89920370Y-71808500D01*
X89920371Y-71808500D01*
X90079629Y-71808500D01*
X90079630Y-71808500D01*
X90235831Y-71777430D01*
X90382968Y-71716483D01*
X90515389Y-71628003D01*
X90628003Y-71515389D01*
X90716483Y-71382968D01*
X90777430Y-71235831D01*
X90798410Y-71130350D01*
X90831317Y-71067442D01*
X90832836Y-71065895D01*
X92149406Y-69749325D01*
X92211717Y-69715301D01*
X92282533Y-69720366D01*
X92339368Y-69762913D01*
X92364179Y-69829433D01*
X92364500Y-69838422D01*
X92364500Y-72957609D01*
X92344498Y-73025730D01*
X92343266Y-73027610D01*
X92283516Y-73117033D01*
X92261423Y-73170370D01*
X92222570Y-73264169D01*
X92219932Y-73277430D01*
X92191500Y-73420367D01*
X92191500Y-73420370D01*
X92191500Y-73579630D01*
X92222570Y-73735831D01*
X92283517Y-73882968D01*
X92371997Y-74015389D01*
X92371998Y-74015390D01*
X92372003Y-74015396D01*
X92484603Y-74127996D01*
X92484609Y-74128001D01*
X92484611Y-74128003D01*
X92617032Y-74216483D01*
X92764169Y-74277430D01*
X92920370Y-74308500D01*
X92920371Y-74308500D01*
X93079629Y-74308500D01*
X93079630Y-74308500D01*
X93235831Y-74277430D01*
X93382968Y-74216483D01*
X93515389Y-74128003D01*
X93628003Y-74015389D01*
X93716483Y-73882968D01*
X93777430Y-73735831D01*
X93808500Y-73579630D01*
X93808500Y-73420370D01*
X93777430Y-73264169D01*
X93716483Y-73117032D01*
X93656734Y-73027610D01*
X93635520Y-72959857D01*
X93635500Y-72957609D01*
X93635500Y-72420367D01*
X117691500Y-72420367D01*
X117691500Y-72420370D01*
X117691500Y-72579630D01*
X117722570Y-72735831D01*
X117783517Y-72882968D01*
X117871997Y-73015389D01*
X117871998Y-73015390D01*
X117872003Y-73015396D01*
X117984603Y-73127996D01*
X117984609Y-73128001D01*
X117984611Y-73128003D01*
X118117032Y-73216483D01*
X118264169Y-73277430D01*
X118420370Y-73308500D01*
X118420371Y-73308500D01*
X118579629Y-73308500D01*
X118579630Y-73308500D01*
X118735831Y-73277430D01*
X118882968Y-73216483D01*
X119015389Y-73128003D01*
X119128003Y-73015389D01*
X119216483Y-72882968D01*
X119218543Y-72877996D01*
X119221820Y-72870083D01*
X119249133Y-72829203D01*
X123778933Y-68299405D01*
X123841245Y-68265379D01*
X123868028Y-68262500D01*
X126569371Y-68262500D01*
X126637492Y-68282502D01*
X126683985Y-68336158D01*
X126694089Y-68406432D01*
X126692949Y-68413086D01*
X126691500Y-68420367D01*
X126691500Y-68579632D01*
X126706523Y-68655155D01*
X126722570Y-68735831D01*
X126783517Y-68882968D01*
X126829776Y-68952200D01*
X126871998Y-69015390D01*
X126872003Y-69015396D01*
X126984603Y-69127996D01*
X126984609Y-69128001D01*
X126984611Y-69128003D01*
X127042246Y-69166513D01*
X127117032Y-69216483D01*
X127117036Y-69216485D01*
X127264162Y-69277428D01*
X127264166Y-69277428D01*
X127264169Y-69277430D01*
X127369648Y-69298410D01*
X127432557Y-69331317D01*
X127434161Y-69332894D01*
X127506375Y-69405108D01*
X127594892Y-69493625D01*
X127698978Y-69563173D01*
X127814631Y-69611078D01*
X127937409Y-69635500D01*
X131957609Y-69635500D01*
X132025730Y-69655502D01*
X132027610Y-69656734D01*
X132047574Y-69670073D01*
X132117032Y-69716483D01*
X132264169Y-69777430D01*
X132420370Y-69808500D01*
X132420371Y-69808500D01*
X132579629Y-69808500D01*
X132579630Y-69808500D01*
X132735831Y-69777430D01*
X132882968Y-69716483D01*
X133015389Y-69628003D01*
X133128003Y-69515389D01*
X133216483Y-69382968D01*
X133277430Y-69235831D01*
X133291219Y-69166510D01*
X147041500Y-69166510D01*
X147041500Y-69833490D01*
X147075443Y-70047800D01*
X147075444Y-70047803D01*
X147141956Y-70252506D01*
X147142494Y-70254160D01*
X147241001Y-70447492D01*
X147368539Y-70623033D01*
X147368541Y-70623035D01*
X147368543Y-70623038D01*
X147521961Y-70776456D01*
X147521964Y-70776458D01*
X147521967Y-70776461D01*
X147697508Y-70903999D01*
X147890840Y-71002506D01*
X148097200Y-71069557D01*
X148311510Y-71103500D01*
X148311513Y-71103500D01*
X148528487Y-71103500D01*
X148528490Y-71103500D01*
X148742800Y-71069557D01*
X148949160Y-71002506D01*
X149142492Y-70903999D01*
X149318033Y-70776461D01*
X149471461Y-70623033D01*
X149588065Y-70462541D01*
X149644286Y-70419188D01*
X149715022Y-70413113D01*
X149777814Y-70446244D01*
X149791932Y-70462538D01*
X149908539Y-70623033D01*
X149908541Y-70623035D01*
X149908543Y-70623038D01*
X150061961Y-70776456D01*
X150061964Y-70776458D01*
X150061967Y-70776461D01*
X150237508Y-70903999D01*
X150430840Y-71002506D01*
X150637200Y-71069557D01*
X150851510Y-71103500D01*
X150851513Y-71103500D01*
X151068487Y-71103500D01*
X151068490Y-71103500D01*
X151282800Y-71069557D01*
X151489160Y-71002506D01*
X151682492Y-70903999D01*
X151858033Y-70776461D01*
X151991210Y-70643283D01*
X152053520Y-70609260D01*
X152124336Y-70614324D01*
X152181172Y-70656871D01*
X152187545Y-70666233D01*
X152281365Y-70818339D01*
X152281370Y-70818345D01*
X152406654Y-70943629D01*
X152406660Y-70943634D01*
X152557474Y-71036657D01*
X152725678Y-71092393D01*
X152725681Y-71092394D01*
X152829483Y-71102999D01*
X152829483Y-71103000D01*
X153246000Y-71103000D01*
X153246000Y-70040399D01*
X153270339Y-70054452D01*
X153421667Y-70095000D01*
X153578333Y-70095000D01*
X153729661Y-70054452D01*
X153754000Y-70040399D01*
X153754000Y-71103000D01*
X154170517Y-71103000D01*
X154170516Y-71102999D01*
X154274318Y-71092394D01*
X154274321Y-71092393D01*
X154442525Y-71036657D01*
X154593339Y-70943634D01*
X154593345Y-70943629D01*
X154718629Y-70818345D01*
X154718634Y-70818339D01*
X154811657Y-70667525D01*
X154867393Y-70499321D01*
X154867394Y-70499318D01*
X154877999Y-70395516D01*
X154878000Y-70395516D01*
X154878000Y-69754000D01*
X154040400Y-69754000D01*
X154054452Y-69729661D01*
X154095000Y-69578333D01*
X154095000Y-69421667D01*
X154054452Y-69270339D01*
X154040400Y-69246000D01*
X154878000Y-69246000D01*
X154878000Y-68604483D01*
X154867394Y-68500681D01*
X154867393Y-68500678D01*
X154811657Y-68332474D01*
X154718634Y-68181660D01*
X154718629Y-68181654D01*
X154593345Y-68056370D01*
X154593339Y-68056365D01*
X154442525Y-67963342D01*
X154274321Y-67907606D01*
X154274318Y-67907605D01*
X154170516Y-67897000D01*
X153754000Y-67897000D01*
X153754000Y-68959600D01*
X153729661Y-68945548D01*
X153578333Y-68905000D01*
X153421667Y-68905000D01*
X153270339Y-68945548D01*
X153246000Y-68959600D01*
X153246000Y-67897000D01*
X152829483Y-67897000D01*
X152725681Y-67907605D01*
X152725678Y-67907606D01*
X152557474Y-67963342D01*
X152406660Y-68056365D01*
X152406654Y-68056370D01*
X152281370Y-68181654D01*
X152281365Y-68181660D01*
X152187545Y-68333766D01*
X152134758Y-68381244D01*
X152064684Y-68392647D01*
X151999568Y-68364354D01*
X151991209Y-68356714D01*
X151858038Y-68223543D01*
X151858035Y-68223541D01*
X151858033Y-68223539D01*
X151682492Y-68096001D01*
X151489160Y-67997494D01*
X151489159Y-67997493D01*
X151489158Y-67997493D01*
X151282803Y-67930444D01*
X151282800Y-67930443D01*
X151068490Y-67896500D01*
X150851510Y-67896500D01*
X150637200Y-67930443D01*
X150637197Y-67930443D01*
X150637196Y-67930444D01*
X150430841Y-67997493D01*
X150237504Y-68096003D01*
X150061964Y-68223541D01*
X150061961Y-68223543D01*
X149908543Y-68376961D01*
X149908541Y-68376964D01*
X149791936Y-68537457D01*
X149735714Y-68580811D01*
X149664977Y-68586886D01*
X149602186Y-68553754D01*
X149588064Y-68537457D01*
X149560659Y-68499737D01*
X149471461Y-68376967D01*
X149471458Y-68376964D01*
X149471456Y-68376961D01*
X149318038Y-68223543D01*
X149318035Y-68223541D01*
X149318033Y-68223539D01*
X149142492Y-68096001D01*
X148949160Y-67997494D01*
X148949159Y-67997493D01*
X148949158Y-67997493D01*
X148742803Y-67930444D01*
X148742800Y-67930443D01*
X148528490Y-67896500D01*
X148311510Y-67896500D01*
X148097200Y-67930443D01*
X148097197Y-67930443D01*
X148097196Y-67930444D01*
X147890841Y-67997493D01*
X147697504Y-68096003D01*
X147521964Y-68223541D01*
X147521961Y-68223543D01*
X147368543Y-68376961D01*
X147368541Y-68376964D01*
X147241003Y-68552504D01*
X147142493Y-68745841D01*
X147077604Y-68945548D01*
X147075443Y-68952200D01*
X147041500Y-69166510D01*
X133291219Y-69166510D01*
X133308500Y-69079630D01*
X133308500Y-68920370D01*
X133277430Y-68764169D01*
X133216483Y-68617032D01*
X133128003Y-68484611D01*
X133128001Y-68484609D01*
X133124564Y-68479465D01*
X133126414Y-68478228D01*
X133102574Y-68422105D01*
X133114551Y-68352125D01*
X133162460Y-68299731D01*
X133203141Y-68283932D01*
X133235831Y-68277430D01*
X133382968Y-68216483D01*
X133515389Y-68128003D01*
X133628003Y-68015389D01*
X133716483Y-67882968D01*
X133777430Y-67735831D01*
X133808500Y-67579630D01*
X133808500Y-67420370D01*
X133777430Y-67264169D01*
X133716483Y-67117032D01*
X133628003Y-66984611D01*
X133628001Y-66984609D01*
X133627996Y-66984603D01*
X133515396Y-66872003D01*
X133515390Y-66871998D01*
X133515389Y-66871997D01*
X133382968Y-66783517D01*
X133235831Y-66722570D01*
X133157730Y-66707035D01*
X133079632Y-66691500D01*
X133079630Y-66691500D01*
X132920370Y-66691500D01*
X132920367Y-66691500D01*
X132764168Y-66722570D01*
X132764162Y-66722572D01*
X132751279Y-66727909D01*
X132703061Y-66737500D01*
X123424896Y-66737500D01*
X123277585Y-66766803D01*
X123277584Y-66766804D01*
X123138820Y-66824282D01*
X123013934Y-66907727D01*
X123013930Y-66907730D01*
X118170796Y-71750864D01*
X118129926Y-71778175D01*
X118117034Y-71783515D01*
X118117032Y-71783516D01*
X117984609Y-71871998D01*
X117984603Y-71872003D01*
X117872003Y-71984603D01*
X117871998Y-71984609D01*
X117783517Y-72117032D01*
X117722571Y-72264167D01*
X117722570Y-72264170D01*
X117691500Y-72420367D01*
X93635500Y-72420367D01*
X93635500Y-69427296D01*
X93655502Y-69359175D01*
X93672405Y-69338201D01*
X98711201Y-64299405D01*
X98738569Y-64284460D01*
X98764798Y-64267604D01*
X98771096Y-64266698D01*
X98773513Y-64265379D01*
X98800296Y-64262500D01*
X98957609Y-64262500D01*
X99025730Y-64282502D01*
X99027610Y-64283734D01*
X99117032Y-64343483D01*
X99117033Y-64343483D01*
X99117034Y-64343484D01*
X99122493Y-64346402D01*
X99121453Y-64348345D01*
X99168994Y-64386652D01*
X99191419Y-64454014D01*
X99191500Y-64458519D01*
X99191500Y-64579630D01*
X99222570Y-64735831D01*
X99283517Y-64882968D01*
X99325411Y-64945667D01*
X99371998Y-65015390D01*
X99372003Y-65015396D01*
X99484603Y-65127996D01*
X99484609Y-65128001D01*
X99484611Y-65128003D01*
X99617032Y-65216483D01*
X99764169Y-65277430D01*
X99920370Y-65308500D01*
X99920371Y-65308500D01*
X100079629Y-65308500D01*
X100079630Y-65308500D01*
X100235831Y-65277430D01*
X100382968Y-65216483D01*
X100472390Y-65156734D01*
X100540143Y-65135520D01*
X100542391Y-65135500D01*
X101684577Y-65135500D01*
X101752698Y-65155502D01*
X101773672Y-65172405D01*
X103167104Y-66565837D01*
X103201130Y-66628149D01*
X103201588Y-66630350D01*
X103222570Y-66735831D01*
X103283517Y-66882968D01*
X103351427Y-66984603D01*
X103371998Y-67015390D01*
X103372003Y-67015396D01*
X103484603Y-67127996D01*
X103484609Y-67128001D01*
X103484611Y-67128003D01*
X103617032Y-67216483D01*
X103764169Y-67277430D01*
X103920370Y-67308500D01*
X103920371Y-67308500D01*
X104079629Y-67308500D01*
X104079630Y-67308500D01*
X104235831Y-67277430D01*
X104382968Y-67216483D01*
X104515389Y-67128003D01*
X104628003Y-67015389D01*
X104716483Y-66882968D01*
X104777430Y-66735831D01*
X104808500Y-66579630D01*
X104808500Y-66420370D01*
X104777430Y-66264169D01*
X104716483Y-66117032D01*
X104628003Y-65984611D01*
X104628001Y-65984609D01*
X104627996Y-65984603D01*
X104515396Y-65872003D01*
X104515390Y-65871998D01*
X104515389Y-65871997D01*
X104382968Y-65783517D01*
X104235831Y-65722570D01*
X104194382Y-65714325D01*
X104130350Y-65701588D01*
X104067440Y-65668680D01*
X104065837Y-65667104D01*
X102405110Y-64006377D01*
X102405108Y-64006375D01*
X102301022Y-63936827D01*
X102261284Y-63920367D01*
X129191500Y-63920367D01*
X129191500Y-63920370D01*
X129191500Y-64079630D01*
X129222570Y-64235831D01*
X129283517Y-64382968D01*
X129358394Y-64495030D01*
X129371998Y-64515390D01*
X129372003Y-64515396D01*
X129484603Y-64627996D01*
X129484609Y-64628001D01*
X129484611Y-64628003D01*
X129617032Y-64716483D01*
X129764169Y-64777430D01*
X129920370Y-64808500D01*
X129920371Y-64808500D01*
X130079629Y-64808500D01*
X130079630Y-64808500D01*
X130235831Y-64777430D01*
X130382968Y-64716483D01*
X130472390Y-64656734D01*
X130540143Y-64635520D01*
X130542391Y-64635500D01*
X130738409Y-64635500D01*
X131957609Y-64635500D01*
X132025730Y-64655502D01*
X132027610Y-64656734D01*
X132117032Y-64716483D01*
X132264169Y-64777430D01*
X132420370Y-64808500D01*
X132420371Y-64808500D01*
X132579629Y-64808500D01*
X132579630Y-64808500D01*
X132735831Y-64777430D01*
X132882968Y-64716483D01*
X133015389Y-64628003D01*
X133128003Y-64515389D01*
X133216483Y-64382968D01*
X133277430Y-64235831D01*
X133308500Y-64079630D01*
X133308500Y-63920370D01*
X133277430Y-63764169D01*
X133216483Y-63617032D01*
X133128003Y-63484611D01*
X133128001Y-63484609D01*
X133127996Y-63484603D01*
X133015396Y-63372003D01*
X133015390Y-63371998D01*
X133015389Y-63371997D01*
X132882968Y-63283517D01*
X132735831Y-63222570D01*
X132655001Y-63206492D01*
X132579632Y-63191500D01*
X132579630Y-63191500D01*
X132420370Y-63191500D01*
X132420367Y-63191500D01*
X132303219Y-63214802D01*
X132264169Y-63222570D01*
X132264167Y-63222571D01*
X132117033Y-63283516D01*
X132027610Y-63343266D01*
X131959857Y-63364480D01*
X131957609Y-63364500D01*
X130542391Y-63364500D01*
X130474270Y-63344498D01*
X130472390Y-63343266D01*
X130439887Y-63321548D01*
X130382968Y-63283517D01*
X130235831Y-63222570D01*
X130155001Y-63206492D01*
X130079632Y-63191500D01*
X130079630Y-63191500D01*
X129920370Y-63191500D01*
X129920367Y-63191500D01*
X129803219Y-63214802D01*
X129764169Y-63222570D01*
X129764167Y-63222571D01*
X129617032Y-63283517D01*
X129484609Y-63371998D01*
X129484603Y-63372003D01*
X129372003Y-63484603D01*
X129371998Y-63484609D01*
X129283517Y-63617032D01*
X129222570Y-63764169D01*
X129215438Y-63800023D01*
X129191500Y-63920367D01*
X102261284Y-63920367D01*
X102185369Y-63888922D01*
X102062593Y-63864500D01*
X102062591Y-63864500D01*
X100542391Y-63864500D01*
X100524742Y-63859318D01*
X100506353Y-63859236D01*
X100476240Y-63845076D01*
X100474270Y-63844498D01*
X100473798Y-63844193D01*
X100473069Y-63843720D01*
X100382968Y-63783517D01*
X100375605Y-63780467D01*
X100365907Y-63774173D01*
X100349995Y-63755643D01*
X100330980Y-63740311D01*
X100327283Y-63729195D01*
X100319654Y-63720310D01*
X100316286Y-63696119D01*
X100308579Y-63672941D01*
X100308500Y-63668480D01*
X100308500Y-63547371D01*
X100308499Y-63547367D01*
X100306131Y-63535461D01*
X100277430Y-63391169D01*
X100216483Y-63244032D01*
X100128003Y-63111611D01*
X100128001Y-63111609D01*
X100127996Y-63111603D01*
X100015396Y-62999003D01*
X100015390Y-62998998D01*
X100015389Y-62998997D01*
X99882968Y-62910517D01*
X99735831Y-62849570D01*
X99657730Y-62834035D01*
X99579632Y-62818500D01*
X99579630Y-62818500D01*
X99420370Y-62818500D01*
X99420367Y-62818500D01*
X99303219Y-62841802D01*
X99264169Y-62849570D01*
X99264167Y-62849571D01*
X99117033Y-62910516D01*
X99027610Y-62970266D01*
X99009270Y-62976008D01*
X98993107Y-62986396D01*
X98961647Y-62990919D01*
X98959857Y-62991480D01*
X98957609Y-62991500D01*
X98926054Y-62991500D01*
X98857933Y-62971498D01*
X98811440Y-62917842D01*
X98802475Y-62890081D01*
X98785910Y-62806803D01*
X98777430Y-62764169D01*
X98716483Y-62617032D01*
X98628003Y-62484611D01*
X98628001Y-62484609D01*
X98627996Y-62484603D01*
X98515396Y-62372003D01*
X98515390Y-62371998D01*
X98515389Y-62371997D01*
X98382968Y-62283517D01*
X98235831Y-62222570D01*
X98157730Y-62207035D01*
X98079632Y-62191500D01*
X98079630Y-62191500D01*
X97920370Y-62191500D01*
X97920364Y-62191500D01*
X97787087Y-62218011D01*
X97716373Y-62211683D01*
X97660306Y-62168128D01*
X97636687Y-62101176D01*
X97653014Y-62032082D01*
X97660812Y-62020039D01*
X97666542Y-62012205D01*
X97711922Y-61966826D01*
X97754128Y-61893723D01*
X97792033Y-61828071D01*
X97833501Y-61673308D01*
X97833501Y-61513088D01*
X97833501Y-60766771D01*
X97853503Y-60698650D01*
X97889501Y-60662005D01*
X97906384Y-60650723D01*
X97940389Y-60628003D01*
X98053003Y-60515389D01*
X98141483Y-60382968D01*
X98202430Y-60235831D01*
X98233500Y-60079630D01*
X98233500Y-59920370D01*
X98202430Y-59764169D01*
X98141483Y-59617032D01*
X98053003Y-59484611D01*
X98053001Y-59484609D01*
X98052996Y-59484603D01*
X97940396Y-59372003D01*
X97940390Y-59371998D01*
X97940389Y-59371997D01*
X97807968Y-59283517D01*
X97660831Y-59222570D01*
X97582730Y-59207035D01*
X97504632Y-59191500D01*
X97504630Y-59191500D01*
X97345370Y-59191500D01*
X97345367Y-59191500D01*
X97228219Y-59214802D01*
X97189169Y-59222570D01*
X97189167Y-59222570D01*
X97189166Y-59222571D01*
X97048218Y-59280954D01*
X96977628Y-59288543D01*
X96951782Y-59280954D01*
X96810833Y-59222571D01*
X96810834Y-59222571D01*
X96810831Y-59222570D01*
X96732730Y-59207035D01*
X96654632Y-59191500D01*
X96654630Y-59191500D01*
X96495370Y-59191500D01*
X96495367Y-59191500D01*
X96378219Y-59214802D01*
X96339169Y-59222570D01*
X96339167Y-59222571D01*
X96192032Y-59283517D01*
X96059609Y-59371998D01*
X96059603Y-59372003D01*
X95947003Y-59484603D01*
X95946998Y-59484609D01*
X95858517Y-59617032D01*
X95797571Y-59764167D01*
X95797570Y-59764170D01*
X95766500Y-59920367D01*
X95766500Y-59920370D01*
X95766500Y-60079630D01*
X95797570Y-60235831D01*
X95858517Y-60382968D01*
X95918781Y-60473160D01*
X95946998Y-60515390D01*
X95947003Y-60515396D01*
X96059606Y-60627999D01*
X96059614Y-60628005D01*
X96110499Y-60662005D01*
X96156028Y-60716481D01*
X96166499Y-60766771D01*
X96166499Y-61102562D01*
X96146497Y-61170683D01*
X96129594Y-61191657D01*
X88869136Y-68452114D01*
X88806824Y-68486140D01*
X88755460Y-68486598D01*
X88695435Y-68474658D01*
X88695430Y-68474658D01*
X88536170Y-68474658D01*
X88536167Y-68474658D01*
X88419019Y-68497960D01*
X88379969Y-68505728D01*
X88267043Y-68552504D01*
X88232832Y-68566675D01*
X88100409Y-68655156D01*
X88100403Y-68655161D01*
X87987803Y-68767761D01*
X87987798Y-68767767D01*
X87977600Y-68783030D01*
X87899317Y-68900190D01*
X87848082Y-69023882D01*
X87838371Y-69047325D01*
X87838370Y-69047328D01*
X87807300Y-69203525D01*
X77168500Y-69203525D01*
X77168500Y-69197338D01*
X77168499Y-67854455D01*
X77157887Y-67750574D01*
X77153001Y-67735829D01*
X77102115Y-67582262D01*
X77009030Y-67431348D01*
X77009029Y-67431347D01*
X77009024Y-67431341D01*
X76883658Y-67305975D01*
X76883652Y-67305970D01*
X76732738Y-67212885D01*
X76634833Y-67180443D01*
X76564427Y-67157113D01*
X76564420Y-67157112D01*
X76460553Y-67146500D01*
X75119455Y-67146500D01*
X75015574Y-67157112D01*
X74847261Y-67212885D01*
X74696347Y-67305970D01*
X74696341Y-67305975D01*
X74570975Y-67431341D01*
X74570968Y-67431349D01*
X74477180Y-67583403D01*
X74424394Y-67630880D01*
X74354319Y-67642283D01*
X74289204Y-67613990D01*
X74280845Y-67606350D01*
X74148038Y-67473543D01*
X74148035Y-67473541D01*
X74148033Y-67473539D01*
X73972492Y-67346001D01*
X73779160Y-67247494D01*
X73779159Y-67247493D01*
X73779158Y-67247493D01*
X73572803Y-67180444D01*
X73572800Y-67180443D01*
X73358490Y-67146500D01*
X73141510Y-67146500D01*
X72927200Y-67180443D01*
X72927197Y-67180443D01*
X72927196Y-67180444D01*
X72720841Y-67247493D01*
X72527504Y-67346003D01*
X72351964Y-67473541D01*
X72351961Y-67473543D01*
X72198543Y-67626961D01*
X72198541Y-67626964D01*
X72071003Y-67802504D01*
X71972492Y-67995844D01*
X71970599Y-68000415D01*
X71968657Y-67999610D01*
X71932663Y-68050817D01*
X71902393Y-68068658D01*
X71888828Y-68074277D01*
X71888821Y-68074280D01*
X71763939Y-68157724D01*
X71763932Y-68157729D01*
X68089095Y-71832566D01*
X68026783Y-71866592D01*
X67955967Y-71861527D01*
X67910905Y-71832566D01*
X67236069Y-71157730D01*
X67236065Y-71157727D01*
X67111179Y-71074282D01*
X67090791Y-71065837D01*
X66972414Y-71016803D01*
X66825103Y-70987500D01*
X66825100Y-70987500D01*
X65575100Y-70987500D01*
X65424900Y-70987500D01*
X65424896Y-70987500D01*
X65277585Y-71016803D01*
X65277584Y-71016804D01*
X65138820Y-71074282D01*
X65013935Y-71157726D01*
X64670794Y-71500866D01*
X64629923Y-71528176D01*
X64617037Y-71533514D01*
X64617032Y-71533516D01*
X64484609Y-71621998D01*
X64484603Y-71622003D01*
X64372003Y-71734603D01*
X64371998Y-71734609D01*
X64342889Y-71778175D01*
X64283517Y-71867032D01*
X64234814Y-71984611D01*
X64222571Y-72014167D01*
X64222570Y-72014170D01*
X64191500Y-72170367D01*
X59101500Y-72170367D01*
X59101500Y-56170367D01*
X70691500Y-56170367D01*
X70691500Y-56170370D01*
X70691500Y-56329630D01*
X70722570Y-56485831D01*
X70783517Y-56632968D01*
X70828057Y-56699627D01*
X70871998Y-56765390D01*
X70872003Y-56765396D01*
X70984603Y-56877996D01*
X70984609Y-56878001D01*
X70984611Y-56878003D01*
X71117032Y-56966483D01*
X71264169Y-57027430D01*
X71420370Y-57058500D01*
X71420371Y-57058500D01*
X71579629Y-57058500D01*
X71579630Y-57058500D01*
X71735831Y-57027430D01*
X71744580Y-57023805D01*
X71748721Y-57022091D01*
X71796939Y-57012500D01*
X74381972Y-57012500D01*
X74450093Y-57032502D01*
X74471067Y-57049405D01*
X76500864Y-59079202D01*
X76528178Y-59120079D01*
X76533517Y-59132968D01*
X76621997Y-59265389D01*
X76621998Y-59265390D01*
X76622003Y-59265396D01*
X76734603Y-59377996D01*
X76734609Y-59378001D01*
X76734611Y-59378003D01*
X76867032Y-59466483D01*
X77014169Y-59527430D01*
X77170370Y-59558500D01*
X77170371Y-59558500D01*
X77329629Y-59558500D01*
X77329630Y-59558500D01*
X77485831Y-59527430D01*
X77632968Y-59466483D01*
X77765389Y-59378003D01*
X77878003Y-59265389D01*
X77966483Y-59132968D01*
X78027430Y-58985831D01*
X78058500Y-58829630D01*
X78058500Y-58670370D01*
X78027430Y-58514169D01*
X77966483Y-58367032D01*
X77878003Y-58234611D01*
X77878001Y-58234609D01*
X77877996Y-58234603D01*
X77765396Y-58122003D01*
X77765390Y-58121998D01*
X77721789Y-58092865D01*
X77632968Y-58033517D01*
X77620079Y-58028178D01*
X77579202Y-58000864D01*
X75236069Y-55657730D01*
X75236065Y-55657727D01*
X75111179Y-55574282D01*
X75092594Y-55566584D01*
X74972414Y-55516803D01*
X74825103Y-55487500D01*
X74825100Y-55487500D01*
X71796939Y-55487500D01*
X71748721Y-55477909D01*
X71735837Y-55472572D01*
X71735831Y-55472570D01*
X71579632Y-55441500D01*
X71579630Y-55441500D01*
X71420370Y-55441500D01*
X71420367Y-55441500D01*
X71303219Y-55464802D01*
X71264169Y-55472570D01*
X71205572Y-55496842D01*
X71117032Y-55533517D01*
X70984609Y-55621998D01*
X70984603Y-55622003D01*
X70872003Y-55734603D01*
X70871998Y-55734609D01*
X70783517Y-55867032D01*
X70722571Y-56014167D01*
X70722570Y-56014170D01*
X70691500Y-56170367D01*
X59101500Y-56170367D01*
X59101500Y-54170367D01*
X74691500Y-54170367D01*
X74691500Y-54329632D01*
X74707035Y-54407730D01*
X74722570Y-54485831D01*
X74783517Y-54632968D01*
X74865396Y-54755510D01*
X74871998Y-54765390D01*
X74872003Y-54765396D01*
X74984603Y-54877996D01*
X74984609Y-54878001D01*
X74984611Y-54878003D01*
X75117032Y-54966483D01*
X75117036Y-54966485D01*
X75264162Y-55027428D01*
X75264166Y-55027428D01*
X75264169Y-55027430D01*
X75369648Y-55048410D01*
X75432557Y-55081317D01*
X75434161Y-55082894D01*
X77050892Y-56699625D01*
X77154978Y-56769173D01*
X77270631Y-56817078D01*
X77393409Y-56841500D01*
X77518591Y-56841500D01*
X81539902Y-56841500D01*
X81608023Y-56861502D01*
X81654516Y-56915158D01*
X81664620Y-56985432D01*
X81659735Y-57006436D01*
X81635444Y-57081194D01*
X81635443Y-57081199D01*
X81635443Y-57081200D01*
X81601500Y-57295510D01*
X81601500Y-57512490D01*
X81635443Y-57726800D01*
X81635444Y-57726803D01*
X81698338Y-57920371D01*
X81702494Y-57933160D01*
X81801001Y-58126492D01*
X81928539Y-58302033D01*
X81928541Y-58302035D01*
X81928543Y-58302038D01*
X82081961Y-58455456D01*
X82081964Y-58455458D01*
X82081967Y-58455461D01*
X82212092Y-58550002D01*
X82242457Y-58572064D01*
X82285811Y-58628286D01*
X82291886Y-58699023D01*
X82258754Y-58761814D01*
X82242457Y-58775936D01*
X82081964Y-58892541D01*
X82081961Y-58892543D01*
X81928543Y-59045961D01*
X81928541Y-59045964D01*
X81801003Y-59221504D01*
X81702493Y-59414841D01*
X81636797Y-59617032D01*
X81635443Y-59621200D01*
X81601500Y-59835510D01*
X81601500Y-60052490D01*
X81635443Y-60266800D01*
X81635444Y-60266803D01*
X81673188Y-60382968D01*
X81702494Y-60473160D01*
X81801001Y-60666492D01*
X81928539Y-60842033D01*
X81928541Y-60842035D01*
X81928543Y-60842038D01*
X82081961Y-60995456D01*
X82081964Y-60995458D01*
X82081967Y-60995461D01*
X82212092Y-61090002D01*
X82242457Y-61112064D01*
X82285811Y-61168286D01*
X82291886Y-61239023D01*
X82258754Y-61301814D01*
X82242457Y-61315936D01*
X82081964Y-61432541D01*
X82081961Y-61432543D01*
X81928543Y-61585961D01*
X81928541Y-61585964D01*
X81801003Y-61761504D01*
X81702493Y-61954841D01*
X81654946Y-62101176D01*
X81635443Y-62161200D01*
X81601500Y-62375510D01*
X81601500Y-62592490D01*
X81635443Y-62806800D01*
X81635444Y-62806803D01*
X81695449Y-62991480D01*
X81702494Y-63013160D01*
X81801001Y-63206492D01*
X81928539Y-63382033D01*
X81928541Y-63382035D01*
X81928543Y-63382038D01*
X82081964Y-63535459D01*
X82242882Y-63652373D01*
X82286236Y-63708596D01*
X82292311Y-63779332D01*
X82259179Y-63842123D01*
X82242882Y-63856245D01*
X82082294Y-63972918D01*
X82082290Y-63972921D01*
X81928920Y-64126291D01*
X81801430Y-64301768D01*
X81702958Y-64495030D01*
X81702955Y-64495036D01*
X81635932Y-64701313D01*
X81625054Y-64770000D01*
X82664600Y-64770000D01*
X82650548Y-64794339D01*
X82610000Y-64945667D01*
X82610000Y-65102333D01*
X82650548Y-65253661D01*
X82664600Y-65278000D01*
X81625054Y-65278000D01*
X81635932Y-65346686D01*
X81702955Y-65552963D01*
X81702958Y-65552969D01*
X81801430Y-65746231D01*
X81928920Y-65921708D01*
X82061788Y-66054576D01*
X82095814Y-66116888D01*
X82090749Y-66187703D01*
X82048202Y-66244539D01*
X82038840Y-66250912D01*
X82037263Y-66251884D01*
X82037262Y-66251885D01*
X82017350Y-66264167D01*
X81886347Y-66344970D01*
X81886341Y-66344975D01*
X81760975Y-66470341D01*
X81760970Y-66470347D01*
X81667885Y-66621262D01*
X81612113Y-66789572D01*
X81612112Y-66789579D01*
X81601500Y-66893446D01*
X81601500Y-68234544D01*
X81612112Y-68338425D01*
X81667885Y-68506738D01*
X81760970Y-68657652D01*
X81760975Y-68657658D01*
X81886341Y-68783024D01*
X81886347Y-68783029D01*
X81886348Y-68783030D01*
X82037262Y-68876115D01*
X82205574Y-68931887D01*
X82309455Y-68942500D01*
X84100544Y-68942499D01*
X84204426Y-68931887D01*
X84372738Y-68876115D01*
X84523652Y-68783030D01*
X84649030Y-68657652D01*
X84742115Y-68506738D01*
X84797887Y-68338426D01*
X84808500Y-68234545D01*
X84808499Y-66893456D01*
X84806307Y-66872003D01*
X84797887Y-66789574D01*
X84790342Y-66766804D01*
X84742115Y-66621262D01*
X84649030Y-66470348D01*
X84649029Y-66470347D01*
X84649024Y-66470341D01*
X84523658Y-66344975D01*
X84523652Y-66344970D01*
X84372738Y-66251885D01*
X84372734Y-66251883D01*
X84371159Y-66250912D01*
X84323681Y-66198126D01*
X84312278Y-66128051D01*
X84340570Y-66062936D01*
X84348211Y-66054575D01*
X84481081Y-65921705D01*
X84608569Y-65746231D01*
X84707041Y-65552969D01*
X84707044Y-65552963D01*
X84774067Y-65346686D01*
X84784946Y-65278000D01*
X83745400Y-65278000D01*
X83759452Y-65253661D01*
X83800000Y-65102333D01*
X83800000Y-64945667D01*
X83759452Y-64794339D01*
X83745400Y-64770000D01*
X84784946Y-64770000D01*
X84774067Y-64701313D01*
X84707044Y-64495036D01*
X84707041Y-64495030D01*
X84608569Y-64301768D01*
X84481079Y-64126291D01*
X84327708Y-63972920D01*
X84167118Y-63856246D01*
X84123763Y-63800023D01*
X84117687Y-63729287D01*
X84150819Y-63666495D01*
X84167117Y-63652373D01*
X84328033Y-63535461D01*
X84481461Y-63382033D01*
X84608999Y-63206492D01*
X84707506Y-63013160D01*
X84774557Y-62806800D01*
X84808500Y-62592490D01*
X84808500Y-62375510D01*
X84774557Y-62161200D01*
X84707506Y-61954840D01*
X84608999Y-61761508D01*
X84481461Y-61585967D01*
X84481458Y-61585964D01*
X84481456Y-61585961D01*
X84328038Y-61432543D01*
X84328035Y-61432541D01*
X84328033Y-61432539D01*
X84167541Y-61315934D01*
X84124188Y-61259714D01*
X84118113Y-61188978D01*
X84151244Y-61126186D01*
X84167538Y-61112067D01*
X84328033Y-60995461D01*
X84481461Y-60842033D01*
X84608999Y-60666492D01*
X84707506Y-60473160D01*
X84774557Y-60266800D01*
X84808500Y-60052490D01*
X84808500Y-59835510D01*
X84774557Y-59621200D01*
X84707506Y-59414840D01*
X84608999Y-59221508D01*
X84481461Y-59045967D01*
X84481458Y-59045964D01*
X84481456Y-59045961D01*
X84328038Y-58892543D01*
X84328035Y-58892541D01*
X84328033Y-58892539D01*
X84167541Y-58775934D01*
X84124188Y-58719714D01*
X84118113Y-58648978D01*
X84151244Y-58586186D01*
X84167538Y-58572067D01*
X84328033Y-58455461D01*
X84481461Y-58302033D01*
X84608999Y-58126492D01*
X84707506Y-57933160D01*
X84774557Y-57726800D01*
X84808500Y-57512490D01*
X84808500Y-57295510D01*
X84774557Y-57081200D01*
X84757086Y-57027429D01*
X84750265Y-57006436D01*
X84748238Y-56935468D01*
X84784900Y-56874671D01*
X84848612Y-56843345D01*
X84870098Y-56841500D01*
X116390577Y-56841500D01*
X116458698Y-56861502D01*
X116479672Y-56878405D01*
X117006375Y-57405108D01*
X117094892Y-57493625D01*
X117198978Y-57563173D01*
X117314631Y-57611078D01*
X117314635Y-57611078D01*
X117314636Y-57611079D01*
X117335000Y-57615130D01*
X117335001Y-57615130D01*
X117437409Y-57635501D01*
X117437414Y-57635501D01*
X117568804Y-57635501D01*
X117568824Y-57635500D01*
X118684577Y-57635500D01*
X118752698Y-57655502D01*
X118773672Y-57672405D01*
X119167104Y-58065837D01*
X119201130Y-58128149D01*
X119201588Y-58130350D01*
X119222570Y-58235831D01*
X119283517Y-58382968D01*
X119371997Y-58515389D01*
X119371998Y-58515390D01*
X119372003Y-58515396D01*
X119484603Y-58627996D01*
X119484609Y-58628001D01*
X119484611Y-58628003D01*
X119617032Y-58716483D01*
X119764169Y-58777430D01*
X119920370Y-58808500D01*
X119920371Y-58808500D01*
X120079629Y-58808500D01*
X120079630Y-58808500D01*
X120235831Y-58777430D01*
X120382968Y-58716483D01*
X120515389Y-58628003D01*
X120628003Y-58515389D01*
X120716483Y-58382968D01*
X120777430Y-58235831D01*
X120808500Y-58079630D01*
X120808500Y-57920370D01*
X120777430Y-57764169D01*
X120716483Y-57617032D01*
X120628003Y-57484611D01*
X120628001Y-57484609D01*
X120627996Y-57484603D01*
X120515396Y-57372003D01*
X120515390Y-57371998D01*
X120400921Y-57295513D01*
X120382968Y-57283517D01*
X120235831Y-57222570D01*
X120194382Y-57214325D01*
X120130350Y-57201588D01*
X120113323Y-57192681D01*
X120094547Y-57188597D01*
X120069107Y-57169552D01*
X120067440Y-57168680D01*
X120065837Y-57167104D01*
X119842100Y-56943367D01*
X121873500Y-56943367D01*
X121873500Y-57102632D01*
X121886638Y-57168680D01*
X121904570Y-57258831D01*
X121965517Y-57405968D01*
X122036692Y-57512490D01*
X122053998Y-57538390D01*
X122054003Y-57538396D01*
X122166603Y-57650996D01*
X122166609Y-57651001D01*
X122166611Y-57651003D01*
X122299032Y-57739483D01*
X122446169Y-57800430D01*
X122602370Y-57831500D01*
X122602371Y-57831500D01*
X122761629Y-57831500D01*
X122761630Y-57831500D01*
X122917831Y-57800430D01*
X123064968Y-57739483D01*
X123197389Y-57651003D01*
X123310003Y-57538389D01*
X123398483Y-57405968D01*
X123459430Y-57258831D01*
X123490500Y-57102630D01*
X123490500Y-56943370D01*
X123459430Y-56787169D01*
X123398483Y-56640032D01*
X123310003Y-56507611D01*
X123310001Y-56507609D01*
X123309996Y-56507603D01*
X123197396Y-56395003D01*
X123197390Y-56394998D01*
X123197389Y-56394997D01*
X123064968Y-56306517D01*
X122917831Y-56245570D01*
X122839730Y-56230035D01*
X122761632Y-56214500D01*
X122761630Y-56214500D01*
X122602370Y-56214500D01*
X122602367Y-56214500D01*
X122485219Y-56237802D01*
X122446169Y-56245570D01*
X122446167Y-56245571D01*
X122299032Y-56306517D01*
X122166609Y-56394998D01*
X122166603Y-56395003D01*
X122054003Y-56507603D01*
X122053998Y-56507609D01*
X121965517Y-56640032D01*
X121904571Y-56787167D01*
X121904570Y-56787170D01*
X121873500Y-56943367D01*
X119842100Y-56943367D01*
X119405110Y-56506377D01*
X119405108Y-56506375D01*
X119301022Y-56436827D01*
X119200038Y-56394998D01*
X119185374Y-56388924D01*
X119185369Y-56388922D01*
X119062593Y-56364500D01*
X119062591Y-56364500D01*
X117815423Y-56364500D01*
X117747302Y-56344498D01*
X117726328Y-56327595D01*
X117111110Y-55712377D01*
X117111108Y-55712375D01*
X117007022Y-55642827D01*
X116891369Y-55594922D01*
X116768593Y-55570500D01*
X116768591Y-55570500D01*
X84822621Y-55570500D01*
X84754500Y-55550498D01*
X84708007Y-55496842D01*
X84697903Y-55426568D01*
X84706216Y-55396274D01*
X84707504Y-55393164D01*
X84707504Y-55393163D01*
X84707506Y-55393160D01*
X84774557Y-55186800D01*
X84808500Y-54972490D01*
X84808500Y-54755510D01*
X84774557Y-54541200D01*
X84707506Y-54334840D01*
X84608999Y-54141508D01*
X84481461Y-53965967D01*
X84481458Y-53965964D01*
X84481456Y-53965961D01*
X84328038Y-53812543D01*
X84328035Y-53812541D01*
X84328033Y-53812539D01*
X84167541Y-53695934D01*
X84124188Y-53639714D01*
X84118113Y-53568978D01*
X84151244Y-53506186D01*
X84167538Y-53492067D01*
X84328033Y-53375461D01*
X84481461Y-53222033D01*
X84608999Y-53046492D01*
X84707506Y-52853160D01*
X84774557Y-52646800D01*
X84808500Y-52432490D01*
X84808500Y-52371367D01*
X120730500Y-52371367D01*
X120730500Y-52371370D01*
X120730500Y-52530630D01*
X120761570Y-52686831D01*
X120822517Y-52833968D01*
X120835341Y-52853160D01*
X120910998Y-52966390D01*
X120911003Y-52966396D01*
X121023603Y-53078996D01*
X121023609Y-53079001D01*
X121023611Y-53079003D01*
X121156032Y-53167483D01*
X121303169Y-53228430D01*
X121459370Y-53259500D01*
X121459371Y-53259500D01*
X121618629Y-53259500D01*
X121618630Y-53259500D01*
X121774831Y-53228430D01*
X121921968Y-53167483D01*
X122054389Y-53079003D01*
X122167003Y-52966389D01*
X122255483Y-52833968D01*
X122316430Y-52686831D01*
X122347500Y-52530630D01*
X122347500Y-52371370D01*
X122316430Y-52215169D01*
X122255483Y-52068032D01*
X122167003Y-51935611D01*
X122167001Y-51935609D01*
X122166996Y-51935603D01*
X122054396Y-51823003D01*
X122054390Y-51822998D01*
X122054389Y-51822997D01*
X121921968Y-51734517D01*
X121774831Y-51673570D01*
X121696730Y-51658035D01*
X121618632Y-51642500D01*
X121618630Y-51642500D01*
X121459370Y-51642500D01*
X121459367Y-51642500D01*
X121342219Y-51665802D01*
X121303169Y-51673570D01*
X121303167Y-51673571D01*
X121156032Y-51734517D01*
X121023609Y-51822998D01*
X121023603Y-51823003D01*
X120911003Y-51935603D01*
X120910998Y-51935609D01*
X120822517Y-52068032D01*
X120761571Y-52215167D01*
X120761570Y-52215170D01*
X120730500Y-52371367D01*
X84808500Y-52371367D01*
X84808500Y-52215510D01*
X84774557Y-52001200D01*
X84707506Y-51794840D01*
X84608999Y-51601508D01*
X84481461Y-51425967D01*
X84481458Y-51425964D01*
X84481456Y-51425961D01*
X84409941Y-51354446D01*
X149581500Y-51354446D01*
X149581500Y-53145544D01*
X149592112Y-53249425D01*
X149647885Y-53417738D01*
X149740970Y-53568652D01*
X149740975Y-53568658D01*
X149866341Y-53694024D01*
X149866347Y-53694029D01*
X149866348Y-53694030D01*
X150017262Y-53787115D01*
X150185574Y-53842887D01*
X150289455Y-53853500D01*
X151630544Y-53853499D01*
X151734426Y-53842887D01*
X151902738Y-53787115D01*
X152053652Y-53694030D01*
X152179030Y-53568652D01*
X152272115Y-53417738D01*
X152272116Y-53417733D01*
X152273087Y-53416160D01*
X152325872Y-53368681D01*
X152395947Y-53357278D01*
X152461063Y-53385570D01*
X152469423Y-53393211D01*
X152602291Y-53526079D01*
X152777768Y-53653569D01*
X152971030Y-53752041D01*
X152971036Y-53752044D01*
X153177314Y-53819067D01*
X153177312Y-53819067D01*
X153246000Y-53829946D01*
X153246000Y-52790399D01*
X153270339Y-52804452D01*
X153421667Y-52845000D01*
X153578333Y-52845000D01*
X153729661Y-52804452D01*
X153754000Y-52790399D01*
X153754000Y-53829946D01*
X153822686Y-53819067D01*
X154028963Y-53752044D01*
X154028969Y-53752041D01*
X154222231Y-53653569D01*
X154397708Y-53526079D01*
X154551079Y-53372708D01*
X154678569Y-53197231D01*
X154777041Y-53003969D01*
X154777044Y-53003963D01*
X154844067Y-52797687D01*
X154878000Y-52583447D01*
X154878000Y-52504000D01*
X154040400Y-52504000D01*
X154054452Y-52479661D01*
X154095000Y-52328333D01*
X154095000Y-52171667D01*
X154054452Y-52020339D01*
X154040400Y-51996000D01*
X154878000Y-51996000D01*
X154878000Y-51916552D01*
X154844067Y-51702312D01*
X154777044Y-51496036D01*
X154777041Y-51496030D01*
X154678569Y-51302768D01*
X154551079Y-51127291D01*
X154397708Y-50973920D01*
X154222231Y-50846430D01*
X154028969Y-50747958D01*
X154028963Y-50747955D01*
X153822681Y-50680930D01*
X153754000Y-50670051D01*
X153754000Y-51709600D01*
X153729661Y-51695548D01*
X153578333Y-51655000D01*
X153421667Y-51655000D01*
X153270339Y-51695548D01*
X153246000Y-51709600D01*
X153246000Y-50670051D01*
X153177318Y-50680930D01*
X152971036Y-50747955D01*
X152971030Y-50747958D01*
X152777768Y-50846430D01*
X152602294Y-50973918D01*
X152469423Y-51106789D01*
X152407111Y-51140814D01*
X152336295Y-51135749D01*
X152279460Y-51093202D01*
X152273087Y-51083840D01*
X152272116Y-51082266D01*
X152272115Y-51082262D01*
X152179030Y-50931348D01*
X152179029Y-50931347D01*
X152179024Y-50931341D01*
X152053658Y-50805975D01*
X152053652Y-50805970D01*
X151902738Y-50712885D01*
X151806302Y-50680930D01*
X151734427Y-50657113D01*
X151734420Y-50657112D01*
X151630553Y-50646500D01*
X150289455Y-50646500D01*
X150185574Y-50657112D01*
X150017261Y-50712885D01*
X149866347Y-50805970D01*
X149866341Y-50805975D01*
X149740975Y-50931341D01*
X149740970Y-50931347D01*
X149647885Y-51082262D01*
X149592113Y-51250572D01*
X149592112Y-51250579D01*
X149581500Y-51354446D01*
X84409941Y-51354446D01*
X84328038Y-51272543D01*
X84328035Y-51272541D01*
X84328033Y-51272539D01*
X84167541Y-51155934D01*
X84124188Y-51099714D01*
X84118113Y-51028978D01*
X84151244Y-50966186D01*
X84167538Y-50952067D01*
X84328033Y-50835461D01*
X84481461Y-50682033D01*
X84608999Y-50506492D01*
X84707506Y-50313160D01*
X84774557Y-50106800D01*
X84808500Y-49892490D01*
X84808500Y-49675510D01*
X84774557Y-49461200D01*
X84757273Y-49408006D01*
X137581100Y-49408006D01*
X137581100Y-49591994D01*
X137609883Y-49773718D01*
X137609884Y-49773722D01*
X137648472Y-49892486D01*
X137666738Y-49948702D01*
X137750267Y-50112637D01*
X137750269Y-50112640D01*
X137858414Y-50261489D01*
X137988510Y-50391585D01*
X137988513Y-50391587D01*
X138137363Y-50499733D01*
X138301298Y-50583262D01*
X138476282Y-50640117D01*
X138658006Y-50668900D01*
X138658008Y-50668900D01*
X138841992Y-50668900D01*
X138841994Y-50668900D01*
X139023718Y-50640117D01*
X139198702Y-50583262D01*
X139362637Y-50499733D01*
X139511487Y-50391587D01*
X139641587Y-50261487D01*
X139749733Y-50112637D01*
X139833262Y-49948702D01*
X139890117Y-49773718D01*
X139918900Y-49591994D01*
X139918900Y-49408006D01*
X139890117Y-49226282D01*
X139833262Y-49051298D01*
X139749733Y-48887363D01*
X139723019Y-48850595D01*
X139679685Y-48790950D01*
X142581100Y-48790950D01*
X142581100Y-50209049D01*
X142587609Y-50269596D01*
X142587611Y-50269604D01*
X142638710Y-50406602D01*
X142638712Y-50406607D01*
X142726338Y-50523661D01*
X142843392Y-50611287D01*
X142843394Y-50611288D01*
X142843396Y-50611289D01*
X142902475Y-50633324D01*
X142980395Y-50662388D01*
X142980403Y-50662390D01*
X143040950Y-50668899D01*
X143040955Y-50668899D01*
X143040962Y-50668900D01*
X143040968Y-50668900D01*
X144459032Y-50668900D01*
X144459038Y-50668900D01*
X144459045Y-50668899D01*
X144459049Y-50668899D01*
X144519596Y-50662390D01*
X144519599Y-50662389D01*
X144519601Y-50662389D01*
X144656604Y-50611289D01*
X144773661Y-50523661D01*
X144861289Y-50406604D01*
X144912389Y-50269601D01*
X144913262Y-50261489D01*
X144918899Y-50209049D01*
X144918900Y-50209032D01*
X144918900Y-48790967D01*
X144918899Y-48790950D01*
X144912390Y-48730403D01*
X144912388Y-48730395D01*
X144877113Y-48635821D01*
X144861289Y-48593396D01*
X144861288Y-48593394D01*
X144861287Y-48593392D01*
X144773661Y-48476338D01*
X144656607Y-48388712D01*
X144656602Y-48388710D01*
X144519604Y-48337611D01*
X144519596Y-48337609D01*
X144459049Y-48331100D01*
X144459038Y-48331100D01*
X143040962Y-48331100D01*
X143040950Y-48331100D01*
X142980403Y-48337609D01*
X142980395Y-48337611D01*
X142843397Y-48388710D01*
X142843392Y-48388712D01*
X142726338Y-48476338D01*
X142638712Y-48593392D01*
X142638710Y-48593397D01*
X142587611Y-48730395D01*
X142587609Y-48730403D01*
X142581100Y-48790950D01*
X139679685Y-48790950D01*
X139641585Y-48738510D01*
X139511489Y-48608414D01*
X139362640Y-48500269D01*
X139362639Y-48500268D01*
X139362637Y-48500267D01*
X139198702Y-48416738D01*
X139198699Y-48416737D01*
X139198697Y-48416736D01*
X139023722Y-48359884D01*
X139023720Y-48359883D01*
X139023718Y-48359883D01*
X138841994Y-48331100D01*
X138658006Y-48331100D01*
X138476282Y-48359883D01*
X138476280Y-48359883D01*
X138476277Y-48359884D01*
X138301302Y-48416736D01*
X138301296Y-48416739D01*
X138137359Y-48500269D01*
X137988510Y-48608414D01*
X137858414Y-48738510D01*
X137750269Y-48887359D01*
X137666739Y-49051296D01*
X137666736Y-49051302D01*
X137609884Y-49226277D01*
X137609883Y-49226280D01*
X137609883Y-49226282D01*
X137581100Y-49408006D01*
X84757273Y-49408006D01*
X84707506Y-49254840D01*
X84608999Y-49061508D01*
X84481461Y-48885967D01*
X84481458Y-48885964D01*
X84481456Y-48885961D01*
X84446090Y-48850595D01*
X84412064Y-48788283D01*
X84417129Y-48717468D01*
X84459676Y-48660632D01*
X84526196Y-48635821D01*
X84535185Y-48635500D01*
X96562590Y-48635500D01*
X96562591Y-48635500D01*
X96685369Y-48611078D01*
X96801022Y-48563173D01*
X96905108Y-48493625D01*
X97565839Y-47832892D01*
X97628150Y-47798869D01*
X97630293Y-47798422D01*
X97735831Y-47777430D01*
X97735834Y-47777428D01*
X97735837Y-47777428D01*
X97882963Y-47716485D01*
X97882962Y-47716485D01*
X97882968Y-47716483D01*
X98015389Y-47628003D01*
X98128003Y-47515389D01*
X98216483Y-47382968D01*
X98277430Y-47235831D01*
X98308500Y-47079630D01*
X98308500Y-46920370D01*
X98277430Y-46764169D01*
X98216483Y-46617032D01*
X98128003Y-46484611D01*
X98128001Y-46484609D01*
X98127996Y-46484603D01*
X98015396Y-46372003D01*
X98015390Y-46371998D01*
X98015389Y-46371997D01*
X97882968Y-46283517D01*
X97735831Y-46222570D01*
X97657730Y-46207035D01*
X97579632Y-46191500D01*
X97579630Y-46191500D01*
X97420370Y-46191500D01*
X97420367Y-46191500D01*
X97303219Y-46214802D01*
X97264169Y-46222570D01*
X97264167Y-46222571D01*
X97117032Y-46283517D01*
X96984609Y-46371998D01*
X96984603Y-46372003D01*
X96872003Y-46484603D01*
X96871998Y-46484609D01*
X96783517Y-46617032D01*
X96722570Y-46764168D01*
X96701588Y-46869648D01*
X96668679Y-46932557D01*
X96667105Y-46934160D01*
X96273672Y-47327595D01*
X96211360Y-47361620D01*
X96184576Y-47364500D01*
X79542391Y-47364500D01*
X79474270Y-47344498D01*
X79472390Y-47343266D01*
X79439887Y-47321548D01*
X79382968Y-47283517D01*
X79235831Y-47222570D01*
X79157730Y-47207035D01*
X79079632Y-47191500D01*
X79079630Y-47191500D01*
X78920370Y-47191500D01*
X78920367Y-47191500D01*
X78803219Y-47214802D01*
X78764169Y-47222570D01*
X78732155Y-47235831D01*
X78617032Y-47283517D01*
X78484609Y-47371998D01*
X78484603Y-47372003D01*
X78372003Y-47484603D01*
X78371998Y-47484609D01*
X78371997Y-47484611D01*
X78283517Y-47617032D01*
X78242323Y-47716483D01*
X78222571Y-47764167D01*
X78222570Y-47764170D01*
X78191500Y-47920367D01*
X78191500Y-47920370D01*
X78191500Y-48079630D01*
X78222570Y-48235831D01*
X78283517Y-48382968D01*
X78371997Y-48515389D01*
X78371998Y-48515390D01*
X78372003Y-48515396D01*
X78484603Y-48627996D01*
X78484609Y-48628001D01*
X78484611Y-48628003D01*
X78617032Y-48716483D01*
X78764169Y-48777430D01*
X78920370Y-48808500D01*
X78920371Y-48808500D01*
X79079629Y-48808500D01*
X79079630Y-48808500D01*
X79235831Y-48777430D01*
X79382968Y-48716483D01*
X79472390Y-48656734D01*
X79540143Y-48635520D01*
X79542391Y-48635500D01*
X81874815Y-48635500D01*
X81942936Y-48655502D01*
X81989429Y-48709158D01*
X81999533Y-48779432D01*
X81970039Y-48844012D01*
X81963910Y-48850595D01*
X81928543Y-48885961D01*
X81928541Y-48885964D01*
X81801003Y-49061504D01*
X81702493Y-49254841D01*
X81652727Y-49408006D01*
X81635443Y-49461200D01*
X81601500Y-49675510D01*
X81601500Y-49892490D01*
X81635443Y-50106800D01*
X81635444Y-50106803D01*
X81688341Y-50269604D01*
X81702494Y-50313160D01*
X81801001Y-50506492D01*
X81928539Y-50682033D01*
X81928541Y-50682035D01*
X81928543Y-50682038D01*
X82081961Y-50835456D01*
X82081964Y-50835458D01*
X82081967Y-50835461D01*
X82212092Y-50930002D01*
X82242457Y-50952064D01*
X82285811Y-51008286D01*
X82291886Y-51079023D01*
X82258754Y-51141814D01*
X82242457Y-51155936D01*
X82081964Y-51272541D01*
X82081961Y-51272543D01*
X81928543Y-51425961D01*
X81928541Y-51425964D01*
X81801003Y-51601504D01*
X81702493Y-51794841D01*
X81635444Y-52001196D01*
X81635443Y-52001200D01*
X81601500Y-52215510D01*
X81601500Y-52432490D01*
X81635443Y-52646800D01*
X81635444Y-52646803D01*
X81699842Y-52845000D01*
X81702494Y-52853160D01*
X81760190Y-52966396D01*
X81801003Y-53046495D01*
X81824620Y-53079001D01*
X81928539Y-53222033D01*
X81928541Y-53222035D01*
X81928543Y-53222038D01*
X82081961Y-53375456D01*
X82081964Y-53375458D01*
X82081967Y-53375461D01*
X82172862Y-53441500D01*
X82242457Y-53492064D01*
X82285811Y-53548286D01*
X82291886Y-53619023D01*
X82258754Y-53681814D01*
X82242457Y-53695936D01*
X82081964Y-53812541D01*
X82081961Y-53812543D01*
X81928543Y-53965961D01*
X81928541Y-53965964D01*
X81801003Y-54141504D01*
X81702493Y-54334841D01*
X81653433Y-54485832D01*
X81635443Y-54541200D01*
X81601500Y-54755510D01*
X81601500Y-54972490D01*
X81635443Y-55186800D01*
X81635444Y-55186803D01*
X81702495Y-55393164D01*
X81703784Y-55396274D01*
X81703921Y-55397552D01*
X81704024Y-55397868D01*
X81703957Y-55397889D01*
X81711379Y-55466863D01*
X81679604Y-55530352D01*
X81618548Y-55566584D01*
X81587379Y-55570500D01*
X77771423Y-55570500D01*
X77703302Y-55550498D01*
X77682328Y-55533595D01*
X76332894Y-54184161D01*
X76298868Y-54121849D01*
X76298421Y-54119702D01*
X76277430Y-54014169D01*
X76277428Y-54014166D01*
X76277428Y-54014162D01*
X76216485Y-53867036D01*
X76216483Y-53867032D01*
X76180075Y-53812543D01*
X76128003Y-53734611D01*
X76128001Y-53734609D01*
X76127996Y-53734603D01*
X76015396Y-53622003D01*
X76015390Y-53621998D01*
X76010938Y-53619023D01*
X75882968Y-53533517D01*
X75735831Y-53472570D01*
X75657730Y-53457035D01*
X75579632Y-53441500D01*
X75579630Y-53441500D01*
X75420370Y-53441500D01*
X75420367Y-53441500D01*
X75303219Y-53464802D01*
X75264169Y-53472570D01*
X75264167Y-53472571D01*
X75117032Y-53533517D01*
X74984609Y-53621998D01*
X74984603Y-53622003D01*
X74872003Y-53734603D01*
X74871998Y-53734609D01*
X74836916Y-53787114D01*
X74783517Y-53867032D01*
X74742538Y-53965964D01*
X74722571Y-54014167D01*
X74722570Y-54014170D01*
X74691500Y-54170367D01*
X59101500Y-54170367D01*
X59101500Y-44624367D01*
X130509500Y-44624367D01*
X130509500Y-44624370D01*
X130509500Y-44783630D01*
X130540570Y-44939831D01*
X130601517Y-45086968D01*
X130689997Y-45219389D01*
X130689998Y-45219390D01*
X130690003Y-45219396D01*
X130802603Y-45331996D01*
X130802609Y-45332001D01*
X130802611Y-45332003D01*
X130935032Y-45420483D01*
X131082169Y-45481430D01*
X131238370Y-45512500D01*
X131238371Y-45512500D01*
X131397629Y-45512500D01*
X131397630Y-45512500D01*
X131553831Y-45481430D01*
X131700968Y-45420483D01*
X131833389Y-45332003D01*
X131946003Y-45219389D01*
X131978758Y-45170367D01*
X152941500Y-45170367D01*
X152941500Y-45329632D01*
X152941972Y-45332003D01*
X152972570Y-45485831D01*
X153033517Y-45632968D01*
X153121997Y-45765389D01*
X153121998Y-45765390D01*
X153122003Y-45765396D01*
X153234603Y-45877996D01*
X153234609Y-45878001D01*
X153234611Y-45878003D01*
X153367032Y-45966483D01*
X153514169Y-46027430D01*
X153670370Y-46058500D01*
X153670371Y-46058500D01*
X153829629Y-46058500D01*
X153829630Y-46058500D01*
X153985831Y-46027430D01*
X154132968Y-45966483D01*
X154265389Y-45878003D01*
X154378003Y-45765389D01*
X154466483Y-45632968D01*
X154527430Y-45485831D01*
X154558500Y-45329630D01*
X154558500Y-45170370D01*
X154527430Y-45014169D01*
X154466483Y-44867032D01*
X154378003Y-44734611D01*
X154378001Y-44734609D01*
X154377996Y-44734603D01*
X154265396Y-44622003D01*
X154265390Y-44621998D01*
X154265389Y-44621997D01*
X154132968Y-44533517D01*
X153985831Y-44472570D01*
X153907730Y-44457035D01*
X153829632Y-44441500D01*
X153829630Y-44441500D01*
X153670370Y-44441500D01*
X153670367Y-44441500D01*
X153553219Y-44464802D01*
X153514169Y-44472570D01*
X153514167Y-44472571D01*
X153367032Y-44533517D01*
X153234609Y-44621998D01*
X153234603Y-44622003D01*
X153122003Y-44734603D01*
X153121998Y-44734609D01*
X153033517Y-44867032D01*
X152972571Y-45014167D01*
X152972570Y-45014170D01*
X152941500Y-45170367D01*
X131978758Y-45170367D01*
X132034483Y-45086968D01*
X132095430Y-44939831D01*
X132126500Y-44783630D01*
X132126500Y-44624370D01*
X132095430Y-44468169D01*
X132034483Y-44321032D01*
X131946003Y-44188611D01*
X131946001Y-44188609D01*
X131945996Y-44188603D01*
X131833396Y-44076003D01*
X131833390Y-44075998D01*
X131833389Y-44075997D01*
X131700968Y-43987517D01*
X131553831Y-43926570D01*
X131475730Y-43911035D01*
X131397632Y-43895500D01*
X131397630Y-43895500D01*
X131238370Y-43895500D01*
X131238367Y-43895500D01*
X131121219Y-43918802D01*
X131082169Y-43926570D01*
X131082167Y-43926571D01*
X130935032Y-43987517D01*
X130802609Y-44075998D01*
X130802603Y-44076003D01*
X130690003Y-44188603D01*
X130689998Y-44188609D01*
X130689997Y-44188611D01*
X130601517Y-44321032D01*
X130540570Y-44468169D01*
X130532802Y-44507219D01*
X130509500Y-44624367D01*
X59101500Y-44624367D01*
X59101500Y-41322367D01*
X61167500Y-41322367D01*
X61167500Y-41322370D01*
X61167500Y-41481630D01*
X61198570Y-41637831D01*
X61259517Y-41784968D01*
X61347997Y-41917389D01*
X61347998Y-41917390D01*
X61348003Y-41917396D01*
X61460603Y-42029996D01*
X61460609Y-42030001D01*
X61460611Y-42030003D01*
X61593032Y-42118483D01*
X61740169Y-42179430D01*
X61896370Y-42210500D01*
X61896371Y-42210500D01*
X62055629Y-42210500D01*
X62055630Y-42210500D01*
X62211831Y-42179430D01*
X62358968Y-42118483D01*
X62491389Y-42030003D01*
X62604003Y-41917389D01*
X62692483Y-41784968D01*
X62753430Y-41637831D01*
X62784500Y-41481630D01*
X62784500Y-41322370D01*
X62753430Y-41166169D01*
X62692483Y-41019032D01*
X62604003Y-40886611D01*
X62604001Y-40886609D01*
X62603996Y-40886603D01*
X62491396Y-40774003D01*
X62491390Y-40773998D01*
X62483862Y-40768968D01*
X62358968Y-40685517D01*
X62211831Y-40624570D01*
X62133730Y-40609035D01*
X62055632Y-40593500D01*
X62055630Y-40593500D01*
X61896370Y-40593500D01*
X61896367Y-40593500D01*
X61779219Y-40616802D01*
X61740169Y-40624570D01*
X61593032Y-40685517D01*
X61460609Y-40773998D01*
X61460603Y-40774003D01*
X61348003Y-40886603D01*
X61347998Y-40886609D01*
X61338122Y-40901390D01*
X61259517Y-41019032D01*
X61199706Y-41163428D01*
X61198571Y-41166167D01*
X61198570Y-41166170D01*
X61167500Y-41322367D01*
X59101500Y-41322367D01*
X59101500Y-39798367D01*
X66501500Y-39798367D01*
X66501500Y-39798370D01*
X66501500Y-39957630D01*
X66532570Y-40113831D01*
X66593517Y-40260968D01*
X66681997Y-40393389D01*
X66681998Y-40393390D01*
X66682003Y-40393396D01*
X66794603Y-40505996D01*
X66794609Y-40506001D01*
X66794611Y-40506003D01*
X66927032Y-40594483D01*
X67074169Y-40655430D01*
X67230370Y-40686500D01*
X67230371Y-40686500D01*
X67389629Y-40686500D01*
X67389630Y-40686500D01*
X67545831Y-40655430D01*
X67692968Y-40594483D01*
X67825389Y-40506003D01*
X67938003Y-40393389D01*
X67996149Y-40306367D01*
X70692500Y-40306367D01*
X70692500Y-40465632D01*
X70708035Y-40543730D01*
X70723570Y-40621831D01*
X70784517Y-40768968D01*
X70863123Y-40886611D01*
X70872998Y-40901390D01*
X70873003Y-40901396D01*
X70985603Y-41013996D01*
X70985609Y-41014001D01*
X70985611Y-41014003D01*
X71118032Y-41102483D01*
X71265169Y-41163430D01*
X71421370Y-41194500D01*
X71421371Y-41194500D01*
X71580629Y-41194500D01*
X71580630Y-41194500D01*
X71736831Y-41163430D01*
X71883968Y-41102483D01*
X72016389Y-41014003D01*
X72129003Y-40901389D01*
X72217483Y-40768968D01*
X72278430Y-40621831D01*
X72309500Y-40465630D01*
X72309500Y-40306370D01*
X72278430Y-40150169D01*
X72217483Y-40003032D01*
X72129003Y-39870611D01*
X72129001Y-39870609D01*
X72128996Y-39870603D01*
X72016396Y-39758003D01*
X72016390Y-39757998D01*
X72016389Y-39757997D01*
X71883968Y-39669517D01*
X71736831Y-39608570D01*
X71658730Y-39593035D01*
X71580632Y-39577500D01*
X71580630Y-39577500D01*
X71421370Y-39577500D01*
X71421367Y-39577500D01*
X71304219Y-39600802D01*
X71265169Y-39608570D01*
X71265167Y-39608571D01*
X71118032Y-39669517D01*
X70985609Y-39757998D01*
X70985603Y-39758003D01*
X70873003Y-39870603D01*
X70872998Y-39870609D01*
X70872997Y-39870611D01*
X70784517Y-40003032D01*
X70738622Y-40113832D01*
X70723571Y-40150167D01*
X70723570Y-40150170D01*
X70692500Y-40306367D01*
X67996149Y-40306367D01*
X68026483Y-40260968D01*
X68087430Y-40113831D01*
X68118500Y-39957630D01*
X68118500Y-39798370D01*
X68087430Y-39642169D01*
X68026483Y-39495032D01*
X67938003Y-39362611D01*
X67938001Y-39362609D01*
X67937996Y-39362603D01*
X67825396Y-39250003D01*
X67825390Y-39249998D01*
X67825389Y-39249997D01*
X67692968Y-39161517D01*
X67545831Y-39100570D01*
X67467730Y-39085035D01*
X67389632Y-39069500D01*
X67389630Y-39069500D01*
X67230370Y-39069500D01*
X67230367Y-39069500D01*
X67113219Y-39092802D01*
X67074169Y-39100570D01*
X67074167Y-39100571D01*
X66927032Y-39161517D01*
X66794609Y-39249998D01*
X66794603Y-39250003D01*
X66682003Y-39362603D01*
X66681998Y-39362609D01*
X66593517Y-39495032D01*
X66532571Y-39642167D01*
X66532570Y-39642170D01*
X66501500Y-39798367D01*
X59101500Y-39798367D01*
X59101500Y-38099000D01*
X59121502Y-38030879D01*
X59175158Y-37984386D01*
X59227500Y-37973000D01*
X84726000Y-37973000D01*
X84794121Y-37993002D01*
G37*
G04 #@! TD.AperFunction*
G04 #@! TD*
M02*
