G04 #@! TF.GenerationSoftware,KiCad,Pcbnew,9.0.5*
G04 #@! TF.CreationDate,2025-11-03T15:22:29-06:00*
G04 #@! TF.ProjectId,T25_445PCB,5432355f-3434-4355-9043-422e6b696361,rev?*
G04 #@! TF.SameCoordinates,Original*
G04 #@! TF.FileFunction,Paste,Top*
G04 #@! TF.FilePolarity,Positive*
%FSLAX46Y46*%
G04 Gerber Fmt 4.6, Leading zero omitted, Abs format (unit mm)*
G04 Created by KiCad (PCBNEW 9.0.5) date 2025-11-03 15:22:29*
%MOMM*%
%LPD*%
G01*
G04 APERTURE LIST*
G04 Aperture macros list*
%AMRoundRect*
0 Rectangle with rounded corners*
0 $1 Rounding radius*
0 $2 $3 $4 $5 $6 $7 $8 $9 X,Y pos of 4 corners*
0 Add a 4 corners polygon primitive as box body*
4,1,4,$2,$3,$4,$5,$6,$7,$8,$9,$2,$3,0*
0 Add four circle primitives for the rounded corners*
1,1,$1+$1,$2,$3*
1,1,$1+$1,$4,$5*
1,1,$1+$1,$6,$7*
1,1,$1+$1,$8,$9*
0 Add four rect primitives between the rounded corners*
20,1,$1+$1,$2,$3,$4,$5,0*
20,1,$1+$1,$4,$5,$6,$7,0*
20,1,$1+$1,$6,$7,$8,$9,0*
20,1,$1+$1,$8,$9,$2,$3,0*%
G04 Aperture macros list end*
%ADD10RoundRect,0.250000X-0.350000X-0.450000X0.350000X-0.450000X0.350000X0.450000X-0.350000X0.450000X0*%
%ADD11RoundRect,0.250000X-0.475000X0.337500X-0.475000X-0.337500X0.475000X-0.337500X0.475000X0.337500X0*%
%ADD12RoundRect,0.250000X0.350000X0.450000X-0.350000X0.450000X-0.350000X-0.450000X0.350000X-0.450000X0*%
%ADD13RoundRect,0.250000X0.450000X-0.350000X0.450000X0.350000X-0.450000X0.350000X-0.450000X-0.350000X0*%
%ADD14RoundRect,0.250000X-0.450000X0.350000X-0.450000X-0.350000X0.450000X-0.350000X0.450000X0.350000X0*%
%ADD15RoundRect,0.250000X0.475000X-0.337500X0.475000X0.337500X-0.475000X0.337500X-0.475000X-0.337500X0*%
%ADD16RoundRect,0.250000X-0.337500X-0.475000X0.337500X-0.475000X0.337500X0.475000X-0.337500X0.475000X0*%
%ADD17R,1.900000X5.100000*%
%ADD18RoundRect,0.250000X0.337500X0.475000X-0.337500X0.475000X-0.337500X-0.475000X0.337500X-0.475000X0*%
%ADD19R,0.900000X1.000000*%
%ADD20RoundRect,0.075000X-0.910000X-0.225000X0.910000X-0.225000X0.910000X0.225000X-0.910000X0.225000X0*%
%ADD21R,1.350000X0.400000*%
%ADD22R,1.600000X2.100000*%
%ADD23R,1.900000X1.800000*%
%ADD24R,1.900000X1.900000*%
%ADD25RoundRect,0.150000X-0.512500X-0.150000X0.512500X-0.150000X0.512500X0.150000X-0.512500X0.150000X0*%
%ADD26R,0.900000X0.900000*%
%ADD27R,1.500000X0.900000*%
%ADD28R,0.900000X1.500000*%
G04 APERTURE END LIST*
D10*
G04 #@! TO.C,R10*
X140750000Y-55500000D03*
X138750000Y-55500000D03*
G04 #@! TD*
D11*
G04 #@! TO.C,C13*
X145250000Y-54462500D03*
X145250000Y-56537500D03*
G04 #@! TD*
D12*
G04 #@! TO.C,R15*
X102250000Y-88750000D03*
X100250000Y-88750000D03*
G04 #@! TD*
G04 #@! TO.C,R14*
X107000000Y-88750000D03*
X105000000Y-88750000D03*
G04 #@! TD*
D13*
G04 #@! TO.C,R8*
X68750000Y-52000000D03*
X68750000Y-54000000D03*
G04 #@! TD*
D14*
G04 #@! TO.C,R1*
X69000000Y-58750000D03*
X69000000Y-60750000D03*
G04 #@! TD*
D15*
G04 #@! TO.C,C4*
X72750000Y-49962500D03*
X72750000Y-52037500D03*
G04 #@! TD*
D16*
G04 #@! TO.C,C3*
X72462500Y-60750000D03*
X74537500Y-60750000D03*
G04 #@! TD*
D17*
G04 #@! TO.C,L2*
X105150000Y-72500000D03*
X109350000Y-72500000D03*
G04 #@! TD*
G04 #@! TO.C,L1*
X130050000Y-73000000D03*
X134250000Y-73000000D03*
G04 #@! TD*
D11*
G04 #@! TO.C,C8*
X123500000Y-74462500D03*
X123500000Y-76537500D03*
G04 #@! TD*
D18*
G04 #@! TO.C,C28*
X86100500Y-77035000D03*
X84025500Y-77035000D03*
G04 #@! TD*
D14*
G04 #@! TO.C,R4*
X134750000Y-49750000D03*
X134750000Y-51750000D03*
G04 #@! TD*
D12*
G04 #@! TO.C,R7*
X128500000Y-64000000D03*
X126500000Y-64000000D03*
G04 #@! TD*
D19*
G04 #@! TO.C,S2*
X65050000Y-51950000D03*
X65050000Y-53550000D03*
X60950000Y-53550000D03*
X60950000Y-51950000D03*
G04 #@! TD*
D20*
G04 #@! TO.C,U1*
X130530000Y-57095000D03*
X130530000Y-58365000D03*
X130530000Y-59635000D03*
X130530000Y-60905000D03*
X135470000Y-60905000D03*
X135470000Y-59635000D03*
X135470000Y-58365000D03*
X135470000Y-57095000D03*
G04 #@! TD*
D10*
G04 #@! TO.C,R12*
X137000000Y-81500000D03*
X139000000Y-81500000D03*
G04 #@! TD*
D13*
G04 #@! TO.C,R11*
X132500000Y-89000000D03*
X132500000Y-87000000D03*
G04 #@! TD*
D21*
G04 #@! TO.C,J8*
X63580500Y-73080750D03*
X63580500Y-73730750D03*
X63580500Y-74380750D03*
X63580500Y-75030750D03*
X63580500Y-75680750D03*
D22*
X63455500Y-71280750D03*
X63455500Y-77480750D03*
D23*
X60905500Y-70580750D03*
D24*
X60905500Y-73180750D03*
X60905500Y-75580750D03*
D23*
X60905500Y-78180750D03*
G04 #@! TD*
D18*
G04 #@! TO.C,C6*
X102037500Y-80500000D03*
X99962500Y-80500000D03*
G04 #@! TD*
D25*
G04 #@! TO.C,U2*
X129862500Y-79550000D03*
X129862500Y-80500000D03*
X129862500Y-81450000D03*
X132137500Y-81450000D03*
X132137500Y-80500000D03*
X132137500Y-79550000D03*
G04 #@! TD*
D13*
G04 #@! TO.C,R9*
X125000000Y-57000000D03*
X125000000Y-55000000D03*
G04 #@! TD*
D19*
G04 #@! TO.C,S1*
X65050000Y-60700000D03*
X65050000Y-62300000D03*
X60950000Y-62300000D03*
X60950000Y-60700000D03*
G04 #@! TD*
D16*
G04 #@! TO.C,C25*
X150962500Y-88500000D03*
X153037500Y-88500000D03*
G04 #@! TD*
D10*
G04 #@! TO.C,R13*
X114500000Y-81500000D03*
X116500000Y-81500000D03*
G04 #@! TD*
D12*
G04 #@! TO.C,R3*
X94500000Y-85000000D03*
X92500000Y-85000000D03*
G04 #@! TD*
G04 #@! TO.C,R6*
X139500000Y-64000000D03*
X137500000Y-64000000D03*
G04 #@! TD*
D13*
G04 #@! TO.C,R5*
X111000000Y-86000000D03*
X111000000Y-84000000D03*
G04 #@! TD*
D11*
G04 #@! TO.C,C12*
X125000000Y-46962500D03*
X125000000Y-49037500D03*
G04 #@! TD*
G04 #@! TO.C,C10*
X101000000Y-72962500D03*
X101000000Y-75037500D03*
G04 #@! TD*
D15*
G04 #@! TO.C,C23*
X84000000Y-46037500D03*
X84000000Y-43962500D03*
G04 #@! TD*
D18*
G04 #@! TO.C,C29*
X94600500Y-77035000D03*
X92525500Y-77035000D03*
G04 #@! TD*
D11*
G04 #@! TO.C,C9*
X113500000Y-75962500D03*
X113500000Y-78037500D03*
G04 #@! TD*
D26*
G04 #@! TO.C,U5*
X105952000Y-50135000D03*
X105952000Y-51535000D03*
X105952000Y-52935000D03*
X107352000Y-50135000D03*
X107352000Y-51535000D03*
X107352000Y-52935000D03*
X108752000Y-50135000D03*
X108752000Y-51535000D03*
X108752000Y-52935000D03*
D27*
X100102000Y-43815000D03*
X100102000Y-45085000D03*
X100102000Y-46355000D03*
X100102000Y-47625000D03*
X100102000Y-48895000D03*
X100102000Y-50165000D03*
X100102000Y-51435000D03*
X100102000Y-52705000D03*
X100102000Y-53975000D03*
X100102000Y-55245000D03*
X100102000Y-56515000D03*
X100102000Y-57785000D03*
X100102000Y-59055000D03*
X100102000Y-60325000D03*
D28*
X101867000Y-61575000D03*
X103137000Y-61575000D03*
X104407000Y-61575000D03*
X105677000Y-61575000D03*
X106947000Y-61575000D03*
X108217000Y-61575000D03*
X109487000Y-61575000D03*
X110757000Y-61575000D03*
X112027000Y-61575000D03*
X113297000Y-61575000D03*
X114567000Y-61575000D03*
X115837000Y-61575000D03*
D27*
X117602000Y-60325000D03*
X117602000Y-59055000D03*
X117602000Y-57785000D03*
X117602000Y-56515000D03*
X117602000Y-55245000D03*
X117602000Y-53975000D03*
X117602000Y-52705000D03*
X117602000Y-51435000D03*
X117602000Y-50165000D03*
X117602000Y-48895000D03*
X117602000Y-47625000D03*
X117602000Y-46355000D03*
X117602000Y-45085000D03*
X117602000Y-43815000D03*
G04 #@! TD*
D12*
G04 #@! TO.C,R2*
X86000000Y-85000000D03*
X84000000Y-85000000D03*
G04 #@! TD*
D15*
G04 #@! TO.C,C11*
X65975500Y-85459500D03*
X65975500Y-83384500D03*
G04 #@! TD*
G04 #@! TO.C,C22*
X89000000Y-46037500D03*
X89000000Y-43962500D03*
G04 #@! TD*
D11*
G04 #@! TO.C,C5*
X123500000Y-79962500D03*
X123500000Y-82037500D03*
G04 #@! TD*
D15*
G04 #@! TO.C,C7*
X138250000Y-77537500D03*
X138250000Y-75462500D03*
G04 #@! TD*
D16*
G04 #@! TO.C,C19*
X117888000Y-69035000D03*
X119963000Y-69035000D03*
G04 #@! TD*
D25*
G04 #@! TO.C,U3*
X107362500Y-78550000D03*
X107362500Y-79500000D03*
X107362500Y-80450000D03*
X109637500Y-80450000D03*
X109637500Y-79500000D03*
X109637500Y-78550000D03*
G04 #@! TD*
M02*
