G04 #@! TF.GenerationSoftware,KiCad,Pcbnew,9.0.5*
G04 #@! TF.CreationDate,2025-11-03T15:22:29-06:00*
G04 #@! TF.ProjectId,T25_445PCB,5432355f-3434-4355-9043-422e6b696361,rev?*
G04 #@! TF.SameCoordinates,Original*
G04 #@! TF.FileFunction,Soldermask,Top*
G04 #@! TF.FilePolarity,Negative*
%FSLAX46Y46*%
G04 Gerber Fmt 4.6, Leading zero omitted, Abs format (unit mm)*
G04 Created by KiCad (PCBNEW 9.0.5) date 2025-11-03 15:22:29*
%MOMM*%
%LPD*%
G01*
G04 APERTURE LIST*
G04 Aperture macros list*
%AMRoundRect*
0 Rectangle with rounded corners*
0 $1 Rounding radius*
0 $2 $3 $4 $5 $6 $7 $8 $9 X,Y pos of 4 corners*
0 Add a 4 corners polygon primitive as box body*
4,1,4,$2,$3,$4,$5,$6,$7,$8,$9,$2,$3,0*
0 Add four circle primitives for the rounded corners*
1,1,$1+$1,$2,$3*
1,1,$1+$1,$4,$5*
1,1,$1+$1,$6,$7*
1,1,$1+$1,$8,$9*
0 Add four rect primitives between the rounded corners*
20,1,$1+$1,$2,$3,$4,$5,0*
20,1,$1+$1,$4,$5,$6,$7,0*
20,1,$1+$1,$6,$7,$8,$9,0*
20,1,$1+$1,$8,$9,$2,$3,0*%
G04 Aperture macros list end*
%ADD10RoundRect,0.250000X-0.350000X-0.450000X0.350000X-0.450000X0.350000X0.450000X-0.350000X0.450000X0*%
%ADD11RoundRect,0.250000X-0.475000X0.337500X-0.475000X-0.337500X0.475000X-0.337500X0.475000X0.337500X0*%
%ADD12O,1.740000X2.190000*%
%ADD13RoundRect,0.250000X0.620000X0.845000X-0.620000X0.845000X-0.620000X-0.845000X0.620000X-0.845000X0*%
%ADD14C,1.000000*%
%ADD15R,1.320800X1.320800*%
%ADD16C,1.320800*%
%ADD17RoundRect,0.250000X0.350000X0.450000X-0.350000X0.450000X-0.350000X-0.450000X0.350000X-0.450000X0*%
%ADD18RoundRect,0.250000X0.450000X-0.350000X0.450000X0.350000X-0.450000X0.350000X-0.450000X-0.350000X0*%
%ADD19RoundRect,0.250000X-0.450000X0.350000X-0.450000X-0.350000X0.450000X-0.350000X0.450000X0.350000X0*%
%ADD20RoundRect,0.250000X0.475000X-0.337500X0.475000X0.337500X-0.475000X0.337500X-0.475000X-0.337500X0*%
%ADD21RoundRect,0.250000X-0.337500X-0.475000X0.337500X-0.475000X0.337500X0.475000X-0.337500X0.475000X0*%
%ADD22RoundRect,0.102000X0.950000X2.550000X-0.950000X2.550000X-0.950000X-2.550000X0.950000X-2.550000X0*%
%ADD23RoundRect,0.250000X0.337500X0.475000X-0.337500X0.475000X-0.337500X-0.475000X0.337500X-0.475000X0*%
%ADD24R,0.900000X1.000000*%
%ADD25RoundRect,0.250000X0.845000X-0.620000X0.845000X0.620000X-0.845000X0.620000X-0.845000X-0.620000X0*%
%ADD26O,2.190000X1.740000*%
%ADD27RoundRect,0.100500X-0.986500X-0.301500X0.986500X-0.301500X0.986500X0.301500X-0.986500X0.301500X0*%
%ADD28RoundRect,0.102000X-0.675000X0.200000X-0.675000X-0.200000X0.675000X-0.200000X0.675000X0.200000X0*%
%ADD29RoundRect,0.102000X-0.800000X1.050000X-0.800000X-1.050000X0.800000X-1.050000X0.800000X1.050000X0*%
%ADD30RoundRect,0.102000X-0.950000X0.900000X-0.950000X-0.900000X0.950000X-0.900000X0.950000X0.900000X0*%
%ADD31RoundRect,0.102000X-0.950000X0.950000X-0.950000X-0.950000X0.950000X-0.950000X0.950000X0.950000X0*%
%ADD32C,2.000000*%
%ADD33RoundRect,0.250000X-0.620000X-0.845000X0.620000X-0.845000X0.620000X0.845000X-0.620000X0.845000X0*%
%ADD34C,1.500000*%
%ADD35RoundRect,0.150000X-0.512500X-0.150000X0.512500X-0.150000X0.512500X0.150000X-0.512500X0.150000X0*%
%ADD36C,3.200000*%
%ADD37RoundRect,0.250000X-0.550000X-0.550000X0.550000X-0.550000X0.550000X0.550000X-0.550000X0.550000X0*%
%ADD38C,1.600000*%
%ADD39R,1.500000X0.900000*%
%ADD40R,0.900000X1.500000*%
%ADD41C,0.600000*%
%ADD42R,3.900000X3.900000*%
G04 APERTURE END LIST*
D10*
G04 #@! TO.C,R10*
X140750000Y-55500000D03*
X138750000Y-55500000D03*
G04 #@! TD*
D11*
G04 #@! TO.C,C13*
X145250000Y-54462500D03*
X145250000Y-56537500D03*
G04 #@! TD*
D12*
G04 #@! TO.C,J9*
X73250000Y-68750000D03*
D13*
X75790000Y-68750000D03*
G04 #@! TD*
D14*
G04 #@! TO.C,TP10*
X104000000Y-85000000D03*
G04 #@! TD*
D15*
G04 #@! TO.C,C1*
X143750000Y-49500000D03*
D16*
X138750000Y-49500000D03*
G04 #@! TD*
D17*
G04 #@! TO.C,R15*
X102250000Y-88750000D03*
X100250000Y-88750000D03*
G04 #@! TD*
G04 #@! TO.C,R14*
X107000000Y-88750000D03*
X105000000Y-88750000D03*
G04 #@! TD*
D18*
G04 #@! TO.C,R8*
X68750000Y-52000000D03*
X68750000Y-54000000D03*
G04 #@! TD*
D19*
G04 #@! TO.C,R1*
X69000000Y-58750000D03*
X69000000Y-60750000D03*
G04 #@! TD*
D20*
G04 #@! TO.C,C4*
X72750000Y-49962500D03*
X72750000Y-52037500D03*
G04 #@! TD*
D21*
G04 #@! TO.C,C3*
X72462500Y-60750000D03*
X74537500Y-60750000D03*
G04 #@! TD*
D22*
G04 #@! TO.C,L2*
X105150000Y-72500000D03*
X109350000Y-72500000D03*
G04 #@! TD*
G04 #@! TO.C,L1*
X130050000Y-73000000D03*
X134250000Y-73000000D03*
G04 #@! TD*
D11*
G04 #@! TO.C,C8*
X123500000Y-74462500D03*
X123500000Y-76537500D03*
G04 #@! TD*
D23*
G04 #@! TO.C,C28*
X86100500Y-77035000D03*
X84025500Y-77035000D03*
G04 #@! TD*
D19*
G04 #@! TO.C,R4*
X134750000Y-49750000D03*
X134750000Y-51750000D03*
G04 #@! TD*
D14*
G04 #@! TO.C,TP5*
X125000000Y-52000000D03*
G04 #@! TD*
D17*
G04 #@! TO.C,R7*
X128500000Y-64000000D03*
X126500000Y-64000000D03*
G04 #@! TD*
D24*
G04 #@! TO.C,S2*
X65050000Y-51950000D03*
X65050000Y-53550000D03*
X60950000Y-53550000D03*
X60950000Y-51950000D03*
G04 #@! TD*
D25*
G04 #@! TO.C,J7*
X83205000Y-67564000D03*
D26*
X83205000Y-65024000D03*
X83205000Y-62484000D03*
X83205000Y-59944000D03*
X83205000Y-57404000D03*
X83205000Y-54864000D03*
X83205000Y-52324000D03*
X83205000Y-49784000D03*
G04 #@! TD*
D27*
G04 #@! TO.C,U1*
X130530000Y-57095000D03*
X130530000Y-58365000D03*
X130530000Y-59635000D03*
X130530000Y-60905000D03*
X135470000Y-60905000D03*
X135470000Y-59635000D03*
X135470000Y-58365000D03*
X135470000Y-57095000D03*
G04 #@! TD*
D10*
G04 #@! TO.C,R12*
X137000000Y-81500000D03*
X139000000Y-81500000D03*
G04 #@! TD*
D18*
G04 #@! TO.C,R11*
X132500000Y-89000000D03*
X132500000Y-87000000D03*
G04 #@! TD*
D28*
G04 #@! TO.C,J8*
X63580500Y-73080750D03*
X63580500Y-73730750D03*
X63580500Y-74380750D03*
X63580500Y-75030750D03*
X63580500Y-75680750D03*
D29*
X63455500Y-71280750D03*
X63455500Y-77480750D03*
D30*
X60905500Y-70580750D03*
D31*
X60905500Y-73180750D03*
X60905500Y-75580750D03*
D30*
X60905500Y-78180750D03*
G04 #@! TD*
D32*
G04 #@! TO.C,TP17*
X75750000Y-83500000D03*
G04 #@! TD*
D33*
G04 #@! TO.C,J4*
X83566000Y-94107000D03*
D12*
X86106000Y-94107000D03*
G04 #@! TD*
D23*
G04 #@! TO.C,C6*
X102037500Y-80500000D03*
X99962500Y-80500000D03*
G04 #@! TD*
D34*
G04 #@! TO.C,TP2*
X115000000Y-73000000D03*
G04 #@! TD*
D35*
G04 #@! TO.C,U2*
X129862500Y-79550000D03*
X129862500Y-80500000D03*
X129862500Y-81450000D03*
X132137500Y-81450000D03*
X132137500Y-80500000D03*
X132137500Y-79550000D03*
G04 #@! TD*
D18*
G04 #@! TO.C,R9*
X125000000Y-57000000D03*
X125000000Y-55000000D03*
G04 #@! TD*
D36*
G04 #@! TO.C,H2*
X152527000Y-35687000D03*
G04 #@! TD*
D33*
G04 #@! TO.C,J3*
X104710000Y-94250000D03*
D12*
X107250000Y-94250000D03*
G04 #@! TD*
D34*
G04 #@! TO.C,TP6*
X151000000Y-75000000D03*
G04 #@! TD*
D13*
G04 #@! TO.C,J2*
X153500000Y-69500000D03*
D12*
X150960000Y-69500000D03*
X148420000Y-69500000D03*
G04 #@! TD*
D36*
G04 #@! TO.C,H3*
X62484000Y-100457000D03*
G04 #@! TD*
D37*
G04 #@! TO.C,C2*
X150817621Y-80500000D03*
D38*
X153317621Y-80500000D03*
G04 #@! TD*
D14*
G04 #@! TO.C,TP15*
X105750000Y-66750000D03*
G04 #@! TD*
D24*
G04 #@! TO.C,S1*
X65050000Y-60700000D03*
X65050000Y-62300000D03*
X60950000Y-62300000D03*
X60950000Y-60700000D03*
G04 #@! TD*
D33*
G04 #@! TO.C,J6*
X150960000Y-52250000D03*
D12*
X153500000Y-52250000D03*
G04 #@! TD*
D21*
G04 #@! TO.C,C25*
X150962500Y-88500000D03*
X153037500Y-88500000D03*
G04 #@! TD*
D10*
G04 #@! TO.C,R13*
X114500000Y-81500000D03*
X116500000Y-81500000D03*
G04 #@! TD*
D34*
G04 #@! TO.C,TP16*
X120500000Y-86500000D03*
G04 #@! TD*
D17*
G04 #@! TO.C,R3*
X94500000Y-85000000D03*
X92500000Y-85000000D03*
G04 #@! TD*
G04 #@! TO.C,R6*
X139500000Y-64000000D03*
X137500000Y-64000000D03*
G04 #@! TD*
D18*
G04 #@! TO.C,R5*
X111000000Y-86000000D03*
X111000000Y-84000000D03*
G04 #@! TD*
D32*
G04 #@! TO.C,TP19*
X144000000Y-77750000D03*
G04 #@! TD*
D11*
G04 #@! TO.C,C12*
X125000000Y-46962500D03*
X125000000Y-49037500D03*
G04 #@! TD*
G04 #@! TO.C,C10*
X101000000Y-72962500D03*
X101000000Y-75037500D03*
G04 #@! TD*
D14*
G04 #@! TO.C,TP3*
X147000000Y-51750000D03*
G04 #@! TD*
D36*
G04 #@! TO.C,H1*
X62484000Y-35687000D03*
G04 #@! TD*
D20*
G04 #@! TO.C,C23*
X84000000Y-46037500D03*
X84000000Y-43962500D03*
G04 #@! TD*
D33*
G04 #@! TO.C,J5*
X92329000Y-94107000D03*
D12*
X94869000Y-94107000D03*
G04 #@! TD*
D23*
G04 #@! TO.C,C29*
X94600500Y-77035000D03*
X92525500Y-77035000D03*
G04 #@! TD*
D11*
G04 #@! TO.C,C9*
X113500000Y-75962500D03*
X113500000Y-78037500D03*
G04 #@! TD*
D34*
G04 #@! TO.C,TP13*
X144250000Y-62750000D03*
G04 #@! TD*
D13*
G04 #@! TO.C,J1*
X118491000Y-94107000D03*
D12*
X115951000Y-94107000D03*
G04 #@! TD*
D39*
G04 #@! TO.C,U5*
X100102000Y-43815000D03*
X100102000Y-45085000D03*
X100102000Y-46355000D03*
X100102000Y-47625000D03*
X100102000Y-48895000D03*
X100102000Y-50165000D03*
X100102000Y-51435000D03*
X100102000Y-52705000D03*
X100102000Y-53975000D03*
X100102000Y-55245000D03*
X100102000Y-56515000D03*
X100102000Y-57785000D03*
X100102000Y-59055000D03*
X100102000Y-60325000D03*
D40*
X101867000Y-61575000D03*
X103137000Y-61575000D03*
X104407000Y-61575000D03*
X105677000Y-61575000D03*
X106947000Y-61575000D03*
X108217000Y-61575000D03*
X109487000Y-61575000D03*
X110757000Y-61575000D03*
X112027000Y-61575000D03*
X113297000Y-61575000D03*
X114567000Y-61575000D03*
X115837000Y-61575000D03*
D39*
X117602000Y-60325000D03*
X117602000Y-59055000D03*
X117602000Y-57785000D03*
X117602000Y-56515000D03*
X117602000Y-55245000D03*
X117602000Y-53975000D03*
X117602000Y-52705000D03*
X117602000Y-51435000D03*
X117602000Y-50165000D03*
X117602000Y-48895000D03*
X117602000Y-47625000D03*
X117602000Y-46355000D03*
X117602000Y-45085000D03*
X117602000Y-43815000D03*
D41*
X105952000Y-50835000D03*
X105952000Y-52235000D03*
X106652000Y-50135000D03*
X106652000Y-51535000D03*
X106652000Y-52935000D03*
X107352000Y-50835000D03*
D42*
X107352000Y-51535000D03*
D41*
X107352000Y-52235000D03*
X108052000Y-50135000D03*
X108052000Y-51535000D03*
X108052000Y-52935000D03*
X108752000Y-50835000D03*
X108752000Y-52235000D03*
G04 #@! TD*
D17*
G04 #@! TO.C,R2*
X86000000Y-85000000D03*
X84000000Y-85000000D03*
G04 #@! TD*
D20*
G04 #@! TO.C,C11*
X65975500Y-85459500D03*
X65975500Y-83384500D03*
G04 #@! TD*
G04 #@! TO.C,C22*
X89000000Y-46037500D03*
X89000000Y-43962500D03*
G04 #@! TD*
D11*
G04 #@! TO.C,C5*
X123500000Y-79962500D03*
X123500000Y-82037500D03*
G04 #@! TD*
D14*
G04 #@! TO.C,TP11*
X84000000Y-81000000D03*
G04 #@! TD*
G04 #@! TO.C,TP7*
X140500000Y-69500000D03*
G04 #@! TD*
D34*
G04 #@! TO.C,TP1*
X127500000Y-76500000D03*
G04 #@! TD*
D14*
G04 #@! TO.C,TP4*
X125000000Y-60500000D03*
G04 #@! TD*
G04 #@! TO.C,TP12*
X92500000Y-81000000D03*
G04 #@! TD*
D20*
G04 #@! TO.C,C7*
X138250000Y-77537500D03*
X138250000Y-75462500D03*
G04 #@! TD*
D34*
G04 #@! TO.C,TP14*
X94000000Y-45500000D03*
G04 #@! TD*
D14*
G04 #@! TO.C,TP9*
X68000000Y-49000000D03*
G04 #@! TD*
G04 #@! TO.C,TP8*
X76500000Y-51000000D03*
G04 #@! TD*
D32*
G04 #@! TO.C,TP18*
X72500000Y-45250000D03*
G04 #@! TD*
D21*
G04 #@! TO.C,C19*
X117888000Y-69035000D03*
X119963000Y-69035000D03*
G04 #@! TD*
D35*
G04 #@! TO.C,U3*
X107362500Y-78550000D03*
X107362500Y-79500000D03*
X107362500Y-80450000D03*
X109637500Y-80450000D03*
X109637500Y-79500000D03*
X109637500Y-78550000D03*
G04 #@! TD*
D36*
G04 #@! TO.C,H4*
X152527000Y-100457000D03*
G04 #@! TD*
M02*
